G04 Layer_Physical_Order=1*
G04 Layer_Color=255*
%FSLAX24Y24*%
%MOIN*%
G70*
G01*
G75*
%ADD10R,0.0433X0.0433*%
%ADD11R,0.0433X0.0433*%
%ADD12R,0.0748X0.0433*%
%ADD13R,0.0512X0.0335*%
%ADD14R,0.0177X0.0394*%
%ADD15R,0.0138X0.0138*%
%ADD16R,0.0335X0.0512*%
%ADD17R,0.0394X0.0354*%
%ADD18R,0.0472X0.0315*%
%ADD19R,0.0315X0.0472*%
%ADD20R,0.2500X0.1299*%
%ADD21R,0.2500X0.1500*%
%ADD22R,0.1598X0.1299*%
G04:AMPARAMS|DCode=23|XSize=35.4mil|YSize=63mil|CornerRadius=1.9mil|HoleSize=0mil|Usage=FLASHONLY|Rotation=0.000|XOffset=0mil|YOffset=0mil|HoleType=Round|Shape=RoundedRectangle|*
%AMROUNDEDRECTD23*
21,1,0.0354,0.0591,0,0,0.0*
21,1,0.0315,0.0630,0,0,0.0*
1,1,0.0039,0.0158,-0.0295*
1,1,0.0039,-0.0158,-0.0295*
1,1,0.0039,-0.0158,0.0295*
1,1,0.0039,0.0158,0.0295*
%
%ADD23ROUNDEDRECTD23*%
G04:AMPARAMS|DCode=24|XSize=9.8mil|YSize=19.7mil|CornerRadius=2mil|HoleSize=0mil|Usage=FLASHONLY|Rotation=90.000|XOffset=0mil|YOffset=0mil|HoleType=Round|Shape=RoundedRectangle|*
%AMROUNDEDRECTD24*
21,1,0.0098,0.0157,0,0,90.0*
21,1,0.0059,0.0197,0,0,90.0*
1,1,0.0039,0.0079,0.0030*
1,1,0.0039,0.0079,-0.0030*
1,1,0.0039,-0.0079,-0.0030*
1,1,0.0039,-0.0079,0.0030*
%
%ADD24ROUNDEDRECTD24*%
%ADD25R,0.0354X0.0276*%
%ADD26R,0.1142X0.0291*%
%ADD27R,0.0354X0.0315*%
%ADD28R,0.0354X0.0394*%
%ADD29R,0.0472X0.0689*%
%ADD30O,0.0748X0.0236*%
%ADD31R,0.0400X0.0090*%
%ADD32R,0.0090X0.0400*%
%ADD33R,0.2874X0.2874*%
%ADD34R,0.0512X0.0413*%
%ADD35R,0.0181X0.0350*%
%ADD36R,0.0350X0.0181*%
%ADD37R,0.0197X0.0886*%
%ADD38C,0.0100*%
%ADD39C,0.0060*%
%ADD40C,0.0120*%
%ADD41C,0.0350*%
%ADD42C,0.0200*%
%ADD43C,0.0130*%
%ADD44C,0.0170*%
%ADD45R,0.0591X0.0591*%
%ADD46C,0.0591*%
%ADD47R,0.1000X0.0450*%
%ADD48R,0.0550X0.1000*%
%ADD49C,0.0787*%
%ADD50C,0.0650*%
%ADD51C,0.0270*%
%ADD52C,0.1000*%
G36*
X17295Y16200D02*
X17310Y16200D01*
Y16140D01*
X17295Y16139D01*
Y16135D01*
X17293Y16136D01*
X17289Y16137D01*
X17283Y16137D01*
X17273Y16138D01*
X17205Y16135D01*
Y16140D01*
X17190Y16140D01*
Y16200D01*
X17205Y16201D01*
Y16205D01*
X17207Y16204D01*
X17211Y16203D01*
X17217Y16203D01*
X17227Y16202D01*
X17295Y16205D01*
Y16200D01*
D02*
G37*
G36*
X17889Y16389D02*
X17889Y16389D01*
Y16389D01*
X17891Y16388D01*
X17895Y16387D01*
X17900Y16386D01*
X17918Y16385D01*
X17993Y16383D01*
Y16323D01*
X17889Y16318D01*
Y16318D01*
X17888Y16319D01*
X17887Y16320D01*
X17886Y16321D01*
X17883Y16322D01*
X17880Y16322D01*
X17876Y16323D01*
X17866Y16323D01*
X17853Y16323D01*
Y16383D01*
X17860Y16384D01*
X17880Y16385D01*
X17883Y16385D01*
X17886Y16386D01*
X17887Y16387D01*
X17888Y16388D01*
X17889Y16389D01*
Y16389D01*
X17889Y16389D01*
D02*
G37*
G36*
X22924Y16219D02*
X22919Y16217D01*
X22915Y16214D01*
X22911Y16210D01*
X22908Y16205D01*
X22905Y16198D01*
X22903Y16190D01*
X22901Y16181D01*
X22900Y16170D01*
X22900Y16159D01*
X22837D01*
X22836Y16170D01*
X22835Y16181D01*
X22834Y16190D01*
X22832Y16198D01*
X22829Y16205D01*
X22826Y16210D01*
X22822Y16214D01*
X22817Y16217D01*
X22812Y16219D01*
X22807Y16220D01*
X22930D01*
X22924Y16219D01*
D02*
G37*
G36*
X17889Y16181D02*
X17950Y16180D01*
Y16120D01*
X17889Y16117D01*
Y16113D01*
X17888Y16114D01*
X17886Y16115D01*
X17883Y16116D01*
X17883Y16117D01*
X17845Y16115D01*
Y16120D01*
X17829Y16120D01*
Y16180D01*
X17840Y16180D01*
X17845Y16181D01*
Y16185D01*
X17847Y16184D01*
X17851Y16183D01*
X17857Y16183D01*
X17862Y16182D01*
X17867Y16183D01*
X17874Y16185D01*
X17879Y16187D01*
X17883Y16190D01*
X17886Y16193D01*
X17888Y16197D01*
X17889Y16200D01*
Y16181D01*
D02*
G37*
G36*
X16924Y16490D02*
X16925Y16479D01*
X16926Y16470D01*
X16928Y16462D01*
X16931Y16455D01*
X16934Y16450D01*
X16938Y16446D01*
X16943Y16443D01*
X16948Y16441D01*
X16953Y16440D01*
X16833D01*
X16839Y16441D01*
X16844Y16443D01*
X16849Y16446D01*
X16853Y16450D01*
X16856Y16455D01*
X16859Y16462D01*
X16861Y16470D01*
X16862Y16479D01*
X16863Y16490D01*
X16863Y16501D01*
X16923D01*
X16924Y16490D01*
D02*
G37*
G36*
X17889Y16507D02*
X17888Y16509D01*
X17886Y16511D01*
X17883Y16514D01*
X17879Y16515D01*
X17874Y16517D01*
X17867Y16518D01*
X17859Y16519D01*
X17840Y16520D01*
X17829Y16520D01*
Y16580D01*
X17840Y16580D01*
X17867Y16583D01*
X17874Y16584D01*
X17879Y16585D01*
X17883Y16587D01*
X17886Y16589D01*
X17888Y16591D01*
X17889Y16594D01*
Y16507D01*
D02*
G37*
G36*
X21838Y16318D02*
X21836Y16319D01*
X21832Y16320D01*
X21826Y16321D01*
X21809Y16322D01*
X21733Y16323D01*
Y16383D01*
X21838Y16389D01*
Y16318D01*
D02*
G37*
G36*
X15449Y16613D02*
X15448Y16609D01*
X15447Y16603D01*
X15446Y16586D01*
X15444Y16513D01*
X15448Y16436D01*
X15474D01*
X15469Y16435D01*
X15464Y16433D01*
X15459Y16430D01*
X15455Y16426D01*
X15452Y16421D01*
X15449Y16415D01*
X15450Y16410D01*
X15448D01*
X15447Y16406D01*
X15446Y16397D01*
X15445Y16386D01*
X15444Y16375D01*
X15384D01*
X15384Y16386D01*
X15383Y16397D01*
X15382Y16406D01*
X15381Y16410D01*
X15379D01*
X15380Y16412D01*
X15380Y16412D01*
X15380Y16414D01*
X15377Y16421D01*
X15374Y16426D01*
X15370Y16430D01*
X15365Y16433D01*
X15360Y16435D01*
X15354Y16436D01*
X15383D01*
X15383Y16439D01*
X15384Y16511D01*
X15379Y16615D01*
X15450D01*
X15449Y16613D01*
D02*
G37*
G36*
X22191Y16121D02*
X22189Y16122D01*
X22185Y16123D01*
X22180Y16124D01*
X22162Y16125D01*
X22087Y16127D01*
Y16187D01*
X22191Y16192D01*
Y16121D01*
D02*
G37*
G36*
X21893Y16001D02*
X21894Y15999D01*
X21897Y15997D01*
X21902Y15995D01*
X21907Y15993D01*
X21914Y15992D01*
X21921Y15991D01*
X21941Y15990D01*
X21952Y15990D01*
Y15930D01*
X21941Y15930D01*
X21914Y15928D01*
X21907Y15926D01*
X21902Y15925D01*
X21897Y15923D01*
X21894Y15921D01*
X21893Y15919D01*
X21892Y15916D01*
Y16004D01*
X21893Y16001D01*
D02*
G37*
G36*
X7566Y16039D02*
X7571D01*
X7570Y16037D01*
X7569Y16033D01*
X7568Y16027D01*
X7568Y16019D01*
X7568Y16014D01*
X7570Y16006D01*
X7573Y15999D01*
X7576Y15994D01*
X7580Y15990D01*
X7585Y15987D01*
X7590Y15985D01*
X7596Y15984D01*
X7567D01*
X7566Y15934D01*
X7506D01*
X7503Y15984D01*
X7476D01*
X7481Y15985D01*
X7486Y15987D01*
X7491Y15990D01*
X7495Y15994D01*
X7498Y15999D01*
X7501Y16006D01*
X7502Y16010D01*
X7500Y16039D01*
X7506D01*
X7506Y16045D01*
X7566D01*
X7566Y16039D01*
D02*
G37*
G36*
X24822Y15866D02*
X24850D01*
X24844Y15865D01*
X24839Y15864D01*
X24835Y15861D01*
X24831Y15856D01*
X24827Y15851D01*
X24825Y15844D01*
X24823Y15838D01*
X24825Y15795D01*
X24755D01*
X24756Y15797D01*
X24757Y15801D01*
X24757Y15807D01*
X24759Y15824D01*
X24759Y15828D01*
X24757Y15837D01*
X24755Y15844D01*
X24753Y15851D01*
X24749Y15856D01*
X24745Y15861D01*
X24741Y15864D01*
X24736Y15865D01*
X24730Y15866D01*
X24759D01*
X24760Y15900D01*
X24820D01*
X24822Y15866D01*
D02*
G37*
G36*
X22440Y15884D02*
X22436Y15897D01*
X22430Y15909D01*
X22424Y15920D01*
X22417Y15929D01*
X22410Y15937D01*
X22401Y15944D01*
X22392Y15949D01*
X22382Y15952D01*
X22370Y15954D01*
X22359Y15955D01*
X22393Y16015D01*
X22401Y16015D01*
X22410Y16016D01*
X22432Y16020D01*
X22459Y16027D01*
X22508Y16041D01*
X22526Y16048D01*
X22440Y15884D01*
D02*
G37*
G36*
X17447Y16240D02*
X17455Y16231D01*
X17464Y16224D01*
X17473Y16218D01*
X17483Y16212D01*
X17494Y16208D01*
X17505Y16204D01*
X17517Y16202D01*
X17529Y16200D01*
X17543Y16200D01*
X17526Y16100D01*
X17514Y16100D01*
X17501Y16098D01*
X17489Y16097D01*
X17477Y16094D01*
X17465Y16091D01*
X17454Y16086D01*
X17443Y16082D01*
X17432Y16076D01*
X17421Y16069D01*
X17411Y16062D01*
X17439Y16249D01*
X17447Y16240D01*
D02*
G37*
G36*
X21893Y16198D02*
X21894Y16195D01*
X21897Y16193D01*
X21902Y16192D01*
X21907Y16190D01*
X21914Y16189D01*
X21921Y16188D01*
X21941Y16187D01*
X21952Y16187D01*
Y16127D01*
X21941Y16126D01*
X21914Y16124D01*
X21907Y16123D01*
X21902Y16122D01*
X21897Y16120D01*
X21894Y16118D01*
X21893Y16115D01*
X21892Y16113D01*
Y16200D01*
X21893Y16198D01*
D02*
G37*
G36*
X17889Y15991D02*
X17960Y15990D01*
Y15930D01*
X17889Y15926D01*
Y15916D01*
X17888Y15919D01*
X17886Y15921D01*
X17883Y15923D01*
X17879Y15925D01*
X17877Y15926D01*
X17855Y15925D01*
Y15929D01*
X17840Y15930D01*
X17829Y15930D01*
Y15990D01*
X17840Y15990D01*
X17855Y15991D01*
Y15995D01*
X17857Y15994D01*
X17861Y15993D01*
X17867Y15993D01*
X17869Y15992D01*
X17874Y15993D01*
X17879Y15995D01*
X17883Y15997D01*
X17886Y15999D01*
X17888Y16001D01*
X17889Y16004D01*
Y15991D01*
D02*
G37*
G36*
X17067Y16080D02*
X17068Y16078D01*
X17070Y16076D01*
X17072Y16075D01*
X17075Y16075D01*
Y16074D01*
X17077Y16073D01*
X17082Y16072D01*
X17088Y16071D01*
X17094Y16070D01*
X17110Y16070D01*
Y16010D01*
X17102Y16010D01*
X17088Y16009D01*
X17082Y16008D01*
X17077Y16007D01*
X17075Y16006D01*
Y16005D01*
X17073Y16005D01*
X17070Y16004D01*
X17068Y16002D01*
X17067Y16000D01*
X17066Y15997D01*
Y16007D01*
X17063Y16007D01*
X17046Y16009D01*
X16970Y16010D01*
Y16070D01*
X17066Y16075D01*
Y16083D01*
X17067Y16080D01*
D02*
G37*
G36*
X23210Y16510D02*
X23110Y16389D01*
X23109Y16409D01*
X23107Y16428D01*
X23104Y16447D01*
X23099Y16465D01*
X23092Y16482D01*
X23085Y16499D01*
X23075Y16515D01*
X23065Y16531D01*
X23053Y16546D01*
X23039Y16560D01*
X23098Y16643D01*
X23100Y16641D01*
X23102Y16642D01*
X23104Y16646D01*
X23106Y16651D01*
X23110Y16712D01*
X23110Y16731D01*
X23210Y16510D01*
D02*
G37*
G36*
X7460Y17309D02*
X7455Y17308D01*
X7451Y17305D01*
X7447Y17300D01*
X7443Y17295D01*
X7441Y17288D01*
X7439Y17280D01*
X7437Y17271D01*
X7436Y17261D01*
X7436Y17260D01*
X7436Y17259D01*
X7437Y17249D01*
X7439Y17240D01*
X7441Y17232D01*
X7443Y17225D01*
X7447Y17220D01*
X7451Y17215D01*
X7455Y17212D01*
X7460Y17211D01*
X7466Y17210D01*
X7346D01*
X7352Y17211D01*
X7357Y17212D01*
X7361Y17215D01*
X7365Y17220D01*
X7368Y17225D01*
X7371Y17232D01*
X7373Y17240D01*
X7375Y17249D01*
X7376Y17259D01*
X7376Y17260D01*
X7376Y17261D01*
X7375Y17271D01*
X7373Y17280D01*
X7371Y17288D01*
X7368Y17295D01*
X7365Y17300D01*
X7361Y17305D01*
X7357Y17308D01*
X7352Y17309D01*
X7346Y17310D01*
X7466D01*
X7460Y17309D01*
D02*
G37*
G36*
X18379Y17319D02*
X18384D01*
X18384Y17321D01*
X18384Y17332D01*
X18444D01*
X18444Y17321D01*
X18444Y17319D01*
X18449D01*
X18448Y17317D01*
X18447Y17313D01*
X18447Y17307D01*
X18446Y17298D01*
X18446Y17294D01*
X18447Y17287D01*
X18449Y17282D01*
X18451Y17278D01*
X18453Y17275D01*
X18455Y17273D01*
X18458Y17272D01*
X18445D01*
X18444Y17214D01*
X18384D01*
X18381Y17272D01*
X18370D01*
X18373Y17273D01*
X18375Y17275D01*
X18377Y17278D01*
X18379Y17282D01*
X18380Y17286D01*
X18379Y17319D01*
X18366Y17330D01*
X18353Y17341D01*
X18338Y17350D01*
X18323Y17358D01*
X18308Y17365D01*
X18291Y17370D01*
X18274Y17374D01*
X18256Y17378D01*
X18237Y17379D01*
X18217Y17380D01*
X18338Y17430D01*
X18373Y17465D01*
X18379Y17319D01*
D02*
G37*
G36*
X20806Y17321D02*
X20807Y17308D01*
X20812D01*
X20811Y17306D01*
X20810Y17303D01*
X20809Y17297D01*
X20809Y17293D01*
X20810Y17287D01*
X20811Y17282D01*
X20813Y17278D01*
X20815Y17275D01*
X20817Y17273D01*
X20820Y17272D01*
X20807D01*
X20806Y17204D01*
X20746D01*
X20743Y17272D01*
X20732D01*
X20735Y17273D01*
X20737Y17275D01*
X20739Y17278D01*
X20741Y17282D01*
X20742Y17285D01*
X20741Y17308D01*
X20745D01*
X20746Y17321D01*
X20746Y17332D01*
X20806D01*
X20806Y17321D01*
D02*
G37*
G36*
X21003D02*
X21004Y17312D01*
X21008D01*
X21007Y17310D01*
X21007Y17306D01*
X21006Y17300D01*
X21005Y17294D01*
X21005Y17294D01*
X21007Y17287D01*
X21008Y17282D01*
X21010Y17278D01*
X21012Y17275D01*
X21014Y17273D01*
X21017Y17272D01*
X21004D01*
X21003Y17207D01*
X20943D01*
X20940Y17272D01*
X20929D01*
X20932Y17273D01*
X20934Y17275D01*
X20936Y17278D01*
X20938Y17282D01*
X20939Y17285D01*
X20938Y17312D01*
X20942D01*
X20943Y17321D01*
X20943Y17332D01*
X21003D01*
X21003Y17321D01*
D02*
G37*
G36*
X20610D02*
X20612Y17294D01*
X20613Y17287D01*
X20615Y17282D01*
X20616Y17278D01*
X20618Y17275D01*
X20621Y17273D01*
X20623Y17272D01*
X20536D01*
X20538Y17273D01*
X20541Y17275D01*
X20543Y17278D01*
X20545Y17282D01*
X20546Y17287D01*
X20548Y17294D01*
X20549Y17302D01*
X20550Y17321D01*
X20550Y17332D01*
X20610D01*
X20610Y17321D01*
D02*
G37*
G36*
X21397D02*
X21399Y17294D01*
X21400Y17287D01*
X21402Y17282D01*
X21404Y17278D01*
X21406Y17275D01*
X21408Y17273D01*
X21411Y17272D01*
X21323D01*
X21326Y17273D01*
X21328Y17275D01*
X21330Y17278D01*
X21332Y17282D01*
X21333Y17287D01*
X21335Y17294D01*
X21336Y17302D01*
X21337Y17321D01*
X21337Y17332D01*
X21397D01*
X21397Y17321D01*
D02*
G37*
G36*
X20417Y17365D02*
X20416Y17361D01*
X20415Y17356D01*
X20414Y17338D01*
X20413Y17311D01*
X20415Y17294D01*
X20416Y17287D01*
X20417Y17282D01*
X20419Y17278D01*
X20421Y17275D01*
X20424Y17273D01*
X20426Y17272D01*
X20413D01*
X20413Y17263D01*
X20353D01*
X20352Y17272D01*
X20339D01*
X20341Y17273D01*
X20344Y17275D01*
X20346Y17278D01*
X20348Y17282D01*
X20349Y17287D01*
X20350Y17294D01*
X20351Y17297D01*
X20347Y17367D01*
X20418D01*
X20417Y17365D01*
D02*
G37*
G36*
X20019Y17321D02*
X20021Y17294D01*
X20022Y17287D01*
X20024Y17282D01*
X20026Y17278D01*
X20028Y17275D01*
X20030Y17273D01*
X20033Y17272D01*
X19945D01*
X19948Y17273D01*
X19950Y17275D01*
X19952Y17278D01*
X19954Y17282D01*
X19955Y17287D01*
X19957Y17294D01*
X19958Y17302D01*
X19959Y17321D01*
X19959Y17332D01*
X20019D01*
X20019Y17321D01*
D02*
G37*
G36*
X18641D02*
X18642Y17304D01*
X18646D01*
X18645Y17302D01*
X18644Y17298D01*
X18643Y17292D01*
X18643Y17292D01*
X18644Y17287D01*
X18646Y17282D01*
X18648Y17278D01*
X18650Y17275D01*
X18652Y17273D01*
X18655Y17272D01*
X18642D01*
X18641Y17199D01*
X18581D01*
X18577Y17272D01*
X18567D01*
X18570Y17273D01*
X18572Y17275D01*
X18574Y17278D01*
X18576Y17282D01*
X18577Y17284D01*
X18575Y17304D01*
X18580D01*
X18581Y17321D01*
X18581Y17332D01*
X18641D01*
X18641Y17321D01*
D02*
G37*
G36*
X22694Y16830D02*
X22693Y16836D01*
X22691Y16841D01*
X22688Y16845D01*
X22684Y16849D01*
X22678Y16853D01*
X22672Y16855D01*
X22664Y16857D01*
X22655Y16859D01*
X22644Y16860D01*
X22633Y16860D01*
Y16920D01*
X22644Y16920D01*
X22655Y16921D01*
X22664Y16923D01*
X22672Y16925D01*
X22678Y16927D01*
X22684Y16931D01*
X22688Y16935D01*
X22691Y16939D01*
X22693Y16944D01*
X22694Y16950D01*
Y16830D01*
D02*
G37*
G36*
X18059Y16931D02*
X18046Y16926D01*
X18034Y16921D01*
X18024Y16916D01*
X18015Y16909D01*
X18007Y16903D01*
X18001Y16895D01*
X17996Y16887D01*
X17993Y16879D01*
X17991Y16870D01*
X17990Y16860D01*
X17930Y16878D01*
X17930Y16886D01*
X17929Y16896D01*
X17927Y16906D01*
X17921Y16930D01*
X17912Y16960D01*
X17894Y17013D01*
X18059Y16931D01*
D02*
G37*
G36*
X21893Y16788D02*
X21894Y16786D01*
X21897Y16784D01*
X21902Y16782D01*
X21905Y16781D01*
X21932Y16783D01*
Y16778D01*
X21941Y16777D01*
X21952Y16777D01*
Y16717D01*
X21941Y16717D01*
X21932Y16716D01*
Y16712D01*
X21930Y16713D01*
X21926Y16714D01*
X21920Y16715D01*
X21914Y16715D01*
X21914Y16715D01*
X21907Y16714D01*
X21902Y16712D01*
X21897Y16710D01*
X21894Y16708D01*
X21893Y16706D01*
X21892Y16703D01*
Y16716D01*
X21827Y16717D01*
Y16777D01*
X21892Y16781D01*
Y16791D01*
X21893Y16788D01*
D02*
G37*
G36*
X18038Y16825D02*
X18046Y16818D01*
X18055Y16811D01*
X18064Y16805D01*
X18072Y16801D01*
X18081Y16797D01*
X18089Y16794D01*
X18097Y16792D01*
X18106Y16790D01*
X18114Y16790D01*
X17944D01*
X17952Y16790D01*
X17958Y16792D01*
X17962Y16794D01*
X17965Y16797D01*
X17966Y16801D01*
X17965Y16805D01*
X17962Y16811D01*
X17958Y16818D01*
X17952Y16825D01*
X17944Y16833D01*
X18029D01*
X18038Y16825D01*
D02*
G37*
G36*
X22617Y17066D02*
X22504Y16958D01*
X22476Y17134D01*
X22483Y17129D01*
X22491Y17125D01*
X22499Y17123D01*
X22508Y17123D01*
X22516Y17124D01*
X22525Y17127D01*
X22535Y17131D01*
X22544Y17138D01*
X22554Y17145D01*
X22564Y17155D01*
X22617Y17066D01*
D02*
G37*
G36*
X19826Y17241D02*
X19825Y17237D01*
X19825Y17231D01*
X19823Y17214D01*
X19822Y17138D01*
X19762D01*
X19757Y17243D01*
X19827D01*
X19826Y17241D01*
D02*
G37*
G36*
X25125Y17115D02*
X25123Y17116D01*
X25119Y17117D01*
X25113Y17117D01*
X25096Y17119D01*
X25020Y17120D01*
Y17180D01*
X25125Y17185D01*
Y17115D01*
D02*
G37*
G36*
X25487Y17184D02*
X25491Y17183D01*
X25497Y17183D01*
X25514Y17181D01*
X25590Y17180D01*
Y17120D01*
X25485Y17115D01*
Y17185D01*
X25487Y17184D01*
D02*
G37*
G36*
X17889Y13827D02*
X17891Y13827D01*
X17909Y13826D01*
X17984Y13824D01*
Y13764D01*
X17889Y13759D01*
Y13751D01*
X17888Y13753D01*
X17887Y13756D01*
X17885Y13758D01*
X17882Y13759D01*
X17880Y13759D01*
Y13760D01*
X17878Y13761D01*
X17873Y13762D01*
X17867Y13763D01*
X17860Y13764D01*
X17844Y13764D01*
Y13824D01*
X17853Y13825D01*
X17867Y13826D01*
X17873Y13827D01*
X17878Y13828D01*
X17880Y13829D01*
Y13830D01*
X17881Y13829D01*
X17882Y13829D01*
X17885Y13831D01*
X17887Y13833D01*
X17888Y13836D01*
X17889Y13838D01*
Y13827D01*
D02*
G37*
G36*
Y13947D02*
X17888Y13950D01*
X17886Y13952D01*
X17883Y13954D01*
X17879Y13956D01*
X17874Y13958D01*
X17867Y13959D01*
X17859Y13960D01*
X17840Y13961D01*
X17829Y13961D01*
Y14021D01*
X17840Y14021D01*
X17867Y14023D01*
X17874Y14025D01*
X17879Y14026D01*
X17883Y14028D01*
X17886Y14030D01*
X17888Y14032D01*
X17889Y14035D01*
Y13947D01*
D02*
G37*
G36*
X23481Y13866D02*
X23483Y13862D01*
X23485Y13859D01*
X23489Y13857D01*
X23492Y13855D01*
X23495Y13855D01*
Y13854D01*
X23498Y13853D01*
X23505Y13852D01*
X23512Y13851D01*
X23521Y13850D01*
X23530Y13850D01*
Y13790D01*
X23521Y13790D01*
X23505Y13788D01*
X23498Y13787D01*
X23495Y13786D01*
Y13785D01*
X23493Y13785D01*
X23493Y13785D01*
X23489Y13783D01*
X23485Y13781D01*
X23483Y13778D01*
X23481Y13774D01*
X23481Y13771D01*
Y13788D01*
X23466Y13789D01*
X23390Y13790D01*
Y13850D01*
X23481Y13855D01*
Y13869D01*
X23481Y13866D01*
D02*
G37*
G36*
X22041Y13699D02*
X22029Y13711D01*
X22005Y13732D01*
X21993Y13741D01*
X21982Y13748D01*
X21971Y13754D01*
X21959Y13758D01*
X21948Y13762D01*
X21937Y13764D01*
X21935Y13764D01*
X21914Y13762D01*
X21907Y13761D01*
X21902Y13759D01*
X21897Y13758D01*
X21894Y13756D01*
X21893Y13753D01*
X21892Y13751D01*
Y13838D01*
X21893Y13836D01*
X21894Y13833D01*
X21897Y13831D01*
X21902Y13829D01*
X21907Y13828D01*
X21914Y13827D01*
X21921Y13826D01*
X21936Y13825D01*
X21939Y13825D01*
X21950Y13827D01*
X21961Y13830D01*
X21972Y13835D01*
X21984Y13840D01*
X21996Y13847D01*
X22008Y13855D01*
X22021Y13865D01*
X22047Y13888D01*
X22041Y13699D01*
D02*
G37*
G36*
X22146Y14055D02*
X22128Y14054D01*
X22095Y14050D01*
X22081Y14047D01*
X22068Y14043D01*
X22055Y14039D01*
X22044Y14034D01*
X22034Y14028D01*
X22025Y14022D01*
X22017Y14015D01*
X21972Y14055D01*
X21980Y14063D01*
X21986Y14072D01*
X21992Y14082D01*
X21996Y14094D01*
X22000Y14106D01*
X22003Y14119D01*
X22005Y14133D01*
X22006Y14148D01*
X22006Y14164D01*
X22005Y14182D01*
X22146Y14055D01*
D02*
G37*
G36*
X16911Y14361D02*
X16914Y14352D01*
X16919Y14345D01*
X16927Y14338D01*
X16936Y14332D01*
X16947Y14328D01*
X16960Y14325D01*
X16975Y14322D01*
X16992Y14320D01*
X17012Y14320D01*
Y14220D01*
X16992Y14219D01*
X16975Y14218D01*
X16960Y14216D01*
X16947Y14212D01*
X16936Y14208D01*
X16927Y14202D01*
X16919Y14195D01*
X16914Y14188D01*
X16911Y14180D01*
X16910Y14170D01*
Y14370D01*
X16911Y14361D01*
D02*
G37*
G36*
X21893Y14032D02*
X21894Y14030D01*
X21897Y14028D01*
X21901Y14026D01*
X21907Y14025D01*
X21913Y14023D01*
X21921Y14023D01*
X21940Y14021D01*
X21951Y14021D01*
Y13961D01*
X21940Y13961D01*
X21913Y13959D01*
X21907Y13958D01*
X21901Y13956D01*
X21897Y13954D01*
X21894Y13952D01*
X21893Y13950D01*
X21892Y13947D01*
Y14035D01*
X21893Y14032D01*
D02*
G37*
G36*
X17421Y14084D02*
X17412Y14074D01*
X17404Y14064D01*
X17398Y14054D01*
X17393Y14044D01*
X17390Y14034D01*
X17388Y14024D01*
X17387Y14014D01*
X17388Y14006D01*
X17395Y14002D01*
X17405Y13996D01*
X17416Y13991D01*
X17427Y13987D01*
X17439Y13984D01*
X17451Y13982D01*
X17463Y13980D01*
X17476Y13980D01*
Y13960D01*
X17483Y13960D01*
Y13900D01*
X17476Y13900D01*
Y13880D01*
X17463Y13880D01*
X17451Y13878D01*
X17439Y13876D01*
X17427Y13873D01*
X17416Y13869D01*
X17405Y13864D01*
X17395Y13858D01*
X17385Y13852D01*
X17375Y13844D01*
X17366Y13836D01*
Y13898D01*
X17305Y13895D01*
Y13965D01*
X17307Y13964D01*
X17311Y13963D01*
X17317Y13963D01*
X17334Y13961D01*
X17366Y13961D01*
Y13995D01*
X17219Y14055D01*
X17230Y14060D01*
X17250Y14070D01*
X17260Y14076D01*
X17280Y14089D01*
X17290Y14097D01*
X17308Y14113D01*
X17318Y14122D01*
X17421Y14084D01*
D02*
G37*
G36*
X21433Y16642D02*
Y16445D01*
Y16248D01*
Y16052D01*
Y15855D01*
Y15658D01*
Y15461D01*
Y15264D01*
Y15067D01*
Y14871D01*
Y14674D01*
Y14477D01*
Y14280D01*
Y14083D01*
Y13886D01*
Y13728D01*
X18348D01*
Y13886D01*
Y14083D01*
Y14280D01*
Y14477D01*
Y14674D01*
Y14871D01*
Y15067D01*
Y15264D01*
Y15461D01*
Y15658D01*
Y15855D01*
Y16052D01*
Y16248D01*
Y16445D01*
Y16642D01*
Y16814D01*
X21433D01*
Y16642D01*
D02*
G37*
G36*
X21548Y11950D02*
Y11544D01*
X21668D01*
Y11382D01*
X21666Y11380D01*
X21658Y11337D01*
X21658Y11337D01*
Y11220D01*
X21612D01*
Y10538D01*
X21562Y10517D01*
X21428Y10650D01*
Y11220D01*
X21360D01*
X21349Y11236D01*
X21349Y11236D01*
X21292Y11293D01*
Y11754D01*
X21487Y11949D01*
X21487Y11949D01*
X21498Y11965D01*
X21548Y11950D01*
D02*
G37*
G36*
X12244Y11440D02*
X12242Y11441D01*
X12238Y11442D01*
X12232Y11443D01*
X12215Y11444D01*
X12139Y11445D01*
Y11505D01*
X12244Y11511D01*
Y11440D01*
D02*
G37*
G36*
X20768Y9131D02*
X20760Y9128D01*
X20753Y9123D01*
X20747Y9116D01*
X20742Y9107D01*
X20738Y9096D01*
X20734Y9083D01*
X20732Y9068D01*
X20730Y9051D01*
X20730Y9032D01*
X20630D01*
X20630Y9051D01*
X20628Y9068D01*
X20626Y9083D01*
X20622Y9096D01*
X20618Y9107D01*
X20613Y9116D01*
X20607Y9123D01*
X20600Y9128D01*
X20592Y9131D01*
X20583Y9132D01*
X20777D01*
X20768Y9131D01*
D02*
G37*
G36*
X19685Y11925D02*
X19721Y11901D01*
X19743Y11896D01*
Y11728D01*
X20297D01*
Y12137D01*
X20343Y12156D01*
X20383Y12116D01*
X20419Y12091D01*
X20462Y12083D01*
X20462Y12083D01*
X20629D01*
X20891Y11821D01*
X20927Y11796D01*
X20970Y11788D01*
X20970Y11788D01*
X21068D01*
Y11420D01*
X21062Y11419D01*
X21026Y11394D01*
X20957Y11326D01*
X20957Y11326D01*
X20957Y11326D01*
X20851Y11220D01*
X20612D01*
Y10980D01*
X20123Y10492D01*
X19754D01*
Y10372D01*
X19230D01*
X19230Y10372D01*
X19230Y10372D01*
X19069D01*
X19032Y10403D01*
Y10957D01*
X19022D01*
Y11171D01*
X19344D01*
Y11724D01*
X18929D01*
X18548Y12106D01*
X18569Y12156D01*
X19344D01*
Y12201D01*
X19390Y12220D01*
X19685Y11925D01*
D02*
G37*
G36*
X16699Y13580D02*
X16698Y13576D01*
X16697Y13570D01*
X16696Y13553D01*
X16694Y13477D01*
X16634D01*
X16629Y13582D01*
X16700D01*
X16699Y13580D01*
D02*
G37*
G36*
X21957Y13687D02*
X21964Y13682D01*
X21983Y13664D01*
X21994Y13654D01*
X21998Y13652D01*
X21999Y13649D01*
X22049Y13616D01*
X22034Y13566D01*
X21948D01*
X21948Y13566D01*
X21905Y13558D01*
X21868Y13533D01*
X21868Y13533D01*
X21329Y12994D01*
X21304Y12957D01*
X21296Y12915D01*
X21296Y12915D01*
Y12660D01*
X21246Y12639D01*
X21116Y12769D01*
X21112Y12785D01*
X21117Y12830D01*
X21131Y12839D01*
X21174Y12904D01*
X21189Y12980D01*
X21174Y13056D01*
X21131Y13121D01*
X21075Y13158D01*
X21079Y13197D01*
X21083Y13208D01*
X21472D01*
Y13689D01*
X21874D01*
X21877Y13687D01*
X21885Y13689D01*
X21892Y13686D01*
X21900Y13689D01*
X21901Y13689D01*
X21902Y13689D01*
X21953D01*
X21957Y13687D01*
D02*
G37*
G36*
X11482Y11506D02*
X11495Y11505D01*
Y11445D01*
X11482Y11445D01*
Y11415D01*
X11482Y11421D01*
X11480Y11426D01*
X11477Y11431D01*
X11473Y11435D01*
X11467Y11438D01*
X11460Y11441D01*
X11452Y11443D01*
X11450Y11443D01*
X11390Y11440D01*
Y11511D01*
X11392Y11510D01*
X11396Y11509D01*
X11402Y11508D01*
X11419Y11507D01*
X11440Y11506D01*
X11443Y11507D01*
X11452Y11508D01*
X11460Y11510D01*
X11467Y11513D01*
X11473Y11516D01*
X11477Y11520D01*
X11480Y11525D01*
X11482Y11530D01*
X11482Y11535D01*
Y11506D01*
D02*
G37*
G36*
X19288Y13170D02*
X19296Y13127D01*
X19321Y13091D01*
X19368Y13044D01*
Y12987D01*
X19368Y12987D01*
X19376Y12945D01*
X19401Y12908D01*
X19759Y12549D01*
X19761Y12539D01*
X19786Y12503D01*
X19962Y12327D01*
X19942Y12281D01*
X19743D01*
Y12249D01*
X19697Y12230D01*
X19479Y12448D01*
X19443Y12472D01*
X19422Y12476D01*
X19351Y12547D01*
X19344Y12552D01*
Y12709D01*
X19022D01*
Y13034D01*
X19084Y13095D01*
X19108Y13132D01*
X19117Y13175D01*
X19144Y13208D01*
X19257D01*
X19288Y13170D01*
D02*
G37*
G36*
X16831Y14292D02*
X16828Y14290D01*
X16823Y14284D01*
X16822Y14281D01*
X16820Y14279D01*
X16818Y14276D01*
X16817Y14273D01*
X16816Y14270D01*
X16816Y14267D01*
X16815Y14265D01*
X16760Y14320D01*
X16763Y14320D01*
X16766Y14321D01*
X16769Y14322D01*
X16771Y14323D01*
X16774Y14324D01*
X16777Y14326D01*
X16780Y14328D01*
X16783Y14330D01*
X16785Y14332D01*
X16788Y14335D01*
X16831Y14292D01*
D02*
G37*
G36*
X17889Y15596D02*
X17894Y15596D01*
Y15536D01*
X17889Y15536D01*
Y15522D01*
X17888Y15525D01*
X17886Y15527D01*
X17883Y15529D01*
X17879Y15531D01*
X17874Y15533D01*
X17867Y15534D01*
X17862Y15534D01*
X17789Y15531D01*
Y15601D01*
X17791Y15600D01*
X17795Y15599D01*
X17801Y15599D01*
X17818Y15597D01*
X17849Y15597D01*
X17867Y15598D01*
X17874Y15600D01*
X17879Y15601D01*
X17883Y15603D01*
X17886Y15605D01*
X17888Y15607D01*
X17889Y15610D01*
Y15596D01*
D02*
G37*
G36*
X15766Y15555D02*
X15907Y15557D01*
X15902Y15551D01*
X15898Y15545D01*
X15896Y15539D01*
X15896Y15532D01*
X15897Y15524D01*
X15900Y15516D01*
X15905Y15507D01*
X15911Y15498D01*
X15919Y15488D01*
X15929Y15478D01*
X15832Y15433D01*
X15747Y15540D01*
X15677Y15557D01*
X15667Y15559D01*
X15658Y15557D01*
X15651Y15555D01*
X15644Y15552D01*
X15638Y15549D01*
X15634Y15545D01*
X15631Y15541D01*
X15629Y15536D01*
X15628Y15530D01*
Y15560D01*
X15610Y15560D01*
Y15620D01*
X15611Y15620D01*
X15622Y15621D01*
X15628Y15622D01*
Y15650D01*
X15629Y15644D01*
X15631Y15639D01*
X15634Y15635D01*
X15638Y15631D01*
X15644Y15627D01*
X15645Y15627D01*
X15652Y15631D01*
X15661Y15638D01*
X15668Y15645D01*
X15675Y15655D01*
X15680Y15665D01*
X15685Y15677D01*
X15689Y15691D01*
X15766Y15555D01*
D02*
G37*
G36*
X21893Y15410D02*
X21894Y15408D01*
X21897Y15406D01*
X21902Y15404D01*
X21907Y15403D01*
X21914Y15401D01*
X21921Y15400D01*
X21941Y15399D01*
X21952Y15399D01*
Y15339D01*
X21941Y15339D01*
X21914Y15337D01*
X21907Y15336D01*
X21902Y15334D01*
X21897Y15332D01*
X21894Y15330D01*
X21893Y15328D01*
X21892Y15325D01*
Y15413D01*
X21893Y15410D01*
D02*
G37*
G36*
X22440Y15420D02*
X22440Y15420D01*
X22438Y15420D01*
X22390Y15420D01*
Y15520D01*
X22440Y15520D01*
Y15420D01*
D02*
G37*
G36*
X22032Y15668D02*
X22019Y15680D01*
X21995Y15701D01*
X21984Y15709D01*
X21972Y15717D01*
X21961Y15722D01*
X21950Y15727D01*
X21938Y15730D01*
X21929Y15732D01*
X21914Y15731D01*
X21907Y15729D01*
X21902Y15728D01*
X21897Y15726D01*
X21894Y15724D01*
X21893Y15722D01*
X21892Y15719D01*
Y15807D01*
X21893Y15804D01*
X21894Y15802D01*
X21897Y15800D01*
X21902Y15798D01*
X21907Y15796D01*
X21914Y15795D01*
X21921Y15794D01*
X21929Y15794D01*
X21940Y15795D01*
X21951Y15799D01*
X21962Y15803D01*
X21974Y15809D01*
X21986Y15816D01*
X21998Y15824D01*
X22010Y15834D01*
X22036Y15857D01*
X22032Y15668D01*
D02*
G37*
G36*
X16719Y15792D02*
X16734Y15791D01*
X16810Y15790D01*
Y15730D01*
X16719Y15725D01*
Y15711D01*
X16719Y15714D01*
X16717Y15718D01*
X16715Y15720D01*
X16712Y15723D01*
X16708Y15725D01*
X16705Y15725D01*
Y15726D01*
X16702Y15727D01*
X16695Y15728D01*
X16688Y15729D01*
X16679Y15730D01*
X16670Y15730D01*
Y15790D01*
X16679Y15790D01*
X16695Y15792D01*
X16702Y15793D01*
X16705Y15794D01*
Y15795D01*
X16707Y15795D01*
X16707Y15795D01*
X16712Y15797D01*
X16715Y15800D01*
X16717Y15802D01*
X16719Y15806D01*
X16719Y15809D01*
Y15792D01*
D02*
G37*
G36*
X17507Y15808D02*
X17569Y15798D01*
X17585Y15796D01*
X17648Y15793D01*
X17665Y15733D01*
X17653Y15732D01*
X17642Y15730D01*
X17632Y15727D01*
X17623Y15722D01*
X17616Y15716D01*
X17609Y15708D01*
X17604Y15699D01*
X17599Y15689D01*
X17596Y15678D01*
X17594Y15665D01*
X17491Y15811D01*
X17507Y15808D01*
D02*
G37*
G36*
X17889Y15719D02*
X17888Y15722D01*
X17886Y15724D01*
X17883Y15726D01*
X17879Y15728D01*
X17874Y15729D01*
X17867Y15731D01*
X17859Y15732D01*
X17840Y15733D01*
X17829Y15733D01*
Y15793D01*
X17840Y15793D01*
X17867Y15795D01*
X17874Y15796D01*
X17879Y15798D01*
X17883Y15800D01*
X17886Y15802D01*
X17888Y15804D01*
X17889Y15807D01*
Y15719D01*
D02*
G37*
G36*
X15447Y15376D02*
X15474D01*
X15469Y15375D01*
X15464Y15373D01*
X15459Y15370D01*
X15455Y15366D01*
X15452Y15361D01*
X15449Y15354D01*
X15448Y15350D01*
X15450Y15321D01*
X15444D01*
X15444Y15315D01*
X15384D01*
X15384Y15321D01*
X15379D01*
X15380Y15323D01*
X15381Y15327D01*
X15382Y15333D01*
X15382Y15341D01*
X15382Y15346D01*
X15380Y15354D01*
X15377Y15361D01*
X15374Y15366D01*
X15370Y15370D01*
X15365Y15373D01*
X15360Y15375D01*
X15354Y15376D01*
X15383D01*
X15384Y15426D01*
X15444D01*
X15447Y15376D01*
D02*
G37*
G36*
X22549Y14496D02*
X22536Y14508D01*
X22512Y14528D01*
X22500Y14537D01*
X22488Y14544D01*
X22479Y14548D01*
Y14530D01*
X22479Y14536D01*
X22477Y14541D01*
X22474Y14545D01*
X22470Y14549D01*
X22464Y14553D01*
X22458Y14555D01*
X22453Y14557D01*
X22415Y14555D01*
Y14625D01*
X22417Y14624D01*
X22421Y14623D01*
X22427Y14623D01*
X22442Y14621D01*
X22450Y14623D01*
X22458Y14625D01*
X22464Y14627D01*
X22470Y14631D01*
X22474Y14635D01*
X22477Y14639D01*
X22479Y14644D01*
X22479Y14650D01*
Y14632D01*
X22488Y14636D01*
X22500Y14643D01*
X22512Y14652D01*
X22524Y14661D01*
X22536Y14672D01*
X22549Y14684D01*
Y14496D01*
D02*
G37*
G36*
X15429Y14827D02*
X15428Y14823D01*
X15427Y14817D01*
X15426Y14800D01*
X15425Y14776D01*
X15426Y14773D01*
X15427Y14764D01*
X15429Y14756D01*
X15432Y14749D01*
X15435Y14744D01*
X15439Y14740D01*
X15444Y14737D01*
X15449Y14735D01*
X15454Y14734D01*
X15424D01*
X15424Y14724D01*
X15364D01*
X15364Y14734D01*
X15334D01*
X15340Y14735D01*
X15345Y14737D01*
X15350Y14740D01*
X15354Y14744D01*
X15357Y14749D01*
X15360Y14756D01*
X15362Y14764D01*
X15362Y14767D01*
X15359Y14829D01*
X15430D01*
X15429Y14827D01*
D02*
G37*
G36*
X16414Y14420D02*
X16412Y14419D01*
X16409Y14417D01*
X16404Y14414D01*
X16391Y14402D01*
X16337Y14350D01*
X16294Y14392D01*
X16364Y14470D01*
X16414Y14420D01*
D02*
G37*
G36*
X17889Y14615D02*
X17889Y14615D01*
X17895Y14614D01*
X17912Y14613D01*
X17988Y14612D01*
Y14552D01*
X17889Y14547D01*
Y14541D01*
X17888Y14543D01*
X17887Y14545D01*
X17885Y14547D01*
X17884Y14546D01*
Y14547D01*
X17882Y14548D01*
X17879Y14549D01*
X17874Y14550D01*
X17869Y14551D01*
X17863Y14551D01*
X17848Y14552D01*
Y14612D01*
X17856Y14612D01*
X17874Y14614D01*
X17879Y14614D01*
X17882Y14616D01*
X17884Y14616D01*
Y14617D01*
X17884Y14617D01*
X17885Y14617D01*
X17887Y14619D01*
X17888Y14620D01*
X17889Y14622D01*
Y14615D01*
D02*
G37*
G36*
Y14932D02*
X17888Y14934D01*
X17886Y14937D01*
X17883Y14939D01*
X17879Y14941D01*
X17874Y14942D01*
X17867Y14943D01*
X17859Y14944D01*
X17840Y14945D01*
X17829Y14946D01*
Y15006D01*
X17840Y15006D01*
X17867Y15008D01*
X17874Y15009D01*
X17879Y15010D01*
X17883Y15012D01*
X17886Y15014D01*
X17888Y15017D01*
X17889Y15019D01*
Y14932D01*
D02*
G37*
G36*
X23605Y15727D02*
Y14460D01*
X23467Y14322D01*
X23126D01*
X23126Y14322D01*
X23083Y14314D01*
X23047Y14289D01*
X23047Y14289D01*
X22901Y14143D01*
X22876Y14107D01*
X22868Y14064D01*
X22868Y14064D01*
Y13622D01*
X22812Y13566D01*
X22246D01*
X22231Y13616D01*
X22281Y13649D01*
X22324Y13714D01*
X22339Y13790D01*
X22324Y13866D01*
X22281Y13931D01*
X22233Y13962D01*
X22233Y13963D01*
Y14017D01*
X22233Y14018D01*
X22281Y14049D01*
X22324Y14114D01*
X22339Y14190D01*
X22324Y14266D01*
X22281Y14331D01*
X22216Y14374D01*
X22140Y14389D01*
X22064Y14374D01*
X22003Y14333D01*
X21984Y14337D01*
X21953Y14351D01*
Y14646D01*
X21980Y14668D01*
X22144D01*
X22301Y14511D01*
X22337Y14486D01*
X22380Y14478D01*
X22418Y14447D01*
Y14274D01*
X22873D01*
Y14906D01*
X22418D01*
Y14776D01*
X22372Y14757D01*
X22269Y14859D01*
X22233Y14884D01*
X22190Y14892D01*
X22190Y14892D01*
X21980D01*
X21953Y14914D01*
Y15047D01*
X21994Y15072D01*
X22003Y15074D01*
X22044Y15046D01*
X22120Y15031D01*
X22196Y15046D01*
X22261Y15089D01*
X22304Y15154D01*
X22319Y15230D01*
X22304Y15306D01*
X22303Y15308D01*
X22325Y15364D01*
X22332Y15365D01*
X22379Y15336D01*
Y15193D01*
X22932D01*
Y15581D01*
X22954Y15596D01*
X23206Y15848D01*
X23484D01*
X23605Y15727D01*
D02*
G37*
G36*
X21893Y14820D02*
X21894Y14818D01*
X21897Y14816D01*
X21902Y14814D01*
X21906Y14813D01*
X21945Y14815D01*
Y14810D01*
X21952Y14810D01*
Y14750D01*
X21945Y14750D01*
Y14745D01*
X21943Y14746D01*
X21939Y14747D01*
X21933Y14747D01*
X21921Y14748D01*
X21914Y14748D01*
X21907Y14746D01*
X21902Y14745D01*
X21897Y14743D01*
X21894Y14740D01*
X21893Y14738D01*
X21892Y14735D01*
Y14749D01*
X21840Y14750D01*
Y14810D01*
X21892Y14813D01*
Y14822D01*
X21893Y14820D01*
D02*
G37*
G36*
X15769Y15409D02*
X15781Y15392D01*
X15789Y15388D01*
X16036Y15141D01*
X16036Y15141D01*
X16073Y15116D01*
X16116Y15108D01*
X16424D01*
X16443Y15062D01*
X16279Y14898D01*
X16251Y14901D01*
X16186Y14944D01*
X16110Y14959D01*
X16034Y14944D01*
X15969Y14901D01*
X15926Y14836D01*
X15914Y14772D01*
X15721Y14579D01*
X15671Y14600D01*
Y14797D01*
X15548D01*
X15521Y14837D01*
X15519Y14847D01*
X15526Y14884D01*
X15526Y14884D01*
Y15286D01*
X15549Y15313D01*
X15691D01*
Y15421D01*
X15737Y15440D01*
X15769Y15409D01*
D02*
G37*
G36*
X23840Y20198D02*
X23860Y20151D01*
X23917Y20077D01*
X23991Y20020D01*
X24077Y19984D01*
X24170Y19972D01*
X24263Y19984D01*
X24330Y20012D01*
X24623Y19718D01*
X24604Y19672D01*
X23606D01*
X23425Y19853D01*
X23781Y20209D01*
X23840Y20198D01*
D02*
G37*
G36*
X18666Y19528D02*
X18665Y19524D01*
X18665Y19510D01*
X18664Y19418D01*
X18534D01*
X18531Y19529D01*
X18666D01*
X18666Y19528D01*
D02*
G37*
G36*
X22247Y19468D02*
X22249Y19463D01*
X22252Y19459D01*
X22256Y19455D01*
X22262Y19452D01*
X22268Y19449D01*
X22276Y19447D01*
X22282Y19446D01*
X22350Y19450D01*
Y19379D01*
X22348Y19380D01*
X22345Y19381D01*
X22339Y19382D01*
X22322Y19383D01*
X22290Y19383D01*
X22285Y19383D01*
X22276Y19381D01*
X22268Y19379D01*
X22262Y19377D01*
X22256Y19373D01*
X22252Y19369D01*
X22249Y19365D01*
X22247Y19360D01*
X22246Y19354D01*
Y19384D01*
X22246Y19384D01*
Y19444D01*
X22246Y19444D01*
Y19474D01*
X22247Y19468D01*
D02*
G37*
G36*
X24767Y21193D02*
Y20641D01*
X24774Y20606D01*
X24794Y20576D01*
X24860Y20510D01*
X24860Y20509D01*
X24824Y20423D01*
X24812Y20330D01*
X24824Y20237D01*
X24860Y20151D01*
X24917Y20077D01*
X24991Y20020D01*
X25077Y19984D01*
X25170Y19972D01*
X25263Y19984D01*
X25349Y20020D01*
X25423Y20077D01*
X25480Y20151D01*
X25516Y20237D01*
X25528Y20330D01*
X25516Y20423D01*
X25480Y20509D01*
X25423Y20583D01*
X25349Y20640D01*
X25263Y20676D01*
X25170Y20688D01*
X25077Y20676D01*
X24991Y20640D01*
X24990Y20640D01*
X24951Y20679D01*
Y21099D01*
X24997Y21118D01*
X25638Y20477D01*
Y20086D01*
X25384Y19832D01*
X24826D01*
X24488Y20170D01*
X24516Y20237D01*
X24528Y20330D01*
X24516Y20423D01*
X24480Y20509D01*
X24423Y20583D01*
X24349Y20640D01*
X24263Y20676D01*
X24250Y20678D01*
X24234Y20725D01*
X24721Y21213D01*
X24767Y21193D01*
D02*
G37*
G36*
X26170Y20280D02*
X26168Y20279D01*
X26164Y20277D01*
X26160Y20274D01*
X26147Y20262D01*
X26092Y20210D01*
X26050Y20252D01*
X26120Y20330D01*
X26170Y20280D01*
D02*
G37*
G36*
X26030Y20148D02*
X25993Y20107D01*
X26030Y20070D01*
X26020Y20075D01*
X26010Y20078D01*
X26000Y20080D01*
X25990Y20080D01*
X25980Y20078D01*
X25970Y20075D01*
X25961Y20071D01*
X25960Y20070D01*
X25959Y20070D01*
X25951Y20065D01*
X25941Y20058D01*
X25931Y20049D01*
X25889Y20091D01*
X25898Y20101D01*
X25905Y20111D01*
X25910Y20119D01*
X25910Y20120D01*
X25911Y20120D01*
X25911Y20120D01*
X25915Y20130D01*
X25918Y20140D01*
X25920Y20150D01*
X25920Y20160D01*
X25918Y20170D01*
X25915Y20180D01*
X25910Y20190D01*
X25948Y20152D01*
X25988Y20190D01*
X26030Y20148D01*
D02*
G37*
G36*
X18732Y20190D02*
X18723Y20177D01*
X18719Y20171D01*
X18716Y20165D01*
X18713Y20159D01*
X18711Y20154D01*
X18710Y20148D01*
X18709Y20142D01*
X18709Y20137D01*
X18509D01*
X18508Y20142D01*
X18507Y20148D01*
X18506Y20154D01*
X18504Y20159D01*
X18501Y20165D01*
X18498Y20171D01*
X18494Y20177D01*
X18490Y20183D01*
X18485Y20190D01*
X18480Y20196D01*
X18737D01*
X18732Y20190D01*
D02*
G37*
G36*
X24771Y19321D02*
X24807Y19296D01*
X24821Y19278D01*
X24824Y19272D01*
Y19109D01*
X24778Y19090D01*
X24604Y19264D01*
X24568Y19288D01*
X24525Y19297D01*
X24516Y19304D01*
Y19392D01*
X23884D01*
Y18937D01*
X24516D01*
Y18969D01*
X24562Y18989D01*
X24770Y18781D01*
X24806Y18756D01*
X24849Y18748D01*
X24849Y18748D01*
X25450D01*
X25450Y18748D01*
X25493Y18756D01*
X25529Y18781D01*
X25694Y18945D01*
X25744Y18925D01*
Y18867D01*
X26376D01*
Y18872D01*
X26426Y18899D01*
X26428Y18898D01*
Y18382D01*
X26426Y18381D01*
X26376Y18408D01*
Y18653D01*
X25744D01*
Y18268D01*
X25718Y18242D01*
X24622D01*
X24516Y18348D01*
Y18723D01*
X23884D01*
Y18711D01*
X23838Y18691D01*
X23762Y18767D01*
Y19243D01*
X23762Y19243D01*
X23754Y19286D01*
X23729Y19322D01*
X23729Y19322D01*
X23650Y19402D01*
X23669Y19448D01*
X24644D01*
X24771Y19321D01*
D02*
G37*
G36*
X23538Y19197D02*
Y18721D01*
X23538Y18721D01*
X23546Y18678D01*
X23571Y18641D01*
X23776Y18436D01*
X23812Y18412D01*
X23855Y18403D01*
X23884Y18380D01*
Y18268D01*
X23884Y18268D01*
X23884D01*
X23852Y18234D01*
X23081Y17463D01*
X23056Y17426D01*
X23048Y17384D01*
X23011Y17356D01*
X22631D01*
Y17310D01*
X22532Y17211D01*
X22531Y17211D01*
X22528Y17206D01*
X22526Y17205D01*
X22520Y17202D01*
X22512Y17195D01*
X22506Y17190D01*
X22504Y17189D01*
X22502Y17190D01*
X22466Y17214D01*
X22390Y17229D01*
X22314Y17214D01*
X22249Y17171D01*
X22206Y17106D01*
X22191Y17030D01*
X22206Y16954D01*
X22249Y16889D01*
X22314Y16846D01*
X22344Y16840D01*
X22354Y16787D01*
X22329Y16771D01*
X22286Y16706D01*
X22271Y16630D01*
X22271Y16629D01*
X22245Y16611D01*
X22225Y16604D01*
X22186Y16631D01*
X22181Y16638D01*
X22145Y16662D01*
X22113Y16668D01*
X22092Y16700D01*
X22086Y16718D01*
X22089Y16722D01*
X22097Y16765D01*
X22097Y16765D01*
Y17108D01*
X22109Y17126D01*
X22117Y17169D01*
Y17371D01*
X22109Y17414D01*
X22097Y17432D01*
Y17529D01*
X22191Y17622D01*
X22567D01*
X22569Y17620D01*
X22612Y17612D01*
X22612Y17612D01*
X22688D01*
X22688Y17612D01*
X22730Y17620D01*
X22767Y17645D01*
X23024Y17902D01*
X23030Y17901D01*
X23106Y17916D01*
X23171Y17959D01*
X23214Y18024D01*
X23229Y18100D01*
X23214Y18176D01*
X23171Y18241D01*
X23106Y18284D01*
X23030Y18299D01*
X22954Y18284D01*
X22889Y18241D01*
X22846Y18176D01*
X22831Y18100D01*
X22843Y18039D01*
X22643Y17838D01*
X22602Y17846D01*
X22602Y17846D01*
X22144D01*
X22144Y17846D01*
X22101Y17838D01*
X22090Y17830D01*
X22079Y17824D01*
X22031Y17842D01*
X22027Y17846D01*
X22021Y17852D01*
X22013Y17860D01*
X22013Y17861D01*
Y18416D01*
X21576D01*
X21572Y18420D01*
X21572Y18420D01*
Y18884D01*
X21769Y19081D01*
X21794Y19117D01*
X21798Y19138D01*
X21807Y19147D01*
X22309D01*
Y19271D01*
X22311Y19276D01*
X22318Y19283D01*
X22359Y19307D01*
X22386Y19302D01*
X22419D01*
X22576Y19145D01*
X22576Y19145D01*
X22613Y19121D01*
X22656Y19112D01*
X22656Y19112D01*
X22786D01*
X22803Y19098D01*
Y18948D01*
X23357D01*
Y19312D01*
X23403Y19332D01*
X23538Y19197D01*
D02*
G37*
G36*
X20834Y18716D02*
X20854Y18716D01*
Y18656D01*
X20834Y18655D01*
Y18626D01*
X20833Y18632D01*
X20831Y18637D01*
X20828Y18641D01*
X20824Y18645D01*
X20818Y18648D01*
X20812Y18651D01*
X20804Y18653D01*
X20803Y18653D01*
X20749Y18650D01*
Y18721D01*
X20752Y18720D01*
X20755Y18719D01*
X20761Y18718D01*
X20778Y18717D01*
X20793Y18717D01*
X20795Y18717D01*
X20804Y18719D01*
X20812Y18721D01*
X20818Y18723D01*
X20824Y18727D01*
X20828Y18731D01*
X20831Y18735D01*
X20833Y18740D01*
X20834Y18746D01*
Y18716D01*
D02*
G37*
G36*
X26314Y19184D02*
X26316Y19179D01*
X26319Y19175D01*
X26323Y19171D01*
X26329Y19167D01*
X26336Y19165D01*
X26338Y19164D01*
X26365Y19165D01*
Y19160D01*
X26375Y19160D01*
Y19100D01*
X26365Y19100D01*
Y19095D01*
X26363Y19096D01*
X26359Y19097D01*
X26353Y19097D01*
X26347Y19098D01*
X26343Y19097D01*
X26336Y19095D01*
X26329Y19093D01*
X26323Y19089D01*
X26319Y19085D01*
X26316Y19081D01*
X26314Y19076D01*
X26314Y19070D01*
Y19099D01*
X26260Y19100D01*
Y19160D01*
X26314Y19163D01*
Y19190D01*
X26314Y19184D01*
D02*
G37*
G36*
X24901Y19392D02*
X24921Y19374D01*
X24930Y19368D01*
X24939Y19363D01*
X24946Y19359D01*
X24953Y19357D01*
X24959Y19357D01*
X24964Y19358D01*
X24968Y19361D01*
X24885Y19286D01*
X24888Y19290D01*
X24890Y19295D01*
X24889Y19300D01*
X24888Y19307D01*
X24884Y19314D01*
X24879Y19323D01*
X24872Y19332D01*
X24864Y19342D01*
X24843Y19365D01*
X24889Y19403D01*
X24901Y19392D01*
D02*
G37*
G36*
X22866Y19255D02*
X22926Y19254D01*
Y19194D01*
X22866Y19191D01*
Y19164D01*
X22865Y19170D01*
X22863Y19175D01*
X22860Y19180D01*
X22856Y19184D01*
X22851Y19187D01*
X22844Y19190D01*
X22842Y19190D01*
X22821Y19189D01*
Y19194D01*
X22816Y19194D01*
X22805Y19194D01*
Y19254D01*
X22816Y19255D01*
X22821Y19255D01*
Y19260D01*
X22823Y19259D01*
X22827Y19258D01*
X22833Y19257D01*
X22835Y19257D01*
X22836Y19257D01*
X22844Y19259D01*
X22851Y19262D01*
X22856Y19265D01*
X22860Y19269D01*
X22863Y19274D01*
X22865Y19279D01*
X22866Y19284D01*
Y19255D01*
D02*
G37*
G36*
X24454Y19239D02*
X24456Y19234D01*
X24459Y19229D01*
X24463Y19225D01*
X24469Y19222D01*
X24476Y19219D01*
X24476Y19219D01*
X24489Y19220D01*
Y19216D01*
X24493Y19216D01*
X24503Y19215D01*
X24515Y19215D01*
Y19155D01*
X24503Y19154D01*
X24493Y19153D01*
X24489Y19153D01*
Y19149D01*
X24487Y19150D01*
X24483Y19151D01*
X24482Y19151D01*
X24476Y19150D01*
X24469Y19147D01*
X24463Y19144D01*
X24459Y19140D01*
X24456Y19135D01*
X24454Y19130D01*
X24454Y19125D01*
Y19153D01*
X24385Y19155D01*
Y19215D01*
X24454Y19218D01*
Y19245D01*
X24454Y19239D01*
D02*
G37*
G36*
X25112Y23331D02*
X25170Y23330D01*
Y23270D01*
X25112Y23267D01*
Y23240D01*
X25111Y23246D01*
X25109Y23251D01*
X25106Y23255D01*
X25102Y23259D01*
X25096Y23262D01*
X25089Y23265D01*
X25087Y23266D01*
X25065Y23265D01*
Y23269D01*
X25062Y23270D01*
X25050Y23270D01*
Y23330D01*
X25062Y23330D01*
X25065Y23331D01*
Y23335D01*
X25067Y23334D01*
X25071Y23333D01*
X25077Y23333D01*
X25080Y23332D01*
X25082Y23333D01*
X25089Y23335D01*
X25096Y23337D01*
X25102Y23341D01*
X25106Y23345D01*
X25109Y23349D01*
X25111Y23354D01*
X25112Y23360D01*
Y23331D01*
D02*
G37*
G36*
X24755Y22954D02*
X24754Y22950D01*
X24753Y22944D01*
X24752Y22927D01*
X24751Y22851D01*
X24691D01*
X24685Y22956D01*
X24756D01*
X24755Y22954D01*
D02*
G37*
G36*
X25112Y22740D02*
X25111Y22746D01*
X25109Y22751D01*
X25106Y22755D01*
X25102Y22759D01*
X25096Y22762D01*
X25089Y22765D01*
X25082Y22767D01*
X25072Y22769D01*
X25062Y22770D01*
X25050Y22770D01*
Y22830D01*
X25062Y22830D01*
X25072Y22831D01*
X25082Y22833D01*
X25089Y22835D01*
X25096Y22837D01*
X25102Y22841D01*
X25106Y22845D01*
X25109Y22849D01*
X25111Y22854D01*
X25112Y22860D01*
Y22740D01*
D02*
G37*
G36*
X26698Y24854D02*
Y19017D01*
X26648Y19012D01*
X26644Y19033D01*
X26619Y19069D01*
X26619Y19069D01*
X26479Y19209D01*
X26443Y19234D01*
X26400Y19242D01*
X26376Y19262D01*
Y19322D01*
X26009D01*
X25989Y19372D01*
X25989Y19373D01*
X25989Y19373D01*
X26014Y19409D01*
X26022Y19452D01*
X26022Y19452D01*
Y19962D01*
X26064Y19989D01*
X26077Y19984D01*
X26170Y19972D01*
X26263Y19984D01*
X26349Y20020D01*
X26423Y20077D01*
X26480Y20151D01*
X26516Y20237D01*
X26528Y20330D01*
X26516Y20423D01*
X26480Y20509D01*
X26423Y20583D01*
X26349Y20640D01*
X26263Y20676D01*
X26170Y20688D01*
X26077Y20676D01*
X26010Y20648D01*
X25792Y20866D01*
Y21594D01*
X26311D01*
Y22006D01*
X25091D01*
Y22094D01*
X26311D01*
Y22506D01*
X25049D01*
Y22392D01*
X25043Y22389D01*
X25023Y22385D01*
X25001Y22370D01*
X24951Y22384D01*
Y22571D01*
X25003Y22623D01*
X25049Y22604D01*
Y22594D01*
X26311D01*
Y23006D01*
X25049D01*
Y22895D01*
X25049Y22895D01*
X25035Y22889D01*
X25015Y22885D01*
X24985Y22865D01*
X24859Y22739D01*
X24813Y22758D01*
Y22842D01*
X24816Y22850D01*
X24817Y22924D01*
X24818Y22929D01*
X25003Y23114D01*
X25049Y23095D01*
Y23094D01*
X26311D01*
Y23506D01*
X25049D01*
Y23428D01*
X25030Y23412D01*
X24987Y23404D01*
X24951Y23379D01*
X24719Y23148D01*
X24673Y23167D01*
Y23284D01*
X25003Y23614D01*
X25049Y23595D01*
Y23594D01*
X26311D01*
Y24006D01*
X25049D01*
Y23928D01*
X25030Y23912D01*
X24987Y23904D01*
X24951Y23879D01*
X24482Y23410D01*
X24457Y23374D01*
X24449Y23331D01*
X24449Y23331D01*
Y22506D01*
X23249D01*
Y22094D01*
X24449D01*
Y22006D01*
X23249D01*
Y21594D01*
X24335D01*
X24356Y21544D01*
X24314Y21502D01*
X24280Y21509D01*
X24204Y21494D01*
X24139Y21451D01*
X24096Y21386D01*
X24081Y21310D01*
X24096Y21234D01*
X24139Y21169D01*
X24204Y21126D01*
X24240Y21119D01*
X24256Y21065D01*
X24039Y20847D01*
X24002D01*
X24002Y20847D01*
X23959Y20839D01*
X23923Y20815D01*
X23923Y20815D01*
X23685Y20577D01*
X23661Y20541D01*
X23653Y20498D01*
X23653Y20498D01*
Y20398D01*
X23573Y20319D01*
X23527Y20343D01*
X23516Y20423D01*
X23480Y20509D01*
X23423Y20583D01*
X23349Y20640D01*
X23263Y20676D01*
X23170Y20688D01*
X23077Y20676D01*
X22991Y20640D01*
X22917Y20583D01*
X22860Y20509D01*
X22824Y20423D01*
X22812Y20330D01*
X22824Y20237D01*
X22860Y20151D01*
X22917Y20077D01*
X22947Y20053D01*
X22930Y20003D01*
X22656D01*
X22525Y20133D01*
Y20685D01*
X21915D01*
X21894Y20735D01*
X22844Y21685D01*
X22844Y21685D01*
X22868Y21722D01*
X22877Y21765D01*
Y23302D01*
X23199Y23624D01*
X23249Y23603D01*
Y23594D01*
X24511D01*
Y24006D01*
X23249D01*
Y23946D01*
X23220Y23922D01*
X23177Y23914D01*
X23141Y23889D01*
X23056Y23804D01*
X23043Y23785D01*
X22685Y23428D01*
X22661Y23391D01*
X22653Y23348D01*
X22653Y23348D01*
Y21811D01*
X21681Y20839D01*
X21656Y20803D01*
X21648Y20760D01*
X21648Y20760D01*
Y19990D01*
X21648Y19990D01*
X21656Y19947D01*
X21681Y19911D01*
X21864Y19727D01*
X21845Y19681D01*
X21677D01*
Y19277D01*
X21668Y19268D01*
X21647Y19264D01*
X21611Y19239D01*
X21381Y19009D01*
X21356Y18973D01*
X21352Y18953D01*
X20771D01*
Y18835D01*
X20721Y18797D01*
X20714Y18798D01*
X20671Y18789D01*
X20635Y18765D01*
X20528Y18658D01*
X20426D01*
X20397Y18682D01*
Y18822D01*
X19843D01*
Y18269D01*
X19950D01*
X19986Y18219D01*
X19983Y18205D01*
X19983Y18205D01*
Y17995D01*
X19971Y17983D01*
X19946Y17946D01*
X19938Y17904D01*
X19938Y17904D01*
Y17815D01*
X19894Y17792D01*
X19876Y17804D01*
X19800Y17819D01*
X19724Y17804D01*
X19659Y17761D01*
X19616Y17696D01*
X19613Y17680D01*
X19567Y17656D01*
X19557Y17655D01*
X19520Y17662D01*
X19520Y17662D01*
X19440D01*
X19421Y17691D01*
X19356Y17734D01*
X19280Y17749D01*
X19204Y17734D01*
X19139Y17691D01*
X19096Y17626D01*
X19081Y17550D01*
X19096Y17474D01*
X19139Y17409D01*
X19178Y17384D01*
X19163Y17334D01*
X18728D01*
X18723Y17339D01*
X18721Y17351D01*
Y17391D01*
X18771Y17430D01*
X18845Y17430D01*
Y17498D01*
X18857D01*
Y17958D01*
X19201D01*
X19204Y17956D01*
X19280Y17941D01*
X19356Y17956D01*
X19421Y17999D01*
X19464Y18064D01*
X19479Y18140D01*
X19464Y18216D01*
X19421Y18281D01*
X19356Y18324D01*
X19280Y18339D01*
X19204Y18324D01*
X19139Y18281D01*
X19096Y18216D01*
X19090Y18183D01*
X18857D01*
Y18602D01*
X18845D01*
X18845Y20060D01*
X18970Y20422D01*
Y21270D01*
X18970D01*
X18970Y21270D01*
X18984Y21470D01*
X18967Y22069D01*
X18897Y22567D01*
X18861Y22731D01*
X18845Y22944D01*
X18845Y24645D01*
X19012Y24651D01*
Y26220D01*
X18845D01*
X18213Y26220D01*
X17650D01*
Y27058D01*
X24494D01*
X26698Y24854D01*
D02*
G37*
G36*
X16306Y27066D02*
X16349Y27058D01*
X17063D01*
Y26220D01*
X16640D01*
Y24645D01*
X18346Y24654D01*
X18382Y24619D01*
X18353Y22944D01*
X18244Y22529D01*
Y21111D01*
Y20600D01*
X18353Y20117D01*
Y18602D01*
X18343D01*
Y18183D01*
X18310D01*
X18268Y18174D01*
X18231Y18150D01*
X18231Y18150D01*
X18211Y18129D01*
X18186Y18093D01*
X18178Y18050D01*
X18178Y18050D01*
Y17542D01*
X17866D01*
X17824Y17534D01*
X17787Y17509D01*
X17787Y17509D01*
X17589Y17311D01*
X17571Y17323D01*
X17495Y17338D01*
X17419Y17323D01*
X17354Y17280D01*
X17329Y17241D01*
X17269Y17226D01*
X17264Y17227D01*
X17252Y17236D01*
Y17998D01*
X17252Y17998D01*
X17244Y18040D01*
X17219Y18077D01*
X17219Y18077D01*
X17077Y18219D01*
X17040Y18244D01*
X17032Y18245D01*
Y18446D01*
X16577D01*
Y17814D01*
X17028D01*
Y17148D01*
X17028Y17148D01*
X17036Y17105D01*
X17061Y17069D01*
X17343Y16786D01*
X17327Y16732D01*
X17284Y16724D01*
X17219Y16681D01*
X17176Y16616D01*
X17161Y16540D01*
X17161Y16539D01*
X17118Y16503D01*
X16988D01*
X16988Y16503D01*
X16985Y16510D01*
Y16573D01*
X17034Y16606D01*
X17077Y16670D01*
X17092Y16747D01*
X17077Y16823D01*
X17034Y16887D01*
X16970Y16930D01*
X16893Y16945D01*
X16817Y16930D01*
X16753Y16887D01*
X16710Y16823D01*
X16695Y16747D01*
X16710Y16670D01*
X16753Y16606D01*
X16802Y16573D01*
Y16510D01*
X16799Y16503D01*
X16799Y16503D01*
X16658D01*
Y16201D01*
Y15920D01*
X16656Y15872D01*
X16613Y15864D01*
X16576Y15839D01*
X16576Y15839D01*
X16508Y15771D01*
X16484Y15735D01*
X16476Y15692D01*
X16476Y15692D01*
Y15365D01*
X16443Y15332D01*
X16162D01*
X15978Y15516D01*
X15976Y15522D01*
X15968Y15531D01*
X16004Y15584D01*
X16019Y15660D01*
X16004Y15736D01*
X15961Y15801D01*
X15896Y15844D01*
X15820Y15859D01*
X15744Y15844D01*
X15735Y15838D01*
X15691Y15861D01*
Y15867D01*
X15326D01*
X15307Y15913D01*
X15494Y16099D01*
X15494Y16099D01*
X15518Y16136D01*
X15526Y16179D01*
X15526Y16179D01*
Y16373D01*
X15691D01*
Y16927D01*
X15296D01*
X14984Y17239D01*
X14947Y17264D01*
X14904Y17272D01*
X14904Y17272D01*
X13706D01*
X13319Y17659D01*
X13283Y17684D01*
X13240Y17692D01*
X13240Y17692D01*
X12892D01*
Y17837D01*
X12418D01*
Y17323D01*
X12892D01*
Y17468D01*
X13194D01*
X13581Y17081D01*
X13581Y17081D01*
X13617Y17056D01*
X13660Y17048D01*
X13660Y17048D01*
X14858D01*
X15138Y16768D01*
Y16373D01*
X15302D01*
Y16225D01*
X14953Y15876D01*
X14929Y15839D01*
X14920Y15797D01*
X14920Y15797D01*
Y15337D01*
X14918Y15326D01*
X14918Y15326D01*
Y14250D01*
X14918Y14250D01*
X14926Y14207D01*
X14951Y14171D01*
X15131Y13991D01*
X15131Y13991D01*
X15167Y13966D01*
X15210Y13958D01*
X15570D01*
X15570Y13958D01*
X15613Y13966D01*
X15649Y13991D01*
X15849Y14191D01*
X15849Y14191D01*
X15874Y14227D01*
X15882Y14270D01*
X15882Y14270D01*
Y14396D01*
X15897Y14407D01*
X15947Y14382D01*
Y13954D01*
X16382D01*
Y14304D01*
X16435Y14354D01*
X16445Y14363D01*
X16446Y14364D01*
X16447Y14364D01*
X16447Y14364D01*
X16457Y14366D01*
X16488Y14387D01*
X16531Y14375D01*
X16538Y14372D01*
Y13954D01*
X16777D01*
X16796Y13908D01*
X16585Y13696D01*
X16565Y13666D01*
X16427D01*
Y13074D01*
X16862D01*
Y13656D01*
X17016Y13810D01*
X17038Y13824D01*
X17044Y13831D01*
X17107Y13823D01*
X17129Y13789D01*
X17194Y13746D01*
X17270Y13731D01*
X17346Y13746D01*
X17388Y13774D01*
X17436Y13752D01*
X17438Y13749D01*
Y13666D01*
X17018D01*
Y13311D01*
X16981Y13274D01*
X16956Y13238D01*
X16948Y13195D01*
X16948Y13195D01*
Y13090D01*
X16919Y13071D01*
X16876Y13006D01*
X16861Y12930D01*
X16876Y12854D01*
X16919Y12789D01*
X16984Y12746D01*
X17046Y12734D01*
X17063Y12727D01*
X17093Y12687D01*
Y12371D01*
X17054Y12340D01*
X17014Y12379D01*
X16978Y12404D01*
X16935Y12412D01*
X16935Y12412D01*
X16310D01*
X16310Y12412D01*
X16267Y12404D01*
X16231Y12379D01*
X15929Y12077D01*
X15904Y12041D01*
X15896Y11998D01*
X15896Y11998D01*
Y11799D01*
X15857D01*
Y11686D01*
X15347D01*
Y11851D01*
X14793D01*
Y11322D01*
X14401D01*
X14377Y11346D01*
Y11761D01*
X13823D01*
Y11208D01*
X14198D01*
X14275Y11131D01*
X14275Y11131D01*
X14311Y11106D01*
X14354Y11098D01*
X15824D01*
X15824Y11098D01*
X15867Y11106D01*
X15903Y11131D01*
X15918Y11146D01*
X16198D01*
X16198Y11146D01*
X16241Y11154D01*
X16277Y11178D01*
X16379Y11281D01*
X16379Y11281D01*
X16404Y11317D01*
X16406Y11328D01*
X17056D01*
Y11451D01*
X17563D01*
Y11308D01*
X18117D01*
Y11861D01*
X17645D01*
X17626Y11907D01*
X17724Y12006D01*
X17724Y12006D01*
X17749Y12042D01*
X17757Y12085D01*
X17757Y12085D01*
Y12233D01*
X17765Y12264D01*
X17802Y12288D01*
X17846Y12296D01*
X17911Y12339D01*
X17954Y12404D01*
X17969Y12480D01*
X17965Y12499D01*
X18003Y12537D01*
X18003Y12537D01*
X18027Y12573D01*
X18036Y12616D01*
X18036Y12616D01*
Y12697D01*
X18062Y12723D01*
X18062Y12723D01*
X18086Y12760D01*
X18095Y12803D01*
Y12923D01*
X18218Y13046D01*
X18422D01*
X18441Y13000D01*
X18436Y12994D01*
X18411Y12958D01*
X18403Y12915D01*
X18403Y12915D01*
Y12855D01*
X18305Y12757D01*
X18286Y12744D01*
X18286Y12744D01*
X18241Y12699D01*
X18216Y12663D01*
X18208Y12620D01*
X18208Y12620D01*
Y12389D01*
X18169Y12357D01*
X18160Y12359D01*
X18084Y12344D01*
X18019Y12301D01*
X17976Y12236D01*
X17961Y12160D01*
X17976Y12084D01*
X18019Y12019D01*
X18084Y11976D01*
X18126Y11968D01*
X18126Y11966D01*
X18151Y11930D01*
X18216Y11865D01*
X18216Y11865D01*
X18252Y11840D01*
X18274Y11836D01*
X18289Y11821D01*
Y11228D01*
X18284Y11223D01*
X18262Y11218D01*
X18226Y11194D01*
X18226Y11194D01*
X18121Y11089D01*
X18096Y11052D01*
X18088Y11009D01*
X18088Y11009D01*
Y10460D01*
X18088Y10460D01*
X18096Y10417D01*
X18121Y10381D01*
X18321Y10181D01*
X18321Y10181D01*
X18357Y10156D01*
X18400Y10148D01*
X18400Y10148D01*
X18841D01*
X18867Y10098D01*
X18863Y10092D01*
X18529D01*
X18460Y10078D01*
X18401Y10038D01*
X18362Y9980D01*
X18348Y9910D01*
X18350Y9899D01*
X18211Y9759D01*
X18186Y9723D01*
X18178Y9680D01*
X18178Y9680D01*
Y8710D01*
X18178Y8710D01*
X18186Y8667D01*
X18211Y8631D01*
X18362Y8480D01*
X18362Y8480D01*
X18348Y8410D01*
X18362Y8341D01*
X18401Y8282D01*
X18460Y8242D01*
X18529Y8228D01*
X19041D01*
X19111Y8242D01*
X19170Y8282D01*
X19209Y8341D01*
X19223Y8410D01*
X19209Y8480D01*
X19170Y8538D01*
X19111Y8578D01*
X19041Y8592D01*
X18567D01*
X18402Y8756D01*
Y9228D01*
X18446Y9251D01*
X18460Y9242D01*
X18529Y9228D01*
X19041D01*
X19111Y9242D01*
X19170Y9282D01*
X19209Y9341D01*
X19223Y9410D01*
X19209Y9480D01*
X19170Y9538D01*
X19111Y9578D01*
X19041Y9592D01*
X18529D01*
X18460Y9578D01*
X18456Y9575D01*
X18410Y9598D01*
X18407Y9638D01*
X18502Y9734D01*
X18529Y9728D01*
X19041D01*
X19111Y9742D01*
X19170Y9782D01*
X19209Y9841D01*
X19223Y9910D01*
X19209Y9980D01*
X19170Y10038D01*
X19169Y10041D01*
X19276Y10148D01*
X19754D01*
Y10037D01*
X20386D01*
Y10437D01*
X20565Y10617D01*
X20612Y10598D01*
Y10214D01*
X20928D01*
Y10980D01*
X21062Y11113D01*
X21112Y11092D01*
Y10214D01*
X21418D01*
Y9546D01*
X21112D01*
Y8598D01*
X21100Y8589D01*
X21024Y8574D01*
X20978Y8543D01*
X20928Y8567D01*
X20928Y8581D01*
Y9546D01*
X20830D01*
X20792Y9573D01*
X20784Y9616D01*
X20759Y9653D01*
X20723Y9677D01*
X20680Y9686D01*
X20637Y9677D01*
X20630Y9672D01*
X20386D01*
Y9823D01*
X19754D01*
Y9368D01*
X20386D01*
Y9448D01*
X20568D01*
Y9190D01*
X20566Y9190D01*
X20565Y9190D01*
X20564Y9189D01*
X20563Y9188D01*
X20543Y9182D01*
X20542Y9182D01*
X20540Y9179D01*
X20537Y9178D01*
X20529Y9158D01*
X20518Y9139D01*
X20518Y9139D01*
X20519Y9135D01*
X20518Y9132D01*
X20518Y9132D01*
X20526Y9112D01*
X20532Y9091D01*
X20533Y9067D01*
X20527Y9036D01*
X20424Y8932D01*
X20390Y8939D01*
X20314Y8924D01*
X20249Y8881D01*
X20206Y8816D01*
X20191Y8740D01*
X20206Y8664D01*
X20249Y8599D01*
X20314Y8556D01*
X20390Y8541D01*
X20466Y8556D01*
X20531Y8599D01*
X20562Y8646D01*
X20612Y8631D01*
Y8540D01*
X20890Y8540D01*
X20891D01*
X20891D01*
X20906Y8540D01*
X20934Y8493D01*
X20916Y8466D01*
X20901Y8390D01*
X20916Y8314D01*
X20959Y8249D01*
X21024Y8206D01*
X21100Y8191D01*
X21176Y8206D01*
X21241Y8249D01*
X21284Y8314D01*
X21299Y8390D01*
X21292Y8424D01*
X21339Y8471D01*
X21339Y8471D01*
X21364Y8507D01*
X21370Y8540D01*
X21428D01*
Y9142D01*
X21478Y9163D01*
X21612Y9030D01*
Y8540D01*
X21668D01*
Y8327D01*
X21519D01*
Y7782D01*
X13896D01*
X13662Y8016D01*
Y9364D01*
X13996Y9698D01*
X14088D01*
Y9553D01*
X14378D01*
X14538Y9394D01*
Y8736D01*
X14398Y8597D01*
X14088D01*
Y8083D01*
X14562D01*
Y8444D01*
X14668Y8549D01*
X14718Y8528D01*
Y8083D01*
X15192D01*
Y8419D01*
X15376Y8603D01*
X15663D01*
Y8478D01*
X16177D01*
Y8603D01*
X16740D01*
X16740Y8603D01*
X16783Y8611D01*
X16819Y8636D01*
X16912Y8728D01*
X17191D01*
X17260Y8742D01*
X17319Y8782D01*
X17358Y8841D01*
X17372Y8910D01*
X17358Y8980D01*
X17319Y9038D01*
X17260Y9078D01*
X17191Y9092D01*
X16679D01*
X16609Y9078D01*
X16550Y9038D01*
X16511Y8980D01*
X16497Y8910D01*
X16504Y8877D01*
X16465Y8827D01*
X16177D01*
Y8952D01*
X15663D01*
Y8827D01*
X15330D01*
X15287Y8819D01*
X15256Y8798D01*
X15232Y8810D01*
X15212Y8826D01*
Y8909D01*
X15220Y8958D01*
X15263Y8966D01*
X15299Y8991D01*
X15551Y9243D01*
X15643D01*
Y9118D01*
X16157D01*
Y9206D01*
X16185Y9243D01*
X16228Y9251D01*
X16264Y9276D01*
X16286Y9298D01*
X16540D01*
X16550Y9282D01*
X16609Y9242D01*
X16679Y9228D01*
X17191D01*
X17260Y9242D01*
X17319Y9282D01*
X17358Y9341D01*
X17372Y9410D01*
X17358Y9480D01*
X17319Y9538D01*
X17260Y9578D01*
X17191Y9592D01*
X16679D01*
X16609Y9578D01*
X16550Y9538D01*
X16540Y9522D01*
X16240D01*
X16207Y9516D01*
X16173Y9534D01*
X16157Y9547D01*
Y9592D01*
X15643D01*
Y9467D01*
X15505D01*
X15505Y9467D01*
X15462Y9459D01*
X15426Y9434D01*
X15426Y9434D01*
X15258Y9267D01*
X15212Y9286D01*
Y9327D01*
X14762D01*
Y9440D01*
X14762Y9440D01*
X14754Y9483D01*
X14740Y9503D01*
X14759Y9548D01*
X14765Y9553D01*
X15192D01*
Y9678D01*
X15320D01*
X15320Y9678D01*
X15363Y9686D01*
X15399Y9711D01*
X15561Y9873D01*
X15643D01*
Y9748D01*
X16157D01*
Y9873D01*
X16299D01*
X16341Y9831D01*
X16377Y9806D01*
X16420Y9798D01*
X16420Y9798D01*
X16540D01*
X16550Y9782D01*
X16609Y9742D01*
X16679Y9728D01*
X17191D01*
X17260Y9742D01*
X17319Y9782D01*
X17358Y9841D01*
X17372Y9910D01*
X17358Y9980D01*
X17319Y10038D01*
X17260Y10078D01*
X17191Y10092D01*
X16679D01*
X16609Y10078D01*
X16550Y10038D01*
X16540Y10022D01*
X16466D01*
X16424Y10064D01*
X16388Y10089D01*
X16345Y10097D01*
X16345Y10097D01*
X16157D01*
Y10222D01*
X15643D01*
Y10097D01*
X15515D01*
X15515Y10097D01*
X15472Y10089D01*
X15436Y10064D01*
X15436Y10064D01*
X15274Y9902D01*
X15192D01*
Y10067D01*
X14882D01*
X14699Y10249D01*
X14663Y10274D01*
X14620Y10282D01*
X14620Y10282D01*
X13746D01*
X13442Y10586D01*
Y12604D01*
X13907Y13069D01*
X13989Y13035D01*
X14090Y13022D01*
X14191Y13035D01*
X14284Y13074D01*
X14365Y13135D01*
X14426Y13216D01*
X14465Y13309D01*
X14478Y13410D01*
X14465Y13511D01*
X14426Y13604D01*
X14365Y13685D01*
X14284Y13746D01*
X14191Y13785D01*
X14090Y13798D01*
X13989Y13785D01*
X13896Y13746D01*
X13815Y13685D01*
X13754Y13604D01*
X13715Y13511D01*
X13702Y13410D01*
X13715Y13309D01*
X13749Y13227D01*
X13251Y12729D01*
X13226Y12693D01*
X13218Y12650D01*
X13218Y12650D01*
Y10540D01*
X13218Y10540D01*
X13226Y10497D01*
X13251Y10461D01*
X13621Y10091D01*
X13657Y10066D01*
X13700Y10058D01*
X13700Y10058D01*
X14088D01*
Y9922D01*
X13950D01*
X13907Y9914D01*
X13871Y9889D01*
X13871Y9889D01*
X13471Y9489D01*
X13446Y9453D01*
X13438Y9410D01*
X13438Y9410D01*
Y7970D01*
X13438Y7970D01*
X13446Y7927D01*
X13471Y7891D01*
X13693Y7668D01*
X13674Y7622D01*
X13376D01*
X12512Y8486D01*
Y10766D01*
X13138D01*
Y12185D01*
X11420D01*
Y11622D01*
X11418Y11618D01*
X11370Y11585D01*
X11355Y11588D01*
X8561D01*
X6582Y13566D01*
Y14658D01*
X7255Y15331D01*
X7279Y15367D01*
X7283Y15388D01*
X7389Y15493D01*
X7812D01*
Y16047D01*
X7671D01*
X7648Y16074D01*
X7639Y16117D01*
X7615Y16154D01*
X7042Y16726D01*
Y17004D01*
X7196Y17157D01*
X7246Y17137D01*
Y17132D01*
X7252Y17101D01*
X7270Y17075D01*
X7296Y17057D01*
X7327Y17051D01*
X7485D01*
X7516Y17057D01*
X7542Y17075D01*
X7560Y17101D01*
X7566Y17132D01*
Y17191D01*
X7560Y17222D01*
X7559Y17223D01*
X7546Y17260D01*
X7559Y17297D01*
X7560Y17298D01*
X7566Y17329D01*
Y17388D01*
X7560Y17419D01*
X7542Y17445D01*
X7516Y17463D01*
X7485Y17469D01*
X7327D01*
X7314Y17467D01*
X7313Y17467D01*
X7310Y17466D01*
X7304Y17465D01*
X7299Y17466D01*
X7288Y17458D01*
X7281Y17462D01*
X7238Y17471D01*
X7196Y17462D01*
X7159Y17438D01*
X6851Y17129D01*
X6826Y17093D01*
X6818Y17050D01*
X6818Y17050D01*
Y16680D01*
X6818Y16680D01*
X6826Y16637D01*
X6851Y16601D01*
X7359Y16093D01*
X7340Y16047D01*
X7259D01*
Y15623D01*
X7154Y15518D01*
X7133Y15514D01*
X7096Y15489D01*
X6391Y14784D01*
X6366Y14747D01*
X6358Y14704D01*
X6358Y14704D01*
Y13520D01*
X6358Y13520D01*
X6366Y13477D01*
X6391Y13441D01*
X8435Y11396D01*
X8435Y11396D01*
X8472Y11372D01*
X8515Y11363D01*
X8515Y11363D01*
X11355D01*
X11370Y11366D01*
X11418Y11333D01*
X11420Y11329D01*
Y10766D01*
X12288D01*
Y8440D01*
X12288Y8440D01*
X12296Y8397D01*
X12321Y8361D01*
X13251Y7431D01*
X13251Y7431D01*
X13287Y7406D01*
X13330Y7398D01*
X13330Y7398D01*
X23276D01*
X23276Y7398D01*
X23319Y7406D01*
X23356Y7431D01*
X24016Y8091D01*
X24057Y8063D01*
X24054Y8056D01*
X24035Y7910D01*
X24054Y7764D01*
X24111Y7628D01*
X24201Y7511D01*
X24318Y7421D01*
X24454Y7364D01*
X24600Y7345D01*
X24746Y7364D01*
X24882Y7421D01*
X24999Y7511D01*
X25089Y7628D01*
X25146Y7764D01*
X25165Y7910D01*
X25146Y8056D01*
X25089Y8192D01*
X24999Y8309D01*
X24882Y8399D01*
X24746Y8456D01*
X24600Y8475D01*
X24454Y8456D01*
X24447Y8453D01*
X24419Y8494D01*
X24639Y8714D01*
X24639Y8714D01*
X24664Y8751D01*
X24672Y8794D01*
X24672Y8794D01*
Y9334D01*
X24746Y9408D01*
X24751Y9404D01*
X24862Y9358D01*
X24980Y9342D01*
X25098Y9358D01*
X25209Y9404D01*
X25304Y9476D01*
X25376Y9571D01*
X25422Y9682D01*
X25438Y9800D01*
X25422Y9918D01*
X25376Y10029D01*
X25304Y10124D01*
X25209Y10196D01*
X25098Y10242D01*
X24980Y10258D01*
X24862Y10242D01*
X24751Y10196D01*
X24656Y10124D01*
X24584Y10029D01*
X24562Y9977D01*
X24512Y9987D01*
Y10552D01*
X24746Y10786D01*
X24751Y10782D01*
X24862Y10736D01*
X24980Y10720D01*
X25098Y10736D01*
X25209Y10782D01*
X25304Y10854D01*
X25376Y10949D01*
X25422Y11060D01*
X25438Y11178D01*
X25422Y11296D01*
X25376Y11407D01*
X25304Y11502D01*
X25209Y11574D01*
X25098Y11620D01*
X24980Y11636D01*
X24862Y11620D01*
X24751Y11574D01*
X24656Y11502D01*
X24584Y11407D01*
X24538Y11296D01*
X24522Y11178D01*
X24538Y11060D01*
X24584Y10949D01*
X24588Y10944D01*
X24321Y10677D01*
X24296Y10641D01*
X24288Y10598D01*
X24288Y10598D01*
Y8906D01*
X23164Y7782D01*
X22072D01*
Y8327D01*
X21892D01*
Y8540D01*
X21928D01*
Y9546D01*
X21642D01*
Y10214D01*
X21928D01*
Y11220D01*
X21882D01*
Y11301D01*
X21884Y11304D01*
X21892Y11347D01*
X21892Y11347D01*
Y11544D01*
X22003D01*
Y12176D01*
X21892D01*
Y12305D01*
X21884Y12348D01*
X21859Y12384D01*
X21859Y12384D01*
X21802Y12441D01*
Y12690D01*
X21831Y12709D01*
X21874Y12774D01*
X21889Y12850D01*
X21874Y12926D01*
X21831Y12991D01*
X21766Y13034D01*
X21751Y13037D01*
X21737Y13084D01*
X21994Y13342D01*
X22858D01*
X22858Y13342D01*
X22901Y13350D01*
X22938Y13375D01*
X23046Y13483D01*
X23087Y13504D01*
X23542D01*
Y13710D01*
X23573Y13716D01*
X23609Y13741D01*
X24869Y15001D01*
X24869Y15001D01*
X24894Y15037D01*
X24902Y15080D01*
X24902Y15080D01*
Y15760D01*
X24944Y15805D01*
X25125D01*
Y16515D01*
X24415D01*
Y15805D01*
X24636D01*
X24678Y15760D01*
Y15126D01*
X23588Y14037D01*
X23542Y14056D01*
Y14104D01*
X23556Y14106D01*
X23593Y14131D01*
X23796Y14334D01*
X23796Y14334D01*
X23820Y14371D01*
X23829Y14413D01*
X23829Y14413D01*
Y15773D01*
X23820Y15816D01*
X23796Y15852D01*
X23796Y15852D01*
X23609Y16039D01*
X23573Y16064D01*
X23530Y16072D01*
X23530Y16072D01*
X23272D01*
Y16508D01*
X23275Y16516D01*
X23272Y16521D01*
Y17337D01*
X24203Y18268D01*
X24279D01*
X24496Y18051D01*
X24496Y18051D01*
X24532Y18026D01*
X24575Y18018D01*
X24575Y18018D01*
X25765D01*
X25765Y18018D01*
X25808Y18026D01*
X25844Y18051D01*
X25991Y18198D01*
X26224D01*
X26243Y18152D01*
X25711Y17619D01*
X25686Y17583D01*
X25678Y17540D01*
X25677Y17506D01*
X25591Y17470D01*
X25517Y17413D01*
X25460Y17339D01*
X25428Y17262D01*
X25160D01*
X25117Y17254D01*
X25116Y17254D01*
X25080Y17339D01*
X25023Y17413D01*
X24949Y17470D01*
X24863Y17506D01*
X24770Y17518D01*
X24677Y17506D01*
X24591Y17470D01*
X24517Y17413D01*
X24460Y17339D01*
X24424Y17253D01*
X24412Y17160D01*
X24424Y17067D01*
X24460Y16981D01*
X24517Y16907D01*
X24591Y16850D01*
X24677Y16814D01*
X24770Y16802D01*
X24863Y16814D01*
X24949Y16850D01*
X25023Y16907D01*
X25080Y16981D01*
X25106Y17043D01*
X25117Y17046D01*
X25160Y17038D01*
X25436D01*
X25460Y16981D01*
X25517Y16907D01*
X25591Y16850D01*
X25677Y16814D01*
X25770Y16802D01*
X25863Y16814D01*
X25949Y16850D01*
X26023Y16907D01*
X26080Y16981D01*
X26116Y17067D01*
X26128Y17160D01*
X26116Y17253D01*
X26080Y17339D01*
X26023Y17413D01*
X25949Y17470D01*
X25941Y17474D01*
X25931Y17523D01*
X26619Y18211D01*
X26619Y18211D01*
X26644Y18247D01*
X26648Y18268D01*
X26698Y18263D01*
Y8716D01*
X25124Y7142D01*
X7276D01*
X6022Y8397D01*
Y26170D01*
X6802D01*
X6850Y26165D01*
X6850Y26120D01*
Y25595D01*
X7970D01*
X7970Y26165D01*
X8018Y26170D01*
X12942D01*
X12990Y26165D01*
X12990Y26120D01*
Y25595D01*
X14110D01*
X14110Y26165D01*
X14158Y26170D01*
X15349D01*
X16270Y27091D01*
X16306Y27066D01*
D02*
G37*
G36*
X23312Y23841D02*
X23360Y23840D01*
Y23780D01*
X23312Y23778D01*
Y23750D01*
X23311Y23756D01*
X23309Y23761D01*
X23306Y23765D01*
X23302Y23769D01*
X23296Y23772D01*
X23289Y23775D01*
X23286Y23776D01*
X23255Y23775D01*
Y23780D01*
X23250Y23780D01*
Y23840D01*
X23255Y23840D01*
Y23845D01*
X23257Y23844D01*
X23261Y23843D01*
X23267Y23843D01*
X23277Y23842D01*
X23282Y23843D01*
X23289Y23845D01*
X23296Y23847D01*
X23302Y23851D01*
X23306Y23855D01*
X23309Y23859D01*
X23311Y23864D01*
X23312Y23870D01*
Y23841D01*
D02*
G37*
G36*
X25112Y23831D02*
X25170Y23830D01*
Y23770D01*
X25112Y23767D01*
Y23740D01*
X25111Y23746D01*
X25109Y23751D01*
X25106Y23755D01*
X25102Y23759D01*
X25096Y23762D01*
X25089Y23765D01*
X25087Y23766D01*
X25065Y23765D01*
Y23769D01*
X25062Y23770D01*
X25050Y23770D01*
Y23830D01*
X25062Y23830D01*
X25065Y23831D01*
Y23835D01*
X25067Y23834D01*
X25071Y23833D01*
X25077Y23833D01*
X25080Y23832D01*
X25082Y23833D01*
X25089Y23835D01*
X25096Y23837D01*
X25102Y23841D01*
X25106Y23845D01*
X25109Y23849D01*
X25111Y23854D01*
X25112Y23860D01*
Y23831D01*
D02*
G37*
G36*
X25035Y21310D02*
X24964D01*
X24965Y21312D01*
X24966Y21316D01*
X24966Y21322D01*
X24968Y21339D01*
X24969Y21415D01*
X25029D01*
X25035Y21310D01*
D02*
G37*
G36*
X18808Y22006D02*
X18803Y21996D01*
X18798Y21978D01*
X18794Y21954D01*
X18791Y21922D01*
X18785Y21786D01*
X18784Y21702D01*
X18784Y21504D01*
X18718D01*
X18744Y21485D01*
X18797Y21450D01*
X18824Y21436D01*
X18850Y21424D01*
X18875Y21415D01*
X18900Y21407D01*
X18925Y21402D01*
X18949Y21398D01*
X18973Y21397D01*
Y21337D01*
X18949Y21336D01*
X18925Y21333D01*
X18900Y21328D01*
X18875Y21320D01*
X18850Y21310D01*
X18824Y21298D01*
X18797Y21284D01*
X18771Y21268D01*
X18716Y21229D01*
Y21504D01*
X18433D01*
X18433Y21712D01*
X18433Y21726D01*
X18421Y21922D01*
X18415Y21954D01*
X18409Y21978D01*
X18401Y21996D01*
X18393Y22006D01*
X18383Y22010D01*
X18814D01*
X18808Y22006D01*
D02*
G37*
G36*
X18784Y20637D02*
X18784Y20376D01*
X18784Y20314D01*
X18434D01*
X18433Y20640D01*
X18784D01*
X18784Y20637D01*
D02*
G37*
G36*
X24756Y21578D02*
X24685D01*
X24687Y21580D01*
X24687Y21584D01*
X24688Y21590D01*
X24690Y21607D01*
X24691Y21682D01*
X24751D01*
X24756Y21578D01*
D02*
G37*
G36*
X18784Y22724D02*
X18798Y22472D01*
X18803Y22454D01*
X18808Y22444D01*
X18814Y22440D01*
X18383D01*
X18393Y22444D01*
X18401Y22454D01*
X18409Y22472D01*
X18415Y22496D01*
X18421Y22528D01*
X18425Y22566D01*
X18432Y22664D01*
X18434Y22790D01*
X18784D01*
X18784Y22724D01*
D02*
G37*
G36*
X25112Y22248D02*
X25111Y22252D01*
X25109Y22256D01*
X25107Y22259D01*
X25103Y22262D01*
X25098Y22264D01*
X25092Y22266D01*
X25085Y22268D01*
X25077Y22269D01*
X25068Y22270D01*
X25058Y22270D01*
Y22330D01*
X25068Y22330D01*
X25085Y22332D01*
X25092Y22334D01*
X25098Y22336D01*
X25103Y22338D01*
X25107Y22341D01*
X25109Y22344D01*
X25111Y22348D01*
X25112Y22352D01*
Y22248D01*
D02*
G37*
G36*
X25715Y21657D02*
X25726D01*
X25723Y21656D01*
X25720Y21655D01*
X25718Y21653D01*
X25716Y21649D01*
X25715Y21648D01*
X25715Y21645D01*
X25714D01*
X25714Y21645D01*
X25712Y21640D01*
X25711Y21634D01*
X25711Y21627D01*
X25710Y21610D01*
X25650D01*
X25650Y21619D01*
X25649Y21634D01*
X25648Y21640D01*
X25646Y21645D01*
X25646Y21645D01*
X25645D01*
X25645Y21647D01*
X25644Y21649D01*
X25642Y21653D01*
X25640Y21655D01*
X25637Y21656D01*
X25634Y21657D01*
X25647D01*
X25647Y21657D01*
X25649Y21674D01*
X25650Y21750D01*
X25710D01*
X25715Y21657D01*
D02*
G37*
G36*
X25820Y17499D02*
X25821Y17489D01*
X25823Y17480D01*
X25825Y17475D01*
X25825D01*
X25825Y17474D01*
X25825Y17472D01*
X25828Y17465D01*
X25832Y17459D01*
X25837Y17453D01*
X25842Y17449D01*
X25848Y17446D01*
X25854Y17443D01*
X25821Y17445D01*
X25820Y17370D01*
X25760D01*
X25756Y17450D01*
X25725Y17452D01*
X25732Y17453D01*
X25738Y17456D01*
X25743Y17459D01*
X25747Y17464D01*
X25751Y17469D01*
X25754Y17475D01*
X25757Y17483D01*
X25759Y17491D01*
X25760Y17500D01*
X25760Y17510D01*
X25820D01*
X25820Y17499D01*
D02*
G37*
G36*
X20152Y18330D02*
X20180D01*
X20174Y18330D01*
X20169Y18328D01*
X20165Y18325D01*
X20161Y18321D01*
X20157Y18315D01*
X20155Y18309D01*
X20153Y18304D01*
X20155Y18265D01*
X20085D01*
X20086Y18267D01*
X20087Y18271D01*
X20087Y18277D01*
X20089Y18293D01*
X20087Y18301D01*
X20085Y18309D01*
X20082Y18315D01*
X20079Y18321D01*
X20075Y18325D01*
X20071Y18328D01*
X20066Y18330D01*
X20060Y18330D01*
X20089D01*
X20090Y18370D01*
X20150D01*
X20152Y18330D01*
D02*
G37*
G36*
X19923Y17561D02*
X19920Y17547D01*
X19918Y17534D01*
X19918Y17521D01*
X19919Y17509D01*
X19921Y17498D01*
X19925Y17487D01*
X19930Y17477D01*
X19936Y17468D01*
X19944Y17459D01*
X19887Y17431D01*
X19880Y17437D01*
X19872Y17443D01*
X19863Y17448D01*
X19852Y17454D01*
X19827Y17467D01*
X19796Y17479D01*
X19759Y17491D01*
X19928Y17576D01*
X19923Y17561D01*
D02*
G37*
G36*
X20335Y18600D02*
X20337Y18595D01*
X20340Y18590D01*
X20344Y18586D01*
X20349Y18583D01*
X20356Y18580D01*
X20360Y18579D01*
X20390Y18581D01*
Y18576D01*
X20395Y18576D01*
Y18516D01*
X20390Y18516D01*
Y18510D01*
X20388Y18511D01*
X20384Y18512D01*
X20379Y18513D01*
X20369Y18514D01*
X20364Y18513D01*
X20356Y18511D01*
X20349Y18508D01*
X20344Y18505D01*
X20340Y18501D01*
X20337Y18496D01*
X20335Y18491D01*
X20334Y18486D01*
Y18515D01*
X20286Y18516D01*
Y18576D01*
X20334Y18578D01*
Y18606D01*
X20335Y18600D01*
D02*
G37*
G36*
X24155Y18480D02*
X24153Y18481D01*
X24149Y18482D01*
X24143Y18483D01*
X24126Y18484D01*
X24050Y18485D01*
Y18545D01*
X24155Y18551D01*
Y18480D01*
D02*
G37*
G36*
X18641Y17559D02*
X18669D01*
X18663Y17558D01*
X18658Y17557D01*
X18653Y17554D01*
X18649Y17549D01*
X18646Y17544D01*
X18643Y17537D01*
X18642Y17533D01*
X18644Y17497D01*
X18573D01*
X18574Y17499D01*
X18575Y17503D01*
X18576Y17508D01*
X18577Y17523D01*
X18576Y17530D01*
X18574Y17537D01*
X18571Y17544D01*
X18568Y17549D01*
X18564Y17554D01*
X18559Y17557D01*
X18554Y17558D01*
X18549Y17559D01*
X18578D01*
X18579Y17601D01*
X18639D01*
X18641Y17559D01*
D02*
G37*
G36*
X21951Y17845D02*
X21949Y17845D01*
X21948Y17843D01*
X21948Y17841D01*
X21949Y17838D01*
X21951Y17834D01*
X21955Y17828D01*
X21960Y17822D01*
X21973Y17807D01*
X21982Y17798D01*
X21865Y17775D01*
X21850Y17788D01*
X21836Y17800D01*
X21822Y17811D01*
X21808Y17820D01*
X21794Y17828D01*
X21779Y17835D01*
X21765Y17840D01*
X21751Y17844D01*
X21737Y17846D01*
X21723Y17846D01*
X21951Y17845D01*
D02*
G37*
G36*
X16962Y18105D02*
X16960Y18106D01*
X16956Y18107D01*
X16951Y18107D01*
X16933Y18109D01*
X16858Y18110D01*
Y18170D01*
X16962Y18175D01*
Y18105D01*
D02*
G37*
G36*
X21547Y17569D02*
X21537Y17562D01*
X21492Y17526D01*
X21468Y17504D01*
X21429Y17467D01*
X21372Y17494D01*
X21380Y17503D01*
X21386Y17512D01*
X21391Y17522D01*
X21394Y17531D01*
X21395Y17540D01*
X21394Y17549D01*
X21391Y17559D01*
X21386Y17568D01*
X21380Y17578D01*
X21372Y17587D01*
X21547Y17569D01*
D02*
G37*
G36*
X21619Y18220D02*
Y18191D01*
X21690Y18190D01*
Y18130D01*
X21619Y18126D01*
Y18100D01*
Y17952D01*
X21619Y17966D01*
X21616Y17980D01*
X21613Y17993D01*
X21608Y18007D01*
X21602Y18021D01*
X21594Y18035D01*
X21585Y18049D01*
X21574Y18063D01*
X21562Y18077D01*
X21549Y18091D01*
X21562Y18130D01*
X21559Y18130D01*
Y18190D01*
X21571Y18190D01*
X21581Y18191D01*
X21584Y18192D01*
X21585Y18195D01*
Y18195D01*
X21587Y18194D01*
X21591Y18193D01*
X21592Y18193D01*
X21598Y18195D01*
X21604Y18197D01*
X21610Y18201D01*
X21614Y18205D01*
X21617Y18209D01*
X21619Y18214D01*
X21619Y18217D01*
X21619Y18229D01*
Y18220D01*
D02*
G37*
G36*
X7313Y17390D02*
X7378Y17388D01*
Y17328D01*
X7313Y17325D01*
Y17315D01*
X7311Y17317D01*
X7309Y17320D01*
X7305Y17322D01*
X7300Y17323D01*
X7297Y17324D01*
X7274Y17323D01*
Y17327D01*
X7259Y17328D01*
X7247Y17328D01*
Y17388D01*
X7259Y17389D01*
X7274Y17390D01*
Y17394D01*
X7276Y17393D01*
X7280Y17392D01*
X7285Y17391D01*
X7288Y17391D01*
X7294Y17392D01*
X7300Y17393D01*
X7305Y17395D01*
X7309Y17397D01*
X7311Y17399D01*
X7313Y17402D01*
Y17390D01*
D02*
G37*
G36*
X23946Y18546D02*
X23995Y18545D01*
Y18485D01*
X23946Y18483D01*
Y18455D01*
X23946Y18461D01*
X23944Y18466D01*
X23941Y18471D01*
X23937Y18475D01*
X23931Y18478D01*
X23924Y18481D01*
X23921Y18482D01*
X23891Y18480D01*
Y18485D01*
X23885Y18485D01*
Y18545D01*
X23891Y18546D01*
Y18551D01*
X23893Y18550D01*
X23897Y18549D01*
X23902Y18548D01*
X23912Y18547D01*
X23917Y18548D01*
X23924Y18550D01*
X23931Y18553D01*
X23937Y18556D01*
X23941Y18560D01*
X23944Y18565D01*
X23946Y18570D01*
X23946Y18575D01*
Y18546D01*
D02*
G37*
G36*
X21810Y17463D02*
X21812Y17451D01*
X21814Y17439D01*
X21817Y17427D01*
X21821Y17416D01*
X21826Y17405D01*
X21832Y17395D01*
X21838Y17385D01*
X21846Y17375D01*
X21855Y17366D01*
X21665D01*
X21674Y17375D01*
X21682Y17385D01*
X21688Y17395D01*
X21694Y17405D01*
X21699Y17416D01*
X21703Y17427D01*
X21706Y17439D01*
X21708Y17451D01*
X21710Y17463D01*
X21710Y17476D01*
X21810D01*
X21810Y17463D01*
D02*
G37*
%LPC*%
G36*
X7970Y22235D02*
X6850D01*
Y21665D01*
X7970D01*
Y22235D01*
D02*
G37*
G36*
X22430Y11549D02*
X22354Y11534D01*
X22289Y11491D01*
X22246Y11426D01*
X22231Y11350D01*
X22238Y11316D01*
X22191Y11269D01*
X22166Y11233D01*
X22164Y11220D01*
X22112D01*
Y10214D01*
X22428D01*
Y10700D01*
X22776Y11048D01*
X22854D01*
Y10938D01*
X23486D01*
Y11393D01*
X22854D01*
Y11272D01*
X22730D01*
X22687Y11264D01*
X22651Y11239D01*
X22651Y11239D01*
X22612Y11271D01*
X22614Y11274D01*
X22629Y11350D01*
X22614Y11426D01*
X22571Y11491D01*
X22506Y11534D01*
X22430Y11549D01*
D02*
G37*
G36*
X7970Y25385D02*
X6850D01*
Y24815D01*
X7970D01*
Y25385D01*
D02*
G37*
G36*
Y21455D02*
X6850D01*
Y20885D01*
X7970D01*
Y21455D01*
D02*
G37*
G36*
X14110Y25385D02*
X12990D01*
Y24815D01*
X14110D01*
Y25385D01*
D02*
G37*
G36*
X14120Y22225D02*
X13000D01*
Y21655D01*
X14120D01*
Y22225D01*
D02*
G37*
G36*
X14110Y23015D02*
X12990D01*
Y22445D01*
X14110D01*
Y23015D01*
D02*
G37*
G36*
X7970Y23815D02*
X6850D01*
Y23245D01*
X7970D01*
Y23815D01*
D02*
G37*
G36*
X14110Y23805D02*
X12990D01*
Y23235D01*
X14110D01*
Y23805D01*
D02*
G37*
G36*
X7970Y24595D02*
X6850D01*
Y24441D01*
X6823Y24415D01*
X6800Y24407D01*
X6794Y24407D01*
X6793Y24407D01*
X6792Y24408D01*
X6792Y24408D01*
X6783Y24414D01*
X6740Y24422D01*
X6697Y24414D01*
X6661Y24389D01*
X6181Y23909D01*
X6156Y23873D01*
X6148Y23830D01*
X6148Y23830D01*
Y20610D01*
X6148Y20610D01*
X6156Y20567D01*
X6181Y20531D01*
X6306Y20405D01*
Y20355D01*
X6261Y20309D01*
X6236Y20273D01*
X6228Y20230D01*
X6228Y20230D01*
Y19690D01*
X6228Y19690D01*
X6236Y19647D01*
X6261Y19611D01*
X7091Y18781D01*
X7091Y18781D01*
X7127Y18756D01*
X7170Y18748D01*
X8224D01*
X8259Y18712D01*
X8240Y18666D01*
X8207D01*
Y18034D01*
X8662D01*
Y18208D01*
X8699Y18239D01*
X9031D01*
X9031Y18239D01*
X9074Y18247D01*
X9110Y18272D01*
X9356Y18518D01*
X9954D01*
X10038Y18434D01*
Y17506D01*
X10004Y17472D01*
X9930D01*
X9896Y17500D01*
Y17562D01*
X9304D01*
Y17515D01*
X9302Y17511D01*
X9297Y17504D01*
X9254Y17477D01*
X9230Y17482D01*
X8656D01*
X8637Y17528D01*
X8962Y17853D01*
X9275D01*
X9304Y17829D01*
Y17718D01*
X9896D01*
Y18153D01*
X9304D01*
Y18101D01*
X9275Y18077D01*
X8915D01*
X8915Y18077D01*
X8872Y18069D01*
X8836Y18045D01*
X8836Y18045D01*
X8364Y17573D01*
X8333Y17580D01*
X8313Y17592D01*
X8308Y17616D01*
X8290Y17642D01*
X8264Y17660D01*
X8263Y17661D01*
X8266Y17676D01*
X8258Y17719D01*
X8233Y17755D01*
X8029Y17959D01*
X7993Y17984D01*
X7991Y17984D01*
X7993Y18034D01*
X7993D01*
Y18666D01*
X7538D01*
Y18034D01*
X7618D01*
X7638Y18010D01*
X7646Y17967D01*
X7671Y17931D01*
X7801Y17801D01*
X7801Y17801D01*
X7837Y17776D01*
X7880Y17768D01*
X7880Y17768D01*
X7904D01*
X8019Y17653D01*
X8018Y17642D01*
X8000Y17616D01*
X7994Y17585D01*
Y17526D01*
X8000Y17495D01*
X8018Y17468D01*
Y17445D01*
X8000Y17419D01*
X7994Y17388D01*
Y17329D01*
X8000Y17298D01*
X8001Y17297D01*
X8014Y17260D01*
X8001Y17223D01*
X8000Y17222D01*
X7994Y17191D01*
Y17132D01*
X8000Y17101D01*
X8018Y17075D01*
X8044Y17057D01*
X8075Y17051D01*
X8233D01*
X8246Y17053D01*
X8247Y17053D01*
X8250Y17054D01*
X8258Y17056D01*
X8263Y17055D01*
X8276Y17065D01*
X8277Y17065D01*
X8277Y17065D01*
X8277Y17065D01*
X8279Y17065D01*
X8280Y17066D01*
X8282Y17066D01*
X8293Y17067D01*
X8295Y17067D01*
X8295Y17067D01*
X8295Y17066D01*
X8295Y17066D01*
X8296Y17066D01*
X8296Y17066D01*
X8296Y17066D01*
X8296Y17066D01*
X8297Y17066D01*
X8297Y17066D01*
X8297Y17066D01*
X8297Y17066D01*
X8298Y17065D01*
X8300Y17065D01*
X8300Y17065D01*
X8300Y17065D01*
X8301Y17065D01*
X8301Y17065D01*
X8302Y17065D01*
X8303Y17065D01*
X8303Y17065D01*
X8317Y17056D01*
X8360Y17048D01*
X8403Y17056D01*
X8439Y17081D01*
X8616Y17258D01*
X9230D01*
X9254Y17263D01*
X9297Y17236D01*
X9304Y17227D01*
Y17127D01*
X9478D01*
Y16880D01*
X9478Y16880D01*
X9486Y16837D01*
X9508Y16805D01*
Y16640D01*
X9478Y16603D01*
X9383D01*
Y16208D01*
X9857D01*
Y16603D01*
X9762D01*
X9732Y16640D01*
Y16850D01*
X9732Y16850D01*
X9724Y16893D01*
X9702Y16925D01*
Y17127D01*
X9896D01*
Y17220D01*
X9930Y17248D01*
X10050D01*
X10050Y17248D01*
X10093Y17256D01*
X10129Y17281D01*
X10196Y17348D01*
X10960D01*
X10960Y17348D01*
X11003Y17356D01*
X11039Y17381D01*
X11126Y17468D01*
X11760D01*
X11788Y17445D01*
Y17323D01*
X12262D01*
Y17837D01*
X11788D01*
Y17715D01*
X11760Y17692D01*
X11080D01*
X11080Y17692D01*
X11037Y17684D01*
X11001Y17659D01*
X11001Y17659D01*
X10914Y17572D01*
X10262D01*
Y18480D01*
X10262Y18480D01*
X10254Y18523D01*
X10229Y18559D01*
X10229Y18559D01*
X10103Y18685D01*
X10103Y18687D01*
X10077Y18727D01*
X10037Y18753D01*
X9990Y18762D01*
X9320D01*
X9273Y18753D01*
X9233Y18727D01*
X9207Y18687D01*
X9207Y18685D01*
X8985Y18463D01*
X8699D01*
X8662Y18494D01*
Y18666D01*
X8572D01*
X8554Y18688D01*
X8545Y18731D01*
X8521Y18768D01*
X8349Y18939D01*
X8333Y18950D01*
X8348Y19000D01*
X8845D01*
Y20120D01*
X8175D01*
Y19022D01*
X8175Y19000D01*
X8137Y18972D01*
X7216D01*
X6452Y19736D01*
Y20184D01*
X6546Y20278D01*
X6790D01*
X6800Y20280D01*
X6850Y20242D01*
Y20095D01*
X7970D01*
Y20665D01*
X6850D01*
Y20538D01*
X6800Y20500D01*
X6790Y20502D01*
X6526D01*
X6372Y20656D01*
Y23784D01*
X6799Y24211D01*
X6814Y24212D01*
X6850Y24177D01*
Y24025D01*
X7970D01*
Y24595D01*
D02*
G37*
G36*
X14110Y24585D02*
X12990D01*
Y24015D01*
X14110D01*
Y24585D01*
D02*
G37*
G36*
X7970Y23015D02*
X6850D01*
Y22445D01*
X7970D01*
Y23015D01*
D02*
G37*
G36*
X14120Y21445D02*
X13000D01*
Y20875D01*
X14120D01*
Y21445D01*
D02*
G37*
G36*
X25770Y16518D02*
X25677Y16506D01*
X25591Y16470D01*
X25517Y16413D01*
X25460Y16339D01*
X25424Y16253D01*
X25412Y16160D01*
X25424Y16067D01*
X25460Y15981D01*
X25517Y15907D01*
X25591Y15850D01*
X25677Y15814D01*
X25770Y15802D01*
X25863Y15814D01*
X25949Y15850D01*
X26023Y15907D01*
X26080Y15981D01*
X26116Y16067D01*
X26128Y16160D01*
X26116Y16253D01*
X26080Y16339D01*
X26023Y16413D01*
X25949Y16470D01*
X25863Y16506D01*
X25770Y16518D01*
D02*
G37*
G36*
X12785Y20120D02*
X12115D01*
Y19000D01*
X12785D01*
Y20120D01*
D02*
G37*
G36*
X11985Y16495D02*
X11275D01*
Y15785D01*
X11985D01*
Y16495D01*
D02*
G37*
G36*
X15682Y19166D02*
X15247D01*
Y18574D01*
X15250D01*
X15291Y18524D01*
X15286Y18494D01*
X15301Y18418D01*
X15344Y18354D01*
X15408Y18311D01*
X15484Y18296D01*
X15560Y18311D01*
X15625Y18354D01*
X15668Y18418D01*
X15683Y18494D01*
X15677Y18524D01*
X15682Y18574D01*
X15682Y18574D01*
X15682Y18574D01*
Y19166D01*
D02*
G37*
G36*
X11985Y20120D02*
X11315D01*
Y19000D01*
X11985D01*
Y20120D01*
D02*
G37*
G36*
X9625D02*
X8955D01*
Y19000D01*
X9625D01*
Y20120D01*
D02*
G37*
G36*
X16273Y19166D02*
X15838D01*
Y18574D01*
X16273D01*
Y18758D01*
X16390D01*
X16409Y18729D01*
X16474Y18686D01*
X16550Y18671D01*
X16626Y18686D01*
X16691Y18729D01*
X16734Y18794D01*
X16749Y18870D01*
X16734Y18946D01*
X16691Y19011D01*
X16626Y19054D01*
X16550Y19069D01*
X16474Y19054D01*
X16409Y19011D01*
X16390Y18982D01*
X16273D01*
Y19166D01*
D02*
G37*
G36*
X11205Y20120D02*
X10535D01*
Y19000D01*
X11205D01*
Y20120D01*
D02*
G37*
G36*
X10405D02*
X9735D01*
Y19000D01*
X10405D01*
Y20120D01*
D02*
G37*
G36*
X12630Y16498D02*
X12537Y16486D01*
X12451Y16450D01*
X12377Y16393D01*
X12320Y16319D01*
X12284Y16233D01*
X12272Y16140D01*
X12284Y16047D01*
X12320Y15961D01*
X12377Y15887D01*
X12451Y15830D01*
X12537Y15794D01*
X12630Y15782D01*
X12723Y15794D01*
X12809Y15830D01*
X12883Y15887D01*
X12940Y15961D01*
X12976Y16047D01*
X12988Y16140D01*
X12976Y16233D01*
X12940Y16319D01*
X12883Y16393D01*
X12809Y16450D01*
X12723Y16486D01*
X12630Y16498D01*
D02*
G37*
%LPD*%
G36*
X6912Y24250D02*
X6912Y24256D01*
X6910Y24261D01*
X6907Y24265D01*
X6903Y24269D01*
X6897Y24272D01*
X6890Y24275D01*
X6882Y24277D01*
X6873Y24279D01*
X6867Y24279D01*
X6775Y24275D01*
Y24345D01*
X6777Y24344D01*
X6781Y24343D01*
X6787Y24343D01*
X6804Y24341D01*
X6863Y24340D01*
X6873Y24341D01*
X6882Y24343D01*
X6890Y24345D01*
X6897Y24348D01*
X6903Y24351D01*
X6907Y24355D01*
X6910Y24359D01*
X6912Y24364D01*
X6912Y24370D01*
Y24250D01*
D02*
G37*
G36*
X9624Y17190D02*
X9648D01*
X9643Y17189D01*
X9638Y17187D01*
X9634Y17184D01*
X9630Y17180D01*
X9627Y17175D01*
X9625Y17170D01*
X9625Y17165D01*
X9624D01*
X9623Y17160D01*
X9621Y17151D01*
X9620Y17141D01*
X9620Y17130D01*
X9560D01*
X9560Y17141D01*
X9559Y17151D01*
X9557Y17160D01*
X9556Y17165D01*
X9555D01*
X9556Y17167D01*
X9556Y17167D01*
X9555Y17168D01*
X9553Y17175D01*
X9550Y17180D01*
X9546Y17184D01*
X9542Y17187D01*
X9537Y17189D01*
X9532Y17190D01*
X9558D01*
X9559Y17194D01*
X9560Y17270D01*
X9620D01*
X9624Y17190D01*
D02*
G37*
G36*
X8249Y17399D02*
X8251Y17397D01*
X8255Y17395D01*
X8259Y17393D01*
X8260Y17393D01*
X8273Y17394D01*
Y17390D01*
X8279Y17390D01*
X8298Y17389D01*
X8308Y17388D01*
Y17328D01*
X8298Y17328D01*
X8273Y17326D01*
Y17323D01*
X8271Y17324D01*
X8267Y17325D01*
X8266Y17325D01*
X8265Y17325D01*
X8259Y17323D01*
X8255Y17322D01*
X8251Y17320D01*
X8249Y17317D01*
X8247Y17315D01*
Y17327D01*
X8244Y17327D01*
X8168Y17328D01*
Y17388D01*
X8247Y17392D01*
Y17402D01*
X8249Y17399D01*
D02*
G37*
G36*
X9365Y17996D02*
X9415Y17995D01*
Y17935D01*
X9365Y17933D01*
Y17905D01*
X9364Y17911D01*
X9363Y17916D01*
X9360Y17921D01*
X9355Y17924D01*
X9350Y17928D01*
X9343Y17930D01*
X9340Y17931D01*
X9310Y17930D01*
Y17935D01*
X9305Y17935D01*
Y17995D01*
X9310Y17995D01*
Y18001D01*
X9312Y18000D01*
X9316Y17999D01*
X9322Y17998D01*
X9331Y17997D01*
X9336Y17998D01*
X9343Y18000D01*
X9350Y18003D01*
X9355Y18006D01*
X9360Y18010D01*
X9363Y18014D01*
X9364Y18020D01*
X9365Y18025D01*
Y17996D01*
D02*
G37*
G36*
X6912Y20320D02*
X6912Y20326D01*
X6910Y20331D01*
X6907Y20335D01*
X6903Y20339D01*
X6897Y20343D01*
X6890Y20345D01*
X6882Y20347D01*
X6873Y20349D01*
X6863Y20350D01*
X6851Y20350D01*
Y20410D01*
X6863Y20410D01*
X6873Y20411D01*
X6882Y20413D01*
X6890Y20415D01*
X6897Y20417D01*
X6903Y20421D01*
X6907Y20425D01*
X6910Y20429D01*
X6912Y20434D01*
X6912Y20440D01*
Y20320D01*
D02*
G37*
G36*
X9834Y17414D02*
X9836Y17409D01*
X9839Y17405D01*
X9844Y17401D01*
X9849Y17398D01*
X9856Y17395D01*
X9860Y17394D01*
X9895Y17395D01*
Y17390D01*
X9895Y17390D01*
Y17330D01*
X9895Y17330D01*
Y17325D01*
X9893Y17326D01*
X9889Y17327D01*
X9883Y17327D01*
X9870Y17328D01*
X9864Y17327D01*
X9856Y17325D01*
X9849Y17322D01*
X9844Y17319D01*
X9839Y17315D01*
X9836Y17311D01*
X9834Y17306D01*
X9834Y17300D01*
Y17329D01*
X9790Y17330D01*
Y17390D01*
X9834Y17392D01*
Y17420D01*
X9834Y17414D01*
D02*
G37*
G36*
X8472Y18653D02*
X8477D01*
X8476Y18651D01*
X8475Y18647D01*
X8474Y18641D01*
X8474Y18636D01*
X8474Y18633D01*
X8476Y18626D01*
X8479Y18619D01*
X8482Y18613D01*
X8486Y18609D01*
X8491Y18606D01*
X8496Y18604D01*
X8501Y18604D01*
X8472D01*
X8472Y18549D01*
X8411D01*
X8409Y18604D01*
X8382D01*
X8387Y18604D01*
X8392Y18606D01*
X8397Y18609D01*
X8401Y18613D01*
X8404Y18619D01*
X8407Y18626D01*
X8407Y18628D01*
X8406Y18653D01*
X8411D01*
X8411Y18665D01*
X8472D01*
X8472Y18653D01*
D02*
G37*
G36*
X15515Y18696D02*
X15517Y18685D01*
X15520Y18674D01*
X15525Y18663D01*
X15531Y18651D01*
X15538Y18640D01*
X15540Y18636D01*
X15544D01*
X15540Y18636D01*
X15546Y18628D01*
X15556Y18616D01*
X15567Y18603D01*
X15579Y18591D01*
X15515D01*
X15515Y18587D01*
X15514Y18575D01*
X15454D01*
X15454Y18587D01*
X15454Y18591D01*
X15390D01*
X15402Y18603D01*
X15423Y18628D01*
X15428Y18636D01*
X15424Y18636D01*
X15429D01*
X15431Y18640D01*
X15438Y18651D01*
X15444Y18663D01*
X15449Y18674D01*
X15452Y18685D01*
X15454Y18696D01*
X15454Y18707D01*
X15514D01*
X15515Y18696D01*
D02*
G37*
G36*
X8248Y17203D02*
X8251Y17200D01*
X8254Y17198D01*
X8258Y17197D01*
X8263Y17195D01*
X8268Y17194D01*
X8275Y17193D01*
X8282Y17192D01*
X8298Y17192D01*
Y17132D01*
X8290Y17131D01*
X8275Y17130D01*
X8268Y17129D01*
X8263Y17128D01*
X8258Y17127D01*
X8254Y17125D01*
X8251Y17123D01*
X8248Y17120D01*
X8247Y17118D01*
Y17205D01*
X8248Y17203D01*
D02*
G37*
G36*
X9654Y16603D02*
X9653Y16599D01*
X9653Y16593D01*
X9652Y16579D01*
X9653Y16572D01*
X9655Y16564D01*
X9657Y16557D01*
X9661Y16552D01*
X9665Y16548D01*
X9669Y16545D01*
X9674Y16543D01*
X9680Y16542D01*
X9651D01*
X9650Y16500D01*
X9590D01*
X9588Y16542D01*
X9560D01*
X9566Y16543D01*
X9571Y16545D01*
X9575Y16548D01*
X9579Y16552D01*
X9582Y16557D01*
X9585Y16564D01*
X9586Y16569D01*
X9585Y16605D01*
X9655D01*
X9654Y16603D01*
D02*
G37*
G36*
X7783Y18096D02*
X7810D01*
X7804Y18096D01*
X7799Y18094D01*
X7795Y18091D01*
X7791Y18087D01*
X7788Y18081D01*
X7785Y18074D01*
X7784Y18072D01*
X7785Y18045D01*
X7780D01*
X7780Y18035D01*
X7720D01*
X7720Y18045D01*
X7715D01*
X7716Y18047D01*
X7717Y18051D01*
X7717Y18057D01*
X7718Y18063D01*
X7717Y18067D01*
X7715Y18074D01*
X7713Y18081D01*
X7709Y18087D01*
X7705Y18091D01*
X7701Y18094D01*
X7696Y18096D01*
X7690Y18096D01*
X7719D01*
X7720Y18150D01*
X7780D01*
X7783Y18096D01*
D02*
G37*
G36*
X8601Y18405D02*
X8603Y18400D01*
X8606Y18396D01*
X8610Y18392D01*
X8616Y18389D01*
X8622Y18386D01*
X8627Y18385D01*
X8664Y18386D01*
Y18316D01*
X8662Y18317D01*
X8658Y18318D01*
X8652Y18318D01*
X8637Y18319D01*
X8630Y18318D01*
X8622Y18316D01*
X8616Y18314D01*
X8610Y18310D01*
X8606Y18306D01*
X8603Y18302D01*
X8601Y18297D01*
X8601Y18291D01*
Y18320D01*
X8559Y18321D01*
Y18381D01*
X8601Y18383D01*
Y18411D01*
X8601Y18405D01*
D02*
G37*
G36*
X8184Y17653D02*
X8185Y17644D01*
X8192D01*
X8191Y17641D01*
X8189Y17637D01*
X8188Y17632D01*
X8188Y17630D01*
X8189Y17626D01*
X8192Y17619D01*
X8195Y17613D01*
X8199Y17609D01*
X8203Y17606D01*
X8208Y17604D01*
X8214Y17604D01*
X8185D01*
X8184Y17570D01*
X8184Y17555D01*
X8124D01*
X8124Y17570D01*
X8122Y17604D01*
X8094D01*
X8100Y17604D01*
X8105Y17606D01*
X8109Y17609D01*
X8113Y17613D01*
X8117Y17619D01*
X8119Y17626D01*
X8120Y17629D01*
X8120Y17632D01*
X8119Y17637D01*
X8117Y17641D01*
X8116Y17644D01*
X8123D01*
X8124Y17653D01*
X8124Y17665D01*
X8184D01*
X8184Y17653D01*
D02*
G37*
G36*
X11849Y17611D02*
X11900Y17610D01*
Y17550D01*
X11849Y17547D01*
Y17520D01*
X11848Y17526D01*
X11847Y17531D01*
X11844Y17535D01*
X11839Y17539D01*
X11834Y17542D01*
X11827Y17545D01*
X11824Y17546D01*
X11795Y17545D01*
Y17550D01*
X11789Y17550D01*
Y17610D01*
X11795Y17610D01*
Y17615D01*
X11797Y17614D01*
X11801Y17613D01*
X11807Y17613D01*
X11815Y17612D01*
X11820Y17613D01*
X11827Y17615D01*
X11834Y17617D01*
X11839Y17621D01*
X11844Y17625D01*
X11847Y17629D01*
X11848Y17634D01*
X11849Y17640D01*
Y17611D01*
D02*
G37*
G36*
X8328Y17121D02*
X8326Y17123D01*
X8324Y17124D01*
X8321Y17126D01*
X8319Y17127D01*
X8316Y17128D01*
X8313Y17129D01*
X8310Y17129D01*
X8307Y17130D01*
X8303Y17130D01*
X8300Y17130D01*
Y17190D01*
X8303Y17190D01*
X8307Y17190D01*
X8310Y17191D01*
X8313Y17191D01*
X8316Y17192D01*
X8319Y17193D01*
X8321Y17194D01*
X8324Y17196D01*
X8326Y17197D01*
X8328Y17199D01*
Y17121D01*
D02*
G37*
G36*
X9365Y17400D02*
X9370Y17400D01*
Y17340D01*
X9365Y17340D01*
Y17310D01*
X9364Y17316D01*
X9363Y17321D01*
X9360Y17325D01*
X9355Y17329D01*
X9350Y17333D01*
X9343Y17335D01*
X9336Y17337D01*
X9331Y17338D01*
X9265Y17335D01*
Y17405D01*
X9267Y17404D01*
X9271Y17403D01*
X9277Y17403D01*
X9294Y17401D01*
X9323Y17401D01*
X9327Y17401D01*
X9336Y17403D01*
X9343Y17405D01*
X9350Y17407D01*
X9355Y17411D01*
X9360Y17415D01*
X9363Y17419D01*
X9364Y17424D01*
X9365Y17430D01*
Y17400D01*
D02*
G37*
D10*
X20020Y11296D02*
D03*
Y12004D02*
D03*
X14100Y11484D02*
D03*
Y10776D02*
D03*
X17840Y11584D02*
D03*
Y10876D02*
D03*
X20120Y18546D02*
D03*
Y19254D02*
D03*
X23080Y19224D02*
D03*
Y18516D02*
D03*
X15070Y11574D02*
D03*
Y10866D02*
D03*
D11*
X19464Y10680D02*
D03*
X18756D02*
D03*
X17890Y22225D02*
D03*
X18599D02*
D03*
X15394Y14520D02*
D03*
X14686D02*
D03*
X7536Y15770D02*
D03*
X8244D02*
D03*
X14706Y15590D02*
D03*
X15414D02*
D03*
X22656Y15470D02*
D03*
X23364D02*
D03*
X15414Y16650D02*
D03*
X14706D02*
D03*
X22504Y8050D02*
D03*
X21796D02*
D03*
D12*
X18910Y12432D02*
D03*
Y11448D02*
D03*
D13*
X24200Y19165D02*
D03*
Y18495D02*
D03*
X25140Y18525D02*
D03*
Y19195D02*
D03*
X26060Y19095D02*
D03*
Y18425D02*
D03*
X20070Y9595D02*
D03*
Y10265D02*
D03*
X23170Y11835D02*
D03*
Y11165D02*
D03*
D14*
X18856Y19860D02*
D03*
X18344D02*
D03*
D15*
X18600Y19732D02*
D03*
Y19988D02*
D03*
D16*
X7765Y18350D02*
D03*
X8435D02*
D03*
X23315Y14590D02*
D03*
X22645D02*
D03*
X22455Y18100D02*
D03*
X21785D02*
D03*
X16805Y18130D02*
D03*
X16135D02*
D03*
X22645Y13820D02*
D03*
X23315D02*
D03*
X22445Y11860D02*
D03*
X21775D02*
D03*
D17*
X18600Y17735D02*
D03*
Y18365D02*
D03*
X15900Y9355D02*
D03*
Y9985D02*
D03*
X15920Y8085D02*
D03*
Y8715D02*
D03*
D18*
X9600Y17935D02*
D03*
Y17345D02*
D03*
D19*
X16165Y14250D02*
D03*
X16755D02*
D03*
X15465Y18870D02*
D03*
X16055D02*
D03*
X17235Y13370D02*
D03*
X16645D02*
D03*
D20*
X8681Y9074D02*
D03*
D21*
Y14306D02*
D03*
D22*
X12279Y11475D02*
D03*
D23*
X7780Y17260D02*
D03*
D24*
X8154Y17555D02*
D03*
Y17358D02*
D03*
Y17162D02*
D03*
Y16965D02*
D03*
X7406D02*
D03*
Y17162D02*
D03*
Y17358D02*
D03*
Y17555D02*
D03*
D25*
X9620Y16406D02*
D03*
Y15854D02*
D03*
D26*
X23880Y21800D02*
D03*
Y22300D02*
D03*
Y22800D02*
D03*
Y23300D02*
D03*
Y23800D02*
D03*
X25680D02*
D03*
Y23300D02*
D03*
Y22800D02*
D03*
Y22300D02*
D03*
Y21800D02*
D03*
D27*
X18608Y20796D02*
D03*
Y21348D02*
D03*
D28*
X14955Y8340D02*
D03*
X14325D02*
D03*
X14345Y9070D02*
D03*
X14975D02*
D03*
X14955Y9810D02*
D03*
X14325D02*
D03*
X12025Y17580D02*
D03*
X12655D02*
D03*
D29*
X17903Y26620D02*
D03*
X16781D02*
D03*
D30*
X16935Y9910D02*
D03*
Y9410D02*
D03*
Y8910D02*
D03*
Y8410D02*
D03*
X18785Y9910D02*
D03*
Y9410D02*
D03*
Y8910D02*
D03*
Y8410D02*
D03*
D31*
X21693Y13794D02*
D03*
Y13991D02*
D03*
Y14188D02*
D03*
Y14385D02*
D03*
Y14582D02*
D03*
Y14779D02*
D03*
Y14976D02*
D03*
Y15172D02*
D03*
Y15369D02*
D03*
Y15566D02*
D03*
Y15763D02*
D03*
Y15960D02*
D03*
Y16157D02*
D03*
Y16353D02*
D03*
Y16550D02*
D03*
Y16747D02*
D03*
X18088D02*
D03*
Y16550D02*
D03*
Y16353D02*
D03*
Y16157D02*
D03*
Y15960D02*
D03*
Y15763D02*
D03*
Y15566D02*
D03*
Y15369D02*
D03*
Y15172D02*
D03*
Y14976D02*
D03*
Y14779D02*
D03*
Y14582D02*
D03*
Y14385D02*
D03*
Y14188D02*
D03*
Y13991D02*
D03*
Y13794D02*
D03*
D32*
X21367Y17074D02*
D03*
X21170D02*
D03*
X20973D02*
D03*
X20776D02*
D03*
X20579D02*
D03*
X20383D02*
D03*
X20186D02*
D03*
X19989D02*
D03*
X19792D02*
D03*
X19595D02*
D03*
X19398D02*
D03*
X19201D02*
D03*
X19005D02*
D03*
X18808D02*
D03*
X18611D02*
D03*
X18414D02*
D03*
Y13468D02*
D03*
X18611D02*
D03*
X18808D02*
D03*
X19005D02*
D03*
X19201D02*
D03*
X19398D02*
D03*
X19595D02*
D03*
X19792D02*
D03*
X19989D02*
D03*
X20186D02*
D03*
X20383D02*
D03*
X20579D02*
D03*
X20776D02*
D03*
X20973D02*
D03*
X21170D02*
D03*
X21367D02*
D03*
D33*
X19890Y15271D02*
D03*
D34*
X21993Y19414D02*
D03*
Y18686D02*
D03*
X21087D02*
D03*
Y19414D02*
D03*
D35*
X16307Y11563D02*
D03*
X16606D02*
D03*
X16906D02*
D03*
X16008D02*
D03*
X16906Y10973D02*
D03*
X16008D02*
D03*
X16307D02*
D03*
X16606D02*
D03*
D36*
X22867Y16607D02*
D03*
Y16906D02*
D03*
Y17206D02*
D03*
Y16308D02*
D03*
X23457Y17206D02*
D03*
Y16308D02*
D03*
Y16607D02*
D03*
Y16906D02*
D03*
X16893Y16053D02*
D03*
Y15754D02*
D03*
Y15454D02*
D03*
Y16352D02*
D03*
X16303Y15454D02*
D03*
Y16352D02*
D03*
Y16053D02*
D03*
Y15754D02*
D03*
D37*
X20770Y10717D02*
D03*
X21270D02*
D03*
X21770D02*
D03*
X22270D02*
D03*
Y9043D02*
D03*
X21770D02*
D03*
X21270D02*
D03*
X20770D02*
D03*
D38*
X19584Y11296D02*
X20020D01*
X19400Y12369D02*
X19764Y12004D01*
X19464Y10740D02*
X20020Y11296D01*
X19464Y10680D02*
Y10740D01*
X18900Y11420D02*
Y11595D01*
X18756Y10680D02*
X18910Y10834D01*
Y11448D01*
X18200Y11009D02*
X18305Y11115D01*
X18200Y10460D02*
Y11009D01*
Y10460D02*
X18400Y10260D01*
X20050D01*
X18230Y12009D02*
X18295Y11944D01*
X18325D01*
X18401Y11868D01*
Y11181D02*
Y11868D01*
X18335Y11115D02*
X18401Y11181D01*
X18305Y11115D02*
X18335D01*
X18230Y12009D02*
Y12039D01*
X17820Y11564D02*
Y11580D01*
X17819Y11563D02*
X17820Y11564D01*
X18160Y12109D02*
X18230Y12039D01*
X18910Y13080D02*
X19005Y13175D01*
X18910Y12482D02*
Y13080D01*
X18410Y12085D02*
X18900Y11595D01*
X18410Y12085D02*
Y12256D01*
X18371Y12665D02*
X18515Y12809D01*
Y12915D02*
X18708Y13108D01*
X18515Y12809D02*
Y12915D01*
X18365Y12665D02*
X18371D01*
X18320Y12620D02*
X18365Y12665D01*
X18320Y12346D02*
Y12620D01*
X18280Y12874D02*
Y12920D01*
X18084Y12677D02*
X18280Y12874D01*
X18320Y12346D02*
X18410Y12256D01*
X18160Y12109D02*
Y12160D01*
X17365Y12312D02*
X17485Y12192D01*
X17525Y12379D02*
X17645Y12259D01*
X18160Y12160D02*
X18250D01*
X17915Y12279D02*
X18084Y12447D01*
Y12677D01*
X17915Y12059D02*
Y12279D01*
Y12059D02*
X18063Y11911D01*
X18102D01*
X18230Y11783D01*
X17503Y13012D02*
Y13378D01*
X17205Y12714D02*
X17503Y13012D01*
X17205Y12320D02*
Y12714D01*
X17060Y12175D02*
X17205Y12320D01*
X17612Y12885D02*
X17663Y12935D01*
X17602Y12885D02*
X17612D01*
X17365Y12648D02*
X17602Y12885D01*
X17365Y12312D02*
Y12648D01*
X17689Y12725D02*
X17764Y12800D01*
X17669Y12725D02*
X17689D01*
X17525Y12581D02*
X17669Y12725D01*
X17525Y12379D02*
Y12581D01*
X17770Y12480D02*
X17773D01*
X17780Y12473D01*
X17645Y12085D02*
Y12259D01*
X17415Y11855D02*
X17645Y12085D01*
X17485Y12152D02*
Y12192D01*
X17348Y12015D02*
X17485Y12152D01*
X17764Y12810D02*
X17823Y12869D01*
X17764Y12800D02*
Y12810D01*
X17663Y12935D02*
Y13312D01*
X17060Y12930D02*
Y13195D01*
X17800Y13730D02*
Y13750D01*
X17780Y12473D02*
X17924Y12616D01*
X18532Y13158D02*
X18611Y13237D01*
X18172Y13158D02*
X18532D01*
X17823Y12869D02*
Y13036D01*
X17983Y12803D02*
Y12969D01*
X17924Y12744D02*
X17983Y12803D01*
X17924Y12616D02*
Y12744D01*
X17823Y13036D02*
X18192Y13405D01*
X17983Y12969D02*
X18172Y13158D01*
X18270Y12910D02*
X18280Y12920D01*
X17550Y13425D02*
Y13870D01*
X17663Y13312D02*
X17710Y13359D01*
X17503Y13378D02*
X17550Y13425D01*
X17710Y13359D02*
Y13660D01*
X18192Y13405D02*
X18410D01*
X17490Y13930D02*
X17550Y13870D01*
X17270Y13930D02*
Y13944D01*
Y13930D02*
X17490D01*
X17023Y14033D02*
X17615Y14625D01*
X17023Y13968D02*
Y14033D01*
X16958Y13904D02*
X17023Y13968D01*
X17034Y14270D02*
X17315Y14551D01*
X16766Y14270D02*
X17034D01*
X18410Y13405D02*
Y13564D01*
X16922Y12015D02*
X17348D01*
X16935Y12300D02*
X17060Y12175D01*
X16310Y12300D02*
X16935D01*
X17240Y13974D02*
X17848Y14582D01*
X17661Y14625D02*
X17805Y14769D01*
X17615Y14625D02*
X17661D01*
X17459Y15115D02*
X17747D01*
X17315Y14971D02*
X17459Y15115D01*
X17681Y15275D02*
X17775Y15369D01*
X17392Y15275D02*
X17681D01*
X17155Y15038D02*
X17392Y15275D01*
X17315Y14551D02*
Y14971D01*
X19865Y12582D02*
X20102Y12345D01*
X19865Y12582D02*
Y12602D01*
X20169Y12505D02*
X20379D01*
X20025Y12649D02*
X20169Y12505D01*
X20025Y12649D02*
Y12669D01*
X20102Y12345D02*
X20312D01*
X20379Y12505D02*
X20529Y12355D01*
X20731D02*
X20816Y12440D01*
X20675Y12195D02*
X20970Y11900D01*
X20462Y12195D02*
X20675D01*
X20312Y12345D02*
X20462Y12195D01*
X20529Y12355D02*
X20731D01*
X20970Y11900D02*
X21120D01*
X19480Y12987D02*
X19865Y12602D01*
X19480Y12987D02*
Y13090D01*
X19400Y13170D02*
X19480Y13090D01*
X19640Y13054D02*
X20025Y12669D01*
X19640Y13054D02*
Y13156D01*
X19595Y13201D02*
X19640Y13156D01*
X19595Y13201D02*
Y13568D01*
X19800Y13120D02*
X20170Y12750D01*
X19800Y13120D02*
Y13210D01*
X20148Y12998D02*
X20368D01*
X19989Y13157D02*
X20148Y12998D01*
X19989Y13157D02*
Y13568D01*
X20170Y12750D02*
X20270D01*
X20515Y12715D02*
X20630Y12600D01*
X20515Y12715D02*
Y12851D01*
X20368Y12998D02*
X20515Y12851D01*
X20465Y13158D02*
X20929Y12695D01*
X20292Y13158D02*
X20465D01*
X20228Y13222D02*
X20292Y13158D01*
X20228Y13222D02*
Y13568D01*
X20186D02*
X20228D01*
X20929Y12695D02*
X21031D01*
X20816Y12440D02*
X20940D01*
X21408Y12028D02*
Y12915D01*
X21180Y11800D02*
X21408Y12028D01*
X21120Y11900D02*
X21180Y11840D01*
X21140Y12170D02*
Y12294D01*
X21185Y12339D01*
Y12541D01*
X21031Y12695D02*
X21185Y12541D01*
X21690Y12395D02*
X21780Y12305D01*
Y11347D02*
Y12305D01*
X21770Y11337D02*
X21780Y11347D01*
X21770Y10717D02*
Y11337D01*
X22470Y11835D02*
X23170D01*
X21180Y11247D02*
Y11840D01*
X21408Y12915D02*
X21948Y13454D01*
X21690Y12395D02*
Y12850D01*
X20050Y10260D02*
X21105Y11315D01*
X22278Y10708D02*
X22730Y11160D01*
X22270Y11190D02*
X22430Y11350D01*
X22270Y10717D02*
Y11190D01*
X22730Y11160D02*
X23335D01*
X21037Y11247D02*
X21180D01*
X21270Y11157D01*
Y10650D02*
Y11157D01*
Y10650D02*
X21530Y10390D01*
X21260Y8550D02*
Y8830D01*
X21100Y8390D02*
X21260Y8550D01*
X21530Y9270D02*
X21780Y9020D01*
Y8066D02*
X21796Y8050D01*
X21780Y8066D02*
Y9020D01*
X21530Y9270D02*
Y10390D01*
X18833Y9863D02*
X19230Y10260D01*
X23210Y7670D02*
X24400Y8860D01*
X13850Y7670D02*
X23210D01*
X13550Y7970D02*
X13850Y7670D01*
X13330Y7510D02*
X23276D01*
X12400Y8440D02*
X13330Y7510D01*
X23276D02*
X24560Y8794D01*
Y9380D02*
X24980Y9800D01*
X24560Y8794D02*
Y9380D01*
X24400Y8860D02*
Y10598D01*
X17840Y10876D02*
X18240Y11276D01*
X18230Y11783D02*
X18240Y11276D01*
X18230Y11266D02*
Y11783D01*
X17840Y10876D02*
X18230Y11266D01*
X17060Y13195D02*
X17235Y13370D01*
X16867Y12070D02*
X16922Y12015D01*
X16570Y12070D02*
X16867D01*
X16801Y11910D02*
X16856Y11855D01*
X16690Y11910D02*
X16801D01*
X16856Y11855D02*
X17415D01*
X16300Y14760D02*
X16890Y15350D01*
X16454Y14760D02*
X16460Y14766D01*
X16110Y14760D02*
X16300D01*
X16110D02*
X16454D01*
X16544Y14600D02*
X16596D01*
X16414Y14470D02*
X16544Y14600D01*
X16602Y14606D02*
X17008D01*
X16596Y14600D02*
X16602Y14606D01*
X16490Y15220D02*
X16588Y15318D01*
X16116Y15220D02*
X16490D01*
X16606Y11826D02*
X16690Y11910D01*
X16906Y11563D02*
X17819D01*
X16290Y11790D02*
X16570Y12070D01*
X16606Y11563D02*
Y11826D01*
X16008Y11998D02*
X16310Y12300D01*
X13700Y10170D02*
X14620D01*
X13330Y10540D02*
X13700Y10170D01*
X13330Y10540D02*
Y12650D01*
X14620Y10170D02*
X14930Y9860D01*
X13330Y12650D02*
X14090Y13410D01*
X14930Y9835D02*
Y9860D01*
X14280Y9810D02*
X14650Y9440D01*
X13950Y9810D02*
X14280D01*
X16008Y11563D02*
Y11998D01*
X14930Y9835D02*
X14955Y9810D01*
X13550Y7970D02*
Y9410D01*
X6340Y19690D02*
X7170Y18860D01*
X8270D01*
X6340Y19690D02*
Y20230D01*
X8270Y18860D02*
X8442Y18688D01*
X6260Y20610D02*
X6490Y20380D01*
X6340Y20230D02*
X6500Y20390D01*
X6260Y20610D02*
Y23830D01*
X6740Y24310D01*
X6500Y20390D02*
X6790D01*
X25160Y17150D02*
X25450D01*
X25790Y17510D02*
Y17540D01*
X26540Y18290D01*
Y18990D01*
X26400Y19130D02*
X26540Y18990D01*
X23228Y19891D02*
X23304D01*
X23228D02*
X23559Y19560D01*
X22609Y19891D02*
X23228D01*
X22170Y20330D02*
X22609Y19891D01*
X23304D02*
X23765Y20352D01*
X24690Y19560D02*
X24850Y19400D01*
X23559Y19560D02*
X24690D01*
X23765Y20352D02*
Y20498D01*
X24002Y20735D01*
X24085D02*
X24690Y21340D01*
X24002Y20735D02*
X24085D01*
X24690Y21340D02*
Y21512D01*
X24721Y21542D01*
Y22991D02*
X25030Y23300D01*
X23080Y18516D02*
X23314D01*
X24730Y18381D02*
X24855Y18505D01*
X25130D01*
X21760Y19990D02*
X22019Y19731D01*
X21760Y19990D02*
Y20760D01*
X22765Y21765D01*
X22019Y19731D02*
X23162D01*
X22765Y21765D02*
Y23348D01*
X23135Y23719D01*
Y23725D01*
X23162Y19731D02*
X23650Y19243D01*
X23135Y23725D02*
X23220Y23810D01*
X24849Y18860D02*
X25450D01*
X24525Y19185D02*
X24849Y18860D01*
X25450D02*
X25650Y19060D01*
Y19323D01*
X25759Y19432D01*
X25890D01*
X25910Y19452D01*
Y20070D01*
X15750Y15586D02*
Y15590D01*
X15820Y15660D01*
X15750Y15586D02*
X16116Y15220D01*
X16588Y15692D02*
X16656Y15760D01*
X16670D01*
X17747Y15115D02*
X17763Y15131D01*
X18146D01*
X18188Y15172D01*
X17008Y14606D02*
X17015Y14600D01*
X17016D01*
X17775Y15369D02*
X18188D01*
X15030Y14250D02*
Y15326D01*
X15032Y15328D01*
X15030Y14250D02*
X15210Y14070D01*
X15570D01*
X15032Y15328D02*
Y15797D01*
X15414Y16179D01*
Y16374D01*
X15770Y14270D02*
Y14470D01*
X15570Y14070D02*
X15770Y14270D01*
Y14470D02*
X16066Y14766D01*
X16995Y14805D02*
Y15104D01*
X16956Y14766D02*
X16995Y14805D01*
X17326Y15435D02*
X17614D01*
X16995Y15104D02*
X17326Y15435D01*
X17215Y15579D02*
X17326Y15468D01*
X17215Y15579D02*
Y15858D01*
X17282Y15925D02*
X17435D01*
X17215Y15858D02*
X17282Y15925D01*
X17326Y15435D02*
Y15468D01*
X17614Y15435D02*
X17746Y15566D01*
X17435Y15925D02*
X17470Y15960D01*
X17746Y15566D02*
X17754D01*
X17470Y15960D02*
X17820D01*
X17140Y17148D02*
X17719Y16569D01*
X16998Y18140D02*
X17140Y17998D01*
Y17148D02*
Y17998D01*
X17581Y17145D02*
X17866Y17430D01*
X18338D01*
X18414Y17354D01*
X18290Y17478D02*
X18338Y17430D01*
X18290Y17478D02*
Y18050D01*
X18609Y17341D02*
X18611Y17339D01*
X18609Y17341D02*
Y17461D01*
X21460Y18420D02*
Y18930D01*
X21690Y19160D01*
X20973Y17347D02*
Y17603D01*
X21050Y17680D01*
X8681Y14306D02*
X8837Y14150D01*
X15832Y16352D02*
X16102D01*
X15790Y16310D02*
X15832Y16352D01*
X15783Y16310D02*
X15790D01*
X14090Y16630D02*
X14410D01*
X14080Y16640D02*
X14090Y16630D01*
X14520Y17450D02*
X15203D01*
X15741Y16912D01*
Y16713D02*
Y16912D01*
Y16713D02*
X16102Y16352D01*
X16303D01*
X24561Y21609D02*
Y23331D01*
X24510Y21558D02*
X24561Y21609D01*
X24510Y21540D02*
Y21558D01*
X24280Y21310D02*
X24510Y21540D01*
X24999Y21275D02*
X25750Y20524D01*
X24561Y23331D02*
X25030Y23800D01*
X24170Y20330D02*
X24780Y19720D01*
X25430D01*
X25750Y20040D01*
Y20524D01*
X22656Y19224D02*
X22786D01*
X22466Y19414D02*
X22656Y19224D01*
X22386Y19414D02*
X22466D01*
X20574Y18546D02*
X20714Y18686D01*
X20426Y18546D02*
X20574D01*
X25680Y20820D02*
X26170Y20330D01*
X25680Y20820D02*
Y21610D01*
X15394Y14864D02*
X15414Y14884D01*
Y15286D01*
X11080Y17580D02*
X11760D01*
X10960Y17460D02*
X11080Y17580D01*
X10150Y17460D02*
X10960D01*
X9930Y17360D02*
X10050D01*
X10150Y17460D01*
Y18480D01*
X9990Y18640D02*
X10150Y18480D01*
X9031Y18351D02*
X9320Y18640D01*
X8699Y18351D02*
X9031D01*
X9620Y16640D02*
Y16850D01*
X9590Y16880D02*
X9620Y16850D01*
X9590Y16880D02*
Y17130D01*
X8570Y17370D02*
X9230D01*
X8360Y17160D02*
X8570Y17370D01*
X8915Y17965D02*
X9275D01*
X8308Y17358D02*
X8915Y17965D01*
X7750Y18010D02*
X7880Y17880D01*
X7950D01*
X8154Y17676D01*
X6470Y14704D02*
X7176Y15410D01*
X6470Y13520D02*
Y14704D01*
X6930Y17050D02*
X7238Y17358D01*
X6930Y16680D02*
Y17050D01*
Y16680D02*
X7536Y16074D01*
X6470Y13520D02*
X8515Y11475D01*
X11355D01*
X12279D02*
X12400Y11355D01*
Y8440D02*
Y11355D01*
X17330Y16170D02*
X17350Y16150D01*
X17810D01*
X17110Y16040D02*
X17170Y16100D01*
X20095Y18205D02*
X20120Y18230D01*
X20210Y17575D02*
X20383Y17403D01*
X20050Y17509D02*
X20186Y17373D01*
Y16974D02*
Y17373D01*
X20050Y17904D02*
X20095Y17949D01*
X20050Y17509D02*
Y17904D01*
X20210Y17575D02*
Y17837D01*
X20255Y17882D01*
Y17921D01*
X20095Y17949D02*
Y18205D01*
X20270Y9560D02*
X20667D01*
X20680Y9573D01*
X22190Y14780D02*
X22380Y14590D01*
X21980Y14780D02*
X22190D01*
X22645Y13820D02*
Y14115D01*
X23530Y13820D02*
X24790Y15080D01*
Y15760D01*
X23310Y14880D02*
X23390Y14960D01*
Y15150D01*
X20255Y17921D02*
X20674Y18340D01*
X20776Y17344D02*
Y17726D01*
X14975Y9070D02*
X15220D01*
X15505Y9355D01*
X15900D01*
X16185D01*
X16240Y9410D01*
X16935D01*
X16935Y9410D01*
X14650Y8690D02*
Y9440D01*
X14325Y8365D02*
X14650Y8690D01*
X14325Y8340D02*
Y8365D01*
X16420Y9910D02*
X16935D01*
X16345Y9985D02*
X16420Y9910D01*
X15900Y9985D02*
X16345D01*
X15515D02*
X15900D01*
X15320Y9790D02*
X15515Y9985D01*
X14975Y9790D02*
X15320D01*
X14955Y9810D02*
X14975Y9790D01*
X13990Y11574D02*
X14354Y11210D01*
X15824D01*
X15872Y11258D01*
X16198D01*
X16300Y11360D01*
Y11556D01*
X15070Y11574D02*
X15997D01*
X14955Y8340D02*
X15330Y8715D01*
X15920D01*
X16740D01*
X16935Y8910D01*
X18590Y8410D02*
X18785D01*
X18290Y8710D02*
X18590Y8410D01*
X18290Y8710D02*
Y9680D01*
X18520Y9910D01*
X18785D01*
X20680Y9030D02*
Y9573D01*
X20390Y8740D02*
X20680Y9030D01*
X24400Y10598D02*
X24980Y11178D01*
X13550Y9410D02*
X13950Y9810D01*
X16290Y11566D02*
Y11790D01*
Y11566D02*
X16300Y11556D01*
X17708Y16353D02*
X17853D01*
X17522Y16540D02*
X17708Y16353D01*
X17360Y16540D02*
X17522D01*
X23063Y16607D02*
X23160Y16510D01*
X22867Y16607D02*
X23063D01*
X24575Y18130D02*
X25765D01*
X26060Y18425D01*
X24190Y18414D02*
Y18515D01*
X24575Y18130D01*
X19280Y17550D02*
X19520D01*
X19792Y17278D01*
X18290Y18050D02*
X18310Y18070D01*
X19210D02*
X19280Y18140D01*
X18310Y18070D02*
X19210D01*
X12655Y17580D02*
X13240D01*
X13660Y17160D01*
X14904D01*
X15414Y16650D01*
X21967Y16747D02*
X21985Y16765D01*
X16055Y18870D02*
X16550D01*
X17170Y16100D02*
Y16170D01*
X17016Y14600D02*
X17155Y14739D01*
Y15038D01*
X17805Y14769D02*
Y14777D01*
X17807Y14779D01*
X18188D01*
X20776Y17726D02*
X21120Y18070D01*
X20674Y18340D02*
X21380D01*
X21460Y18420D01*
X21120Y18070D02*
X21270D01*
X23650Y18721D02*
Y19243D01*
Y18721D02*
X23855Y18515D01*
X23314Y18516D02*
X23630Y18200D01*
X23160Y16510D02*
Y17384D01*
X24190Y18414D01*
X22612Y17724D02*
X22688D01*
X21985Y16765D02*
Y17149D01*
X22005Y17169D01*
X22602Y17734D02*
X22612Y17724D01*
X21550Y18160D02*
X21947Y17763D01*
X21760Y17576D02*
X21947Y17763D01*
X21948Y13454D02*
X22858D01*
X23160Y15960D02*
X23530D01*
X23717Y15773D01*
Y14413D02*
Y15773D01*
X22858Y13454D02*
X22980Y13576D01*
Y14064D01*
X23126Y14210D01*
X23513D01*
X23717Y14413D01*
X22645Y14115D02*
X22721Y14190D01*
X22824D01*
X22970Y14336D01*
Y14510D01*
X23060Y14600D01*
X22688Y17724D02*
X23030Y18067D01*
Y18100D01*
X22840Y17232D02*
X22867Y17206D01*
X21599Y15560D02*
X21885D01*
Y15524D02*
Y15560D01*
X23160Y15960D02*
Y16510D01*
X22656Y15470D02*
Y15675D01*
X22875D01*
X23160Y15960D01*
X22390Y17030D02*
X22510D01*
X22712Y17232D01*
X22840D01*
X16588Y15318D02*
Y15692D01*
X16664Y13617D02*
X16951Y13904D01*
X16958D01*
X17240Y13974D02*
X17270Y13944D01*
X17800Y13750D02*
X17844Y13794D01*
X16066Y14766D02*
X16460D01*
X16956D01*
X23457Y16308D02*
X23742D01*
X21050Y17680D02*
X21110D01*
X21985Y17575D02*
X22144Y17734D01*
X22602D01*
X22005Y17169D02*
Y17371D01*
X21873Y16353D02*
X21897D01*
X22102Y16558D01*
X21985Y17391D02*
X22005Y17371D01*
X21985Y17391D02*
Y17575D01*
X21760Y17270D02*
Y17576D01*
X22227Y16157D02*
X22360Y16290D01*
Y16220D02*
Y16290D01*
X22390Y15470D02*
X22656D01*
X21885Y15524D02*
X21939D01*
X21954Y15509D01*
X22351D02*
X22390Y15470D01*
X21954Y15509D02*
X22351D01*
D39*
X18910Y12482D02*
X19287D01*
X19400Y12369D01*
X19764Y12004D02*
X20020D01*
X18611Y13237D02*
Y13568D01*
X18708Y13108D02*
X18808Y13208D01*
Y13568D01*
X17611Y13991D02*
X18188D01*
X17270Y13930D02*
X17550D01*
X17611Y13991D01*
X17560Y14870D02*
X17680D01*
X18997Y11498D02*
X19200D01*
X19005Y13175D02*
Y13568D01*
X20776Y13194D02*
X20990Y12980D01*
X20776Y13194D02*
Y13568D01*
X21140Y12170D02*
X21160D01*
X19400Y13170D02*
Y13566D01*
X21593Y13991D02*
X21951D01*
X22140Y14180D01*
Y14190D01*
X21593Y13794D02*
X22136D01*
X22140Y13790D01*
X6800Y20380D02*
X7410D01*
X8442Y18351D02*
Y18688D01*
X6790Y20390D02*
X6800Y20380D01*
X6740Y24310D02*
X7410D01*
X24790Y17150D02*
X25160D01*
X25450D02*
X25790D01*
Y17510D01*
X26085Y19130D02*
X26400D01*
X24850Y19400D02*
X25075Y19175D01*
X25130D01*
X24721Y21542D02*
Y22991D01*
X25030Y23300D02*
X25680D01*
X26060Y19155D02*
X26085Y19130D01*
X23220Y23810D02*
X23870D01*
X23880Y23800D01*
X24190Y19185D02*
X24525D01*
X25910Y20070D02*
X26170Y20330D01*
X16890Y15350D02*
Y15451D01*
X16893Y15454D01*
X16664Y13370D02*
Y13617D01*
X15414Y15590D02*
X15750D01*
X17806Y14976D02*
X18188D01*
X16887Y15760D02*
X16893Y15754D01*
X16670Y15760D02*
X16887D01*
X17960Y16860D02*
Y17000D01*
X18175Y16760D02*
X18188Y16747D01*
X18060Y16760D02*
X18175D01*
X17960Y16860D02*
X18060Y16760D01*
X17960Y17000D02*
X18020Y17060D01*
X16214Y14270D02*
X16414Y14470D01*
X15414Y16374D02*
Y16650D01*
X17820Y15960D02*
X18187D01*
X17754Y15566D02*
X18188D01*
X18187Y15960D02*
X18188Y15960D01*
X15484Y18494D02*
Y18870D01*
X17370Y15680D02*
X17460D01*
X17543Y15763D01*
X18188D01*
X16775Y18140D02*
X16998D01*
X17790Y16550D02*
X18188D01*
X17786Y16555D02*
X17790Y16550D01*
X17705Y16555D02*
X17786D01*
X16893Y16352D02*
Y16747D01*
X17576Y17139D02*
X17581Y17145D01*
X17495Y17139D02*
X17576D01*
X18414Y16974D02*
Y17354D01*
X18611Y16974D02*
Y17339D01*
X18609Y17461D02*
Y17716D01*
X20120Y18230D02*
Y18546D01*
X20383Y16974D02*
Y17403D01*
X21690Y19160D02*
X21944Y19414D01*
X20776Y16974D02*
Y17344D01*
X20973Y16974D02*
Y17347D01*
X21367Y17447D02*
X21470Y17550D01*
X21367Y16974D02*
Y17447D01*
X18609Y21367D02*
X18973D01*
X14706Y15590D02*
Y16086D01*
X16303Y15454D02*
Y15754D01*
Y16053D01*
Y16352D01*
X21087Y19817D02*
X21120Y19850D01*
X21087Y19414D02*
Y19817D01*
X21993Y18686D02*
X22336D01*
X14686Y16630D02*
X14706Y16650D01*
X14410Y16630D02*
X14686D01*
X16766Y14270D02*
X16809Y14314D01*
X16766Y14270D02*
X16766Y14270D01*
X24999Y22241D02*
X25058Y22300D01*
X24859Y22609D02*
X25050Y22800D01*
X24859Y21602D02*
Y22609D01*
X24861Y21334D02*
Y21600D01*
X24859Y21333D02*
X24861Y21334D01*
X24859Y20641D02*
Y21333D01*
X24999Y21275D02*
Y22241D01*
X24859Y21602D02*
X24861Y21600D01*
X24859Y20641D02*
X25170Y20330D01*
X25050Y22800D02*
X25680D01*
X22786Y19224D02*
X23080D01*
X25058Y22300D02*
X25680D01*
X21944Y19414D02*
X21993D01*
X25030Y23800D02*
X25680D01*
Y21610D02*
Y21800D01*
X25730Y21750D01*
X11760Y17580D02*
X12005D01*
X9590Y17375D02*
X9605Y17360D01*
X9930D01*
X21993Y19414D02*
X22386D01*
X20714Y18686D02*
X21087D01*
X20120Y18546D02*
X20426D01*
X15414Y15286D02*
Y15590D01*
X15394Y14520D02*
Y14864D01*
X8442Y18351D02*
X8699D01*
X9620Y16406D02*
Y16640D01*
X9590Y17130D02*
Y17375D01*
X9585Y17370D02*
X9590Y17375D01*
X9230Y17370D02*
X9585D01*
X8300Y17160D02*
X8360D01*
X8298Y17162D02*
X8300Y17160D01*
X8154Y17162D02*
X8298D01*
X9275Y17965D02*
X9590D01*
X8154Y17358D02*
X8308D01*
X7750Y18329D02*
X7772Y18351D01*
X7750Y18010D02*
Y18329D01*
X8154Y17555D02*
Y17676D01*
X7406Y17162D02*
Y17358D01*
X7238D02*
X7406D01*
X7536Y15770D02*
Y16074D01*
X7176Y15410D02*
X7536Y15770D01*
X11355Y11475D02*
X12279D01*
X19032Y19871D02*
Y21308D01*
X17903Y26620D02*
X18418D01*
X18421Y26623D01*
X18973Y21367D02*
X19032Y21308D01*
X18856Y19871D02*
X19032D01*
X18481Y26554D02*
Y26564D01*
X18421Y26623D02*
X18481Y26564D01*
X18599Y18355D02*
X18609Y18346D01*
X17810Y16150D02*
X18181D01*
X18188Y16157D01*
X17170Y16170D02*
X17330D01*
X16893Y16053D02*
X16906Y16040D01*
X17110D01*
X21593Y15566D02*
X21599Y15560D01*
X22380Y14590D02*
X22645D01*
X21594Y14780D02*
X21980D01*
X21593Y14779D02*
X21594Y14780D01*
X23060Y14600D02*
X23305D01*
X23315Y13820D02*
X23530D01*
X24790Y15760D02*
Y16140D01*
X24770Y16160D02*
X24790Y16140D01*
X23310Y14595D02*
X23315Y14590D01*
X23310Y14595D02*
Y14880D01*
X23390Y15150D02*
Y15444D01*
X23364Y15470D02*
X23390Y15444D01*
X23305Y14600D02*
X23310Y14595D01*
X21725Y18160D02*
X21785Y18100D01*
X21550Y18160D02*
X21725D01*
X15997Y11574D02*
X16008Y11563D01*
X19398Y13568D02*
X19400Y13566D01*
X17844Y13794D02*
X18188D01*
X18410Y13564D02*
X18414Y13568D01*
X17853Y16353D02*
X18188D01*
X20475Y17756D02*
X20550Y17681D01*
Y17630D02*
Y17681D01*
Y17630D02*
X20580Y17600D01*
Y16974D02*
Y17600D01*
X20579Y16974D02*
X20580Y16974D01*
X19792Y16974D02*
Y17278D01*
X19800Y13210D02*
Y13560D01*
X19792Y13568D02*
X19800Y13560D01*
X21593Y16747D02*
X21967D01*
X17848Y14582D02*
X18188D01*
X17680Y14870D02*
X17690Y14860D01*
X17806Y14976D01*
X22336Y18686D02*
X22510Y18860D01*
X23855Y18515D02*
X24190D01*
X22867Y16147D02*
Y16308D01*
X19989Y16974D02*
Y17371D01*
X19800Y17560D02*
X19989Y17371D01*
X19800Y17560D02*
Y17620D01*
X21593Y15763D02*
X22127D01*
X21593Y15369D02*
X22121D01*
X22505Y15985D02*
X22570Y15920D01*
X22470Y16630D02*
Y16767D01*
X22593Y16890D01*
X22850D02*
X22867Y16906D01*
X22593Y16890D02*
X22850D01*
X21593Y16353D02*
X21873D01*
X22867Y16147D02*
X22870Y16150D01*
X21470Y17550D02*
Y17680D01*
X21593Y16157D02*
X22227D01*
X22870Y16150D02*
Y16280D01*
X21593Y15960D02*
X22000D01*
X22025Y15985D01*
X22505D01*
X22127Y15763D02*
X22130Y15760D01*
X22120Y15368D02*
X22121Y15369D01*
X22120Y15230D02*
Y15368D01*
D40*
X9320Y18640D02*
X9990D01*
D41*
X18609Y21367D02*
Y26426D01*
X18481Y26554D02*
X18609Y26426D01*
Y20314D02*
Y20777D01*
X18599Y18355D02*
Y19418D01*
D42*
X18609Y20137D02*
Y20314D01*
X18606Y20134D02*
X18609Y20137D01*
X18606Y20006D02*
Y20134D01*
D43*
X18599Y19418D02*
Y19581D01*
D44*
Y19743D01*
D45*
X11630Y16140D02*
D03*
X24770Y16160D02*
D03*
X22170Y20330D02*
D03*
D46*
X12630Y16140D02*
D03*
X25770Y17160D02*
D03*
Y16160D02*
D03*
X24770Y17160D02*
D03*
X26170Y20330D02*
D03*
X25170D02*
D03*
X24170D02*
D03*
X23170D02*
D03*
D47*
X7410Y21170D02*
D03*
X13560Y20370D02*
D03*
X7410Y25880D02*
D03*
Y25100D02*
D03*
Y24310D02*
D03*
Y23530D02*
D03*
Y22730D02*
D03*
Y21950D02*
D03*
Y20380D02*
D03*
X13560Y21160D02*
D03*
Y21940D02*
D03*
X13550Y22730D02*
D03*
Y23520D02*
D03*
Y24300D02*
D03*
Y25100D02*
D03*
Y25880D02*
D03*
D48*
X8510Y19560D02*
D03*
X9290D02*
D03*
X10070D02*
D03*
X10870D02*
D03*
X11650D02*
D03*
X12450D02*
D03*
D49*
X24980Y12556D02*
D03*
Y11178D02*
D03*
Y9800D02*
D03*
D50*
X14090Y13410D02*
D03*
D51*
X19390Y26820D02*
D03*
Y26320D02*
D03*
Y25820D02*
D03*
Y25320D02*
D03*
Y24820D02*
D03*
Y24320D02*
D03*
Y23820D02*
D03*
Y23320D02*
D03*
Y22820D02*
D03*
Y22320D02*
D03*
Y21820D02*
D03*
Y21320D02*
D03*
Y20820D02*
D03*
Y20320D02*
D03*
Y19820D02*
D03*
Y19320D02*
D03*
X19890Y20320D02*
D03*
Y20820D02*
D03*
Y21320D02*
D03*
Y21820D02*
D03*
Y22320D02*
D03*
Y22820D02*
D03*
Y23320D02*
D03*
Y23820D02*
D03*
Y24320D02*
D03*
Y24820D02*
D03*
Y25320D02*
D03*
Y25820D02*
D03*
Y26320D02*
D03*
Y26820D02*
D03*
X20390D02*
D03*
X20890D02*
D03*
X21390D02*
D03*
X21890D02*
D03*
X22390D02*
D03*
X22890D02*
D03*
X23390D02*
D03*
X23890D02*
D03*
X24390D02*
D03*
Y26320D02*
D03*
X23890D02*
D03*
X23390D02*
D03*
X22890D02*
D03*
X22390D02*
D03*
X21890D02*
D03*
X21390D02*
D03*
X20890D02*
D03*
X20390D02*
D03*
Y25820D02*
D03*
X20890D02*
D03*
X21390D02*
D03*
X21890D02*
D03*
X22390D02*
D03*
X22890D02*
D03*
X23390D02*
D03*
X23890D02*
D03*
X24390D02*
D03*
Y25320D02*
D03*
X23890D02*
D03*
X23390D02*
D03*
X22890D02*
D03*
X22390D02*
D03*
X21890D02*
D03*
X21390D02*
D03*
X20890D02*
D03*
X20390D02*
D03*
Y24820D02*
D03*
X21390D02*
D03*
X20890D02*
D03*
X21890D02*
D03*
X22390D02*
D03*
X22890D02*
D03*
X23390D02*
D03*
X23890D02*
D03*
X24390D02*
D03*
X20390Y24320D02*
D03*
X20890D02*
D03*
X21390D02*
D03*
X21890D02*
D03*
X22390D02*
D03*
X22890D02*
D03*
X20390Y23820D02*
D03*
X20890D02*
D03*
X21390D02*
D03*
X21890D02*
D03*
X22390D02*
D03*
X22890D02*
D03*
X20390Y23320D02*
D03*
X20890D02*
D03*
X21390D02*
D03*
X20390Y22820D02*
D03*
X20890D02*
D03*
X21390D02*
D03*
X21890D02*
D03*
X20390Y22320D02*
D03*
X20890D02*
D03*
X21390D02*
D03*
X21890D02*
D03*
X20390Y21820D02*
D03*
X20890D02*
D03*
X21390D02*
D03*
X21890D02*
D03*
X20390Y21320D02*
D03*
X20890D02*
D03*
X21390D02*
D03*
X21890D02*
D03*
X20390Y20820D02*
D03*
X20890D02*
D03*
X21390D02*
D03*
X20390Y20320D02*
D03*
X20890D02*
D03*
X21390D02*
D03*
X24390Y24320D02*
D03*
X16390Y26820D02*
D03*
Y26320D02*
D03*
Y25820D02*
D03*
Y25320D02*
D03*
Y24820D02*
D03*
Y24320D02*
D03*
X16890D02*
D03*
X17390D02*
D03*
X17890D02*
D03*
Y23820D02*
D03*
Y23320D02*
D03*
Y22820D02*
D03*
Y22320D02*
D03*
Y21820D02*
D03*
Y21320D02*
D03*
Y20820D02*
D03*
Y20320D02*
D03*
Y19820D02*
D03*
Y19320D02*
D03*
Y18820D02*
D03*
Y18320D02*
D03*
X17390Y18820D02*
D03*
Y19320D02*
D03*
Y19820D02*
D03*
Y20320D02*
D03*
X17398Y20757D02*
D03*
X17390Y21320D02*
D03*
Y21820D02*
D03*
Y22320D02*
D03*
Y22820D02*
D03*
Y23320D02*
D03*
Y23820D02*
D03*
X16890D02*
D03*
Y23320D02*
D03*
Y22820D02*
D03*
Y22320D02*
D03*
Y21820D02*
D03*
Y21320D02*
D03*
Y20820D02*
D03*
Y20320D02*
D03*
Y19820D02*
D03*
Y19320D02*
D03*
X15890Y26320D02*
D03*
Y25820D02*
D03*
Y25320D02*
D03*
Y24820D02*
D03*
Y24320D02*
D03*
Y23820D02*
D03*
Y23320D02*
D03*
Y22820D02*
D03*
Y22320D02*
D03*
Y21820D02*
D03*
Y21320D02*
D03*
Y20820D02*
D03*
Y20320D02*
D03*
X16390Y23820D02*
D03*
Y23320D02*
D03*
Y22820D02*
D03*
Y22320D02*
D03*
Y21820D02*
D03*
Y21320D02*
D03*
Y20820D02*
D03*
Y20320D02*
D03*
Y19820D02*
D03*
X15390Y20820D02*
D03*
Y21320D02*
D03*
Y21820D02*
D03*
Y22320D02*
D03*
Y22820D02*
D03*
Y23320D02*
D03*
Y23820D02*
D03*
Y24320D02*
D03*
Y24820D02*
D03*
Y25320D02*
D03*
Y25820D02*
D03*
X18140Y24070D02*
D03*
Y23570D02*
D03*
Y23070D02*
D03*
X19140Y26070D02*
D03*
Y25570D02*
D03*
Y25070D02*
D03*
Y24570D02*
D03*
Y24070D02*
D03*
Y23570D02*
D03*
Y23070D02*
D03*
Y22570D02*
D03*
Y22070D02*
D03*
Y21570D02*
D03*
Y21070D02*
D03*
Y20570D02*
D03*
Y20070D02*
D03*
Y19570D02*
D03*
Y19070D02*
D03*
Y18570D02*
D03*
X18140D02*
D03*
Y19070D02*
D03*
Y19570D02*
D03*
Y20070D02*
D03*
X19584Y11296D02*
D03*
X17820Y11580D02*
D03*
X17770Y12480D02*
D03*
X18160Y12160D02*
D03*
X17060Y12930D02*
D03*
X17800Y13730D02*
D03*
X18270Y12910D02*
D03*
X17270Y13930D02*
D03*
X17560Y14870D02*
D03*
X20270Y12750D02*
D03*
X20630Y12600D02*
D03*
X21160Y12170D02*
D03*
X20990Y12980D02*
D03*
X20940Y12440D02*
D03*
X21690Y12850D02*
D03*
X16110Y14760D02*
D03*
X7777Y17106D02*
D03*
Y17421D02*
D03*
X19890Y16271D02*
D03*
X20390D02*
D03*
X18890D02*
D03*
X19390D02*
D03*
X20890D02*
D03*
X20390Y15771D02*
D03*
X18890D02*
D03*
X19390D02*
D03*
X19890D02*
D03*
X20890D02*
D03*
X20390Y15271D02*
D03*
X18890D02*
D03*
X19390D02*
D03*
X19890D02*
D03*
X20890D02*
D03*
X20390Y14771D02*
D03*
X18890D02*
D03*
X19390D02*
D03*
X19890D02*
D03*
X20890D02*
D03*
Y14271D02*
D03*
X19890D02*
D03*
X19390D02*
D03*
X18890D02*
D03*
X20390D02*
D03*
X22140Y14190D02*
D03*
Y13790D02*
D03*
X24730Y18381D02*
D03*
X15820Y15660D02*
D03*
X18020Y17060D02*
D03*
X15484Y18494D02*
D03*
X17460Y15680D02*
D03*
X16893Y16747D02*
D03*
X17495Y17139D02*
D03*
X8760Y9366D02*
D03*
X8837Y14150D02*
D03*
X15783Y16310D02*
D03*
X14706Y16086D02*
D03*
X21120Y19850D02*
D03*
X14080Y16640D02*
D03*
X14520Y17450D02*
D03*
X24280Y21310D02*
D03*
X17330Y16170D02*
D03*
X20390Y8740D02*
D03*
X21100Y8390D02*
D03*
X17360Y16540D02*
D03*
X20475Y17756D02*
D03*
X19280Y17550D02*
D03*
Y18140D02*
D03*
X22430Y11350D02*
D03*
X16550Y18870D02*
D03*
X21270Y18070D02*
D03*
X22510Y18860D02*
D03*
X23630Y18200D02*
D03*
X23030Y18100D02*
D03*
X19800Y17620D02*
D03*
X22570Y15920D02*
D03*
X22470Y16630D02*
D03*
X22390Y17030D02*
D03*
X22645Y14590D02*
D03*
X23364Y15470D02*
D03*
X23742Y16308D02*
D03*
X21110Y17680D02*
D03*
X21470D02*
D03*
X21760Y17270D02*
D03*
X22090Y16460D02*
D03*
X22870Y16280D02*
D03*
X22360Y16220D02*
D03*
X22130Y15760D02*
D03*
X22120Y15230D02*
D03*
D52*
X24600Y7910D02*
D03*
X8400Y7730D02*
D03*
X6650Y28110D02*
D03*
X25440Y25120D02*
D03*
M02*
