G04 Layer_Color=65535*
%FSLAX24Y24*%
%MOIN*%
G70*
G01*
G75*
%ADD38C,0.0100*%
%ADD40C,0.0120*%
%ADD53C,0.0000*%
%ADD54C,0.0049*%
%ADD55C,0.0197*%
%ADD56C,0.0098*%
%ADD57C,0.0157*%
%ADD58C,0.0079*%
%ADD59C,0.0050*%
%ADD60C,0.0005*%
%ADD61C,0.0067*%
%ADD62C,0.0080*%
D38*
X7290Y26270D02*
Y29270D01*
Y19720D02*
Y19970D01*
Y19720D02*
X8090D01*
X12890D02*
X13690D01*
Y20020D01*
Y26270D02*
Y29270D01*
X7290D02*
X13690D01*
X26358Y8894D02*
Y13461D01*
X23602D02*
X26358D01*
X23602Y8894D02*
Y13461D01*
Y8894D02*
X26358D01*
X9633Y24639D02*
X11434D01*
X10450Y22956D02*
Y24639D01*
Y23940D02*
X11208D01*
D40*
X14671Y25767D02*
Y25168D01*
X14871Y25368D01*
X15071Y25168D01*
Y25767D01*
X15271D02*
Y25168D01*
X15471Y25368D01*
X15671Y25168D01*
Y25767D01*
X15871D02*
Y25268D01*
X15971Y25168D01*
X16171D01*
X16271Y25268D01*
Y25767D01*
X17071D02*
Y25168D01*
X17271Y25368D01*
X17471Y25168D01*
Y25767D01*
X17671Y25168D02*
X17870D01*
X17771D01*
Y25568D01*
X17671D01*
X18170Y25168D02*
Y25568D01*
X18470D01*
X18570Y25468D01*
Y25168D01*
X19170Y25767D02*
Y25168D01*
X18870D01*
X18770Y25268D01*
Y25468D01*
X18870Y25568D01*
X19170D01*
X20370Y25767D02*
X19970D01*
Y25468D01*
X20170D01*
X19970D01*
Y25168D01*
X20870D02*
X20670D01*
X20570Y25268D01*
Y25468D01*
X20670Y25568D01*
X20870D01*
X20969Y25468D01*
Y25368D01*
X20570D01*
X21469Y25168D02*
X21269D01*
X21169Y25268D01*
Y25468D01*
X21269Y25568D01*
X21469D01*
X21569Y25468D01*
Y25368D01*
X21169D01*
X22169Y25767D02*
Y25168D01*
X21869D01*
X21769Y25268D01*
Y25468D01*
X21869Y25568D01*
X22169D01*
X22969Y25767D02*
Y25368D01*
X23169Y25168D01*
X23369Y25368D01*
Y25767D01*
X23969D02*
X23569D01*
Y25468D01*
X23769Y25568D01*
X23869D01*
X23969Y25468D01*
Y25268D01*
X23869Y25168D01*
X23669D01*
X23569Y25268D01*
X15971Y24746D02*
X15771D01*
X15871D01*
Y24247D01*
X15771Y24147D01*
X15671D01*
X15571Y24247D01*
X16171Y24546D02*
Y24247D01*
X16271Y24147D01*
X16571D01*
Y24546D01*
X16771Y24147D02*
Y24546D01*
X17071D01*
X17171Y24446D01*
Y24147D01*
X17671D02*
X17471D01*
X17371Y24247D01*
Y24446D01*
X17471Y24546D01*
X17671D01*
X17771Y24446D01*
Y24347D01*
X17371D01*
X18970Y24147D02*
X18570D01*
X18970Y24546D01*
Y24646D01*
X18870Y24746D01*
X18670D01*
X18570Y24646D01*
X19170Y24147D02*
Y24546D01*
X19470D01*
X19570Y24446D01*
Y24147D01*
X20170Y24746D02*
Y24147D01*
X19870D01*
X19770Y24247D01*
Y24446D01*
X19870Y24546D01*
X20170D01*
X20470Y24047D02*
X20570Y24147D01*
Y24247D01*
X20470D01*
Y24147D01*
X20570D01*
X20470Y24047D01*
X20370Y23947D01*
X21369Y24147D02*
X20969D01*
X21369Y24546D01*
Y24646D01*
X21269Y24746D01*
X21069D01*
X20969Y24646D01*
X21569D02*
X21669Y24746D01*
X21869D01*
X21969Y24646D01*
Y24247D01*
X21869Y24147D01*
X21669D01*
X21569Y24247D01*
Y24646D01*
X22169Y24147D02*
X22369D01*
X22269D01*
Y24746D01*
X22169Y24646D01*
X22669Y24746D02*
X23069D01*
Y24646D01*
X22669Y24247D01*
Y24147D01*
X16421Y23525D02*
X16821D01*
X16621D01*
Y22926D01*
X17321D02*
X17121D01*
X17021Y23026D01*
Y23225D01*
X17121Y23325D01*
X17321D01*
X17421Y23225D01*
Y23125D01*
X17021D01*
X18020Y23525D02*
Y22926D01*
X17721D01*
X17621Y23026D01*
Y23225D01*
X17721Y23325D01*
X18020D01*
X19220Y23525D02*
X18820D01*
Y23225D01*
X19020D01*
X18820D01*
Y22926D01*
X19720D02*
X19520D01*
X19420Y23026D01*
Y23225D01*
X19520Y23325D01*
X19720D01*
X19820Y23225D01*
Y23125D01*
X19420D01*
X20020Y23325D02*
Y22926D01*
Y23125D01*
X20120Y23225D01*
X20220Y23325D01*
X20320D01*
X20620Y22926D02*
Y23325D01*
X20919D01*
X21019Y23225D01*
Y22926D01*
X21319Y23325D02*
X21519D01*
X21619Y23225D01*
Y22926D01*
X21319D01*
X21219Y23026D01*
X21319Y23125D01*
X21619D01*
X21819Y23325D02*
Y23026D01*
X21919Y22926D01*
X22219D01*
Y23325D01*
D53*
X18575Y11133D02*
G03*
X18575Y11133I-39J0D01*
G01*
D54*
X18620Y19501D02*
G03*
X18620Y19501I-20J0D01*
G01*
D55*
X8779Y15371D02*
G03*
X8779Y15371I-98J0D01*
G01*
D56*
X16984Y10245D02*
G03*
X16984Y10245I-49J0D01*
G01*
X22056Y13470D02*
G03*
X22056Y13470I-49J0D01*
G01*
X20664Y18686D02*
G03*
X20664Y18686I-49J0D01*
G01*
D57*
X17860Y9829D02*
G03*
X17860Y9829I-79J0D01*
G01*
D58*
X13130Y15640D02*
Y16640D01*
X11130Y15640D02*
X13130D01*
X11130D02*
Y16640D01*
X13130D01*
X19843Y11630D02*
Y11670D01*
X20197Y11630D02*
Y11670D01*
X19090Y10503D02*
X19130D01*
X19090Y10857D02*
X19130D01*
X24417Y18810D02*
Y18850D01*
X23983Y18810D02*
Y18850D01*
X24923Y18840D02*
Y18880D01*
X25357Y18840D02*
Y18880D01*
X26277Y18740D02*
Y18780D01*
X25843Y18740D02*
Y18780D01*
X18225Y22402D02*
X18264D01*
X18225Y22048D02*
X18264D01*
X24270Y17660D02*
X26270D01*
X24270Y15660D02*
Y17660D01*
X26270Y15660D02*
Y17660D01*
X24270Y15660D02*
X26270D01*
X8080Y18567D02*
X8120D01*
X8080Y18133D02*
X8120D01*
X18757Y18030D02*
Y18070D01*
X18443Y18030D02*
Y18070D01*
X22960Y14373D02*
X23000D01*
X22960Y14807D02*
X23000D01*
X22100Y17883D02*
X22140D01*
X22100Y18317D02*
X22140D01*
X11740Y12283D02*
Y13399D01*
X6031D02*
X11740D01*
X6031Y9881D02*
X11740D01*
X6031D02*
Y13399D01*
X11740Y9881D02*
Y10668D01*
X15020Y14343D02*
X15060D01*
X15020Y14697D02*
X15060D01*
X14277Y11110D02*
Y11150D01*
X13923Y11110D02*
Y11150D01*
X18017Y11210D02*
Y11250D01*
X17663Y11210D02*
Y11250D01*
X21670Y19830D02*
Y20830D01*
X26670D01*
X21670Y19830D02*
X26670D01*
Y20830D01*
X7870Y15947D02*
X7910D01*
X7870Y15593D02*
X7910D01*
X9758Y16110D02*
Y16150D01*
X9482Y16110D02*
Y16150D01*
X15040Y15767D02*
X15080D01*
X15040Y15413D02*
X15080D01*
X19943Y18880D02*
Y18920D01*
X20297Y18880D02*
Y18920D01*
X23257Y18850D02*
Y18890D01*
X22903Y18850D02*
Y18890D01*
X22990Y15647D02*
X23030D01*
X22990Y15293D02*
X23030D01*
X15247Y11200D02*
Y11240D01*
X14893Y11200D02*
Y11240D01*
X15040Y16473D02*
X15080D01*
X15040Y16827D02*
X15080D01*
X16057Y9650D02*
Y9690D01*
X15743Y9650D02*
Y9690D01*
X14620Y8497D02*
X14660D01*
X14620Y8183D02*
X14660D01*
X16077Y8380D02*
Y8420D01*
X15763Y8380D02*
Y8420D01*
X14640Y8913D02*
X14680D01*
X14640Y9227D02*
X14680D01*
X14620Y9967D02*
X14660D01*
X14620Y9653D02*
X14660D01*
X16450Y17913D02*
X16490D01*
X16450Y18347D02*
X16490D01*
X17164Y26315D02*
X17519D01*
X17164Y26925D02*
X17519D01*
X17466Y8176D02*
Y10144D01*
X18254Y8176D02*
Y10144D01*
X17466D02*
X18254D01*
X17466Y8176D02*
X18254D01*
X21751Y13411D02*
Y13588D01*
X21573Y13411D02*
X21751D01*
X18030D02*
X18207D01*
X18030D02*
Y13588D01*
Y16954D02*
Y17131D01*
X18207D01*
X21751Y16954D02*
Y17131D01*
X21573D02*
X21751D01*
X21501Y18558D02*
X21579D01*
X21501Y19542D02*
X21579D01*
X15760Y11616D02*
X15760Y11621D01*
X15758Y11229D02*
Y11307D01*
X17156Y11189D02*
Y11268D01*
X16417Y11622D02*
X16496D01*
X16417Y10874D02*
X16496Y10874D01*
X22809Y16060D02*
X22814Y16060D01*
X23123Y16058D02*
X23201D01*
X23162Y17456D02*
X23241D01*
X22808Y16717D02*
Y16796D01*
X23556Y16717D02*
X23556Y16796D01*
X16946Y16600D02*
X16951Y16600D01*
X16559Y16602D02*
X16637D01*
X16519Y15204D02*
X16598D01*
X16952Y15864D02*
Y15943D01*
X16204Y15864D02*
X16204Y15943D01*
X22960Y14037D02*
X23000D01*
X22960Y13603D02*
X23000D01*
X22090Y11643D02*
X22130D01*
X22090Y12077D02*
X22130D01*
X19853Y9910D02*
Y9950D01*
X20287Y9910D02*
Y9950D01*
X22130Y7873D02*
X22170D01*
X22130Y8227D02*
X22170D01*
X23387Y11480D02*
Y11520D01*
X22953Y11480D02*
Y11520D01*
X12320Y17423D02*
X12360D01*
X12320Y17737D02*
X12360D01*
X20575Y9644D02*
X22465D01*
D59*
X19205Y11723D02*
Y12157D01*
X18615Y11723D02*
Y12157D01*
X22873Y9367D02*
X22954Y9387D01*
X22913Y9377D01*
X22853Y9619D01*
X22823Y9569D01*
X23237Y9457D02*
X23075Y9417D01*
X23197Y9619D01*
X23187Y9659D01*
X23136Y9689D01*
X23055Y9669D01*
X23025Y9619D01*
X23258Y9719D02*
X23298Y9558D01*
X23399Y9497D01*
X23459Y9598D01*
X23419Y9760D01*
X23530Y9658D02*
X23692Y9698D01*
X23803Y9597D02*
X23894Y9748D01*
X23743Y9840D01*
X22593Y10879D02*
X22664Y10640D01*
X22720Y10743D01*
X22824Y10687D01*
X22752Y10927D01*
X22832Y10951D02*
X22912Y10975D01*
X22872Y10963D01*
X22944Y10723D01*
X22904Y10711D01*
X22984Y10735D01*
X23103Y10771D02*
X23031Y11011D01*
X23263Y10819D01*
X23191Y11058D01*
X23271Y11082D02*
X23343Y10843D01*
X23462Y10879D01*
X23490Y10931D01*
X23442Y11090D01*
X23390Y11118D01*
X23271Y11082D01*
X23546Y11034D02*
X23706Y11082D01*
X23821Y10987D02*
X23905Y11142D01*
X23750Y11226D01*
X22587Y12447D02*
X22538Y12479D01*
X22456Y12461D01*
X22424Y12411D01*
X22459Y12249D01*
X22509Y12217D01*
X22590Y12234D01*
X22622Y12284D01*
X22605Y12365D01*
X22523Y12348D01*
X22713Y12261D02*
X22660Y12505D01*
X22875Y12296D01*
X22823Y12540D01*
X22904Y12558D02*
X22957Y12314D01*
X23079Y12340D01*
X23111Y12390D01*
X23076Y12552D01*
X23026Y12584D01*
X22904Y12558D01*
X23175Y12489D02*
X23337Y12524D01*
X23445Y12419D02*
X23541Y12568D01*
X23392Y12664D01*
X11868Y18149D02*
X11900Y18198D01*
X11982Y18215D01*
X12031Y18183D01*
X12040Y18143D01*
X12008Y18093D01*
X11967Y18085D01*
X12008Y18093D01*
X12057Y18061D01*
X12066Y18020D01*
X12034Y17971D01*
X11952Y17954D01*
X11903Y17986D01*
X12156Y17997D02*
X12147Y18038D01*
X12188Y18047D01*
X12197Y18006D01*
X12156Y17997D01*
X12316Y18244D02*
X12348Y18294D01*
X12430Y18311D01*
X12479Y18279D01*
X12488Y18238D01*
X12456Y18189D01*
X12415Y18180D01*
X12456Y18189D01*
X12505Y18157D01*
X12514Y18116D01*
X12482Y18067D01*
X12401Y18049D01*
X12351Y18081D01*
X12552Y18337D02*
X12587Y18174D01*
X12686Y18110D01*
X12750Y18209D01*
X12715Y18372D01*
X13754Y13003D02*
X13794Y12756D01*
X13863Y12852D01*
X13959Y12783D01*
X13918Y13030D01*
X14000Y13043D02*
X14083Y13056D01*
X14041Y13050D01*
X14082Y12803D01*
X14041Y12796D01*
X14123Y12810D01*
X14246Y12830D02*
X14206Y13077D01*
X14411Y12857D01*
X14370Y13103D01*
X14453Y13117D02*
X14493Y12870D01*
X14616Y12890D01*
X14651Y12938D01*
X14624Y13103D01*
X14576Y13137D01*
X14453Y13117D01*
X14746Y12869D02*
X14911Y12896D01*
X14946Y13198D02*
X15028Y13211D01*
X14987Y13204D01*
X15027Y12958D01*
X14986Y12951D01*
X15068Y12964D01*
X15192Y12985D02*
X15151Y13231D01*
X15356Y13011D01*
X15316Y13258D01*
X21800Y21181D02*
X21967D01*
X21883D01*
Y20932D01*
X22217Y21140D02*
X22175Y21181D01*
X22092D01*
X22050Y21140D01*
Y20973D01*
X22092Y20932D01*
X22175D01*
X22217Y20973D01*
X22300Y21181D02*
Y20932D01*
Y21015D01*
X22466Y21181D01*
X22341Y21057D01*
X22466Y20932D01*
X22800Y21181D02*
X22966D01*
X22883D01*
Y20932D01*
X23050D02*
Y21181D01*
X23133Y21098D01*
X23216Y21181D01*
Y20932D01*
X23466Y21140D02*
X23424Y21181D01*
X23341D01*
X23300Y21140D01*
Y21098D01*
X23341Y21057D01*
X23424D01*
X23466Y21015D01*
Y20973D01*
X23424Y20932D01*
X23341D01*
X23300Y20973D01*
X23799Y21181D02*
X23966D01*
X23883D01*
Y20932D01*
X24049Y21181D02*
Y20932D01*
X24174D01*
X24216Y20973D01*
Y21140D01*
X24174Y21181D01*
X24049D01*
X24299D02*
X24383D01*
X24341D01*
Y20932D01*
X24299D01*
X24383D01*
X24757Y21181D02*
X24924D01*
X24841D01*
Y20932D01*
X25007Y21181D02*
Y20932D01*
X25132D01*
X25174Y20973D01*
Y21140D01*
X25132Y21181D01*
X25007D01*
X25382D02*
X25299D01*
X25257Y21140D01*
Y20973D01*
X25299Y20932D01*
X25382D01*
X25424Y20973D01*
Y21140D01*
X25382Y21181D01*
X25757Y20932D02*
Y21181D01*
X25882D01*
X25924Y21140D01*
Y21057D01*
X25882Y21015D01*
X25757D01*
X25840D02*
X25924Y20932D01*
X26174Y21140D02*
X26132Y21181D01*
X26049D01*
X26007Y21140D01*
Y21098D01*
X26049Y21057D01*
X26132D01*
X26174Y21015D01*
Y20973D01*
X26132Y20932D01*
X26049D01*
X26007Y20973D01*
X26257Y21181D02*
X26423D01*
X26340D01*
Y20932D01*
X24267Y15480D02*
X24225Y15521D01*
X24142D01*
X24100Y15480D01*
Y15438D01*
X24142Y15396D01*
X24225D01*
X24267Y15355D01*
Y15313D01*
X24225Y15271D01*
X24142D01*
X24100Y15313D01*
X24475Y15521D02*
X24392D01*
X24350Y15480D01*
Y15313D01*
X24392Y15271D01*
X24475D01*
X24517Y15313D01*
Y15480D01*
X24475Y15521D01*
X24600Y15271D02*
Y15521D01*
X24725D01*
X24766Y15480D01*
Y15396D01*
X24725Y15355D01*
X24600D01*
X24850Y15438D02*
X24891D01*
Y15396D01*
X24850D01*
Y15438D01*
Y15313D02*
X24891D01*
Y15271D01*
X24850D01*
Y15313D01*
X24100Y15060D02*
X24142Y15101D01*
X24225D01*
X24267Y15060D01*
Y14893D01*
X24225Y14852D01*
X24142D01*
X24100Y14893D01*
Y15060D01*
X24350D02*
X24392Y15101D01*
X24475D01*
X24517Y15060D01*
Y14893D01*
X24475Y14852D01*
X24392D01*
X24350Y14893D01*
Y15060D01*
X24850Y14976D02*
X25016D01*
X25100Y14852D02*
X25225Y14976D01*
X25100Y15101D01*
X25724D02*
X25641D01*
X25683D01*
Y14893D01*
X25641Y14852D01*
X25600D01*
X25558Y14893D01*
X25808Y15101D02*
X25974D01*
X25891D01*
Y14852D01*
X26058D02*
Y15018D01*
X26141Y15101D01*
X26224Y15018D01*
Y14852D01*
Y14976D01*
X26058D01*
X26474Y15060D02*
X26433Y15101D01*
X26349D01*
X26308Y15060D01*
Y14893D01*
X26349Y14852D01*
X26433D01*
X26474Y14893D01*
Y14976D01*
X26391D01*
X24100Y14432D02*
X24183D01*
X24142D01*
Y14682D01*
X24100Y14640D01*
X24308D02*
X24350Y14682D01*
X24433D01*
X24475Y14640D01*
Y14473D01*
X24433Y14432D01*
X24350D01*
X24308Y14473D01*
Y14640D01*
X24808Y14557D02*
X24975D01*
X25058Y14432D02*
X25183Y14557D01*
X25058Y14682D01*
X25683Y14640D02*
X25641Y14682D01*
X25558D01*
X25516Y14640D01*
Y14598D01*
X25558Y14557D01*
X25641D01*
X25683Y14515D01*
Y14473D01*
X25641Y14432D01*
X25558D01*
X25516Y14473D01*
X25766Y14682D02*
Y14432D01*
X25849Y14515D01*
X25933Y14432D01*
Y14682D01*
X26016D02*
Y14432D01*
X26141D01*
X26183Y14473D01*
Y14640D01*
X26141Y14682D01*
X26016D01*
X24100Y14220D02*
X24142Y14262D01*
X24225D01*
X24267Y14220D01*
Y14053D01*
X24225Y14012D01*
X24142D01*
X24100Y14053D01*
Y14220D01*
X24350Y14012D02*
X24433D01*
X24392D01*
Y14262D01*
X24350Y14220D01*
X24808Y14137D02*
X24975D01*
X25058Y14012D02*
X25183Y14137D01*
X25058Y14262D01*
X25683D02*
X25516D01*
Y14137D01*
X25600D01*
X25516D01*
Y14012D01*
X25766Y14262D02*
Y14012D01*
X25933D01*
X26016D02*
Y14178D01*
X26099Y14262D01*
X26183Y14178D01*
Y14012D01*
Y14137D01*
X26016D01*
X26433Y14220D02*
X26391Y14262D01*
X26308D01*
X26266Y14220D01*
Y14178D01*
X26308Y14137D01*
X26391D01*
X26433Y14095D01*
Y14053D01*
X26391Y14012D01*
X26308D01*
X26266Y14053D01*
X26516Y14262D02*
Y14012D01*
Y14137D01*
X26683D01*
Y14262D01*
Y14012D01*
X11110Y15180D02*
Y15480D01*
X11260D01*
X11310Y15430D01*
Y15330D01*
X11260Y15280D01*
X11110D01*
X11560Y15180D02*
Y15480D01*
X11410Y15330D01*
X11610D01*
X19650Y12530D02*
X19600Y12580D01*
X19500D01*
X19450Y12530D01*
Y12330D01*
X19500Y12280D01*
X19600D01*
X19650Y12330D01*
X19750Y12280D02*
X19850D01*
X19800D01*
Y12580D01*
X19750Y12530D01*
X20150Y12280D02*
Y12580D01*
X20000Y12430D01*
X20200D01*
X17950Y10800D02*
X17900Y10850D01*
X17800D01*
X17750Y10800D01*
Y10600D01*
X17800Y10550D01*
X17900D01*
X17950Y10600D01*
X18050Y10550D02*
X18150D01*
X18100D01*
Y10850D01*
X18050Y10800D01*
X18500Y10850D02*
X18300D01*
Y10700D01*
X18400Y10750D01*
X18450D01*
X18500Y10700D01*
Y10600D01*
X18450Y10550D01*
X18350D01*
X18300Y10600D01*
X17969Y12780D02*
Y12730D01*
X18069Y12630D01*
X18169Y12730D01*
Y12780D01*
X18069Y12630D02*
Y12480D01*
X18469D02*
X18269D01*
X18469Y12680D01*
Y12730D01*
X18419Y12780D01*
X18319D01*
X18269Y12730D01*
X23940Y19640D02*
Y19940D01*
X24090D01*
X24140Y19890D01*
Y19790D01*
X24090Y19740D01*
X23940D01*
X24040D02*
X24140Y19640D01*
X24240D02*
X24340D01*
X24290D01*
Y19940D01*
X24240Y19890D01*
X24640Y19640D02*
Y19940D01*
X24490Y19790D01*
X24690D01*
X24170Y19520D02*
Y19820D01*
X24320D01*
X24370Y19770D01*
Y19670D01*
X24320Y19620D01*
X24170D01*
X24270D02*
X24370Y19520D01*
X24470D02*
X24570D01*
X24520D01*
Y19820D01*
X24470Y19770D01*
X24720D02*
X24770Y19820D01*
X24870D01*
X24920Y19770D01*
Y19570D01*
X24870Y19520D01*
X24770D01*
X24720Y19570D01*
Y19770D01*
X26080Y19400D02*
Y19700D01*
X26230D01*
X26280Y19650D01*
Y19550D01*
X26230Y19500D01*
X26080D01*
X26180D02*
X26280Y19400D01*
X26380Y19650D02*
X26430Y19700D01*
X26530D01*
X26580Y19650D01*
Y19600D01*
X26530Y19550D01*
X26480D01*
X26530D01*
X26580Y19500D01*
Y19450D01*
X26530Y19400D01*
X26430D01*
X26380Y19450D01*
X17720Y23150D02*
X17670Y23200D01*
X17570D01*
X17520Y23150D01*
Y22950D01*
X17570Y22900D01*
X17670D01*
X17720Y22950D01*
X18020Y22900D02*
X17820D01*
X18020Y23100D01*
Y23150D01*
X17970Y23200D01*
X17870D01*
X17820Y23150D01*
X23740Y17950D02*
Y18250D01*
X23890D01*
X23940Y18200D01*
Y18100D01*
X23890Y18050D01*
X23740D01*
X24040Y17950D02*
X24140D01*
X24090D01*
Y18250D01*
X24040Y18200D01*
X21190Y8200D02*
X21140Y8250D01*
X21040D01*
X20990Y8200D01*
Y8000D01*
X21040Y7950D01*
X21140D01*
X21190Y8000D01*
X21290Y7950D02*
X21390D01*
X21340D01*
Y8250D01*
X21290Y8200D01*
X19680Y8990D02*
Y9290D01*
X19830D01*
X19880Y9240D01*
Y9140D01*
X19830Y9090D01*
X19680D01*
X19780D02*
X19880Y8990D01*
X19980D02*
X20080D01*
X20030D01*
Y9290D01*
X19980Y9240D01*
X20230Y8990D02*
X20330D01*
X20280D01*
Y9290D01*
X20230Y9240D01*
X18210Y20710D02*
Y20460D01*
X18260Y20410D01*
X18360D01*
X18410Y20460D01*
Y20710D01*
X18660Y20410D02*
Y20710D01*
X18510Y20560D01*
X18710D01*
X20380Y11670D02*
Y11420D01*
X20430Y11370D01*
X20530D01*
X20580Y11420D01*
Y11670D01*
X20680Y11620D02*
X20730Y11670D01*
X20830D01*
X20880Y11620D01*
Y11570D01*
X20830Y11520D01*
X20780D01*
X20830D01*
X20880Y11470D01*
Y11420D01*
X20830Y11370D01*
X20730D01*
X20680Y11420D01*
X6600Y18450D02*
Y18750D01*
X6750D01*
X6800Y18700D01*
Y18600D01*
X6750Y18550D01*
X6600D01*
X6700D02*
X6800Y18450D01*
X6900D02*
X7000D01*
X6950D01*
Y18750D01*
X6900Y18700D01*
X7150D02*
X7200Y18750D01*
X7300D01*
X7350Y18700D01*
Y18650D01*
X7300Y18600D01*
X7350Y18550D01*
Y18500D01*
X7300Y18450D01*
X7200D01*
X7150Y18500D01*
Y18550D01*
X7200Y18600D01*
X7150Y18650D01*
Y18700D01*
X7200Y18600D02*
X7300D01*
X11770Y16930D02*
Y17230D01*
X11920D01*
X11970Y17180D01*
Y17080D01*
X11920Y17030D01*
X11770D01*
X11870D02*
X11970Y16930D01*
X12070D02*
X12170D01*
X12120D01*
Y17230D01*
X12070Y17180D01*
X12320Y17230D02*
X12520D01*
Y17180D01*
X12320Y16980D01*
Y16930D01*
X18340Y18900D02*
Y19200D01*
X18490D01*
X18540Y19150D01*
Y19050D01*
X18490Y19000D01*
X18340D01*
X18440D02*
X18540Y18900D01*
X18640D02*
X18740D01*
X18690D01*
Y19200D01*
X18640Y19150D01*
X19090Y19200D02*
X18990Y19150D01*
X18890Y19050D01*
Y18950D01*
X18940Y18900D01*
X19040D01*
X19090Y18950D01*
Y19000D01*
X19040Y19050D01*
X18890D01*
X22470Y15150D02*
Y15450D01*
X22620D01*
X22670Y15400D01*
Y15300D01*
X22620Y15250D01*
X22470D01*
X22570D02*
X22670Y15150D01*
X22770D02*
X22870D01*
X22820D01*
Y15450D01*
X22770Y15400D01*
X23220Y15450D02*
X23020D01*
Y15300D01*
X23120Y15350D01*
X23170D01*
X23220Y15300D01*
Y15200D01*
X23170Y15150D01*
X23070D01*
X23020Y15200D01*
X20720Y11800D02*
Y12100D01*
X20870D01*
X20920Y12050D01*
Y11950D01*
X20870Y11900D01*
X20720D01*
X20820D02*
X20920Y11800D01*
X21020D02*
X21120D01*
X21070D01*
Y12100D01*
X21020Y12050D01*
X21470Y11800D02*
X21270D01*
X21470Y12000D01*
Y12050D01*
X21420Y12100D01*
X21320D01*
X21270Y12050D01*
X22270Y11240D02*
Y11540D01*
X22420D01*
X22470Y11490D01*
Y11390D01*
X22420Y11340D01*
X22270D01*
X22370D02*
X22470Y11240D01*
X22570D02*
X22670D01*
X22620D01*
Y11540D01*
X22570Y11490D01*
X22820D02*
X22870Y11540D01*
X22970D01*
X23020Y11490D01*
Y11440D01*
X22970Y11390D01*
X22920D01*
X22970D01*
X23020Y11340D01*
Y11290D01*
X22970Y11240D01*
X22870D01*
X22820Y11290D01*
X21610Y18660D02*
Y18960D01*
X21760D01*
X21810Y18910D01*
Y18810D01*
X21760Y18760D01*
X21610D01*
X21710D02*
X21810Y18660D01*
X21910Y18910D02*
X21960Y18960D01*
X22060D01*
X22110Y18910D01*
Y18860D01*
X22060Y18810D01*
X22110Y18760D01*
Y18710D01*
X22060Y18660D01*
X21960D01*
X21910Y18710D01*
Y18760D01*
X21960Y18810D01*
X21910Y18860D01*
Y18910D01*
X21960Y18810D02*
X22060D01*
X9031Y18651D02*
Y18351D01*
X9231D01*
X9331Y18601D02*
X9381Y18651D01*
X9481D01*
X9531Y18601D01*
Y18551D01*
X9481Y18501D01*
X9431D01*
X9481D01*
X9531Y18451D01*
Y18401D01*
X9481Y18351D01*
X9381D01*
X9331Y18401D01*
X15730Y15120D02*
Y14820D01*
X15930D01*
X16230D02*
X16030D01*
X16230Y15020D01*
Y15070D01*
X16180Y15120D01*
X16080D01*
X16030Y15070D01*
X6089Y26761D02*
Y27061D01*
X6189Y26961D01*
X6289Y27061D01*
Y26761D01*
X6389D02*
X6489D01*
X6439D01*
Y27061D01*
X6389Y27011D01*
X11300Y9360D02*
Y9660D01*
X11450D01*
X11500Y9610D01*
Y9510D01*
X11450Y9460D01*
X11300D01*
X11600Y9610D02*
X11650Y9660D01*
X11750D01*
X11800Y9610D01*
Y9560D01*
X11750Y9510D01*
X11700D01*
X11750D01*
X11800Y9460D01*
Y9410D01*
X11750Y9360D01*
X11650D01*
X11600Y9410D01*
X13980Y14650D02*
X13930Y14700D01*
X13830D01*
X13780Y14650D01*
Y14450D01*
X13830Y14400D01*
X13930D01*
X13980Y14450D01*
X14280Y14700D02*
X14180Y14650D01*
X14080Y14550D01*
Y14450D01*
X14130Y14400D01*
X14230D01*
X14280Y14450D01*
Y14500D01*
X14230Y14550D01*
X14080D01*
X14810Y19310D02*
Y19010D01*
X15010D01*
X15310Y19310D02*
X15110D01*
Y19160D01*
X15210Y19210D01*
X15260D01*
X15310Y19160D01*
Y19060D01*
X15260Y19010D01*
X15160D01*
X15110Y19060D01*
X15850Y13560D02*
Y13260D01*
X16050D01*
X16300D02*
Y13560D01*
X16150Y13410D01*
X16350D01*
X13120Y10700D02*
X13070Y10750D01*
X12970D01*
X12920Y10700D01*
Y10500D01*
X12970Y10450D01*
X13070D01*
X13120Y10500D01*
X13220Y10450D02*
X13320D01*
X13270D01*
Y10750D01*
X13220Y10700D01*
X13470D02*
X13520Y10750D01*
X13620D01*
X13670Y10700D01*
Y10650D01*
X13620Y10600D01*
X13570D01*
X13620D01*
X13670Y10550D01*
Y10500D01*
X13620Y10450D01*
X13520D01*
X13470Y10500D01*
X17580Y12160D02*
X17530Y12210D01*
X17430D01*
X17380Y12160D01*
Y11960D01*
X17430Y11910D01*
X17530D01*
X17580Y11960D01*
X17680Y11910D02*
X17780D01*
X17730D01*
Y12210D01*
X17680Y12160D01*
X18130Y11910D02*
X17930D01*
X18130Y12110D01*
Y12160D01*
X18080Y12210D01*
X17980D01*
X17930Y12160D01*
X21040Y20610D02*
Y20910D01*
X21190D01*
X21240Y20860D01*
Y20760D01*
X21190Y20710D01*
X21040D01*
X21540Y20610D02*
X21340D01*
X21540Y20810D01*
Y20860D01*
X21490Y20910D01*
X21390D01*
X21340Y20860D01*
X6660Y17720D02*
Y17470D01*
X6710Y17420D01*
X6810D01*
X6860Y17470D01*
Y17720D01*
X7160D02*
X6960D01*
Y17570D01*
X7060Y17620D01*
X7110D01*
X7160Y17570D01*
Y17470D01*
X7110Y17420D01*
X7010D01*
X6960Y17470D01*
X6780Y15840D02*
X6730Y15890D01*
X6630D01*
X6580Y15840D01*
Y15640D01*
X6630Y15590D01*
X6730D01*
X6780Y15640D01*
X6880Y15840D02*
X6930Y15890D01*
X7030D01*
X7080Y15840D01*
Y15790D01*
X7030Y15740D01*
X6980D01*
X7030D01*
X7080Y15690D01*
Y15640D01*
X7030Y15590D01*
X6930D01*
X6880Y15640D01*
X8960Y16480D02*
X8910Y16530D01*
X8810D01*
X8760Y16480D01*
Y16280D01*
X8810Y16230D01*
X8910D01*
X8960Y16280D01*
X9210Y16230D02*
Y16530D01*
X9060Y16380D01*
X9260D01*
X14040Y15700D02*
X13990Y15750D01*
X13890D01*
X13840Y15700D01*
Y15500D01*
X13890Y15450D01*
X13990D01*
X14040Y15500D01*
X14340Y15750D02*
X14140D01*
Y15600D01*
X14240Y15650D01*
X14290D01*
X14340Y15600D01*
Y15500D01*
X14290Y15450D01*
X14190D01*
X14140Y15500D01*
X19460Y19000D02*
X19410Y19050D01*
X19310D01*
X19260Y19000D01*
Y18800D01*
X19310Y18750D01*
X19410D01*
X19460Y18800D01*
X19560Y19050D02*
X19760D01*
Y19000D01*
X19560Y18800D01*
Y18750D01*
X22586Y19552D02*
X22536Y19602D01*
X22436D01*
X22386Y19552D01*
Y19352D01*
X22436Y19302D01*
X22536D01*
X22586Y19352D01*
X22686Y19552D02*
X22736Y19602D01*
X22836D01*
X22886Y19552D01*
Y19502D01*
X22836Y19452D01*
X22886Y19402D01*
Y19352D01*
X22836Y19302D01*
X22736D01*
X22686Y19352D01*
Y19402D01*
X22736Y19452D01*
X22686Y19502D01*
Y19552D01*
X22736Y19452D02*
X22836D01*
X22230Y16130D02*
X22180Y16180D01*
X22080D01*
X22030Y16130D01*
Y15930D01*
X22080Y15880D01*
X22180D01*
X22230Y15930D01*
X22330D02*
X22380Y15880D01*
X22480D01*
X22530Y15930D01*
Y16130D01*
X22480Y16180D01*
X22380D01*
X22330Y16130D01*
Y16080D01*
X22380Y16030D01*
X22530D01*
X14670Y12170D02*
X14620Y12220D01*
X14520D01*
X14470Y12170D01*
Y11970D01*
X14520Y11920D01*
X14620D01*
X14670Y11970D01*
X14770Y11920D02*
X14870D01*
X14820D01*
Y12220D01*
X14770Y12170D01*
X15020D02*
X15070Y12220D01*
X15170D01*
X15220Y12170D01*
Y11970D01*
X15170Y11920D01*
X15070D01*
X15020Y11970D01*
Y12170D01*
X13780Y16800D02*
X13730Y16850D01*
X13630D01*
X13580Y16800D01*
Y16600D01*
X13630Y16550D01*
X13730D01*
X13780Y16600D01*
X13880Y16550D02*
X13980D01*
X13930D01*
Y16850D01*
X13880Y16800D01*
X14130Y16550D02*
X14230D01*
X14180D01*
Y16850D01*
X14130Y16800D01*
X26070Y24550D02*
X25970D01*
X26020D01*
Y24300D01*
X25970Y24250D01*
X25920D01*
X25870Y24300D01*
X26170Y24250D02*
X26270D01*
X26220D01*
Y24550D01*
X26170Y24500D01*
X25570Y8390D02*
X25470D01*
X25520D01*
Y8140D01*
X25470Y8090D01*
X25420D01*
X25370Y8140D01*
X25870Y8090D02*
X25670D01*
X25870Y8290D01*
Y8340D01*
X25820Y8390D01*
X25720D01*
X25670Y8340D01*
X17940Y21220D02*
Y20920D01*
X18140D01*
X18240D02*
X18340D01*
X18290D01*
Y21220D01*
X18240Y21170D01*
X15710Y10320D02*
Y10620D01*
X15860D01*
X15910Y10570D01*
Y10470D01*
X15860Y10420D01*
X15710D01*
X15810D02*
X15910Y10320D01*
X16010D02*
X16110D01*
X16060D01*
Y10620D01*
X16010Y10570D01*
X13330Y8190D02*
Y8490D01*
X13480D01*
X13530Y8440D01*
Y8340D01*
X13480Y8290D01*
X13330D01*
X13430D02*
X13530Y8190D01*
X13830D02*
X13630D01*
X13830Y8390D01*
Y8440D01*
X13780Y8490D01*
X13680D01*
X13630Y8440D01*
X15690Y7510D02*
Y7810D01*
X15840D01*
X15890Y7760D01*
Y7660D01*
X15840Y7610D01*
X15690D01*
X15790D02*
X15890Y7510D01*
X16140D02*
Y7810D01*
X15990Y7660D01*
X16190D01*
X13350Y8880D02*
Y9180D01*
X13500D01*
X13550Y9130D01*
Y9030D01*
X13500Y8980D01*
X13350D01*
X13450D02*
X13550Y8880D01*
X13850Y9180D02*
X13650D01*
Y9030D01*
X13750Y9080D01*
X13800D01*
X13850Y9030D01*
Y8930D01*
X13800Y8880D01*
X13700D01*
X13650Y8930D01*
X13330Y9680D02*
Y9980D01*
X13480D01*
X13530Y9930D01*
Y9830D01*
X13480Y9780D01*
X13330D01*
X13430D02*
X13530Y9680D01*
X13630Y9730D02*
X13680Y9680D01*
X13780D01*
X13830Y9730D01*
Y9930D01*
X13780Y9980D01*
X13680D01*
X13630Y9930D01*
Y9880D01*
X13680Y9830D01*
X13830D01*
X15100Y17960D02*
Y18260D01*
X15250D01*
X15300Y18210D01*
Y18110D01*
X15250Y18060D01*
X15100D01*
X15200D02*
X15300Y17960D01*
X15600Y18260D02*
X15500Y18210D01*
X15400Y18110D01*
Y18010D01*
X15450Y17960D01*
X15550D01*
X15600Y18010D01*
Y18060D01*
X15550Y18110D01*
X15400D01*
X18274Y26328D02*
Y26628D01*
X18424D01*
X18474Y26578D01*
Y26478D01*
X18424Y26428D01*
X18274D01*
X18374D02*
X18474Y26328D01*
X18774Y26628D02*
X18574D01*
Y26478D01*
X18674D01*
X18574D01*
Y26328D01*
X18874D02*
X18974D01*
X18924D01*
Y26628D01*
X18874Y26578D01*
X13110Y14220D02*
X13310D01*
X13210D01*
Y13920D01*
X13410D02*
Y14220D01*
X13560D01*
X13610Y14170D01*
Y14070D01*
X13560Y14020D01*
X13410D01*
X13710Y13920D02*
X13810D01*
X13760D01*
Y14220D01*
X13710Y14170D01*
X18780Y8140D02*
Y7890D01*
X18830Y7840D01*
X18930D01*
X18980Y7890D01*
Y8140D01*
X19080Y7840D02*
X19180D01*
X19130D01*
Y8140D01*
X19080Y8090D01*
X21800Y13300D02*
Y13050D01*
X21850Y13000D01*
X21950D01*
X22000Y13050D01*
Y13300D01*
X22300Y13000D02*
X22100D01*
X22300Y13200D01*
Y13250D01*
X22250Y13300D01*
X22150D01*
X22100Y13250D01*
X20530Y20040D02*
X20730Y19740D01*
Y20040D02*
X20530Y19740D01*
X20830D02*
X20930D01*
X20880D01*
Y20040D01*
X20830Y19990D01*
X16570Y10630D02*
X16520Y10680D01*
X16420D01*
X16370Y10630D01*
Y10430D01*
X16420Y10380D01*
X16520D01*
X16570Y10430D01*
X16670Y10380D02*
Y10680D01*
X16870Y10380D01*
Y10680D01*
X16970Y10380D02*
X17070D01*
X17020D01*
Y10680D01*
X16970Y10630D01*
X22420Y17690D02*
X22370Y17740D01*
X22270D01*
X22220Y17690D01*
Y17490D01*
X22270Y17440D01*
X22370D01*
X22420Y17490D01*
X22520Y17440D02*
Y17740D01*
X22720Y17440D01*
Y17740D01*
X23020Y17440D02*
X22820D01*
X23020Y17640D01*
Y17690D01*
X22970Y17740D01*
X22870D01*
X22820Y17690D01*
X16590Y15110D02*
X16540Y15160D01*
X16440D01*
X16390Y15110D01*
Y14910D01*
X16440Y14860D01*
X16540D01*
X16590Y14910D01*
X16690Y14860D02*
Y15160D01*
X16890Y14860D01*
Y15160D01*
X16990Y15110D02*
X17040Y15160D01*
X17140D01*
X17190Y15110D01*
Y15060D01*
X17140Y15010D01*
X17090D01*
X17140D01*
X17190Y14960D01*
Y14910D01*
X17140Y14860D01*
X17040D01*
X16990Y14910D01*
X22470Y14380D02*
Y14680D01*
X22620D01*
X22670Y14630D01*
Y14530D01*
X22620Y14480D01*
X22470D01*
X22570D02*
X22670Y14380D01*
X22770Y14680D02*
X22970D01*
Y14630D01*
X22770Y14430D01*
Y14380D01*
D60*
X9690Y27305D02*
X11540D01*
X9655Y27310D02*
X11580D01*
X9630Y27315D02*
X11600D01*
X9610Y27320D02*
X11620D01*
X9595Y27325D02*
X11635D01*
X9580Y27330D02*
X11650D01*
X9565Y27335D02*
X11665D01*
X9555Y27340D02*
X11675D01*
X9545Y27345D02*
X11685D01*
X11550Y27350D02*
X11695D01*
X9535D02*
X10485D01*
X11585Y27355D02*
X11705D01*
X9525D02*
X10490D01*
X11610Y27360D02*
X11715D01*
X9515D02*
X10500D01*
X11625Y27365D02*
X11725D01*
X9505D02*
X10505D01*
X11640Y27370D02*
X11735D01*
X9495D02*
X10510D01*
X11655Y27375D02*
X11740D01*
X9490D02*
X10515D01*
X11665Y27380D02*
X11750D01*
X9480D02*
X10520D01*
X11675Y27385D02*
X11755D01*
X9475D02*
X10525D01*
X11685Y27390D02*
X11760D01*
X9465D02*
X10530D01*
X11695Y27395D02*
X11770D01*
X9460D02*
X10535D01*
X11705Y27400D02*
X11775D01*
X9455D02*
X10540D01*
X11715Y27405D02*
X11780D01*
X9450D02*
X10545D01*
X11720Y27410D02*
X11785D01*
X9445D02*
X10550D01*
X11730Y27415D02*
X11795D01*
X9435D02*
X10555D01*
X11735Y27420D02*
X11800D01*
X9430D02*
X10560D01*
X11740Y27425D02*
X11805D01*
X9425D02*
X10560D01*
X11750Y27430D02*
X11810D01*
X9420D02*
X10565D01*
X11755Y27435D02*
X11815D01*
X9415D02*
X10570D01*
X11760Y27440D02*
X11820D01*
X9410D02*
X10575D01*
X11765Y27445D02*
X11825D01*
X9405D02*
X10580D01*
X11770Y27450D02*
X11830D01*
X9400D02*
X10580D01*
X11780Y27455D02*
X11835D01*
X9395D02*
X10585D01*
X11785Y27460D02*
X11835D01*
X9390D02*
X10590D01*
X11790Y27465D02*
X11840D01*
X9390D02*
X10590D01*
X11795Y27470D02*
X11845D01*
X9385D02*
X10595D01*
X11795Y27475D02*
X11850D01*
X9380D02*
X10600D01*
X11800Y27480D02*
X11855D01*
X9375D02*
X10600D01*
X11805Y27485D02*
X11855D01*
X9375D02*
X10605D01*
X11810Y27490D02*
X11860D01*
X9370D02*
X10610D01*
X11815Y27495D02*
X11865D01*
X9365D02*
X10610D01*
X11820Y27500D02*
X11870D01*
X9360D02*
X10615D01*
X11820Y27505D02*
X11870D01*
X9360D02*
X10615D01*
X11825Y27510D02*
X11875D01*
X9355D02*
X10620D01*
X11830Y27515D02*
X11880D01*
X9350D02*
X10620D01*
X11835Y27520D02*
X11880D01*
X9350D02*
X10625D01*
X11835Y27525D02*
X11885D01*
X9345D02*
X10625D01*
X11840Y27530D02*
X11885D01*
X9345D02*
X10630D01*
X11845Y27535D02*
X11890D01*
X9340D02*
X10630D01*
X11845Y27540D02*
X11890D01*
X9335D02*
X10635D01*
X11850Y27545D02*
X11895D01*
X9335D02*
X10635D01*
X11850Y27550D02*
X11895D01*
X9330D02*
X10635D01*
X11855Y27555D02*
X11900D01*
X9330D02*
X10640D01*
X11855Y27560D02*
X11900D01*
X9325D02*
X10640D01*
X11860Y27565D02*
X11905D01*
X9325D02*
X10645D01*
X11860Y27570D02*
X11905D01*
X9325D02*
X10645D01*
X11865Y27575D02*
X11910D01*
X9320D02*
X10645D01*
X11865Y27580D02*
X11910D01*
X9320D02*
X10650D01*
X11870Y27585D02*
X11915D01*
X11550D02*
X11555D01*
X11455D02*
X11535D01*
X11435D02*
X11445D01*
X10890D02*
X11015D01*
X10495D02*
X10650D01*
X10135D02*
X10370D01*
X10045D02*
X10055D01*
X10035D02*
X10040D01*
X9775D02*
X10025D01*
X9690D02*
X9695D01*
X9315D02*
X9680D01*
X11870Y27590D02*
X11915D01*
X11425D02*
X11555D01*
X10880D02*
X11015D01*
X10495D02*
X10650D01*
X10135D02*
X10365D01*
X9785D02*
X10025D01*
X9315D02*
X9675D01*
X11875Y27595D02*
X11915D01*
X11425D02*
X11555D01*
X10880D02*
X11015D01*
X10495D02*
X10655D01*
X10140D02*
X10365D01*
X9785D02*
X10025D01*
X9315D02*
X9675D01*
X11875Y27600D02*
X11920D01*
X11425D02*
X11555D01*
X10880D02*
X11015D01*
X10495D02*
X10655D01*
X10140D02*
X10365D01*
X9785D02*
X10020D01*
X9310D02*
X9675D01*
X11875Y27605D02*
X11920D01*
X11425D02*
X11555D01*
X10880D02*
X11015D01*
X10495D02*
X10655D01*
X10140D02*
X10370D01*
X9790D02*
X10020D01*
X9310D02*
X9670D01*
X11880Y27610D02*
X11920D01*
X11425D02*
X11555D01*
X10880D02*
X11015D01*
X10495D02*
X10655D01*
X10140D02*
X10370D01*
X9790D02*
X10020D01*
X9305D02*
X9670D01*
X11880Y27615D02*
X11925D01*
X11425D02*
X11555D01*
X10880D02*
X11015D01*
X10495D02*
X10660D01*
X10145D02*
X10365D01*
X9790D02*
X10015D01*
X9305D02*
X9670D01*
X11880Y27620D02*
X11925D01*
X11425D02*
X11555D01*
X10880D02*
X11015D01*
X10495D02*
X10660D01*
X10145D02*
X10365D01*
X9795D02*
X10015D01*
X9305D02*
X9670D01*
X11885Y27625D02*
X11925D01*
X11425D02*
X11555D01*
X10880D02*
X11015D01*
X10495D02*
X10660D01*
X10145D02*
X10365D01*
X9795D02*
X10015D01*
X9305D02*
X9665D01*
X11885Y27630D02*
X11930D01*
X11425D02*
X11555D01*
X10880D02*
X11015D01*
X10495D02*
X10660D01*
X10145D02*
X10365D01*
X9795D02*
X10015D01*
X9300D02*
X9665D01*
X11885Y27635D02*
X11930D01*
X11425D02*
X11555D01*
X10880D02*
X11015D01*
X10495D02*
X10665D01*
X10150D02*
X10365D01*
X9795D02*
X10010D01*
X9300D02*
X9665D01*
X11890Y27640D02*
X11930D01*
X11425D02*
X11555D01*
X10880D02*
X11015D01*
X10495D02*
X10665D01*
X10150D02*
X10365D01*
X9800D02*
X10010D01*
X9300D02*
X9660D01*
X11890Y27645D02*
X11930D01*
X11425D02*
X11555D01*
X10880D02*
X11015D01*
X10495D02*
X10665D01*
X10150D02*
X10365D01*
X9800D02*
X10010D01*
X9295D02*
X9660D01*
X11890Y27650D02*
X11935D01*
X11425D02*
X11555D01*
X10880D02*
X11015D01*
X10495D02*
X10665D01*
X10155D02*
X10365D01*
X9800D02*
X10005D01*
X9295D02*
X9660D01*
X11890Y27655D02*
X11935D01*
X11425D02*
X11555D01*
X10880D02*
X11015D01*
X10495D02*
X10665D01*
X10155D02*
X10365D01*
X9805D02*
X10005D01*
X9295D02*
X9660D01*
X11895Y27660D02*
X11935D01*
X11425D02*
X11555D01*
X10880D02*
X11015D01*
X10495D02*
X10670D01*
X10155D02*
X10365D01*
X9805D02*
X10005D01*
X9295D02*
X9655D01*
X11895Y27665D02*
X11935D01*
X11425D02*
X11555D01*
X10880D02*
X11015D01*
X10495D02*
X10670D01*
X10155D02*
X10365D01*
X9805D02*
X10005D01*
X9295D02*
X9655D01*
X11895Y27670D02*
X11935D01*
X11425D02*
X11555D01*
X10880D02*
X11015D01*
X10495D02*
X10670D01*
X10160D02*
X10365D01*
X9805D02*
X10000D01*
X9290D02*
X9655D01*
X11895Y27675D02*
X11940D01*
X11425D02*
X11555D01*
X10880D02*
X11015D01*
X10495D02*
X10670D01*
X10160D02*
X10365D01*
X9810D02*
X10000D01*
X9290D02*
X9655D01*
X11895Y27680D02*
X11940D01*
X11425D02*
X11555D01*
X10880D02*
X11015D01*
X10495D02*
X10670D01*
X10160D02*
X10365D01*
X9810D02*
X10000D01*
X9290D02*
X9650D01*
X11900Y27685D02*
X11940D01*
X11425D02*
X11555D01*
X10880D02*
X11015D01*
X10495D02*
X10670D01*
X10160D02*
X10365D01*
X9810D02*
X9995D01*
X9290D02*
X9650D01*
X11900Y27690D02*
X11940D01*
X11425D02*
X11555D01*
X10880D02*
X11015D01*
X10495D02*
X10670D01*
X10165D02*
X10365D01*
X9815D02*
X9995D01*
X9290D02*
X9650D01*
X11900Y27695D02*
X11940D01*
X11425D02*
X11555D01*
X10880D02*
X11015D01*
X10495D02*
X10670D01*
X10165D02*
X10365D01*
X9815D02*
X9995D01*
X9290D02*
X9650D01*
X11900Y27700D02*
X11940D01*
X11425D02*
X11555D01*
X10880D02*
X11015D01*
X10495D02*
X10675D01*
X10165D02*
X10365D01*
X9815D02*
X9990D01*
X9290D02*
X9645D01*
X11900Y27705D02*
X11945D01*
X11425D02*
X11555D01*
X10880D02*
X11015D01*
X10495D02*
X10675D01*
X10165D02*
X10365D01*
X9815D02*
X9990D01*
X9285D02*
X9645D01*
X11900Y27710D02*
X11945D01*
X11425D02*
X11555D01*
X10880D02*
X11015D01*
X10495D02*
X10675D01*
X10170D02*
X10365D01*
X9820D02*
X9990D01*
X9285D02*
X9645D01*
X11900Y27715D02*
X11945D01*
X11425D02*
X11555D01*
X10880D02*
X11015D01*
X10495D02*
X10675D01*
X10170D02*
X10365D01*
X9820D02*
X9990D01*
X9285D02*
X9640D01*
X11900Y27720D02*
X11945D01*
X11425D02*
X11555D01*
X10880D02*
X11015D01*
X10495D02*
X10675D01*
X10170D02*
X10365D01*
X9820D02*
X9985D01*
X9285D02*
X9640D01*
X11900Y27725D02*
X11945D01*
X11425D02*
X11555D01*
X10880D02*
X11015D01*
X10495D02*
X10675D01*
X10170D02*
X10365D01*
X9825D02*
X9985D01*
X9285D02*
X9640D01*
X11900Y27730D02*
X11945D01*
X11425D02*
X11555D01*
X10880D02*
X11015D01*
X10495D02*
X10675D01*
X10175D02*
X10365D01*
X9825D02*
X9985D01*
X9285D02*
X9640D01*
X11900Y27735D02*
X11945D01*
X11425D02*
X11555D01*
X10880D02*
X11015D01*
X10495D02*
X10675D01*
X10175D02*
X10365D01*
X9825D02*
X9980D01*
X9285D02*
X9635D01*
X11900Y27740D02*
X11945D01*
X11425D02*
X11555D01*
X10880D02*
X11015D01*
X10495D02*
X10675D01*
X10175D02*
X10365D01*
X9825D02*
X9980D01*
X9285D02*
X9635D01*
X11900Y27745D02*
X11945D01*
X11425D02*
X11555D01*
X10880D02*
X11015D01*
X10495D02*
X10675D01*
X10180D02*
X10365D01*
X9830D02*
X9980D01*
X9285D02*
X9635D01*
X11900Y27750D02*
X11945D01*
X11425D02*
X11555D01*
X10880D02*
X11015D01*
X10495D02*
X10675D01*
X10180D02*
X10365D01*
X9830D02*
X9980D01*
X9285D02*
X9635D01*
X11900Y27755D02*
X11945D01*
X11425D02*
X11555D01*
X10880D02*
X11015D01*
X10495D02*
X10675D01*
X10180D02*
X10365D01*
X9830D02*
X9975D01*
X9285D02*
X9630D01*
X11900Y27760D02*
X11945D01*
X11425D02*
X11555D01*
X10880D02*
X11015D01*
X10495D02*
X10675D01*
X10180D02*
X10365D01*
X9835D02*
X9975D01*
X9285D02*
X9630D01*
X11900Y27765D02*
X11945D01*
X11425D02*
X11555D01*
X10880D02*
X11015D01*
X10495D02*
X10675D01*
X10185D02*
X10365D01*
X9835D02*
X9975D01*
X9285D02*
X9630D01*
X11900Y27770D02*
X11945D01*
X11425D02*
X11555D01*
X10880D02*
X11015D01*
X10495D02*
X10675D01*
X10185D02*
X10365D01*
X9835D02*
X9975D01*
X9285D02*
X9630D01*
X11900Y27775D02*
X11945D01*
X11425D02*
X11555D01*
X10880D02*
X11015D01*
X10495D02*
X10675D01*
X10185D02*
X10365D01*
X9835D02*
X9970D01*
X9285D02*
X9625D01*
X11900Y27780D02*
X11945D01*
X11425D02*
X11555D01*
X10880D02*
X11015D01*
X10495D02*
X10675D01*
X10185D02*
X10365D01*
X9840D02*
X9970D01*
X9285D02*
X9625D01*
X11900Y27785D02*
X11945D01*
X11425D02*
X11555D01*
X10880D02*
X11015D01*
X10495D02*
X10675D01*
X10190D02*
X10365D01*
X9840D02*
X9970D01*
X9285D02*
X9625D01*
X11900Y27790D02*
X11945D01*
X11425D02*
X11555D01*
X10880D02*
X11015D01*
X10495D02*
X10675D01*
X10190D02*
X10365D01*
X9840D02*
X9965D01*
X9285D02*
X9620D01*
X11900Y27795D02*
X11945D01*
X11425D02*
X11555D01*
X10880D02*
X11015D01*
X10495D02*
X10675D01*
X10190D02*
X10365D01*
X9845D02*
X9965D01*
X9285D02*
X9620D01*
X11900Y27800D02*
X11945D01*
X11425D02*
X11555D01*
X10880D02*
X11015D01*
X10495D02*
X10675D01*
X10190D02*
X10365D01*
X10075D02*
X10080D01*
X9845D02*
X9965D01*
X9285D02*
X9620D01*
X11900Y27805D02*
X11945D01*
X11425D02*
X11555D01*
X10880D02*
X11015D01*
X10495D02*
X10675D01*
X10195D02*
X10365D01*
X10075D02*
X10080D01*
X9845D02*
X9960D01*
X9285D02*
X9620D01*
X11900Y27810D02*
X11945D01*
X11425D02*
X11555D01*
X10880D02*
X11015D01*
X10495D02*
X10675D01*
X10195D02*
X10365D01*
X10075D02*
X10085D01*
X9850D02*
X9960D01*
X9285D02*
X9615D01*
X11900Y27815D02*
X11945D01*
X11425D02*
X11555D01*
X10880D02*
X11015D01*
X10495D02*
X10675D01*
X10195D02*
X10365D01*
X10075D02*
X10085D01*
X9850D02*
X9960D01*
X9735D02*
X9740D01*
X9285D02*
X9615D01*
X11900Y27820D02*
X11945D01*
X11425D02*
X11555D01*
X10880D02*
X11015D01*
X10495D02*
X10675D01*
X10195D02*
X10365D01*
X10070D02*
X10085D01*
X9850D02*
X9960D01*
X9730D02*
X9740D01*
X9285D02*
X9615D01*
X11900Y27825D02*
X11945D01*
X11425D02*
X11555D01*
X10880D02*
X11315D01*
X10495D02*
X10675D01*
X10200D02*
X10365D01*
X10070D02*
X10085D01*
X9850D02*
X9955D01*
X9730D02*
X9740D01*
X9285D02*
X9615D01*
X11900Y27830D02*
X11945D01*
X11425D02*
X11555D01*
X10880D02*
X11315D01*
X10495D02*
X10675D01*
X10200D02*
X10365D01*
X10070D02*
X10090D01*
X9855D02*
X9955D01*
X9730D02*
X9745D01*
X9285D02*
X9610D01*
X11900Y27835D02*
X11945D01*
X11425D02*
X11555D01*
X10880D02*
X11315D01*
X10495D02*
X10675D01*
X10200D02*
X10365D01*
X10065D02*
X10090D01*
X9855D02*
X9955D01*
X9730D02*
X9745D01*
X9285D02*
X9610D01*
X11900Y27840D02*
X11945D01*
X11425D02*
X11555D01*
X10880D02*
X11315D01*
X10495D02*
X10675D01*
X10205D02*
X10365D01*
X10065D02*
X10090D01*
X9855D02*
X9950D01*
X9725D02*
X9745D01*
X9285D02*
X9610D01*
X11900Y27845D02*
X11945D01*
X11425D02*
X11555D01*
X10880D02*
X11315D01*
X10495D02*
X10675D01*
X10205D02*
X10365D01*
X10065D02*
X10090D01*
X9860D02*
X9950D01*
X9725D02*
X9745D01*
X9285D02*
X9605D01*
X11900Y27850D02*
X11945D01*
X11425D02*
X11555D01*
X10880D02*
X11315D01*
X10495D02*
X10675D01*
X10205D02*
X10365D01*
X10065D02*
X10090D01*
X9860D02*
X9950D01*
X9725D02*
X9750D01*
X9285D02*
X9605D01*
X11900Y27855D02*
X11945D01*
X11425D02*
X11555D01*
X10880D02*
X11315D01*
X10495D02*
X10675D01*
X10205D02*
X10365D01*
X10060D02*
X10095D01*
X9860D02*
X9950D01*
X9725D02*
X9750D01*
X9285D02*
X9605D01*
X11900Y27860D02*
X11945D01*
X11425D02*
X11555D01*
X10880D02*
X11315D01*
X10495D02*
X10675D01*
X10210D02*
X10365D01*
X10060D02*
X10095D01*
X9860D02*
X9945D01*
X9725D02*
X9750D01*
X9285D02*
X9605D01*
X11900Y27865D02*
X11945D01*
X11425D02*
X11555D01*
X10880D02*
X11315D01*
X10495D02*
X10675D01*
X10210D02*
X10365D01*
X10060D02*
X10095D01*
X9865D02*
X9945D01*
X9720D02*
X9755D01*
X9285D02*
X9600D01*
X11900Y27870D02*
X11945D01*
X11425D02*
X11555D01*
X10880D02*
X11315D01*
X10495D02*
X10675D01*
X10210D02*
X10365D01*
X10060D02*
X10095D01*
X9865D02*
X9945D01*
X9720D02*
X9755D01*
X9285D02*
X9600D01*
X11900Y27875D02*
X11945D01*
X11425D02*
X11555D01*
X10880D02*
X11315D01*
X10495D02*
X10675D01*
X10210D02*
X10365D01*
X10055D02*
X10100D01*
X9865D02*
X9940D01*
X9720D02*
X9755D01*
X9285D02*
X9600D01*
X11900Y27880D02*
X11945D01*
X11425D02*
X11555D01*
X10880D02*
X11315D01*
X10495D02*
X10675D01*
X10215D02*
X10365D01*
X10055D02*
X10100D01*
X9870D02*
X9940D01*
X9720D02*
X9760D01*
X9285D02*
X9600D01*
X11900Y27885D02*
X11945D01*
X11425D02*
X11555D01*
X10880D02*
X11315D01*
X10495D02*
X10675D01*
X10215D02*
X10365D01*
X10055D02*
X10100D01*
X9870D02*
X9940D01*
X9715D02*
X9760D01*
X9285D02*
X9595D01*
X11900Y27890D02*
X11945D01*
X11425D02*
X11555D01*
X10880D02*
X11315D01*
X10495D02*
X10675D01*
X10215D02*
X10365D01*
X10050D02*
X10100D01*
X9870D02*
X9940D01*
X9715D02*
X9760D01*
X9285D02*
X9595D01*
X11900Y27895D02*
X11945D01*
X11425D02*
X11555D01*
X10880D02*
X11315D01*
X10495D02*
X10675D01*
X10215D02*
X10365D01*
X10050D02*
X10105D01*
X9870D02*
X9935D01*
X9715D02*
X9760D01*
X9285D02*
X9595D01*
X11900Y27900D02*
X11945D01*
X11425D02*
X11555D01*
X10880D02*
X11315D01*
X10495D02*
X10675D01*
X10220D02*
X10365D01*
X10050D02*
X10105D01*
X9875D02*
X9935D01*
X9715D02*
X9765D01*
X9285D02*
X9595D01*
X11900Y27905D02*
X11945D01*
X11425D02*
X11555D01*
X10880D02*
X11315D01*
X10495D02*
X10675D01*
X10220D02*
X10365D01*
X10045D02*
X10105D01*
X9875D02*
X9935D01*
X9715D02*
X9765D01*
X9285D02*
X9590D01*
X11900Y27910D02*
X11945D01*
X11425D02*
X11555D01*
X10880D02*
X11315D01*
X10495D02*
X10675D01*
X10220D02*
X10365D01*
X10045D02*
X10105D01*
X9875D02*
X9930D01*
X9710D02*
X9765D01*
X9285D02*
X9590D01*
X11900Y27915D02*
X11945D01*
X11425D02*
X11555D01*
X10880D02*
X11315D01*
X10495D02*
X10675D01*
X10220D02*
X10365D01*
X10045D02*
X10105D01*
X9880D02*
X9930D01*
X9710D02*
X9770D01*
X9285D02*
X9590D01*
X11900Y27920D02*
X11945D01*
X11425D02*
X11555D01*
X10880D02*
X11315D01*
X10495D02*
X10675D01*
X10225D02*
X10365D01*
X10045D02*
X10110D01*
X9880D02*
X9930D01*
X9710D02*
X9770D01*
X9285D02*
X9585D01*
X11900Y27925D02*
X11945D01*
X11425D02*
X11555D01*
X10880D02*
X11315D01*
X10495D02*
X10675D01*
X10225D02*
X10365D01*
X10040D02*
X10110D01*
X9880D02*
X9930D01*
X9710D02*
X9770D01*
X9285D02*
X9585D01*
X11900Y27930D02*
X11945D01*
X11425D02*
X11555D01*
X10880D02*
X11315D01*
X10495D02*
X10675D01*
X10225D02*
X10365D01*
X10040D02*
X10110D01*
X9880D02*
X9925D01*
X9705D02*
X9770D01*
X9285D02*
X9585D01*
X11900Y27935D02*
X11945D01*
X11425D02*
X11555D01*
X10880D02*
X11315D01*
X10495D02*
X10675D01*
X10230D02*
X10365D01*
X10040D02*
X10110D01*
X9885D02*
X9925D01*
X9705D02*
X9775D01*
X9285D02*
X9585D01*
X11900Y27940D02*
X11945D01*
X11425D02*
X11555D01*
X10880D02*
X11315D01*
X10495D02*
X10675D01*
X10230D02*
X10365D01*
X10035D02*
X10115D01*
X9885D02*
X9925D01*
X9705D02*
X9775D01*
X9285D02*
X9580D01*
X11900Y27945D02*
X11945D01*
X11425D02*
X11555D01*
X10880D02*
X11315D01*
X10495D02*
X10675D01*
X10230D02*
X10365D01*
X10035D02*
X10115D01*
X9885D02*
X9920D01*
X9705D02*
X9775D01*
X9285D02*
X9580D01*
X11900Y27950D02*
X11945D01*
X11425D02*
X11555D01*
X10880D02*
X11015D01*
X10495D02*
X10675D01*
X10230D02*
X10365D01*
X10035D02*
X10115D01*
X9890D02*
X9920D01*
X9705D02*
X9780D01*
X9285D02*
X9580D01*
X11900Y27955D02*
X11945D01*
X11425D02*
X11555D01*
X10880D02*
X11015D01*
X10495D02*
X10675D01*
X10235D02*
X10365D01*
X10035D02*
X10115D01*
X9890D02*
X9920D01*
X9700D02*
X9780D01*
X9285D02*
X9580D01*
X11900Y27960D02*
X11945D01*
X11425D02*
X11555D01*
X10880D02*
X11015D01*
X10495D02*
X10675D01*
X10235D02*
X10365D01*
X10030D02*
X10120D01*
X9890D02*
X9920D01*
X9700D02*
X9780D01*
X9285D02*
X9575D01*
X11900Y27965D02*
X11945D01*
X11425D02*
X11555D01*
X10880D02*
X11015D01*
X10495D02*
X10675D01*
X10235D02*
X10365D01*
X10030D02*
X10120D01*
X9890D02*
X9915D01*
X9700D02*
X9785D01*
X9285D02*
X9575D01*
X11900Y27970D02*
X11945D01*
X11425D02*
X11555D01*
X10880D02*
X11015D01*
X10495D02*
X10675D01*
X10235D02*
X10365D01*
X10030D02*
X10120D01*
X9895D02*
X9915D01*
X9700D02*
X9785D01*
X9285D02*
X9575D01*
X11900Y27975D02*
X11945D01*
X11425D02*
X11555D01*
X10880D02*
X11015D01*
X10495D02*
X10675D01*
X10240D02*
X10370D01*
X10025D02*
X10120D01*
X9895D02*
X9915D01*
X9695D02*
X9785D01*
X9285D02*
X9570D01*
X11900Y27980D02*
X11945D01*
X11425D02*
X11555D01*
X10880D02*
X11015D01*
X10495D02*
X10675D01*
X10240D02*
X10365D01*
X10025D02*
X10120D01*
X9895D02*
X9910D01*
X9695D02*
X9785D01*
X9285D02*
X9570D01*
X11900Y27985D02*
X11945D01*
X11425D02*
X11555D01*
X10880D02*
X11015D01*
X10495D02*
X10675D01*
X10240D02*
X10365D01*
X10025D02*
X10125D01*
X9900D02*
X9910D01*
X9695D02*
X9790D01*
X9285D02*
X9570D01*
X11900Y27990D02*
X11945D01*
X11425D02*
X11555D01*
X10880D02*
X11015D01*
X10495D02*
X10675D01*
X10240D02*
X10365D01*
X10025D02*
X10125D01*
X9900D02*
X9910D01*
X9695D02*
X9790D01*
X9285D02*
X9570D01*
X11900Y27995D02*
X11945D01*
X11425D02*
X11555D01*
X10880D02*
X11015D01*
X10495D02*
X10675D01*
X10245D02*
X10365D01*
X10020D02*
X10125D01*
X9900D02*
X9910D01*
X9695D02*
X9790D01*
X9285D02*
X9565D01*
X11900Y28000D02*
X11945D01*
X11425D02*
X11555D01*
X10880D02*
X11015D01*
X10495D02*
X10675D01*
X10245D02*
X10365D01*
X10020D02*
X10125D01*
X9900D02*
X9905D01*
X9690D02*
X9795D01*
X9285D02*
X9565D01*
X11900Y28005D02*
X11945D01*
X10880D02*
X11015D01*
X10245D02*
X10675D01*
X10020D02*
X10130D01*
X9690D02*
X9795D01*
X9285D02*
X9565D01*
X11900Y28010D02*
X11945D01*
X10880D02*
X11015D01*
X10250D02*
X10675D01*
X10020D02*
X10130D01*
X9690D02*
X9795D01*
X9285D02*
X9565D01*
X11900Y28015D02*
X11945D01*
X10880D02*
X11015D01*
X10250D02*
X10675D01*
X10015D02*
X10130D01*
X9690D02*
X9800D01*
X9285D02*
X9560D01*
X11900Y28020D02*
X11945D01*
X10880D02*
X11015D01*
X10250D02*
X10675D01*
X10015D02*
X10130D01*
X9685D02*
X9800D01*
X9285D02*
X9560D01*
X11900Y28025D02*
X11945D01*
X10880D02*
X11015D01*
X10250D02*
X10675D01*
X10015D02*
X10135D01*
X9685D02*
X9800D01*
X9285D02*
X9560D01*
X11900Y28030D02*
X11945D01*
X10880D02*
X11015D01*
X10255D02*
X10675D01*
X10010D02*
X10135D01*
X9685D02*
X9800D01*
X9285D02*
X9560D01*
X11900Y28035D02*
X11945D01*
X10880D02*
X11015D01*
X10255D02*
X10675D01*
X10010D02*
X10135D01*
X9685D02*
X9805D01*
X9285D02*
X9555D01*
X11900Y28040D02*
X11945D01*
X10880D02*
X11015D01*
X10255D02*
X10675D01*
X10010D02*
X10135D01*
X9680D02*
X9805D01*
X9285D02*
X9555D01*
X11900Y28045D02*
X11945D01*
X10880D02*
X11015D01*
X10255D02*
X10675D01*
X10010D02*
X10140D01*
X9680D02*
X9805D01*
X9285D02*
X9555D01*
X11900Y28050D02*
X11945D01*
X10880D02*
X11015D01*
X10260D02*
X10675D01*
X10005D02*
X10140D01*
X9680D02*
X9810D01*
X9285D02*
X9550D01*
X11900Y28055D02*
X11945D01*
X10880D02*
X11015D01*
X10260D02*
X10675D01*
X10005D02*
X10140D01*
X9680D02*
X9810D01*
X9285D02*
X9550D01*
X11900Y28060D02*
X11945D01*
X11485D02*
X11490D01*
X10880D02*
X11015D01*
X10430D02*
X10675D01*
X10260D02*
X10425D01*
X10005D02*
X10140D01*
X9680D02*
X9810D01*
X9285D02*
X9550D01*
X11900Y28065D02*
X11945D01*
X11465D02*
X11520D01*
X10880D02*
X11015D01*
X10460D02*
X10675D01*
X10260D02*
X10405D01*
X10000D02*
X10140D01*
X9675D02*
X9810D01*
X9285D02*
X9550D01*
X11900Y28070D02*
X11945D01*
X11450D02*
X11530D01*
X10880D02*
X11015D01*
X10470D02*
X10675D01*
X10265D02*
X10395D01*
X10000D02*
X10145D01*
X9675D02*
X9815D01*
X9285D02*
X9545D01*
X11900Y28075D02*
X11940D01*
X11445D02*
X11535D01*
X10880D02*
X11335D01*
X10480D02*
X10675D01*
X10265D02*
X10385D01*
X10000D02*
X10145D01*
X9675D02*
X9815D01*
X9290D02*
X9545D01*
X11900Y28080D02*
X11940D01*
X11440D02*
X11545D01*
X10880D02*
X11340D01*
X10485D02*
X10675D01*
X10265D02*
X10380D01*
X10000D02*
X10145D01*
X9675D02*
X9815D01*
X9290D02*
X9545D01*
X11900Y28085D02*
X11940D01*
X11435D02*
X11550D01*
X10880D02*
X11335D01*
X10490D02*
X10680D01*
X10265D02*
X10375D01*
X9995D02*
X10145D01*
X9670D02*
X9820D01*
X9290D02*
X9545D01*
X11900Y28090D02*
X11940D01*
X11430D02*
X11550D01*
X10880D02*
X11335D01*
X10490D02*
X10680D01*
X10270D02*
X10370D01*
X9995D02*
X10145D01*
X9670D02*
X9820D01*
X9290D02*
X9540D01*
X11895Y28095D02*
X11940D01*
X11425D02*
X11555D01*
X10880D02*
X11335D01*
X10495D02*
X10680D01*
X10270D02*
X10365D01*
X9995D02*
X10150D01*
X9670D02*
X9820D01*
X9290D02*
X9540D01*
X11895Y28100D02*
X11940D01*
X11425D02*
X11560D01*
X10880D02*
X11335D01*
X10500D02*
X10680D01*
X10270D02*
X10365D01*
X9990D02*
X10150D01*
X9670D02*
X9825D01*
X9290D02*
X9540D01*
X11895Y28105D02*
X11940D01*
X11420D02*
X11560D01*
X10880D02*
X11335D01*
X10500D02*
X10680D01*
X10275D02*
X10360D01*
X9990D02*
X10150D01*
X9670D02*
X9825D01*
X9290D02*
X9540D01*
X11895Y28110D02*
X11935D01*
X11420D02*
X11560D01*
X10880D02*
X11335D01*
X10505D02*
X10680D01*
X10275D02*
X10360D01*
X9990D02*
X10150D01*
X9665D02*
X9825D01*
X9295D02*
X9535D01*
X11895Y28115D02*
X11935D01*
X11420D02*
X11565D01*
X10880D02*
X11335D01*
X10505D02*
X10680D01*
X10275D02*
X10360D01*
X9990D02*
X10155D01*
X9665D02*
X9825D01*
X9295D02*
X9535D01*
X11890Y28120D02*
X11935D01*
X11415D02*
X11565D01*
X10880D02*
X11335D01*
X10505D02*
X10685D01*
X10275D02*
X10360D01*
X9985D02*
X10155D01*
X9665D02*
X9830D01*
X9295D02*
X9535D01*
X11890Y28125D02*
X11935D01*
X11415D02*
X11565D01*
X10880D02*
X11335D01*
X10505D02*
X10685D01*
X10280D02*
X10355D01*
X9985D02*
X10155D01*
X9665D02*
X9830D01*
X9295D02*
X9530D01*
X11890Y28130D02*
X11935D01*
X11415D02*
X11565D01*
X10880D02*
X11335D01*
X10505D02*
X10685D01*
X10280D02*
X10355D01*
X9985D02*
X10155D01*
X9660D02*
X9830D01*
X9295D02*
X9530D01*
X11890Y28135D02*
X11930D01*
X11415D02*
X11565D01*
X10880D02*
X11335D01*
X10510D02*
X10685D01*
X10280D02*
X10355D01*
X9980D02*
X10160D01*
X9660D02*
X9835D01*
X9300D02*
X9530D01*
X11885Y28140D02*
X11930D01*
X11415D02*
X11565D01*
X10880D02*
X11335D01*
X10505D02*
X10690D01*
X10280D02*
X10355D01*
X9980D02*
X10160D01*
X9660D02*
X9835D01*
X9300D02*
X9530D01*
X11885Y28145D02*
X11930D01*
X11415D02*
X11565D01*
X10880D02*
X11335D01*
X10505D02*
X10690D01*
X10285D02*
X10355D01*
X9980D02*
X10160D01*
X9660D02*
X9835D01*
X9300D02*
X9525D01*
X11885Y28150D02*
X11925D01*
X11415D02*
X11565D01*
X10880D02*
X11335D01*
X10505D02*
X10690D01*
X10285D02*
X10355D01*
X9980D02*
X10160D01*
X9660D02*
X9835D01*
X9300D02*
X9525D01*
X11885Y28155D02*
X11925D01*
X11420D02*
X11565D01*
X10880D02*
X11335D01*
X10505D02*
X10690D01*
X10285D02*
X10360D01*
X9975D02*
X10165D01*
X9655D02*
X9840D01*
X9305D02*
X9525D01*
X11880Y28160D02*
X11925D01*
X11420D02*
X11565D01*
X10880D02*
X11335D01*
X10505D02*
X10695D01*
X10285D02*
X10360D01*
X9975D02*
X10165D01*
X9655D02*
X9840D01*
X9305D02*
X9525D01*
X11880Y28165D02*
X11925D01*
X11420D02*
X11560D01*
X10880D02*
X11335D01*
X10500D02*
X10695D01*
X10290D02*
X10360D01*
X9975D02*
X10165D01*
X9655D02*
X9840D01*
X9305D02*
X9520D01*
X11875Y28170D02*
X11920D01*
X11425D02*
X11560D01*
X10880D02*
X11335D01*
X10500D02*
X10695D01*
X10290D02*
X10365D01*
X9970D02*
X10165D01*
X9655D02*
X9845D01*
X9310D02*
X9520D01*
X11875Y28175D02*
X11920D01*
X11425D02*
X11555D01*
X10880D02*
X11335D01*
X10495D02*
X10700D01*
X10290D02*
X10365D01*
X9970D02*
X10165D01*
X9650D02*
X9845D01*
X9310D02*
X9520D01*
X11875Y28180D02*
X11915D01*
X11430D02*
X11550D01*
X10880D02*
X11335D01*
X10495D02*
X10700D01*
X10290D02*
X10370D01*
X9970D02*
X10170D01*
X9650D02*
X9845D01*
X9310D02*
X9520D01*
X11870Y28185D02*
X11915D01*
X11435D02*
X11550D01*
X10880D02*
X11340D01*
X10490D02*
X10705D01*
X10295D02*
X10375D01*
X9970D02*
X10170D01*
X9650D02*
X9850D01*
X9315D02*
X9515D01*
X11870Y28190D02*
X11915D01*
X11440D02*
X11545D01*
X10880D02*
X11335D01*
X10485D02*
X10705D01*
X10295D02*
X10380D01*
X9965D02*
X10170D01*
X9650D02*
X9850D01*
X9315D02*
X9515D01*
X11865Y28195D02*
X11910D01*
X11445D02*
X11540D01*
X10480D02*
X10705D01*
X10295D02*
X10385D01*
X10285D02*
X10290D01*
X9965D02*
X10175D01*
X9950D02*
X9960D01*
X9940D02*
X9945D01*
X9635D02*
X9850D01*
X9620D02*
X9630D01*
X9525D02*
X9530D01*
X9320D02*
X9520D01*
X11865Y28200D02*
X11910D01*
X11450D02*
X11530D01*
X10470D02*
X10710D01*
X9320D02*
X10390D01*
X11865Y28205D02*
X11905D01*
X11460D02*
X11520D01*
X10460D02*
X10710D01*
X9320D02*
X10400D01*
X11860Y28210D02*
X11905D01*
X11480D02*
X11500D01*
X10445D02*
X10715D01*
X9325D02*
X10420D01*
X11860Y28215D02*
X11905D01*
X9325D02*
X10715D01*
X11855Y28220D02*
X11900D01*
X9330D02*
X10720D01*
X11850Y28225D02*
X11900D01*
X9330D02*
X10720D01*
X11850Y28230D02*
X11895D01*
X9335D02*
X10725D01*
X11845Y28235D02*
X11895D01*
X9335D02*
X10725D01*
X11845Y28240D02*
X11890D01*
X9340D02*
X10730D01*
X11840Y28245D02*
X11885D01*
X9340D02*
X10730D01*
X11835Y28250D02*
X11885D01*
X9345D02*
X10735D01*
X11835Y28255D02*
X11880D01*
X9350D02*
X10740D01*
X11830Y28260D02*
X11880D01*
X9350D02*
X10740D01*
X11825Y28265D02*
X11875D01*
X9355D02*
X10745D01*
X11825Y28270D02*
X11870D01*
X9355D02*
X10750D01*
X11820Y28275D02*
X11870D01*
X9360D02*
X10750D01*
X11815Y28280D02*
X11865D01*
X9365D02*
X10755D01*
X11930Y28285D02*
X11980D01*
X11810D02*
X11860D01*
X9370D02*
X10760D01*
X11915Y28290D02*
X11995D01*
X11805D02*
X11860D01*
X9370D02*
X10765D01*
X11910Y28295D02*
X12000D01*
X11805D02*
X11855D01*
X9375D02*
X10770D01*
X11975Y28300D02*
X12005D01*
X11900D02*
X11935D01*
X11800D02*
X11850D01*
X9380D02*
X10775D01*
X11985Y28305D02*
X12010D01*
X11895D02*
X11925D01*
X11795D02*
X11845D01*
X9385D02*
X10775D01*
X11990Y28310D02*
X12015D01*
X11890D02*
X11915D01*
X11790D02*
X11840D01*
X9385D02*
X10780D01*
X12000Y28315D02*
X12020D01*
X11890D02*
X11910D01*
X11785D02*
X11840D01*
X9390D02*
X10785D01*
X12005Y28320D02*
X12025D01*
X11970D02*
X11990D01*
X11920D02*
X11935D01*
X11885D02*
X11905D01*
X11780D02*
X11835D01*
X9395D02*
X10790D01*
X12005Y28325D02*
X12025D01*
X11965D02*
X11990D01*
X11920D02*
X11935D01*
X11885D02*
X11900D01*
X11775D02*
X11830D01*
X9400D02*
X10795D01*
X12010Y28330D02*
X12030D01*
X11965D02*
X11985D01*
X11920D02*
X11935D01*
X11880D02*
X11900D01*
X11770D02*
X11825D01*
X9405D02*
X10800D01*
X12010Y28335D02*
X12030D01*
X11960D02*
X11980D01*
X11920D02*
X11935D01*
X11880D02*
X11895D01*
X11765D02*
X11820D01*
X9410D02*
X10805D01*
X12015Y28340D02*
X12030D01*
X11955D02*
X11980D01*
X11920D02*
X11935D01*
X11875D02*
X11895D01*
X11755D02*
X11815D01*
X9415D02*
X10815D01*
X12015Y28345D02*
X12030D01*
X11955D02*
X11975D01*
X11920D02*
X11935D01*
X11875D02*
X11895D01*
X11750D02*
X11810D01*
X9420D02*
X10820D01*
X12015Y28350D02*
X12035D01*
X11945D02*
X11970D01*
X11920D02*
X11935D01*
X11875D02*
X11895D01*
X11745D02*
X11805D01*
X9425D02*
X10825D01*
X12015Y28355D02*
X12035D01*
X11920D02*
X11970D01*
X11875D02*
X11890D01*
X11735D02*
X11800D01*
X9430D02*
X10830D01*
X12015Y28360D02*
X12035D01*
X11920D02*
X11980D01*
X11875D02*
X11895D01*
X11730D02*
X11795D01*
X9435D02*
X10840D01*
X12015Y28365D02*
X12035D01*
X11920D02*
X11985D01*
X11875D02*
X11895D01*
X11720D02*
X11790D01*
X9440D02*
X10845D01*
X12015Y28370D02*
X12030D01*
X11965D02*
X11985D01*
X11920D02*
X11935D01*
X11875D02*
X11895D01*
X11715D02*
X11785D01*
X9445D02*
X10855D01*
X12015Y28375D02*
X12030D01*
X11965D02*
X11985D01*
X11920D02*
X11935D01*
X11875D02*
X11895D01*
X11705D02*
X11775D01*
X9455D02*
X10860D01*
X12015Y28380D02*
X12030D01*
X11965D02*
X11985D01*
X11920D02*
X11935D01*
X11880D02*
X11895D01*
X11700D02*
X11770D01*
X9460D02*
X10870D01*
X12010Y28385D02*
X12030D01*
X11960D02*
X11985D01*
X11920D02*
X11935D01*
X11880D02*
X11900D01*
X11690D02*
X11765D01*
X9465D02*
X10880D01*
X12010Y28390D02*
X12025D01*
X11920D02*
X11985D01*
X11880D02*
X11900D01*
X11680D02*
X11755D01*
X9475D02*
X10890D01*
X12005Y28395D02*
X12025D01*
X11920D02*
X11980D01*
X11885D02*
X11905D01*
X11670D02*
X11750D01*
X9480D02*
X10900D01*
X12000Y28400D02*
X12020D01*
X11920D02*
X11965D01*
X11885D02*
X11905D01*
X11655D02*
X11740D01*
X9485D02*
X10910D01*
X11995Y28405D02*
X12020D01*
X11890D02*
X11910D01*
X11645D02*
X11735D01*
X9495D02*
X10925D01*
X11990Y28410D02*
X12015D01*
X11895D02*
X11920D01*
X11630D02*
X11725D01*
X9505D02*
X10935D01*
X11985Y28415D02*
X12010D01*
X11895D02*
X11925D01*
X11610D02*
X11720D01*
X9510D02*
X10955D01*
X11970Y28420D02*
X12005D01*
X11905D02*
X11940D01*
X11590D02*
X11710D01*
X9520D02*
X10970D01*
X11910Y28425D02*
X12000D01*
X11565D02*
X11700D01*
X9530D02*
X11000D01*
X11915Y28430D02*
X11990D01*
X9540D02*
X11690D01*
X11930Y28435D02*
X11980D01*
X9550D02*
X11680D01*
X9565Y28440D02*
X11665D01*
X9575Y28445D02*
X11655D01*
X9590Y28450D02*
X11640D01*
X9605Y28455D02*
X11625D01*
X9625Y28460D02*
X11605D01*
X9645Y28465D02*
X11585D01*
X9675Y28470D02*
X11555D01*
D61*
X7357Y17713D02*
X7613D01*
X8134D02*
X8203D01*
X8134Y16807D02*
X8203D01*
X7357D02*
X7426D01*
D62*
X23970Y15960D02*
X24137D01*
X24053D01*
Y16460D01*
X23970Y16377D01*
X24103Y16960D02*
X23770D01*
X24103Y17293D01*
Y17377D01*
X24020Y17460D01*
X23853D01*
X23770Y17377D01*
X26620Y16960D02*
Y17460D01*
X26370Y17210D01*
X26703D01*
X26370Y16377D02*
X26453Y16460D01*
X26620D01*
X26703Y16377D01*
Y16293D01*
X26620Y16210D01*
X26537D01*
X26620D01*
X26703Y16127D01*
Y16043D01*
X26620Y15960D01*
X26453D01*
X26370Y16043D01*
M02*
