M48
;Layer_Color=9474304
;FILE_FORMAT=2:4
INCH
;TYPE=PLATED
T1F00S00C0.0130
T2F00S00C0.0300
T3F00S00C0.0354
T4F00S00C0.0400
T5F00S00C0.0472
T6F00S00C0.1000
%
T01
X008760Y009366
X008837Y014150
X016110Y014760
X017560Y014870
X017270Y013930
X017800Y013730
X017770Y012480
X018160Y012160
X018270Y012910
X017060Y012930
X017820Y011580
X019584Y011296
X020270Y012750
X020630Y012600
X020940Y012440
X021160Y012170
X020990Y012980
X021690Y012850
X022140Y013790
Y014190
X022645Y014590
X022120Y015230
X020890Y015271
X020390
X019890
X019390
X018890
Y014771
X019390
X019890
X020390
X020890
Y014271
X020390
X019890
X019390
X018890
X023364Y015470
X022430Y011350
X021100Y008390
X020390Y008740
X020390Y015771
Y016271
X019890
X019390
X018890
Y015771
X019390
X019890
X020890
Y016271
X022090Y016460
X022360Y016220
X022570Y015920
X022130Y015760
X022470Y016630
X022390Y017030
X021760Y017270
X021470Y017680
X021110
X021270Y018070
X020475Y017756
X019800Y017620
X019280Y017550
Y018140
X019140Y018570
Y019070
X019390Y019320
Y019820
Y020320
Y020820
Y021320
Y021820
Y022320
Y022820
Y023320
Y023820
Y024320
Y024820
Y025320
Y025820
Y026320
Y026820
X019890
Y026320
Y025820
Y025320
Y024820
Y024320
Y023820
Y023320
Y022820
Y022320
Y021820
Y021320
Y020820
Y020320
X020390
Y020820
Y021320
Y021820
Y022320
Y022820
Y023320
Y023820
Y024320
Y024820
Y025320
Y025820
Y026320
Y026820
X020890
X021390
X021890
X022390
X022890
X023390
X023890
X024390
Y026320
X023890
X023390
X022890
X022390
X021890
X021390
X020890
Y025820
X021390
X021890
X022390
X022890
X023390
X023890
X024390
Y025320
X023890
X023390
X022890
X022390
X021890
X021390
X020890
Y024820
X021390
X021890
X022390
X022890
X023390
X023890
X024390
Y024320
X022890
X022390
X021890
X021390
X020890
Y023820
X021390
X021890
X022390
X022890
X021390Y023320
X020890
Y022820
X021390
X021890
Y022320
X021390
X020890
Y021820
X021390
X021890
Y021320
X021390
X020890
Y020820
X021390
Y020320
X020890
X021120Y019850
X019140Y020070
Y020570
Y021070
Y021570
Y022070
Y022570
Y023070
Y023570
Y024070
Y024570
Y025070
Y025570
Y026070
X016390Y026320
Y026820
Y025820
Y025320
Y024820
Y024320
X016890
X017390
X017890
Y023820
Y023320
Y022820
Y022320
Y021820
Y021320
Y020820
Y020320
Y019820
Y019320
Y018820
Y018320
X018140Y018570
Y019070
Y019570
Y020070
X017390Y019820
Y019320
Y018820
X016550Y018870
X016890Y019320
Y019820
Y020320
X017390
X017398Y020757
X017390Y021320
Y021820
Y022320
Y022820
Y023320
Y023820
X016890
Y023320
Y022820
Y022320
Y021820
Y021320
Y020820
X016390
X015890
Y021320
Y021820
Y022320
Y022820
Y023320
Y023820
Y024320
Y024820
Y025320
Y025820
Y026320
X016390Y023820
Y023320
Y022820
Y022320
Y021820
Y021320
Y020320
X015890
X016390Y019820
X019140Y019570
X018020Y017060
X017495Y017139
X017360Y016540
X017330Y016170
X017460Y015680
X016893Y016747
X015783Y016310
X015820Y015660
X022870Y016280
X023742Y016308
X023630Y018200
X023030Y018100
X022510Y018860
X024730Y018381
X024280Y021310
X018140Y023070
Y023570
Y024070
X015390Y023820
Y023320
Y022820
Y022320
Y021820
Y021320
Y020820
X015484Y018494
X014520Y017450
X014080Y016640
X014706Y016086
X007777Y017106
Y017421
X015390Y024320
Y024820
Y025320
Y025820
T02
X007410Y020380
Y021170
Y021950
Y022730
Y023530
Y024310
Y025100
Y025880
X013550
Y025100
Y024300
Y023520
Y022730
X013560Y021940
Y021160
Y020370
X012450Y019560
X011650
X010870
X010070
X009290
X008510
T03
X024770Y016160
X025770
Y017160
X024770
X025170Y020330
X026170
X024170
X023170
X022170
X012630Y016140
X011630
T04
X014090Y013410
T05
X024980Y009800
Y011178
Y012556
T06
X008400Y007730
X024600Y007910
X025440Y025120
X006650Y028110
M30
