G04 Layer_Color=8388736*
%FSLAX24Y24*%
%MOIN*%
G70*
G01*
G75*
%ADD89R,0.0513X0.0513*%
%ADD90R,0.0513X0.0513*%
%ADD91R,0.0828X0.0513*%
%ADD92R,0.0592X0.0415*%
%ADD93R,0.0257X0.0474*%
%ADD94R,0.0218X0.0218*%
%ADD95R,0.0415X0.0592*%
%ADD96R,0.0474X0.0434*%
%ADD97R,0.0552X0.0395*%
%ADD98R,0.0395X0.0552*%
%ADD99R,0.2580X0.1379*%
%ADD100R,0.2580X0.1580*%
%ADD101R,0.1678X0.1379*%
G04:AMPARAMS|DCode=102|XSize=43.4mil|YSize=71mil|CornerRadius=5.9mil|HoleSize=0mil|Usage=FLASHONLY|Rotation=0.000|XOffset=0mil|YOffset=0mil|HoleType=Round|Shape=RoundedRectangle|*
%AMROUNDEDRECTD102*
21,1,0.0434,0.0591,0,0,0.0*
21,1,0.0315,0.0710,0,0,0.0*
1,1,0.0119,0.0158,-0.0295*
1,1,0.0119,-0.0158,-0.0295*
1,1,0.0119,-0.0158,0.0295*
1,1,0.0119,0.0158,0.0295*
%
%ADD102ROUNDEDRECTD102*%
G04:AMPARAMS|DCode=103|XSize=17.8mil|YSize=27.7mil|CornerRadius=6mil|HoleSize=0mil|Usage=FLASHONLY|Rotation=90.000|XOffset=0mil|YOffset=0mil|HoleType=Round|Shape=RoundedRectangle|*
%AMROUNDEDRECTD103*
21,1,0.0178,0.0157,0,0,90.0*
21,1,0.0059,0.0277,0,0,90.0*
1,1,0.0119,0.0079,0.0030*
1,1,0.0119,0.0079,-0.0030*
1,1,0.0119,-0.0079,-0.0030*
1,1,0.0119,-0.0079,0.0030*
%
%ADD103ROUNDEDRECTD103*%
%ADD104R,0.0434X0.0356*%
%ADD105R,0.1222X0.0371*%
%ADD106R,0.0434X0.0395*%
%ADD107R,0.0434X0.0474*%
%ADD108R,0.0552X0.0769*%
%ADD109O,0.0828X0.0316*%
%ADD110R,0.0480X0.0170*%
%ADD111R,0.0170X0.0480*%
%ADD112R,0.2954X0.2954*%
%ADD113R,0.0592X0.0493*%
%ADD114R,0.0261X0.0430*%
%ADD115R,0.0430X0.0261*%
%ADD116R,0.0277X0.0966*%
%ADD117R,0.0671X0.0671*%
%ADD118C,0.0671*%
%ADD119R,0.1080X0.0530*%
%ADD120R,0.0630X0.1080*%
%ADD121C,0.0867*%
%ADD122C,0.0730*%
D89*
X20020Y11296D02*
D03*
Y12004D02*
D03*
X14100Y11484D02*
D03*
Y10776D02*
D03*
X17840Y11584D02*
D03*
Y10876D02*
D03*
X20120Y18546D02*
D03*
Y19254D02*
D03*
X23080Y19224D02*
D03*
Y18516D02*
D03*
X15070Y11574D02*
D03*
Y10866D02*
D03*
D90*
X19464Y10680D02*
D03*
X18756D02*
D03*
X17890Y22225D02*
D03*
X18599D02*
D03*
X15394Y14520D02*
D03*
X14686D02*
D03*
X7536Y15770D02*
D03*
X8244D02*
D03*
X14706Y15590D02*
D03*
X15414D02*
D03*
X22656Y15470D02*
D03*
X23364D02*
D03*
X15414Y16650D02*
D03*
X14706D02*
D03*
X22504Y8050D02*
D03*
X21796D02*
D03*
D91*
X18910Y12432D02*
D03*
Y11448D02*
D03*
D92*
X24200Y19165D02*
D03*
Y18495D02*
D03*
X25140Y18525D02*
D03*
Y19195D02*
D03*
X26060Y19095D02*
D03*
Y18425D02*
D03*
X20070Y9595D02*
D03*
Y10265D02*
D03*
X23170Y11835D02*
D03*
Y11165D02*
D03*
D93*
X18856Y19860D02*
D03*
X18344D02*
D03*
D94*
X18600Y19732D02*
D03*
Y19988D02*
D03*
D95*
X7765Y18350D02*
D03*
X8435D02*
D03*
X23315Y14590D02*
D03*
X22645D02*
D03*
X22455Y18100D02*
D03*
X21785D02*
D03*
X16805Y18130D02*
D03*
X16135D02*
D03*
X22645Y13820D02*
D03*
X23315D02*
D03*
X22445Y11860D02*
D03*
X21775D02*
D03*
D96*
X18600Y17735D02*
D03*
Y18365D02*
D03*
X15900Y9355D02*
D03*
Y9985D02*
D03*
X15920Y8085D02*
D03*
Y8715D02*
D03*
D97*
X9600Y17935D02*
D03*
Y17345D02*
D03*
D98*
X16165Y14250D02*
D03*
X16755D02*
D03*
X15465Y18870D02*
D03*
X16055D02*
D03*
X17235Y13370D02*
D03*
X16645D02*
D03*
D99*
X8681Y9074D02*
D03*
D100*
Y14306D02*
D03*
D101*
X12279Y11475D02*
D03*
D102*
X7780Y17260D02*
D03*
D103*
X8154Y17555D02*
D03*
Y17358D02*
D03*
Y17162D02*
D03*
Y16965D02*
D03*
X7406D02*
D03*
Y17162D02*
D03*
Y17358D02*
D03*
Y17555D02*
D03*
D104*
X9620Y16406D02*
D03*
Y15854D02*
D03*
D105*
X23880Y21800D02*
D03*
Y22300D02*
D03*
Y22800D02*
D03*
Y23300D02*
D03*
Y23800D02*
D03*
X25680D02*
D03*
Y23300D02*
D03*
Y22800D02*
D03*
Y22300D02*
D03*
Y21800D02*
D03*
D106*
X18608Y20796D02*
D03*
Y21348D02*
D03*
D107*
X14955Y8340D02*
D03*
X14325D02*
D03*
X14345Y9070D02*
D03*
X14975D02*
D03*
X14955Y9810D02*
D03*
X14325D02*
D03*
X12025Y17580D02*
D03*
X12655D02*
D03*
D108*
X17903Y26620D02*
D03*
X16781D02*
D03*
D109*
X16935Y9910D02*
D03*
Y9410D02*
D03*
Y8910D02*
D03*
Y8410D02*
D03*
X18785Y9910D02*
D03*
Y9410D02*
D03*
Y8910D02*
D03*
Y8410D02*
D03*
D110*
X21693Y13794D02*
D03*
Y13991D02*
D03*
Y14188D02*
D03*
Y14385D02*
D03*
Y14582D02*
D03*
Y14779D02*
D03*
Y14976D02*
D03*
Y15172D02*
D03*
Y15369D02*
D03*
Y15566D02*
D03*
Y15763D02*
D03*
Y15960D02*
D03*
Y16157D02*
D03*
Y16353D02*
D03*
Y16550D02*
D03*
Y16747D02*
D03*
X18088D02*
D03*
Y16550D02*
D03*
Y16353D02*
D03*
Y16157D02*
D03*
Y15960D02*
D03*
Y15763D02*
D03*
Y15566D02*
D03*
Y15369D02*
D03*
Y15172D02*
D03*
Y14976D02*
D03*
Y14779D02*
D03*
Y14582D02*
D03*
Y14385D02*
D03*
Y14188D02*
D03*
Y13991D02*
D03*
Y13794D02*
D03*
D111*
X21367Y17074D02*
D03*
X21170D02*
D03*
X20973D02*
D03*
X20776D02*
D03*
X20579D02*
D03*
X20383D02*
D03*
X20186D02*
D03*
X19989D02*
D03*
X19792D02*
D03*
X19595D02*
D03*
X19398D02*
D03*
X19201D02*
D03*
X19005D02*
D03*
X18808D02*
D03*
X18611D02*
D03*
X18414D02*
D03*
Y13468D02*
D03*
X18611D02*
D03*
X18808D02*
D03*
X19005D02*
D03*
X19201D02*
D03*
X19398D02*
D03*
X19595D02*
D03*
X19792D02*
D03*
X19989D02*
D03*
X20186D02*
D03*
X20383D02*
D03*
X20579D02*
D03*
X20776D02*
D03*
X20973D02*
D03*
X21170D02*
D03*
X21367D02*
D03*
D112*
X19890Y15271D02*
D03*
D113*
X21993Y19414D02*
D03*
Y18686D02*
D03*
X21087D02*
D03*
Y19414D02*
D03*
D114*
X16307Y11563D02*
D03*
X16606D02*
D03*
X16906D02*
D03*
X16008D02*
D03*
X16906Y10973D02*
D03*
X16008D02*
D03*
X16307D02*
D03*
X16606D02*
D03*
D115*
X22867Y16607D02*
D03*
Y16906D02*
D03*
Y17206D02*
D03*
Y16308D02*
D03*
X23457Y17206D02*
D03*
Y16308D02*
D03*
Y16607D02*
D03*
Y16906D02*
D03*
X16893Y16053D02*
D03*
Y15754D02*
D03*
Y15454D02*
D03*
Y16352D02*
D03*
X16303Y15454D02*
D03*
Y16352D02*
D03*
Y16053D02*
D03*
Y15754D02*
D03*
D116*
X20770Y10717D02*
D03*
X21270D02*
D03*
X21770D02*
D03*
X22270D02*
D03*
Y9043D02*
D03*
X21770D02*
D03*
X21270D02*
D03*
X20770D02*
D03*
D117*
X11630Y16140D02*
D03*
X24770Y16160D02*
D03*
X22170Y20330D02*
D03*
D118*
X12630Y16140D02*
D03*
X25770Y17160D02*
D03*
Y16160D02*
D03*
X24770Y17160D02*
D03*
X26170Y20330D02*
D03*
X25170D02*
D03*
X24170D02*
D03*
X23170D02*
D03*
D119*
X7410Y21170D02*
D03*
X13560Y20370D02*
D03*
X7410Y25880D02*
D03*
Y25100D02*
D03*
Y24310D02*
D03*
Y23530D02*
D03*
Y22730D02*
D03*
Y21950D02*
D03*
Y20380D02*
D03*
X13560Y21160D02*
D03*
Y21940D02*
D03*
X13550Y22730D02*
D03*
Y23520D02*
D03*
Y24300D02*
D03*
Y25100D02*
D03*
Y25880D02*
D03*
D120*
X8510Y19560D02*
D03*
X9290D02*
D03*
X10070D02*
D03*
X10870D02*
D03*
X11650D02*
D03*
X12450D02*
D03*
D121*
X24980Y12556D02*
D03*
Y11178D02*
D03*
Y9800D02*
D03*
D122*
X14090Y13410D02*
D03*
M02*
