G04 Layer_Physical_Order=2*
G04 Layer_Color=16711680*
%FSLAX24Y24*%
%MOIN*%
G70*
G01*
G75*
%ADD38C,0.0100*%
%ADD39C,0.0060*%
%ADD45R,0.0591X0.0591*%
%ADD46C,0.0591*%
%ADD47R,0.1000X0.0450*%
%ADD48R,0.0550X0.1000*%
%ADD49C,0.0787*%
%ADD50C,0.0650*%
%ADD51C,0.0270*%
%ADD52C,0.1000*%
G36*
X17462Y16202D02*
X17467Y16193D01*
X17473Y16185D01*
X17480Y16179D01*
X17489Y16173D01*
X17498Y16168D01*
X17508Y16165D01*
X17520Y16162D01*
X17532Y16161D01*
X17546Y16160D01*
X17498Y16075D01*
X17502Y16069D01*
X17511Y16059D01*
X17441Y15989D01*
X17431Y15998D01*
X17421Y16006D01*
X17411Y16013D01*
X17401Y16019D01*
X17390Y16024D01*
X17379Y16028D01*
X17367Y16031D01*
X17356Y16033D01*
X17344Y16035D01*
X17331Y16035D01*
X17412Y16116D01*
X17458Y16212D01*
X17462Y16202D01*
D02*
G37*
G36*
X22904Y16184D02*
X22964D01*
X22956Y16175D01*
X22948Y16165D01*
X22942Y16155D01*
X22936Y16145D01*
X22931Y16134D01*
X22927Y16123D01*
X22924Y16111D01*
X22922Y16099D01*
X22920Y16087D01*
X22920Y16074D01*
X22820D01*
X22820Y16087D01*
X22818Y16099D01*
X22816Y16111D01*
X22813Y16123D01*
X22809Y16134D01*
X22804Y16145D01*
X22798Y16155D01*
X22792Y16165D01*
X22784Y16175D01*
X22775Y16184D01*
X22839D01*
X22839Y16184D01*
X22840Y16260D01*
X22900D01*
X22904Y16184D01*
D02*
G37*
G36*
X22267Y16122D02*
X22258Y16130D01*
X22248Y16137D01*
X22238Y16144D01*
X22228Y16150D01*
X22217Y16154D01*
X22205Y16158D01*
X22193Y16161D01*
X22181Y16163D01*
X22169Y16165D01*
X22156Y16165D01*
X22152Y16265D01*
X22165Y16265D01*
X22177Y16267D01*
X22189Y16269D01*
X22201Y16272D01*
X22212Y16276D01*
X22223Y16282D01*
X22233Y16287D01*
X22242Y16294D01*
X22252Y16302D01*
X22260Y16311D01*
X22267Y16122D01*
D02*
G37*
G36*
X23003Y15784D02*
Y15441D01*
X22498Y14937D01*
X22465Y14914D01*
X22465Y14914D01*
X22428Y14878D01*
X22382Y14897D01*
Y15060D01*
X22374Y15103D01*
X22349Y15139D01*
X22349Y15139D01*
X22309Y15180D01*
X22319Y15230D01*
X22304Y15306D01*
X22261Y15371D01*
X22260Y15381D01*
X22441Y15563D01*
X22671D01*
X22671Y15563D01*
X22714Y15571D01*
X22751Y15596D01*
X22949Y15794D01*
X22949Y15794D01*
X22953Y15800D01*
X23003Y15784D01*
D02*
G37*
G36*
X22120Y15625D02*
X22108Y15626D01*
X22096Y15625D01*
X22085Y15623D01*
X22073Y15621D01*
X22062Y15617D01*
X22052Y15612D01*
X22041Y15606D01*
X22031Y15599D01*
X22021Y15591D01*
X22011Y15582D01*
X21945Y15658D01*
X21954Y15667D01*
X21962Y15677D01*
X21969Y15687D01*
X21976Y15698D01*
X21981Y15708D01*
X21986Y15720D01*
X21989Y15731D01*
X21992Y15743D01*
X21994Y15755D01*
X21995Y15767D01*
X22120Y15625D01*
D02*
G37*
G36*
X22675Y16086D02*
X22675Y16073D01*
X22678Y16036D01*
X22680Y16024D01*
X22685Y16002D01*
X22688Y15991D01*
X22695Y15970D01*
X22523Y16047D01*
X22533Y16051D01*
X22542Y16056D01*
X22550Y16063D01*
X22556Y16070D01*
X22562Y16079D01*
X22567Y16088D01*
X22570Y16098D01*
X22573Y16110D01*
X22574Y16122D01*
X22575Y16136D01*
X22675Y16086D01*
D02*
G37*
G36*
X17948Y17207D02*
X17946Y17204D01*
X17945Y17201D01*
X17943Y17197D01*
X17942Y17193D01*
X17942Y17189D01*
X17941Y17185D01*
X17940Y17175D01*
X17940Y17170D01*
X17880D01*
X17880Y17175D01*
X17879Y17185D01*
X17878Y17189D01*
X17878Y17193D01*
X17877Y17197D01*
X17875Y17201D01*
X17874Y17204D01*
X17872Y17207D01*
X17870Y17210D01*
X17950D01*
X17948Y17207D01*
D02*
G37*
G36*
X21938Y17387D02*
X21929Y17378D01*
X21921Y17368D01*
X21914Y17358D01*
X21909Y17347D01*
X21904Y17337D01*
X21900Y17326D01*
X21897Y17314D01*
X21895Y17303D01*
X21894Y17291D01*
X21895Y17278D01*
X21754Y17405D01*
X21767Y17406D01*
X21779Y17408D01*
X21790Y17410D01*
X21802Y17414D01*
X21813Y17419D01*
X21824Y17424D01*
X21834Y17430D01*
X21844Y17437D01*
X21854Y17445D01*
X21863Y17454D01*
X21938Y17387D01*
D02*
G37*
G36*
X24466Y17406D02*
X24470Y17405D01*
X24475Y17404D01*
X24483Y17403D01*
X24502Y17401D01*
X24560Y17400D01*
Y17340D01*
X24543Y17340D01*
X24470Y17335D01*
X24466Y17334D01*
X24463Y17332D01*
Y17408D01*
X24466Y17406D01*
D02*
G37*
G36*
X17229Y16342D02*
X17239Y16334D01*
X17249Y16327D01*
X17259Y16321D01*
X17270Y16316D01*
X17281Y16312D01*
X17293Y16309D01*
X17304Y16307D01*
X17316Y16305D01*
X17329Y16305D01*
X17195Y16171D01*
X17195Y16184D01*
X17193Y16196D01*
X17191Y16207D01*
X17188Y16219D01*
X17184Y16230D01*
X17179Y16241D01*
X17173Y16251D01*
X17166Y16261D01*
X17158Y16271D01*
X17149Y16281D01*
X17219Y16351D01*
X17229Y16342D01*
D02*
G37*
G36*
X21969Y16400D02*
X21902Y16371D01*
X21869Y16480D01*
X21999Y16560D01*
X21969Y16400D01*
D02*
G37*
G36*
X22415Y16897D02*
X22411Y16896D01*
X22406Y16894D01*
X22400Y16890D01*
X22393Y16886D01*
X22386Y16880D01*
X22369Y16867D01*
X22349Y16848D01*
X22339Y16838D01*
X22255Y16895D01*
X22262Y16903D01*
X22267Y16910D01*
X22272Y16917D01*
X22276Y16923D01*
X22278Y16930D01*
X22280Y16936D01*
X22281Y16942D01*
X22280Y16947D01*
X22278Y16953D01*
X22276Y16958D01*
X22415Y16897D01*
D02*
G37*
G36*
X23888Y12724D02*
Y8730D01*
X23358Y8201D01*
X23312Y8220D01*
Y9430D01*
X23304Y9473D01*
X23279Y9509D01*
X23279Y9509D01*
X22332Y10456D01*
Y11030D01*
X22332Y11030D01*
X22324Y11073D01*
X22299Y11109D01*
X22299Y11109D01*
X22072Y11336D01*
Y13144D01*
X22118Y13163D01*
X22638Y12644D01*
Y11716D01*
X22464Y11542D01*
X22430Y11549D01*
X22354Y11534D01*
X22289Y11491D01*
X22246Y11426D01*
X22231Y11350D01*
X22246Y11274D01*
X22289Y11209D01*
X22354Y11166D01*
X22430Y11151D01*
X22506Y11166D01*
X22571Y11209D01*
X22614Y11274D01*
X22629Y11350D01*
X22622Y11384D01*
X22829Y11591D01*
X22829Y11591D01*
X22854Y11627D01*
X22862Y11670D01*
Y12690D01*
X22862Y12690D01*
X22854Y12733D01*
X22829Y12769D01*
X22829Y12769D01*
X22232Y13366D01*
Y13464D01*
X22232Y13464D01*
X22224Y13506D01*
X22199Y13543D01*
X22187Y13556D01*
X22201Y13603D01*
X22216Y13606D01*
X22281Y13649D01*
X22300Y13678D01*
X22934D01*
X23888Y12724D01*
D02*
G37*
G36*
X17618Y12604D02*
X17586Y12556D01*
X17571Y12480D01*
X17586Y12404D01*
X17629Y12339D01*
X17694Y12296D01*
X17770Y12281D01*
X17846Y12296D01*
X17869Y12312D01*
X17883Y12310D01*
X17930Y12292D01*
X17946Y12269D01*
X17977Y12238D01*
X17976Y12236D01*
X17961Y12160D01*
X17976Y12084D01*
X18019Y12019D01*
X18084Y11976D01*
X18143Y11964D01*
X18152Y11957D01*
X18174Y11926D01*
X18178Y11914D01*
X18173Y11889D01*
X18173Y11889D01*
Y11730D01*
X18062Y11619D01*
X18008Y11635D01*
X18004Y11656D01*
X17961Y11721D01*
X17896Y11764D01*
X17820Y11779D01*
X17744Y11764D01*
X17679Y11721D01*
X17636Y11656D01*
X17621Y11580D01*
X17630Y11533D01*
X17601Y11504D01*
X17597Y11498D01*
X17547Y11514D01*
Y11706D01*
X17661Y11819D01*
X17685Y11856D01*
X17694Y11899D01*
X17685Y11941D01*
X17661Y11978D01*
X17661Y11978D01*
X17172Y12466D01*
Y12770D01*
X17201Y12789D01*
X17244Y12854D01*
X17253Y12899D01*
X17307Y12915D01*
X17618Y12604D01*
D02*
G37*
G36*
X7821Y18431D02*
X7857Y18406D01*
X7900Y18398D01*
X7900Y18398D01*
X11910D01*
X13563Y16745D01*
Y16472D01*
X13563Y16472D01*
X13571Y16429D01*
X13596Y16393D01*
X13596Y16393D01*
X13833Y16156D01*
X13869Y16131D01*
X13912Y16123D01*
X13912Y16123D01*
X14185D01*
X14189Y16119D01*
Y15918D01*
X14189Y15918D01*
X14197Y15875D01*
X14221Y15839D01*
X14221Y15839D01*
X14459Y15601D01*
X14495Y15577D01*
X14538Y15569D01*
X14538Y15569D01*
X14711D01*
X17083Y13197D01*
Y13186D01*
X17083Y13186D01*
X17085Y13175D01*
X17078Y13162D01*
X17047Y13126D01*
X16984Y13114D01*
X16919Y13071D01*
X16876Y13006D01*
X16861Y12930D01*
X16876Y12854D01*
X16919Y12789D01*
X16948Y12770D01*
Y12530D01*
X16902Y12510D01*
X13193Y16219D01*
X13156Y16244D01*
X13114Y16252D01*
X13114Y16252D01*
X12968D01*
X12940Y16319D01*
X12883Y16393D01*
X12809Y16450D01*
X12723Y16486D01*
X12630Y16498D01*
X12537Y16486D01*
X12451Y16450D01*
X12377Y16393D01*
X12320Y16319D01*
X12284Y16233D01*
X12272Y16140D01*
X12284Y16047D01*
X12320Y15961D01*
X12377Y15887D01*
X12451Y15830D01*
X12537Y15794D01*
X12630Y15782D01*
X12723Y15794D01*
X12809Y15830D01*
X12883Y15887D01*
X12940Y15961D01*
X12968Y16028D01*
X13067D01*
X17196Y11899D01*
Y11898D01*
X17171Y11861D01*
X17163Y11818D01*
X17163Y11818D01*
Y11350D01*
X17163Y11350D01*
X17171Y11307D01*
X17196Y11271D01*
X17408Y11059D01*
Y10266D01*
X17362Y10247D01*
X17029Y10579D01*
X16993Y10604D01*
X16950Y10612D01*
X16950Y10612D01*
X15146D01*
X14687Y11071D01*
Y13540D01*
X14679Y13583D01*
X14654Y13619D01*
X14654Y13619D01*
X14349Y13924D01*
X14313Y13949D01*
X14270Y13957D01*
X14270Y13957D01*
X13361D01*
X11742Y15576D01*
Y15785D01*
X11985D01*
Y16495D01*
X11275D01*
Y15785D01*
X11518D01*
Y15530D01*
X11518Y15530D01*
X11526Y15487D01*
X11551Y15451D01*
X13236Y13766D01*
X13236Y13766D01*
X13272Y13741D01*
X13315Y13733D01*
X13315Y13733D01*
X13801D01*
X13811Y13701D01*
X13814Y13683D01*
X13754Y13604D01*
X13715Y13511D01*
X13702Y13410D01*
X13715Y13309D01*
X13754Y13216D01*
X13815Y13135D01*
X13896Y13074D01*
X13938Y13056D01*
Y11300D01*
X13938Y11300D01*
X13946Y11257D01*
X13971Y11221D01*
X15461Y9731D01*
X15461Y9731D01*
X15497Y9706D01*
X15540Y9698D01*
X16388D01*
X17496Y8591D01*
X17496Y8591D01*
X17532Y8566D01*
X17575Y8558D01*
X19785D01*
X19785Y8558D01*
X19828Y8566D01*
X19864Y8591D01*
X19987Y8713D01*
X20033Y8694D01*
Y8335D01*
X20033Y8335D01*
X20041Y8292D01*
X20066Y8256D01*
X20493Y7828D01*
X20474Y7782D01*
X12856D01*
X9429Y11210D01*
Y13785D01*
X9481Y13837D01*
X9481Y13837D01*
X9506Y13873D01*
X9514Y13916D01*
X9514Y13916D01*
Y14384D01*
X9514Y14384D01*
X9506Y14427D01*
X9481Y14463D01*
X9481Y14463D01*
X9032Y14912D01*
Y17077D01*
X9032Y17077D01*
X9024Y17120D01*
X8999Y17156D01*
X8999Y17156D01*
X8090Y18065D01*
X8069Y18079D01*
X6691Y19458D01*
X6694Y19486D01*
X6747Y19505D01*
X7821Y18431D01*
D02*
G37*
G36*
X22108Y10984D02*
Y10410D01*
X22108Y10410D01*
X22116Y10367D01*
X22141Y10331D01*
X23088Y9384D01*
Y8156D01*
X22874Y7942D01*
X20696D01*
X20257Y8381D01*
Y8541D01*
X20301Y8565D01*
X20314Y8556D01*
X20390Y8541D01*
X20466Y8556D01*
X20531Y8599D01*
X20574Y8664D01*
X20589Y8740D01*
X20582Y8774D01*
X21567Y9758D01*
X21613Y9739D01*
Y9681D01*
X21021Y9089D01*
X21021Y9089D01*
X20996Y9053D01*
X20988Y9010D01*
Y8550D01*
X20959Y8531D01*
X20916Y8466D01*
X20901Y8390D01*
X20916Y8314D01*
X20959Y8249D01*
X21024Y8206D01*
X21100Y8191D01*
X21176Y8206D01*
X21241Y8249D01*
X21284Y8314D01*
X21299Y8390D01*
X21284Y8466D01*
X21241Y8531D01*
X21212Y8550D01*
Y8964D01*
X21804Y9556D01*
X21829Y9592D01*
X21837Y9635D01*
X21837Y9635D01*
Y11186D01*
X21861Y11199D01*
X21887Y11204D01*
X22108Y10984D01*
D02*
G37*
G36*
X17248Y10044D02*
Y9221D01*
X17202Y9202D01*
X16514Y9889D01*
X16478Y9914D01*
X16435Y9922D01*
X16435Y9922D01*
X15586D01*
X15167Y10342D01*
X15186Y10388D01*
X16904D01*
X17248Y10044D01*
D02*
G37*
G36*
X14463Y13182D02*
Y11111D01*
X14417Y11092D01*
X14162Y11346D01*
Y13031D01*
X14191Y13035D01*
X14284Y13074D01*
X14365Y13135D01*
X14413Y13199D01*
X14463Y13182D01*
D02*
G37*
G36*
X17095Y14020D02*
X17086Y14006D01*
X17071Y13930D01*
X17086Y13854D01*
X17129Y13789D01*
X17158Y13770D01*
Y13504D01*
X17112Y13485D01*
X16081Y14516D01*
X16105Y14562D01*
X16110Y14561D01*
X16186Y14576D01*
X16251Y14619D01*
X16270Y14648D01*
X16467D01*
X17095Y14020D01*
D02*
G37*
G36*
X21995Y15408D02*
X21995Y15381D01*
X21979Y15371D01*
X21936Y15306D01*
X21921Y15230D01*
X21936Y15154D01*
X21979Y15089D01*
X22044Y15046D01*
X22120Y15031D01*
X22158Y14993D01*
Y14832D01*
X22137Y14801D01*
X22133Y14782D01*
X22059Y14707D01*
X21972D01*
X21972Y14707D01*
X21929Y14699D01*
X21893Y14674D01*
X21893Y14674D01*
X21718Y14500D01*
X21672Y14519D01*
Y15155D01*
X21946Y15429D01*
X21995Y15408D01*
D02*
G37*
G36*
X17274Y15618D02*
X17276Y15604D01*
X17319Y15539D01*
X17384Y15496D01*
X17460Y15481D01*
X17536Y15496D01*
X17601Y15539D01*
X17644Y15604D01*
X17693Y15595D01*
Y15069D01*
X17649Y15045D01*
X17636Y15054D01*
X17560Y15069D01*
X17526Y15062D01*
X16969Y15619D01*
X16933Y15644D01*
X16890Y15652D01*
X16890Y15652D01*
X16444D01*
X16416Y15693D01*
X16415Y15702D01*
X16422Y15740D01*
X16422Y15740D01*
Y16404D01*
X16468Y16423D01*
X17274Y15618D01*
D02*
G37*
G36*
X21603Y13008D02*
X21633Y12982D01*
X21636Y12979D01*
X21640Y12978D01*
X21642Y12977D01*
X21644Y12977D01*
X21563Y12896D01*
X21563Y12898D01*
X21562Y12900D01*
X21561Y12904D01*
X21558Y12907D01*
X21555Y12912D01*
X21545Y12923D01*
X21525Y12945D01*
X21595Y13015D01*
X21603Y13008D01*
D02*
G37*
G36*
X17368Y14904D02*
X17361Y14870D01*
X17376Y14794D01*
X17419Y14729D01*
X17484Y14686D01*
X17560Y14671D01*
X17636Y14686D01*
X17649Y14695D01*
X17693Y14671D01*
Y13930D01*
X17677Y13920D01*
X17627Y13948D01*
Y14031D01*
X17627Y14031D01*
X17619Y14074D01*
X17594Y14111D01*
X17594Y14111D01*
X17451Y14254D01*
X17414Y14279D01*
X17371Y14287D01*
X17371Y14287D01*
X17371D01*
X16281Y15378D01*
X16301Y15428D01*
X16844D01*
X17368Y14904D01*
D02*
G37*
G36*
X22270Y14229D02*
X22276Y14220D01*
X22282Y14212D01*
X22290Y14205D01*
X22299Y14200D01*
X22308Y14195D01*
X22318Y14191D01*
X22330Y14189D01*
X22342Y14187D01*
X22356Y14186D01*
X22308Y14086D01*
X22295Y14086D01*
X22258Y14083D01*
X22246Y14081D01*
X22224Y14076D01*
X22213Y14073D01*
X22191Y14065D01*
X22266Y14239D01*
X22270Y14229D01*
D02*
G37*
G36*
X13052Y25820D02*
X13052Y25826D01*
X13050Y25831D01*
X13047Y25835D01*
X13043Y25839D01*
X13037Y25842D01*
X13030Y25845D01*
X13022Y25847D01*
X13013Y25849D01*
X13003Y25850D01*
X12991Y25850D01*
Y25910D01*
X13003Y25910D01*
X13013Y25911D01*
X13022Y25913D01*
X13030Y25915D01*
X13037Y25917D01*
X13043Y25921D01*
X13047Y25925D01*
X13050Y25929D01*
X13052Y25934D01*
X13052Y25940D01*
Y25820D01*
D02*
G37*
G36*
X13067Y25134D02*
X13071Y25133D01*
X13077Y25133D01*
X13094Y25131D01*
X13170Y25130D01*
Y25070D01*
X13065Y25065D01*
Y25135D01*
X13067Y25134D01*
D02*
G37*
G36*
X25213Y20049D02*
X25267Y20051D01*
X25256Y20047D01*
X25246Y20041D01*
X25238Y20035D01*
X25230Y20027D01*
X25224Y20018D01*
X25219Y20009D01*
X25215Y19998D01*
X25215Y19995D01*
X25214D01*
X25212Y19986D01*
X25211Y19974D01*
X25210Y19960D01*
X25150D01*
X25149Y19973D01*
X25148Y19986D01*
X25145Y19995D01*
X25145D01*
X25145Y19996D01*
X25145Y19997D01*
X25141Y20007D01*
X25136Y20016D01*
X25129Y20024D01*
X25122Y20031D01*
X25113Y20037D01*
X25103Y20041D01*
X25092Y20045D01*
X25149Y20047D01*
X25150Y20100D01*
X25210D01*
X25213Y20049D01*
D02*
G37*
G36*
X16306Y27066D02*
X16349Y27058D01*
X16640D01*
Y24655D01*
X19012D01*
Y27058D01*
X24494D01*
X26698Y24854D01*
Y8716D01*
X25124Y7142D01*
X7276D01*
X6022Y8397D01*
Y26151D01*
X6850D01*
Y26076D01*
X6849Y26074D01*
X6845Y26068D01*
X6800Y26038D01*
X6780Y26042D01*
X6737Y26034D01*
X6701Y26009D01*
X6171Y25479D01*
X6146Y25443D01*
X6138Y25400D01*
X6138Y25400D01*
Y19287D01*
X6138Y19287D01*
X6146Y19245D01*
X6171Y19208D01*
X7792Y17587D01*
X7792Y17587D01*
X7813Y17573D01*
X8488Y16898D01*
Y14733D01*
X8488Y14733D01*
X8496Y14690D01*
X8521Y14654D01*
X8970Y14205D01*
Y14095D01*
X8918Y14043D01*
X8893Y14006D01*
X8885Y13964D01*
X8885Y13964D01*
Y10887D01*
X8885Y10887D01*
X8893Y10844D01*
X8918Y10807D01*
X10148Y9577D01*
Y9450D01*
X10148Y9450D01*
X10156Y9407D01*
X10181Y9371D01*
X12281Y7271D01*
X12281Y7271D01*
X12317Y7246D01*
X12360Y7238D01*
X23119D01*
X23119Y7238D01*
X23162Y7246D01*
X23198Y7271D01*
X24014Y8086D01*
X24055Y8059D01*
X24054Y8056D01*
X24035Y7910D01*
X24054Y7764D01*
X24111Y7628D01*
X24201Y7511D01*
X24318Y7421D01*
X24454Y7364D01*
X24600Y7345D01*
X24746Y7364D01*
X24882Y7421D01*
X24999Y7511D01*
X25089Y7628D01*
X25146Y7764D01*
X25165Y7910D01*
X25146Y8056D01*
X25089Y8192D01*
X24999Y8309D01*
X24882Y8399D01*
X24746Y8456D01*
X24600Y8475D01*
X24454Y8456D01*
X24451Y8454D01*
X24418Y8495D01*
X24434Y8518D01*
X24442Y8561D01*
Y13016D01*
X24442Y13016D01*
X24434Y13059D01*
X24409Y13096D01*
X24409Y13096D01*
X23129Y14376D01*
X23093Y14400D01*
X23050Y14409D01*
X23050Y14409D01*
X22985D01*
X22838Y14556D01*
X22844Y14590D01*
X22829Y14666D01*
X22786Y14731D01*
X22722Y14773D01*
X22715Y14778D01*
X22706Y14827D01*
X23194Y15316D01*
X23194Y15316D01*
X23219Y15352D01*
X23227Y15395D01*
X23227Y15395D01*
Y16381D01*
X23227Y16381D01*
X23219Y16424D01*
X23194Y16461D01*
X23194Y16461D01*
X23051Y16604D01*
X23014Y16629D01*
X22971Y16637D01*
X22971Y16637D01*
X22769D01*
X22769Y16637D01*
X22726Y16629D01*
X22717Y16623D01*
X22708Y16624D01*
X22665Y16648D01*
X22654Y16706D01*
X22611Y16771D01*
X22546Y16814D01*
X22516Y16820D01*
X22506Y16873D01*
X22531Y16889D01*
X22574Y16954D01*
X22589Y17030D01*
X22574Y17106D01*
X22531Y17171D01*
X22466Y17214D01*
X22405Y17226D01*
X22382Y17263D01*
X22379Y17278D01*
X22385Y17288D01*
X22662D01*
X22687Y17271D01*
X22730Y17263D01*
X24376D01*
X24419Y17219D01*
X24412Y17160D01*
X24424Y17067D01*
X24460Y16981D01*
X24517Y16907D01*
X24591Y16850D01*
X24677Y16814D01*
X24770Y16802D01*
X24863Y16814D01*
X24949Y16850D01*
X25023Y16907D01*
X25080Y16981D01*
X25116Y17067D01*
X25128Y17160D01*
X25116Y17253D01*
X25108Y17273D01*
X25150Y17301D01*
X25198Y17254D01*
Y16410D01*
X25198Y16410D01*
X25206Y16367D01*
X25231Y16331D01*
X25413Y16148D01*
X25424Y16067D01*
X25460Y15981D01*
X25517Y15907D01*
X25591Y15850D01*
X25677Y15814D01*
X25770Y15802D01*
X25863Y15814D01*
X25949Y15850D01*
X26023Y15907D01*
X26080Y15981D01*
X26116Y16067D01*
X26128Y16160D01*
X26116Y16253D01*
X26080Y16339D01*
X26023Y16413D01*
X25949Y16470D01*
X25863Y16506D01*
X25770Y16518D01*
X25677Y16506D01*
X25591Y16470D01*
X25517Y16413D01*
X25468Y16410D01*
X25422Y16456D01*
Y16948D01*
X25472Y16965D01*
X25517Y16907D01*
X25591Y16850D01*
X25677Y16814D01*
X25770Y16802D01*
X25863Y16814D01*
X25949Y16850D01*
X26023Y16907D01*
X26080Y16981D01*
X26116Y17067D01*
X26128Y17160D01*
X26116Y17253D01*
X26080Y17339D01*
X26023Y17413D01*
X25949Y17470D01*
X25863Y17506D01*
X25770Y17518D01*
X25677Y17506D01*
X25591Y17470D01*
X25517Y17413D01*
X25464Y17345D01*
X25436Y17344D01*
X25410Y17349D01*
X25389Y17379D01*
X25389Y17379D01*
X25141Y17628D01*
X25161Y17678D01*
X25330D01*
X25330Y17678D01*
X25373Y17686D01*
X25409Y17711D01*
X26249Y18551D01*
X26249Y18551D01*
X26274Y18587D01*
X26282Y18630D01*
Y19992D01*
X26349Y20020D01*
X26423Y20077D01*
X26480Y20151D01*
X26516Y20237D01*
X26528Y20330D01*
X26516Y20423D01*
X26480Y20509D01*
X26423Y20583D01*
X26349Y20640D01*
X26263Y20676D01*
X26170Y20688D01*
X26077Y20676D01*
X25991Y20640D01*
X25917Y20583D01*
X25860Y20509D01*
X25824Y20423D01*
X25812Y20330D01*
X25824Y20237D01*
X25860Y20151D01*
X25917Y20077D01*
X25991Y20020D01*
X26058Y19992D01*
Y18676D01*
X25284Y17902D01*
X25136D01*
X25117Y17948D01*
X25259Y18091D01*
X25284Y18127D01*
X25292Y18170D01*
X25292Y18170D01*
Y19960D01*
X25286Y19989D01*
X25292Y19991D01*
X25300Y19999D01*
X25349Y20020D01*
X25423Y20077D01*
X25480Y20151D01*
X25516Y20237D01*
X25528Y20330D01*
X25516Y20423D01*
X25480Y20509D01*
X25423Y20583D01*
X25349Y20640D01*
X25263Y20676D01*
X25170Y20688D01*
X25077Y20676D01*
X24991Y20640D01*
X24917Y20583D01*
X24860Y20509D01*
X24824Y20423D01*
X24812Y20330D01*
X24824Y20237D01*
X24860Y20151D01*
X24917Y20077D01*
X24991Y20020D01*
X25066Y19989D01*
X25072Y19984D01*
X25072Y19983D01*
X25068Y19960D01*
Y18216D01*
X24914Y18062D01*
X23438D01*
X23371Y18129D01*
X23335Y18154D01*
X23292Y18162D01*
X23292Y18162D01*
X23275D01*
X23232Y18154D01*
X23217Y18160D01*
X23214Y18176D01*
X23171Y18241D01*
X23122Y18273D01*
Y18474D01*
X24249Y19601D01*
X24249Y19601D01*
X24274Y19637D01*
X24282Y19680D01*
X24282Y19680D01*
Y19992D01*
X24349Y20020D01*
X24423Y20077D01*
X24480Y20151D01*
X24516Y20237D01*
X24528Y20330D01*
X24516Y20423D01*
X24480Y20509D01*
X24423Y20583D01*
X24349Y20640D01*
X24263Y20676D01*
X24170Y20688D01*
X24077Y20676D01*
X23991Y20640D01*
X23917Y20583D01*
X23860Y20509D01*
X23824Y20423D01*
X23812Y20330D01*
X23824Y20237D01*
X23860Y20151D01*
X23917Y20077D01*
X23991Y20020D01*
X24058Y19992D01*
Y19726D01*
X22931Y18599D01*
X22906Y18563D01*
X22898Y18520D01*
X22898Y18520D01*
Y18246D01*
X22889Y18241D01*
X22846Y18176D01*
X22843Y18160D01*
X22828Y18154D01*
X22785Y18162D01*
X22396D01*
X22377Y18208D01*
X23249Y19081D01*
X23249Y19081D01*
X23274Y19117D01*
X23282Y19160D01*
X23282Y19160D01*
Y19992D01*
X23349Y20020D01*
X23423Y20077D01*
X23480Y20151D01*
X23516Y20237D01*
X23528Y20330D01*
X23516Y20423D01*
X23480Y20509D01*
X23453Y20545D01*
X24079Y21170D01*
X24139Y21169D01*
X24204Y21126D01*
X24280Y21111D01*
X24356Y21126D01*
X24421Y21169D01*
X24464Y21234D01*
X24479Y21310D01*
X24464Y21386D01*
X24421Y21451D01*
X24356Y21494D01*
X24280Y21509D01*
X24204Y21494D01*
X24139Y21451D01*
X24120Y21422D01*
X24060D01*
X24060Y21422D01*
X24017Y21414D01*
X23981Y21389D01*
X23266Y20675D01*
X23263Y20676D01*
X23170Y20688D01*
X23077Y20676D01*
X22991Y20640D01*
X22917Y20583D01*
X22860Y20509D01*
X22824Y20423D01*
X22812Y20330D01*
X22824Y20237D01*
X22860Y20151D01*
X22917Y20077D01*
X22991Y20020D01*
X23058Y19992D01*
Y19206D01*
X22179Y18327D01*
X21906D01*
X21906Y18327D01*
X21863Y18319D01*
X21827Y18294D01*
X21635Y18102D01*
X21607D01*
X21560Y18149D01*
X21524Y18174D01*
X21481Y18182D01*
X21481Y18182D01*
X21430D01*
X21411Y18211D01*
X21346Y18254D01*
X21270Y18269D01*
X21194Y18254D01*
X21129Y18211D01*
X21086Y18146D01*
X21071Y18070D01*
X21086Y17994D01*
X21129Y17929D01*
X21137Y17924D01*
X21117Y17877D01*
X21110Y17879D01*
X21039Y17865D01*
X21017Y17877D01*
X20992Y17896D01*
Y19744D01*
X20992Y19744D01*
X20987Y19769D01*
Y19905D01*
X21065Y19983D01*
X21181D01*
X21199Y19971D01*
X21241Y19963D01*
X21491D01*
X21491Y19963D01*
X21534Y19971D01*
X21571Y19996D01*
X21714Y20139D01*
X21714Y20139D01*
X21727Y20159D01*
X21765Y20196D01*
X21815Y20175D01*
Y19975D01*
X22525D01*
Y20685D01*
X21815D01*
Y20442D01*
X21740D01*
X21697Y20434D01*
X21661Y20409D01*
X21661Y20409D01*
X21556Y20304D01*
X21543Y20285D01*
X21445Y20187D01*
X21282D01*
X21264Y20199D01*
X21221Y20207D01*
X21221Y20207D01*
X21019D01*
X21019Y20207D01*
X20976Y20199D01*
X20939Y20174D01*
X20939Y20174D01*
X20796Y20031D01*
X20771Y19994D01*
X20763Y19951D01*
X20763Y19951D01*
Y19749D01*
X20763Y19749D01*
X20768Y19723D01*
Y18136D01*
X20722Y18117D01*
X20449Y18389D01*
X20413Y18414D01*
X20370Y18422D01*
X20370Y18422D01*
X19450D01*
X19407Y18414D01*
X19371Y18389D01*
X19371Y18389D01*
X19314Y18332D01*
X19280Y18339D01*
X19204Y18324D01*
X19139Y18281D01*
X19096Y18216D01*
X19081Y18140D01*
X19096Y18064D01*
X19139Y17999D01*
X19158Y17987D01*
X19162Y17938D01*
X18956Y17731D01*
X18931Y17694D01*
X18923Y17651D01*
X18923Y17651D01*
Y17578D01*
X17997Y16652D01*
X17520D01*
X17501Y16681D01*
X17436Y16724D01*
X17360Y16739D01*
X17284Y16724D01*
X17219Y16681D01*
X17176Y16616D01*
X17166Y16563D01*
X17113Y16546D01*
X17078Y16581D01*
X17078Y16581D01*
X17062Y16648D01*
X17077Y16670D01*
X17092Y16747D01*
X17081Y16804D01*
X17291Y17014D01*
X17347Y17010D01*
X17354Y16999D01*
X17419Y16956D01*
X17495Y16941D01*
X17571Y16956D01*
X17636Y16999D01*
X17679Y17063D01*
X17694Y17139D01*
X17679Y17216D01*
X17636Y17280D01*
X17571Y17323D01*
X17495Y17338D01*
X17419Y17323D01*
X17354Y17280D01*
X17311Y17216D01*
X17311Y17212D01*
X17267D01*
X17232Y17205D01*
X17202Y17185D01*
X16951Y16934D01*
X16893Y16945D01*
X16817Y16930D01*
X16805Y16922D01*
X16761Y16945D01*
Y17557D01*
X16752Y17600D01*
X16728Y17636D01*
X16728Y17636D01*
X16592Y17772D01*
Y18680D01*
X16626Y18686D01*
X16691Y18729D01*
X16734Y18794D01*
X16747Y18863D01*
X16770Y18876D01*
X16797Y18884D01*
X17798Y17884D01*
Y17240D01*
X17806Y17197D01*
X17814Y17185D01*
X17814Y17185D01*
X17814Y17184D01*
X17814Y17182D01*
X17814Y17180D01*
X17814Y17179D01*
X17814Y17179D01*
X17815Y17178D01*
X17815Y17178D01*
X17815Y17177D01*
X17815Y17177D01*
X17815Y17172D01*
X17815Y17169D01*
X17821Y17154D01*
X17825Y17135D01*
X17834Y17122D01*
X17821Y17060D01*
X17836Y16984D01*
X17879Y16919D01*
X17944Y16876D01*
X18020Y16861D01*
X18096Y16876D01*
X18161Y16919D01*
X18204Y16984D01*
X18219Y17060D01*
X18204Y17136D01*
X18161Y17201D01*
X18096Y17244D01*
X18022Y17258D01*
Y17930D01*
X18014Y17973D01*
X17989Y18009D01*
X17989Y18009D01*
X16559Y19439D01*
X16523Y19464D01*
X16480Y19472D01*
X16480Y19472D01*
X15310D01*
X15267Y19464D01*
X15231Y19439D01*
X15231Y19439D01*
X15061Y19269D01*
X15036Y19233D01*
X15028Y19190D01*
X15028Y19190D01*
Y18492D01*
X15028Y18492D01*
X15036Y18449D01*
X15061Y18413D01*
X16198Y17276D01*
Y15786D01*
X16184Y15772D01*
X15980D01*
X15961Y15801D01*
X15896Y15844D01*
X15820Y15859D01*
X15744Y15844D01*
X15679Y15801D01*
X15636Y15736D01*
X15621Y15660D01*
X15636Y15584D01*
X15679Y15519D01*
X15728Y15487D01*
X15713Y15437D01*
X15414D01*
X14931Y15920D01*
X14895Y15944D01*
X14852Y15953D01*
X14852Y15953D01*
X14651D01*
X14573Y16031D01*
Y16232D01*
X14573Y16232D01*
X14564Y16275D01*
X14540Y16311D01*
X14540Y16311D01*
X14377Y16474D01*
X14341Y16499D01*
X14298Y16507D01*
X14298Y16507D01*
X14025D01*
X13947Y16585D01*
Y17150D01*
X14439Y17642D01*
X14439Y17642D01*
X14464Y17679D01*
X14472Y17721D01*
X14472Y17721D01*
Y20890D01*
X14472Y20890D01*
X14464Y20933D01*
X14439Y20969D01*
X14439Y20969D01*
X14179Y21229D01*
X14143Y21254D01*
X14120Y21258D01*
Y21445D01*
X13000D01*
Y20875D01*
X14120D01*
Y20906D01*
X14166Y20925D01*
X14248Y20844D01*
Y17768D01*
X13756Y17276D01*
X13731Y17239D01*
X13723Y17196D01*
X13723Y17196D01*
Y16968D01*
X13677Y16948D01*
X12036Y18589D01*
X12036Y18589D01*
X11999Y18614D01*
X11956Y18622D01*
X7946D01*
X6857Y19711D01*
Y20095D01*
X7970D01*
Y20665D01*
X6857D01*
Y20829D01*
X6914Y20885D01*
X7970D01*
Y21455D01*
X6850D01*
Y21139D01*
X6728Y21017D01*
X6682Y21036D01*
Y22104D01*
X6800Y22221D01*
X6850Y22201D01*
Y21665D01*
X7970D01*
X7970Y22235D01*
X8015Y22248D01*
X8090D01*
X8090Y22248D01*
X8133Y22256D01*
X8169Y22281D01*
X10876Y24988D01*
X12990D01*
Y24815D01*
X14110D01*
Y25385D01*
X12990D01*
Y25212D01*
X10830D01*
X10830Y25212D01*
X10787Y25204D01*
X10751Y25179D01*
X10751Y25179D01*
X8044Y22472D01*
X7970D01*
Y23008D01*
X8040D01*
X8040Y23008D01*
X8083Y23016D01*
X8119Y23041D01*
X10826Y25748D01*
X12900D01*
X12940Y25756D01*
X12944Y25756D01*
X12990Y25728D01*
Y25595D01*
X14110D01*
Y26151D01*
X15351D01*
Y26172D01*
X16270Y27091D01*
X16306Y27066D01*
D02*
G37*
G36*
X12990Y25975D02*
X12990Y25975D01*
X12982Y25972D01*
X12920D01*
X12911Y25970D01*
X12900Y25972D01*
X10780D01*
X10780Y25972D01*
X10737Y25964D01*
X10701Y25939D01*
X10701Y25939D01*
X8020Y23259D01*
X7970Y23279D01*
Y23815D01*
X6850D01*
Y23271D01*
X6848Y23243D01*
X6822Y23207D01*
X6811Y23199D01*
X6811Y23199D01*
X6408Y22797D01*
X6362Y22816D01*
Y25354D01*
X6800Y25791D01*
X6850Y25771D01*
Y25595D01*
X7970D01*
Y26151D01*
X12990D01*
Y25975D01*
D02*
G37*
G36*
X6912Y25960D02*
X6920Y25960D01*
Y25900D01*
X6912Y25900D01*
Y25870D01*
X6912Y25876D01*
X6910Y25881D01*
X6907Y25885D01*
X6903Y25889D01*
X6897Y25893D01*
X6890Y25895D01*
X6882Y25897D01*
X6879Y25898D01*
X6815Y25895D01*
Y25965D01*
X6817Y25964D01*
X6821Y25963D01*
X6827Y25963D01*
X6844Y25961D01*
X6870Y25961D01*
X6873Y25961D01*
X6882Y25963D01*
X6890Y25965D01*
X6897Y25968D01*
X6903Y25971D01*
X6907Y25975D01*
X6910Y25979D01*
X6912Y25984D01*
X6912Y25990D01*
Y25960D01*
D02*
G37*
G36*
X20505Y17828D02*
X20507Y17810D01*
X20507Y17805D01*
X20515D01*
X20513Y17802D01*
X20511Y17799D01*
X20510Y17795D01*
X20511Y17792D01*
X20513Y17789D01*
X20515Y17786D01*
X20507D01*
X20507Y17781D01*
X20505Y17769D01*
X20505Y17763D01*
X20505Y17756D01*
X20445D01*
X20445Y17763D01*
X20443Y17781D01*
X20443Y17786D01*
X20435D01*
X20437Y17789D01*
X20439Y17792D01*
X20440Y17795D01*
X20439Y17799D01*
X20437Y17802D01*
X20435Y17805D01*
X20443D01*
X20443Y17810D01*
X20445Y17822D01*
X20445Y17828D01*
X20445Y17835D01*
X20505D01*
X20505Y17828D01*
D02*
G37*
G36*
X21600Y17719D02*
X21601Y17717D01*
X21604Y17715D01*
X21605Y17715D01*
Y17715D01*
X21607Y17714D01*
X21611Y17713D01*
X21615Y17712D01*
X21620Y17711D01*
X21626Y17710D01*
X21640Y17710D01*
Y17650D01*
X21633Y17650D01*
X21620Y17649D01*
X21615Y17648D01*
X21611Y17647D01*
X21607Y17646D01*
X21605Y17645D01*
Y17645D01*
X21604Y17645D01*
X21604Y17645D01*
X21601Y17643D01*
X21600Y17641D01*
X21599Y17639D01*
Y17647D01*
X21593Y17647D01*
X21576Y17649D01*
X21500Y17650D01*
Y17710D01*
X21599Y17715D01*
Y17721D01*
X21600Y17719D01*
D02*
G37*
G36*
X16564Y19117D02*
X16556Y19090D01*
X16543Y19067D01*
X16474Y19054D01*
X16409Y19011D01*
X16366Y18946D01*
X16351Y18870D01*
X16366Y18794D01*
X16368Y18792D01*
Y17835D01*
X16322Y17816D01*
X15677Y18461D01*
X15683Y18494D01*
X15668Y18570D01*
X15625Y18635D01*
X15560Y18678D01*
X15484Y18693D01*
X15408Y18678D01*
X15344Y18635D01*
X15302Y18573D01*
X15298Y18572D01*
X15252Y18587D01*
Y19144D01*
X15356Y19248D01*
X16434D01*
X16564Y19117D01*
D02*
G37*
G36*
X20443Y17938D02*
X20471Y17914D01*
X20481Y17907D01*
X20500Y17895D01*
X20509Y17889D01*
X20529Y17880D01*
X20353Y17813D01*
X20357Y17823D01*
X20359Y17833D01*
X20360Y17843D01*
X20360Y17853D01*
X20358Y17863D01*
X20355Y17873D01*
X20350Y17883D01*
X20344Y17893D01*
X20336Y17903D01*
X20327Y17913D01*
X20434Y17947D01*
X20443Y17938D01*
D02*
G37*
G36*
X20609Y17733D02*
X20610Y17721D01*
X20611Y17709D01*
X20614Y17698D01*
X20618Y17687D01*
X20622Y17676D01*
X20628Y17666D01*
X20635Y17656D01*
X20643Y17646D01*
X20652Y17636D01*
X20576Y17571D01*
X20566Y17580D01*
X20557Y17588D01*
X20546Y17595D01*
X20536Y17601D01*
X20525Y17607D01*
X20514Y17611D01*
X20503Y17615D01*
X20491Y17618D01*
X20479Y17620D01*
X20467Y17621D01*
X20610Y17745D01*
X20609Y17733D01*
D02*
G37*
G36*
X19607Y17647D02*
X19601Y17620D01*
X19616Y17544D01*
X19659Y17479D01*
X19724Y17436D01*
X19800Y17421D01*
X19825Y17426D01*
X20631Y16621D01*
X20631Y16621D01*
X20667Y16596D01*
X20710Y16588D01*
X21824D01*
X21843Y16542D01*
X21839Y16537D01*
X21835Y16535D01*
X21831Y16530D01*
X21812Y16511D01*
X21812Y16510D01*
X21812Y16510D01*
X21101Y15799D01*
X21076Y15763D01*
X21068Y15720D01*
X21068Y15720D01*
Y13285D01*
X21068Y13285D01*
X21076Y13242D01*
X21098Y13210D01*
X21097Y13203D01*
X21066Y13164D01*
X20990Y13179D01*
X20914Y13164D01*
X20849Y13121D01*
X20843Y13111D01*
X20835Y13112D01*
X20822D01*
X20798Y13117D01*
X20798Y13117D01*
X20462D01*
X20462Y13117D01*
X20438Y13112D01*
X20156D01*
X20156Y13112D01*
X20113Y13104D01*
X20077Y13080D01*
X20077Y13080D01*
X19946Y12949D01*
X19921Y12912D01*
X19913Y12869D01*
X19913Y12869D01*
Y12096D01*
X19913Y12096D01*
X19921Y12053D01*
X19946Y12017D01*
X20398Y11565D01*
Y10346D01*
X19946Y9895D01*
X19914Y9889D01*
X19878Y9864D01*
X19878Y9864D01*
X19436Y9422D01*
X18136D01*
X17952Y9606D01*
Y11191D01*
X18365Y11604D01*
X18365Y11604D01*
X18389Y11640D01*
X18398Y11683D01*
X18398Y11683D01*
Y11842D01*
X18554Y11999D01*
X18554Y11999D01*
X18579Y12036D01*
X18587Y12079D01*
Y12225D01*
X18587Y12225D01*
X18579Y12268D01*
X18554Y12304D01*
X18297Y12561D01*
Y12649D01*
X18297Y12649D01*
X18289Y12691D01*
X18264Y12728D01*
X18264Y12728D01*
X17627Y13365D01*
Y13555D01*
X17677Y13578D01*
X17724Y13546D01*
X17800Y13531D01*
X17876Y13546D01*
X17941Y13589D01*
X17984Y13654D01*
X17999Y13730D01*
X17984Y13806D01*
X17941Y13871D01*
X17917Y13886D01*
Y15695D01*
X17917Y15695D01*
X17909Y15738D01*
X17884Y15774D01*
X17884Y15774D01*
X17707Y15952D01*
X17726Y15998D01*
X17840D01*
X17840Y15998D01*
X17883Y16006D01*
X17919Y16031D01*
X19246Y17358D01*
X19280Y17351D01*
X19356Y17366D01*
X19421Y17409D01*
X19464Y17474D01*
X19479Y17550D01*
X19472Y17584D01*
X19561Y17672D01*
X19607Y17647D01*
D02*
G37*
%LPC*%
G36*
X7970Y24595D02*
X6850D01*
Y24025D01*
X7970D01*
Y24595D01*
D02*
G37*
G36*
X14110Y24585D02*
X12990D01*
Y24015D01*
X14110D01*
Y24585D01*
D02*
G37*
G36*
X7970Y25385D02*
X6850D01*
Y24815D01*
X7970D01*
Y25385D01*
D02*
G37*
G36*
X24980Y10258D02*
X24862Y10242D01*
X24751Y10196D01*
X24656Y10124D01*
X24584Y10029D01*
X24538Y9918D01*
X24522Y9800D01*
X24538Y9682D01*
X24584Y9571D01*
X24656Y9476D01*
X24751Y9404D01*
X24862Y9358D01*
X24980Y9342D01*
X25098Y9358D01*
X25209Y9404D01*
X25304Y9476D01*
X25376Y9571D01*
X25422Y9682D01*
X25438Y9800D01*
X25422Y9918D01*
X25376Y10029D01*
X25304Y10124D01*
X25209Y10196D01*
X25098Y10242D01*
X24980Y10258D01*
D02*
G37*
G36*
Y11636D02*
X24862Y11620D01*
X24751Y11574D01*
X24656Y11502D01*
X24584Y11407D01*
X24538Y11296D01*
X24522Y11178D01*
X24538Y11060D01*
X24584Y10949D01*
X24656Y10854D01*
X24751Y10782D01*
X24862Y10736D01*
X24980Y10720D01*
X25098Y10736D01*
X25209Y10782D01*
X25304Y10854D01*
X25376Y10949D01*
X25422Y11060D01*
X25438Y11178D01*
X25422Y11296D01*
X25376Y11407D01*
X25304Y11502D01*
X25209Y11574D01*
X25098Y11620D01*
X24980Y11636D01*
D02*
G37*
G36*
X11205Y20120D02*
X10535D01*
Y19000D01*
X11205D01*
Y20120D01*
D02*
G37*
G36*
X25125Y16515D02*
X24415D01*
Y15805D01*
X25125D01*
Y16515D01*
D02*
G37*
G36*
X10405Y20120D02*
X9735D01*
Y19000D01*
X10405D01*
Y20120D01*
D02*
G37*
G36*
X8845D02*
X8175D01*
Y19000D01*
X8845D01*
Y20120D01*
D02*
G37*
G36*
X9625D02*
X8955D01*
Y19000D01*
X9625D01*
Y20120D01*
D02*
G37*
G36*
X14110Y23015D02*
X12990D01*
Y22445D01*
X14110D01*
Y23015D01*
D02*
G37*
G36*
Y23805D02*
X12990D01*
Y23235D01*
X14110D01*
Y23805D01*
D02*
G37*
G36*
X14120Y22225D02*
X13000D01*
Y21655D01*
X14120D01*
Y22225D01*
D02*
G37*
G36*
X11985Y20120D02*
X11315D01*
Y19000D01*
X11985D01*
Y20120D01*
D02*
G37*
G36*
X12785D02*
X12115D01*
Y19000D01*
X12785D01*
Y20120D01*
D02*
G37*
%LPD*%
D38*
X18890Y11990D02*
X19584Y11296D01*
X18890Y11990D02*
Y14271D01*
X17820Y11564D02*
Y11580D01*
X17680Y11424D02*
X17820Y11564D01*
Y11580D02*
X17836D01*
X17841Y11584D01*
X18025Y12349D02*
X18160Y12214D01*
X18025Y12349D02*
Y12582D01*
X18475Y12079D02*
Y12225D01*
X18185Y12515D02*
X18475Y12225D01*
X18185Y12515D02*
Y12649D01*
X17770Y12480D02*
Y12591D01*
X17780Y12601D01*
X18160Y12160D02*
Y12214D01*
X17060Y12420D02*
Y12930D01*
X17515Y13319D02*
X18185Y12649D01*
X17515Y13319D02*
Y14031D01*
X17800Y13730D02*
X17805Y13735D01*
X17195Y13186D02*
Y13243D01*
Y13186D02*
X17780Y12601D01*
X17355Y13252D02*
Y13309D01*
Y13252D02*
X18025Y12582D01*
X18285Y11889D02*
X18475Y12079D01*
X18260Y12920D02*
X18320Y12860D01*
X18260Y12920D02*
Y13790D01*
X18741Y14271D01*
X18320Y12860D02*
Y12960D01*
X18270Y12910D02*
X18320Y12960D01*
X17270Y13930D02*
Y14004D01*
Y13394D02*
Y13930D01*
Y13394D02*
X17355Y13309D01*
X14758Y15681D02*
X17195Y13243D01*
X17060Y12420D02*
X17581Y11899D01*
Y11899D02*
Y11899D01*
X17435Y11752D02*
X17581Y11899D01*
X13114Y16140D02*
X17355Y11898D01*
Y11898D02*
Y11898D01*
X17275Y11818D02*
X17355Y11898D01*
X17275Y11350D02*
Y11818D01*
X16175Y15325D02*
X17325Y14175D01*
X17371D01*
X17515Y14031D01*
X16890Y15540D02*
X17560Y14870D01*
X17680Y11172D02*
Y11424D01*
X17840Y11238D02*
X18285Y11683D01*
Y11889D01*
X20025Y12869D02*
X20156Y13000D01*
X20025Y12096D02*
X20510Y11611D01*
X20025Y12096D02*
Y12869D01*
X20156Y13000D02*
X20457D01*
X20462Y13005D01*
X20798D01*
X20803Y13000D01*
X20835D01*
X20736Y12840D02*
X20754D01*
X20731Y12845D02*
X20736Y12840D01*
X20529Y12845D02*
X20731D01*
X20524Y12840D02*
X20529Y12845D01*
X20286Y12840D02*
X20524D01*
X20754D02*
X20900Y12695D01*
X20270Y12824D02*
X20286Y12840D01*
X20270Y12077D02*
Y12750D01*
Y12796D01*
X20284Y12810D01*
X20270Y12824D02*
X20284Y12810D01*
X20270Y12077D02*
X20670Y11677D01*
X20630Y11944D02*
Y12600D01*
Y11944D02*
X20830Y11744D01*
X20900Y12695D02*
X21031D01*
X20915Y12271D02*
X20940Y12296D01*
X20915Y12069D02*
Y12271D01*
X21160Y11165D02*
Y12170D01*
X21405Y10395D02*
Y12271D01*
X21195Y12481D02*
X21405Y12271D01*
X21565Y9915D02*
Y12402D01*
X21725Y9635D02*
Y12469D01*
X20841Y12980D02*
X20990D01*
X20940Y12296D02*
Y12440D01*
X21195Y12481D02*
Y12531D01*
X21031Y12695D02*
X21195Y12531D01*
X21150Y11155D02*
X21160Y11165D01*
X20390Y8740D02*
X21565Y9915D01*
X21235Y12732D02*
X21565Y12402D01*
X21395Y12799D02*
X21725Y12469D01*
X21100Y9010D02*
X21725Y9635D01*
X21310Y10300D02*
X21405Y10395D01*
X20940Y11860D02*
Y12044D01*
Y11860D02*
X20990Y11810D01*
Y10101D02*
Y11810D01*
X20830Y10167D02*
Y11744D01*
X20915Y12069D02*
X20940Y12044D01*
X21180Y13285D02*
Y15720D01*
Y13285D02*
X21235Y13230D01*
Y12732D02*
Y13230D01*
X21395Y12799D02*
Y13330D01*
X21340Y13385D02*
X21395Y13330D01*
X21340Y13385D02*
Y15440D01*
X21560Y12980D02*
X21690Y12850D01*
X21960Y11290D02*
Y13397D01*
X22430Y11350D02*
X22750Y11670D01*
X22220Y10410D02*
X23200Y9430D01*
Y8110D02*
Y9430D01*
X22920Y7830D02*
X23200Y8110D01*
X22220Y10410D02*
Y11030D01*
X21960Y11290D02*
X22220Y11030D01*
X22120Y13320D02*
X22750Y12690D01*
Y11670D02*
Y12690D01*
X21100Y8390D02*
Y9010D01*
X20650Y7830D02*
X22920D01*
X20145Y8335D02*
X20650Y7830D01*
X20145Y8335D02*
Y8841D01*
X24330Y8561D02*
Y13016D01*
X12360Y7350D02*
X23119D01*
X24170Y8627D02*
Y12950D01*
X12600Y7510D02*
X23053D01*
X24000Y8684D02*
Y12770D01*
X12810Y7670D02*
X22986D01*
X24000Y8684D01*
X23053Y7510D02*
X24170Y8627D01*
X23119Y7350D02*
X24330Y8561D01*
X9317Y11163D02*
X12810Y7670D01*
X9157Y10953D02*
X12600Y7510D01*
X10260Y9450D02*
X12360Y7350D01*
X20510Y10300D02*
Y11611D01*
X20670Y10234D02*
Y11677D01*
X17774Y9150D02*
X19548D01*
X17707Y8990D02*
X19653D01*
X17641Y8830D02*
X19719D01*
X17575Y8670D02*
X19785D01*
X18090Y9310D02*
X19482D01*
X19995Y9785D02*
X20510Y10300D01*
X19957Y9785D02*
X19995D01*
X19482Y9310D02*
X19957Y9785D01*
X20061Y9625D02*
X20670Y10234D01*
X20023Y9625D02*
X20061D01*
X19548Y9150D02*
X20023Y9625D01*
X20128Y9465D02*
X20830Y10167D01*
X20090Y9465D02*
X20128D01*
X19665Y9040D02*
X20090Y9465D01*
X19665Y9002D02*
Y9040D01*
X19653Y8990D02*
X19665Y9002D01*
X20194Y9305D02*
X20990Y10101D01*
X20156Y9305D02*
X20194D01*
X19825Y8974D02*
X20156Y9305D01*
X19825Y8936D02*
Y8974D01*
X19719Y8830D02*
X19825Y8936D01*
X20260Y9145D02*
X21150Y10035D01*
X20222Y9145D02*
X20260D01*
X19985Y8908D02*
X20222Y9145D01*
X19985Y8870D02*
Y8908D01*
X19785Y8670D02*
X19985Y8870D01*
X20326Y8985D02*
X21310Y9969D01*
X20289Y8985D02*
X20326D01*
X20145Y8841D02*
X20289Y8985D01*
X21310Y9969D02*
Y10300D01*
X21150Y10035D02*
Y11155D01*
X17840Y9560D02*
X18090Y9310D01*
X17840Y9560D02*
Y11246D01*
X17360Y9111D02*
Y10090D01*
X16950Y10500D02*
X17360Y10090D01*
X15100Y10500D02*
X16950D01*
X17520Y9177D02*
Y11105D01*
X17680Y9244D02*
Y11172D01*
X16435Y9810D02*
X17575Y8670D01*
X15540Y9810D02*
X16435D01*
X17360Y9111D02*
X17641Y8830D01*
X17520Y9177D02*
X17707Y8990D01*
X17680Y9244D02*
X17774Y9150D01*
X14050Y11300D02*
X15540Y9810D01*
X17435Y11417D02*
X17680Y11172D01*
X17275Y11350D02*
X17520Y11105D01*
X17435Y11417D02*
Y11752D01*
X14575Y11025D02*
X15100Y10500D01*
X14575Y11025D02*
Y13540D01*
X14050Y11300D02*
Y13370D01*
X18741Y14271D02*
X18890D01*
X14538Y15681D02*
X14758D01*
X21560Y12980D02*
Y15202D01*
X12630Y16140D02*
X13114D01*
X11630Y15530D02*
Y16140D01*
Y15530D02*
X13315Y13845D01*
X14270D01*
X14575Y13540D01*
X14604Y15841D02*
X14852D01*
X14461Y15984D02*
Y16232D01*
X13979Y16395D02*
X14298D01*
X13835Y16539D02*
Y17196D01*
X14298Y16395D02*
X14461Y16232D01*
X14852Y15841D02*
X15368Y15325D01*
X14301Y15918D02*
X14538Y15681D01*
X14301Y15918D02*
Y16166D01*
X14231Y16235D02*
X14301Y16166D01*
X14461Y15984D02*
X14604Y15841D01*
X13912Y16235D02*
X14231D01*
X13675Y16472D02*
X13912Y16235D01*
X13675Y16472D02*
Y16791D01*
X11956Y18510D02*
X13675Y16791D01*
X13835Y16539D02*
X13979Y16395D01*
X15368Y15325D02*
X16175D01*
X7900Y18510D02*
X11956D01*
X6745Y19665D02*
X7900Y18510D01*
X20835Y12985D02*
Y13000D01*
X16514Y14760D02*
X17270Y14004D01*
X16110Y14760D02*
X16514D01*
X25180Y18170D02*
Y19960D01*
X22140Y14136D02*
Y14190D01*
X10830Y25100D02*
X13030D01*
X23680Y18150D02*
X23911Y18381D01*
X24730D01*
X15820Y15660D02*
X16230D01*
X15140Y18492D02*
Y19190D01*
X15310Y19360D01*
X16480D01*
X17910Y17930D01*
Y17240D02*
Y17930D01*
X17370Y15680D02*
X17460D01*
X26170Y18630D02*
Y20330D01*
X23170Y19160D02*
Y20330D01*
X21491Y20075D02*
X21635Y20219D01*
Y20225D01*
X21740Y20330D01*
X22170D01*
X23010Y18520D02*
X24170Y19680D01*
Y20330D01*
X8760Y9366D02*
X8837Y9443D01*
X15753Y16280D02*
X15783Y16310D01*
X14900Y16280D02*
X15753D01*
X14706Y16086D02*
X14900Y16280D01*
X21110Y19860D02*
X21510D01*
X14080Y16640D02*
Y16650D01*
X14520Y17090D01*
Y17450D01*
X23170Y20330D02*
Y20420D01*
X24060Y21310D01*
X24280D01*
X22984Y14136D02*
X24170Y12950D01*
X22980Y13790D02*
X24000Y12770D01*
X25330Y17790D02*
X26170Y18630D01*
X24960Y17950D02*
X25180Y18170D01*
X25030Y17580D02*
X25310Y17300D01*
Y16410D02*
Y17300D01*
Y16410D02*
X25560Y16160D01*
X25770D01*
X21019Y20095D02*
X21221D01*
X21241Y20075D01*
X21491D01*
X20875Y19749D02*
X20880Y19744D01*
X20875Y19749D02*
Y19951D01*
X21019Y20095D01*
X19035Y17651D02*
X19279Y17895D01*
X19381D01*
X19280Y18140D02*
X19450Y18310D01*
X20370D01*
X19381Y17895D02*
X19606Y18120D01*
X20190D01*
X20475Y17835D01*
X17390Y16110D02*
X17840D01*
X19280Y17550D01*
X17360Y16540D02*
X18044D01*
X19035Y17531D01*
Y17651D01*
X16230Y15660D02*
X16310Y15740D01*
Y17322D01*
X15140Y18492D02*
X16310Y17322D01*
X16480Y16570D02*
X17370Y15680D01*
X16480Y16570D02*
Y17499D01*
X15484Y18494D02*
X16480Y17499D01*
X16648Y16645D02*
Y17557D01*
Y16645D02*
X16792Y16502D01*
X16998D01*
X17330Y16170D01*
X16480Y17725D02*
X16648Y17557D01*
X16480Y17725D02*
Y18800D01*
X16550Y18870D01*
X22140Y14136D02*
X22984D01*
X21145Y17685D02*
X21150Y17680D01*
X21021Y17685D02*
X21145D01*
X23010Y18070D02*
X23030Y18050D01*
X23010Y18070D02*
Y18520D01*
X21510Y19860D02*
X22510Y18860D01*
X23309Y17580D02*
X25030D01*
X23630Y18200D02*
X23680Y18150D01*
X21640Y17680D02*
X21675Y17715D01*
Y17758D01*
X21967Y18050D01*
X21906Y18215D02*
X22225D01*
X23170Y19160D01*
X21835Y17649D02*
Y17691D01*
X22034Y17890D01*
X21967Y18050D02*
X22785D01*
X22034Y17890D02*
X22667D01*
X23030Y18050D02*
Y18100D01*
X20370Y18310D02*
X20720Y17960D01*
X20880Y17826D02*
Y19744D01*
Y17826D02*
X21021Y17685D01*
X21270Y18070D02*
X21481D01*
X21561Y17990D01*
X21681D01*
X21906Y18215D01*
X20720Y17760D02*
Y17960D01*
X19280Y17550D02*
X19690Y17960D01*
X20124D01*
X20230Y17854D01*
Y17654D02*
Y17854D01*
Y17654D02*
X21024Y16860D01*
X19790Y17620D02*
X20710Y16700D01*
X23343Y17790D02*
X25330D01*
X23334Y17781D02*
X23343Y17790D01*
X23292Y18050D02*
X23392Y17950D01*
X24960D01*
X22785Y17999D02*
Y18050D01*
Y17999D02*
X22929Y17855D01*
X23131D01*
X23275Y17999D01*
Y18050D01*
X23292D01*
X22667Y17890D02*
X22862Y17695D01*
X23198D01*
X23309Y17806D01*
X23334Y17781D01*
X22210Y17730D02*
X22601D01*
X22796Y17535D01*
X23264D01*
X23309Y17580D01*
X22395Y15675D02*
X22671D01*
X21180Y15720D02*
X21990Y16530D01*
X22390Y17030D02*
X22460D01*
X22444Y16630D02*
X22470D01*
X20475Y17742D02*
Y17756D01*
Y17742D02*
X21192Y17025D01*
X22356Y16700D02*
X22365Y16709D01*
X22444Y16630D01*
X21990Y16530D02*
X22060Y16460D01*
X22115Y16215D02*
X22355D01*
X22310Y17400D02*
X22705D01*
X22730Y17375D01*
X24425D01*
X24430Y17370D01*
X22645Y14590D02*
X22939Y14296D01*
X23050D01*
X24330Y13016D01*
X10260Y9450D02*
Y9624D01*
X8997Y10887D02*
X10260Y9624D01*
X10780Y25860D02*
X12900D01*
X8040Y23120D02*
X10780Y25860D01*
X6890Y23120D02*
X8040D01*
X8837Y9443D02*
Y14150D01*
X8997Y13964D02*
X9082Y14049D01*
Y14251D01*
X9157Y13897D02*
X9242Y13982D01*
Y14318D01*
X9317Y11163D02*
Y13831D01*
X9402Y13916D01*
Y14384D01*
X8997Y10887D02*
Y13964D01*
X9157Y10953D02*
Y13897D01*
X8920Y14866D02*
X9402Y14384D01*
X8760Y14800D02*
X9242Y14318D01*
X8600Y14733D02*
X9082Y14251D01*
X8090Y22360D02*
X10830Y25100D01*
X6780Y22360D02*
X8090D01*
X6410Y22640D02*
X6890Y23120D01*
X6250Y25400D02*
X6780Y25930D01*
X6570Y22150D02*
X6780Y22360D01*
X6250Y19287D02*
X7871Y17666D01*
X7878D01*
X6410Y19354D02*
X7938Y17826D01*
X7945D01*
X6570Y19420D02*
X8004Y17986D01*
X8011D01*
X8920Y17077D01*
X7945Y17826D02*
X8760Y17011D01*
Y14800D02*
Y17011D01*
X7878Y17666D02*
X8600Y16944D01*
Y14733D02*
Y16944D01*
X8920Y14866D02*
Y17077D01*
X6250Y19287D02*
Y25400D01*
X6410Y19354D02*
Y22640D01*
X6570Y19420D02*
Y22150D01*
X6745Y19665D02*
Y20875D01*
X7040Y21170D01*
X7410D01*
X15820Y15660D02*
X15940Y15540D01*
X16890D01*
X13835Y17196D02*
X14360Y17721D01*
Y20890D01*
X14100Y21150D02*
X14360Y20890D01*
X13570Y21150D02*
X14100D01*
X13560Y21160D02*
X13570Y21150D01*
X17805Y13735D02*
Y15695D01*
X17330Y16170D02*
X17390Y16110D01*
X17805Y15695D01*
X23364Y15470D02*
X23800Y15906D01*
Y16250D01*
X23742Y16308D02*
X23800Y16250D01*
X20720Y17760D02*
X20865Y17615D01*
Y17579D02*
Y17615D01*
Y17579D02*
X21009Y17435D01*
X21110Y17680D02*
X21150D01*
X21340Y15440D02*
X22115Y16215D01*
X22290Y16860D02*
X22460Y17030D01*
X22570Y15920D02*
X22625Y15975D01*
Y16381D02*
X22769Y16525D01*
X22971D01*
X22671Y15675D02*
X22870Y15874D01*
X21760Y17280D02*
X22210Y17730D01*
X21009Y17435D02*
X21571D01*
X21656Y17520D01*
X21706D01*
X21835Y17649D01*
X21760Y17270D02*
Y17280D01*
X21192Y17025D02*
X21935D01*
X22310Y17400D01*
X21024Y16860D02*
X21917D01*
X21922Y16865D01*
X22258D01*
X22263Y16860D01*
X22290D01*
X20710Y16700D02*
X21984D01*
X21989Y16705D01*
X22191D01*
X22196Y16700D01*
X22356D01*
X22060Y16460D02*
X22090D01*
X22971Y16525D02*
X23115Y16381D01*
Y15395D02*
Y16381D01*
X22870Y15874D02*
Y16280D01*
X22625Y15975D02*
Y16381D01*
X22355Y16215D02*
X22360Y16220D01*
X22118Y15760D02*
X22130D01*
X22120Y15400D02*
X22395Y15675D01*
X22544Y14835D02*
X22555D01*
X23115Y15395D01*
X22105Y14595D02*
X22240Y14730D01*
X21972Y14595D02*
X22105D01*
X21735Y14358D02*
X21972Y14595D01*
X21735Y13622D02*
Y14358D01*
Y13622D02*
X21960Y13397D01*
X22140Y13790D02*
X22980D01*
X22120Y13320D02*
Y13464D01*
X21895Y13689D02*
X22120Y13464D01*
X21895Y13689D02*
Y14291D01*
X22039Y14435D01*
X22171D01*
X22400Y14664D01*
X21560Y15202D02*
X22118Y15760D01*
X22120Y15230D02*
Y15400D01*
X22400Y14691D02*
X22544Y14835D01*
X22400Y14664D02*
Y14691D01*
X22240Y14730D02*
Y14758D01*
X22100Y15230D02*
X22120D01*
X22100D02*
X22270Y15060D01*
X22240Y14758D02*
X22270Y14787D01*
Y15060D01*
X18890Y14271D02*
X19390Y14771D01*
X19890Y15271D01*
D39*
X17560Y14846D02*
Y14870D01*
X14050Y13370D02*
X14090Y13410D01*
X12900Y25860D02*
X12920Y25880D01*
X13550D01*
X13030Y25100D02*
X13550D01*
X22140Y13790D02*
X22150D01*
X17560Y14846D02*
X17578Y14828D01*
X17910Y17170D02*
Y17240D01*
Y17170D02*
X18020Y17060D01*
X16893Y16747D02*
X17267Y17120D01*
X17476D02*
X17495Y17139D01*
X17267Y17120D02*
X17476D01*
X25180Y19960D02*
Y20320D01*
X25170Y20330D02*
X25180Y20320D01*
X21110Y19860D02*
X21120Y19850D01*
X20475Y17756D02*
Y17835D01*
X19790Y17620D02*
X19800D01*
X22150Y15780D02*
Y15820D01*
X22540Y15920D02*
X22570D01*
X24430Y17370D02*
X24560D01*
X24770Y17160D01*
X6780Y25930D02*
X7360D01*
X7410Y25880D01*
X21470Y17680D02*
X21640D01*
X22870Y16120D02*
Y16280D01*
X22130Y15760D02*
X22150Y15780D01*
D45*
X11630Y16140D02*
D03*
X24770Y16160D02*
D03*
X22170Y20330D02*
D03*
D46*
X12630Y16140D02*
D03*
X25770Y17160D02*
D03*
Y16160D02*
D03*
X24770Y17160D02*
D03*
X26170Y20330D02*
D03*
X25170D02*
D03*
X24170D02*
D03*
X23170D02*
D03*
D47*
X7410Y21170D02*
D03*
X13560Y20370D02*
D03*
X7410Y25880D02*
D03*
Y25100D02*
D03*
Y24310D02*
D03*
Y23530D02*
D03*
Y22730D02*
D03*
Y21950D02*
D03*
Y20380D02*
D03*
X13560Y21160D02*
D03*
Y21940D02*
D03*
X13550Y22730D02*
D03*
Y23520D02*
D03*
Y24300D02*
D03*
Y25100D02*
D03*
Y25880D02*
D03*
D48*
X8510Y19560D02*
D03*
X9290D02*
D03*
X10070D02*
D03*
X10870D02*
D03*
X11650D02*
D03*
X12450D02*
D03*
D49*
X24980Y12556D02*
D03*
Y11178D02*
D03*
Y9800D02*
D03*
D50*
X14090Y13410D02*
D03*
D51*
X19390Y26820D02*
D03*
Y26320D02*
D03*
Y25820D02*
D03*
Y25320D02*
D03*
Y24820D02*
D03*
Y24320D02*
D03*
Y23820D02*
D03*
Y23320D02*
D03*
Y22820D02*
D03*
Y22320D02*
D03*
Y21820D02*
D03*
Y21320D02*
D03*
Y20820D02*
D03*
Y20320D02*
D03*
Y19820D02*
D03*
Y19320D02*
D03*
X19890Y20320D02*
D03*
Y20820D02*
D03*
Y21320D02*
D03*
Y21820D02*
D03*
Y22320D02*
D03*
Y22820D02*
D03*
Y23320D02*
D03*
Y23820D02*
D03*
Y24320D02*
D03*
Y24820D02*
D03*
Y25320D02*
D03*
Y25820D02*
D03*
Y26320D02*
D03*
Y26820D02*
D03*
X20390D02*
D03*
X20890D02*
D03*
X21390D02*
D03*
X21890D02*
D03*
X22390D02*
D03*
X22890D02*
D03*
X23390D02*
D03*
X23890D02*
D03*
X24390D02*
D03*
Y26320D02*
D03*
X23890D02*
D03*
X23390D02*
D03*
X22890D02*
D03*
X22390D02*
D03*
X21890D02*
D03*
X21390D02*
D03*
X20890D02*
D03*
X20390D02*
D03*
Y25820D02*
D03*
X20890D02*
D03*
X21390D02*
D03*
X21890D02*
D03*
X22390D02*
D03*
X22890D02*
D03*
X23390D02*
D03*
X23890D02*
D03*
X24390D02*
D03*
Y25320D02*
D03*
X23890D02*
D03*
X23390D02*
D03*
X22890D02*
D03*
X22390D02*
D03*
X21890D02*
D03*
X21390D02*
D03*
X20890D02*
D03*
X20390D02*
D03*
Y24820D02*
D03*
X21390D02*
D03*
X20890D02*
D03*
X21890D02*
D03*
X22390D02*
D03*
X22890D02*
D03*
X23390D02*
D03*
X23890D02*
D03*
X24390D02*
D03*
X20390Y24320D02*
D03*
X20890D02*
D03*
X21390D02*
D03*
X21890D02*
D03*
X22390D02*
D03*
X22890D02*
D03*
X20390Y23820D02*
D03*
X20890D02*
D03*
X21390D02*
D03*
X21890D02*
D03*
X22390D02*
D03*
X22890D02*
D03*
X20390Y23320D02*
D03*
X20890D02*
D03*
X21390D02*
D03*
X20390Y22820D02*
D03*
X20890D02*
D03*
X21390D02*
D03*
X21890D02*
D03*
X20390Y22320D02*
D03*
X20890D02*
D03*
X21390D02*
D03*
X21890D02*
D03*
X20390Y21820D02*
D03*
X20890D02*
D03*
X21390D02*
D03*
X21890D02*
D03*
X20390Y21320D02*
D03*
X20890D02*
D03*
X21390D02*
D03*
X21890D02*
D03*
X20390Y20820D02*
D03*
X20890D02*
D03*
X21390D02*
D03*
X20390Y20320D02*
D03*
X20890D02*
D03*
X21390D02*
D03*
X24390Y24320D02*
D03*
X16390Y26820D02*
D03*
Y26320D02*
D03*
Y25820D02*
D03*
Y25320D02*
D03*
Y24820D02*
D03*
Y24320D02*
D03*
X16890D02*
D03*
X17390D02*
D03*
X17890D02*
D03*
Y23820D02*
D03*
Y23320D02*
D03*
Y22820D02*
D03*
Y22320D02*
D03*
Y21820D02*
D03*
Y21320D02*
D03*
Y20820D02*
D03*
Y20320D02*
D03*
Y19820D02*
D03*
Y19320D02*
D03*
Y18820D02*
D03*
Y18320D02*
D03*
X17390Y18820D02*
D03*
Y19320D02*
D03*
Y19820D02*
D03*
Y20320D02*
D03*
X17398Y20757D02*
D03*
X17390Y21320D02*
D03*
Y21820D02*
D03*
Y22320D02*
D03*
Y22820D02*
D03*
Y23320D02*
D03*
Y23820D02*
D03*
X16890D02*
D03*
Y23320D02*
D03*
Y22820D02*
D03*
Y22320D02*
D03*
Y21820D02*
D03*
Y21320D02*
D03*
Y20820D02*
D03*
Y20320D02*
D03*
Y19820D02*
D03*
Y19320D02*
D03*
X15890Y26320D02*
D03*
Y25820D02*
D03*
Y25320D02*
D03*
Y24820D02*
D03*
Y24320D02*
D03*
Y23820D02*
D03*
Y23320D02*
D03*
Y22820D02*
D03*
Y22320D02*
D03*
Y21820D02*
D03*
Y21320D02*
D03*
Y20820D02*
D03*
Y20320D02*
D03*
X16390Y23820D02*
D03*
Y23320D02*
D03*
Y22820D02*
D03*
Y22320D02*
D03*
Y21820D02*
D03*
Y21320D02*
D03*
Y20820D02*
D03*
Y20320D02*
D03*
Y19820D02*
D03*
X15390Y20820D02*
D03*
Y21320D02*
D03*
Y21820D02*
D03*
Y22320D02*
D03*
Y22820D02*
D03*
Y23320D02*
D03*
Y23820D02*
D03*
Y24320D02*
D03*
Y24820D02*
D03*
Y25320D02*
D03*
Y25820D02*
D03*
X18140Y24070D02*
D03*
Y23570D02*
D03*
Y23070D02*
D03*
X19140Y26070D02*
D03*
Y25570D02*
D03*
Y25070D02*
D03*
Y24570D02*
D03*
Y24070D02*
D03*
Y23570D02*
D03*
Y23070D02*
D03*
Y22570D02*
D03*
Y22070D02*
D03*
Y21570D02*
D03*
Y21070D02*
D03*
Y20570D02*
D03*
Y20070D02*
D03*
Y19570D02*
D03*
Y19070D02*
D03*
Y18570D02*
D03*
X18140D02*
D03*
Y19070D02*
D03*
Y19570D02*
D03*
Y20070D02*
D03*
X19584Y11296D02*
D03*
X17820Y11580D02*
D03*
X17770Y12480D02*
D03*
X18160Y12160D02*
D03*
X17060Y12930D02*
D03*
X17800Y13730D02*
D03*
X18270Y12910D02*
D03*
X17270Y13930D02*
D03*
X17560Y14870D02*
D03*
X20270Y12750D02*
D03*
X20630Y12600D02*
D03*
X21160Y12170D02*
D03*
X20990Y12980D02*
D03*
X20940Y12440D02*
D03*
X21690Y12850D02*
D03*
X16110Y14760D02*
D03*
X7777Y17106D02*
D03*
Y17421D02*
D03*
X19890Y16271D02*
D03*
X20390D02*
D03*
X18890D02*
D03*
X19390D02*
D03*
X20890D02*
D03*
X20390Y15771D02*
D03*
X18890D02*
D03*
X19390D02*
D03*
X19890D02*
D03*
X20890D02*
D03*
X20390Y15271D02*
D03*
X18890D02*
D03*
X19390D02*
D03*
X19890D02*
D03*
X20890D02*
D03*
X20390Y14771D02*
D03*
X18890D02*
D03*
X19390D02*
D03*
X19890D02*
D03*
X20890D02*
D03*
Y14271D02*
D03*
X19890D02*
D03*
X19390D02*
D03*
X18890D02*
D03*
X20390D02*
D03*
X22140Y14190D02*
D03*
Y13790D02*
D03*
X24730Y18381D02*
D03*
X15820Y15660D02*
D03*
X18020Y17060D02*
D03*
X15484Y18494D02*
D03*
X17460Y15680D02*
D03*
X16893Y16747D02*
D03*
X17495Y17139D02*
D03*
X8760Y9366D02*
D03*
X8837Y14150D02*
D03*
X15783Y16310D02*
D03*
X14706Y16086D02*
D03*
X21120Y19850D02*
D03*
X14080Y16640D02*
D03*
X14520Y17450D02*
D03*
X24280Y21310D02*
D03*
X17330Y16170D02*
D03*
X20390Y8740D02*
D03*
X21100Y8390D02*
D03*
X17360Y16540D02*
D03*
X20475Y17756D02*
D03*
X19280Y17550D02*
D03*
Y18140D02*
D03*
X22430Y11350D02*
D03*
X16550Y18870D02*
D03*
X21270Y18070D02*
D03*
X22510Y18860D02*
D03*
X23630Y18200D02*
D03*
X23030Y18100D02*
D03*
X19800Y17620D02*
D03*
X22570Y15920D02*
D03*
X22470Y16630D02*
D03*
X22390Y17030D02*
D03*
X22645Y14590D02*
D03*
X23364Y15470D02*
D03*
X23742Y16308D02*
D03*
X21110Y17680D02*
D03*
X21470D02*
D03*
X21760Y17270D02*
D03*
X22090Y16460D02*
D03*
X22870Y16280D02*
D03*
X22360Y16220D02*
D03*
X22130Y15760D02*
D03*
X22120Y15230D02*
D03*
D52*
X24600Y7910D02*
D03*
X8400Y7730D02*
D03*
X6650Y28110D02*
D03*
X25440Y25120D02*
D03*
M02*
