G04 Layer_Color=32896*
%FSLAX24Y24*%
%MOIN*%
G70*
G01*
G75*
G36*
X14839Y11972D02*
X14721D01*
Y12107D01*
X14839D01*
Y11972D01*
D02*
G37*
G36*
X17229Y11854D02*
X17259Y11849D01*
X17286Y11842D01*
X17310Y11834D01*
X17330Y11826D01*
X17337Y11822D01*
X17344Y11818D01*
X17349Y11814D01*
X17352Y11813D01*
X17355Y11811D01*
X17356D01*
X17380Y11792D01*
X17401Y11771D01*
X17419Y11749D01*
X17434Y11728D01*
X17445Y11709D01*
X17450Y11702D01*
X17454Y11694D01*
X17456Y11688D01*
X17459Y11684D01*
X17460Y11682D01*
Y11681D01*
X17472Y11648D01*
X17481Y11617D01*
X17487Y11586D01*
X17491Y11557D01*
X17494Y11544D01*
Y11533D01*
X17495Y11523D01*
X17496Y11514D01*
Y11507D01*
Y11502D01*
Y11498D01*
Y11497D01*
X17495Y11471D01*
X17493Y11444D01*
X17489Y11421D01*
X17484Y11397D01*
X17478Y11374D01*
X17471Y11354D01*
X17464Y11336D01*
X17456Y11318D01*
X17450Y11303D01*
X17443Y11288D01*
X17436Y11277D01*
X17430Y11267D01*
X17425Y11258D01*
X17421Y11253D01*
X17419Y11249D01*
X17418Y11248D01*
X17402Y11231D01*
X17385Y11214D01*
X17368Y11201D01*
X17350Y11189D01*
X17331Y11179D01*
X17313Y11171D01*
X17294Y11164D01*
X17276Y11158D01*
X17260Y11154D01*
X17245Y11151D01*
X17231Y11149D01*
X17219Y11147D01*
X17209D01*
X17201Y11146D01*
X17195D01*
X17174Y11147D01*
X17154Y11149D01*
X17135Y11154D01*
X17116Y11159D01*
X17084Y11174D01*
X17069Y11183D01*
X17055Y11192D01*
X17044Y11199D01*
X17033Y11208D01*
X17024Y11216D01*
X17016Y11223D01*
X17010Y11228D01*
X17006Y11233D01*
X17004Y11236D01*
X17003Y11237D01*
Y11217D01*
Y11198D01*
Y11181D01*
X17004Y11166D01*
Y11152D01*
X17005Y11139D01*
Y11128D01*
X17006Y11119D01*
X17007Y11111D01*
Y11104D01*
X17010Y11094D01*
X17011Y11088D01*
Y11087D01*
X17018Y11066D01*
X17027Y11048D01*
X17036Y11032D01*
X17046Y11019D01*
X17056Y11009D01*
X17064Y11002D01*
X17069Y10997D01*
X17071Y10996D01*
X17090Y10984D01*
X17110Y10976D01*
X17131Y10971D01*
X17151Y10966D01*
X17170Y10963D01*
X17184Y10962D01*
X17198D01*
X17225Y10963D01*
X17249Y10967D01*
X17269Y10973D01*
X17286Y10979D01*
X17300Y10984D01*
X17310Y10991D01*
X17315Y10994D01*
X17318Y10996D01*
X17329Y11006D01*
X17337Y11018D01*
X17345Y11031D01*
X17350Y11044D01*
X17354Y11056D01*
X17356Y11064D01*
X17357Y11071D01*
Y11073D01*
X17472Y11089D01*
Y11069D01*
X17470Y11049D01*
X17466Y11032D01*
X17463Y11016D01*
X17456Y11001D01*
X17450Y10987D01*
X17444Y10974D01*
X17436Y10963D01*
X17430Y10953D01*
X17422Y10944D01*
X17416Y10937D01*
X17410Y10931D01*
X17406Y10927D01*
X17402Y10923D01*
X17400Y10922D01*
X17399Y10921D01*
X17384Y10911D01*
X17368Y10902D01*
X17335Y10888D01*
X17301Y10878D01*
X17269Y10872D01*
X17254Y10869D01*
X17241Y10867D01*
X17229Y10866D01*
X17218D01*
X17210Y10864D01*
X17198D01*
X17160Y10866D01*
X17125Y10871D01*
X17095Y10877D01*
X17070Y10884D01*
X17059Y10888D01*
X17049Y10892D01*
X17041Y10896D01*
X17034Y10898D01*
X17029Y10901D01*
X17025Y10903D01*
X17023Y10904D01*
X17021D01*
X16996Y10921D01*
X16974Y10938D01*
X16956Y10956D01*
X16941Y10973D01*
X16930Y10988D01*
X16923Y11001D01*
X16920Y11006D01*
X16918Y11009D01*
X16916Y11011D01*
Y11012D01*
X16910Y11026D01*
X16905Y11041D01*
X16900Y11058D01*
X16896Y11076D01*
X16891Y11114D01*
X16886Y11152D01*
X16885Y11169D01*
X16884Y11186D01*
Y11201D01*
X16882Y11214D01*
Y11226D01*
Y11233D01*
Y11239D01*
Y11241D01*
Y11842D01*
X16991D01*
Y11756D01*
X17006Y11773D01*
X17023Y11789D01*
X17040Y11803D01*
X17056Y11814D01*
X17074Y11824D01*
X17091Y11832D01*
X17107Y11839D01*
X17122Y11844D01*
X17138Y11848D01*
X17151Y11852D01*
X17164Y11854D01*
X17174Y11856D01*
X17183D01*
X17190Y11857D01*
X17195D01*
X17229Y11854D01*
D02*
G37*
G36*
X16414Y11856D02*
X16437Y11852D01*
X16458Y11847D01*
X16476Y11842D01*
X16491Y11836D01*
X16502Y11831D01*
X16510Y11827D01*
X16511Y11826D01*
X16513D01*
X16531Y11813D01*
X16549Y11799D01*
X16564Y11786D01*
X16576Y11773D01*
X16586Y11761D01*
X16594Y11752D01*
X16599Y11746D01*
X16600Y11743D01*
Y11842D01*
X16705D01*
Y11146D01*
X16588D01*
Y11506D01*
X16586Y11539D01*
X16585Y11568D01*
X16581Y11593D01*
X16578Y11614D01*
X16575Y11629D01*
X16571Y11642D01*
X16570Y11648D01*
X16569Y11651D01*
X16560Y11668D01*
X16550Y11684D01*
X16540Y11698D01*
X16530Y11708D01*
X16521Y11717D01*
X16514Y11723D01*
X16508Y11727D01*
X16506Y11728D01*
X16490Y11737D01*
X16474Y11743D01*
X16459Y11748D01*
X16444Y11751D01*
X16431Y11753D01*
X16422Y11754D01*
X16414D01*
X16391Y11753D01*
X16371Y11748D01*
X16355Y11742D01*
X16343Y11734D01*
X16332Y11727D01*
X16325Y11721D01*
X16321Y11716D01*
X16320Y11714D01*
X16310Y11698D01*
X16304Y11679D01*
X16299Y11661D01*
X16295Y11641D01*
X16293Y11624D01*
X16291Y11609D01*
Y11604D01*
Y11601D01*
Y11598D01*
Y11597D01*
Y11146D01*
X16174D01*
Y11549D01*
Y11568D01*
X16171Y11587D01*
X16169Y11603D01*
X16166Y11618D01*
X16163Y11632D01*
X16159Y11646D01*
X16154Y11657D01*
X16149Y11667D01*
X16140Y11683D01*
X16133Y11696D01*
X16128Y11702D01*
X16125Y11704D01*
X16106Y11721D01*
X16085Y11733D01*
X16065Y11742D01*
X16045Y11748D01*
X16027Y11752D01*
X16014Y11753D01*
X16009Y11754D01*
X16001D01*
X15986Y11753D01*
X15974Y11752D01*
X15961Y11748D01*
X15951Y11744D01*
X15942Y11741D01*
X15936Y11738D01*
X15933Y11736D01*
X15931Y11734D01*
X15920Y11727D01*
X15911Y11718D01*
X15904Y11711D01*
X15899Y11702D01*
X15894Y11696D01*
X15891Y11689D01*
X15889Y11686D01*
Y11684D01*
X15885Y11671D01*
X15883Y11656D01*
X15880Y11638D01*
X15879Y11622D01*
X15877Y11607D01*
Y11594D01*
Y11589D01*
Y11586D01*
Y11584D01*
Y11583D01*
Y11146D01*
X15760D01*
Y11622D01*
Y11643D01*
X15762Y11664D01*
X15765Y11683D01*
X15769Y11701D01*
X15773Y11717D01*
X15777Y11731D01*
X15783Y11744D01*
X15788Y11756D01*
X15794Y11766D01*
X15799Y11774D01*
X15804Y11782D01*
X15807Y11788D01*
X15811Y11793D01*
X15814Y11797D01*
X15815Y11798D01*
X15816Y11799D01*
X15827Y11809D01*
X15839Y11818D01*
X15865Y11833D01*
X15891Y11843D01*
X15916Y11849D01*
X15940Y11854D01*
X15950Y11856D01*
X15959D01*
X15966Y11857D01*
X15976D01*
X16000Y11856D01*
X16024Y11852D01*
X16045Y11846D01*
X16066Y11838D01*
X16085Y11828D01*
X16102Y11818D01*
X16119Y11807D01*
X16134Y11796D01*
X16146Y11784D01*
X16157Y11773D01*
X16168Y11763D01*
X16176Y11753D01*
X16183Y11746D01*
X16187Y11739D01*
X16190Y11736D01*
X16191Y11734D01*
X16200Y11754D01*
X16211Y11773D01*
X16222Y11788D01*
X16235Y11801D01*
X16245Y11811D01*
X16254Y11818D01*
X16260Y11823D01*
X16263Y11824D01*
X16283Y11836D01*
X16302Y11843D01*
X16324Y11849D01*
X16344Y11853D01*
X16361Y11856D01*
X16376Y11857D01*
X16389D01*
X16414Y11856D01*
D02*
G37*
G36*
X10577Y12777D02*
X10511D01*
X10512Y12756D01*
X10515Y12739D01*
X10517Y12724D01*
X10521Y12710D01*
X10525Y12700D01*
X10529Y12694D01*
X10530Y12689D01*
X10531Y12687D01*
X10539Y12676D01*
X10547Y12666D01*
X10556Y12657D01*
X10565Y12650D01*
X10573Y12645D01*
X10579Y12641D01*
X10584Y12639D01*
X10585Y12637D01*
X10553Y12587D01*
X10532Y12597D01*
X10516Y12609D01*
X10501Y12621D01*
X10490Y12632D01*
X10481Y12642D01*
X10475Y12651D01*
X10471Y12656D01*
X10470Y12659D01*
X10461Y12676D01*
X10454Y12696D01*
X10449Y12716D01*
X10446Y12735D01*
X10444Y12751D01*
X10443Y12765D01*
Y12770D01*
Y12774D01*
Y12776D01*
Y12777D01*
Y12912D01*
X10577D01*
Y12777D01*
D02*
G37*
G36*
X6326D02*
X6260D01*
X6261Y12756D01*
X6264Y12739D01*
X6266Y12724D01*
X6270Y12710D01*
X6274Y12700D01*
X6277Y12694D01*
X6279Y12689D01*
X6280Y12687D01*
X6288Y12676D01*
X6296Y12666D01*
X6305Y12657D01*
X6314Y12651D01*
X6321Y12646D01*
X6327Y12641D01*
X6332Y12640D01*
X6334Y12639D01*
X6301Y12587D01*
X6281Y12597D01*
X6265Y12609D01*
X6250Y12621D01*
X6239Y12632D01*
X6230Y12642D01*
X6224Y12651D01*
X6220Y12656D01*
X6219Y12659D01*
X6210Y12676D01*
X6202Y12696D01*
X6198Y12716D01*
X6195Y12735D01*
X6192Y12751D01*
X6191Y12765D01*
Y12770D01*
Y12774D01*
Y12776D01*
Y12777D01*
Y12912D01*
X6326D01*
Y12777D01*
D02*
G37*
G36*
X24550Y12296D02*
X24188D01*
Y12415D01*
X24550D01*
Y12296D01*
D02*
G37*
G36*
X24462Y12013D02*
Y11842D01*
X24550D01*
Y11751D01*
X24462D01*
Y11349D01*
Y11331D01*
X24461Y11313D01*
Y11297D01*
X24460Y11283D01*
X24459Y11269D01*
X24457Y11258D01*
X24456Y11248D01*
X24455Y11239D01*
X24453Y11226D01*
X24451Y11217D01*
X24449Y11211D01*
Y11209D01*
X24443Y11198D01*
X24435Y11188D01*
X24426Y11178D01*
X24418Y11171D01*
X24410Y11164D01*
X24405Y11161D01*
X24400Y11158D01*
X24399Y11157D01*
X24385Y11151D01*
X24369Y11146D01*
X24353Y11142D01*
X24336Y11139D01*
X24323Y11138D01*
X24310Y11137D01*
X24300D01*
X24269Y11138D01*
X24254Y11141D01*
X24240Y11142D01*
X24227Y11144D01*
X24219Y11146D01*
X24213Y11147D01*
X24210D01*
X24226Y11251D01*
X24237Y11249D01*
X24248Y11248D01*
X24258D01*
X24265Y11247D01*
X24279D01*
X24296Y11248D01*
X24309Y11251D01*
X24314Y11252D01*
X24318Y11253D01*
X24319Y11254D01*
X24320D01*
X24329Y11262D01*
X24335Y11269D01*
X24339Y11274D01*
X24340Y11277D01*
X24341Y11284D01*
X24343Y11293D01*
X24344Y11304D01*
Y11316D01*
X24345Y11326D01*
Y11334D01*
Y11341D01*
Y11343D01*
Y11751D01*
X24226D01*
Y11842D01*
X24345D01*
Y12084D01*
X24462Y12013D01*
D02*
G37*
G36*
X19561Y11411D02*
Y11384D01*
X19560Y11362D01*
X19559Y11343D01*
X19557Y11328D01*
Y11316D01*
X19556Y11307D01*
X19555Y11302D01*
Y11301D01*
X19550Y11282D01*
X19545Y11264D01*
X19539Y11249D01*
X19533Y11237D01*
X19527Y11226D01*
X19523Y11218D01*
X19520Y11213D01*
X19519Y11212D01*
X19507Y11199D01*
X19495Y11188D01*
X19481Y11178D01*
X19469Y11169D01*
X19457Y11163D01*
X19447Y11157D01*
X19441Y11154D01*
X19439Y11153D01*
X19419Y11146D01*
X19397Y11141D01*
X19379Y11136D01*
X19361Y11133D01*
X19346Y11132D01*
X19334Y11131D01*
X19324D01*
X19299Y11132D01*
X19274Y11136D01*
X19251Y11142D01*
X19230Y11149D01*
X19211Y11158D01*
X19193Y11168D01*
X19176Y11178D01*
X19161Y11189D01*
X19147Y11201D01*
X19136Y11211D01*
X19126Y11221D01*
X19117Y11229D01*
X19111Y11237D01*
X19106Y11243D01*
X19104Y11247D01*
X19102Y11248D01*
Y11146D01*
X18997D01*
Y11842D01*
X19115D01*
Y11468D01*
X19116Y11437D01*
X19117Y11409D01*
X19121Y11386D01*
X19125Y11367D01*
X19129Y11352D01*
X19131Y11341D01*
X19134Y11334D01*
X19135Y11332D01*
X19144Y11316D01*
X19154Y11301D01*
X19164Y11288D01*
X19175Y11278D01*
X19185Y11269D01*
X19194Y11263D01*
X19199Y11259D01*
X19201Y11258D01*
X19219Y11249D01*
X19236Y11243D01*
X19254Y11238D01*
X19269Y11236D01*
X19281Y11233D01*
X19293Y11232D01*
X19301D01*
X19320Y11233D01*
X19338Y11236D01*
X19353Y11241D01*
X19365Y11246D01*
X19376Y11249D01*
X19384Y11254D01*
X19389Y11257D01*
X19390Y11258D01*
X19403Y11269D01*
X19412Y11281D01*
X19421Y11293D01*
X19427Y11304D01*
X19432Y11314D01*
X19435Y11323D01*
X19438Y11328D01*
Y11331D01*
X19439Y11337D01*
X19440Y11346D01*
X19441Y11364D01*
X19442Y11384D01*
Y11406D01*
X19444Y11424D01*
Y11433D01*
Y11441D01*
Y11447D01*
Y11452D01*
Y11454D01*
Y11456D01*
Y11842D01*
X19561D01*
Y11411D01*
D02*
G37*
G36*
X23853Y11856D02*
X23877Y11853D01*
X23901Y11848D01*
X23924Y11842D01*
X23944Y11834D01*
X23964Y11826D01*
X23981Y11817D01*
X23997Y11808D01*
X24011Y11799D01*
X24024Y11791D01*
X24035Y11782D01*
X24044Y11774D01*
X24051Y11768D01*
X24056Y11763D01*
X24059Y11761D01*
X24060Y11759D01*
X24076Y11741D01*
X24090Y11721D01*
X24101Y11698D01*
X24113Y11676D01*
X24121Y11653D01*
X24128Y11631D01*
X24134Y11608D01*
X24139Y11587D01*
X24142Y11567D01*
X24145Y11548D01*
X24148Y11531D01*
X24149Y11516D01*
Y11504D01*
X24150Y11494D01*
Y11489D01*
Y11487D01*
X24149Y11456D01*
X24146Y11427D01*
X24141Y11401D01*
X24136Y11374D01*
X24130Y11352D01*
X24123Y11329D01*
X24114Y11311D01*
X24105Y11292D01*
X24097Y11277D01*
X24089Y11263D01*
X24081Y11252D01*
X24075Y11242D01*
X24070Y11234D01*
X24065Y11229D01*
X24062Y11226D01*
X24061Y11224D01*
X24044Y11208D01*
X24025Y11193D01*
X24005Y11181D01*
X23985Y11171D01*
X23965Y11161D01*
X23945Y11153D01*
X23925Y11147D01*
X23906Y11142D01*
X23889Y11138D01*
X23871Y11136D01*
X23856Y11133D01*
X23844Y11132D01*
X23834D01*
X23825Y11131D01*
X23819D01*
X23796Y11132D01*
X23775Y11133D01*
X23736Y11139D01*
X23719Y11144D01*
X23702Y11149D01*
X23688Y11154D01*
X23674Y11161D01*
X23661Y11166D01*
X23651Y11171D01*
X23641Y11176D01*
X23634Y11181D01*
X23628Y11184D01*
X23624Y11187D01*
X23621Y11189D01*
X23620D01*
X23594Y11213D01*
X23571Y11241D01*
X23552Y11268D01*
X23537Y11294D01*
X23528Y11318D01*
X23523Y11329D01*
X23520Y11338D01*
X23516Y11346D01*
X23515Y11351D01*
X23514Y11354D01*
Y11356D01*
X23636Y11372D01*
X23646Y11346D01*
X23659Y11323D01*
X23671Y11303D01*
X23682Y11288D01*
X23693Y11277D01*
X23701Y11268D01*
X23706Y11263D01*
X23709Y11262D01*
X23726Y11251D01*
X23745Y11242D01*
X23764Y11237D01*
X23780Y11232D01*
X23796Y11229D01*
X23807Y11228D01*
X23819D01*
X23835Y11229D01*
X23850Y11231D01*
X23879Y11238D01*
X23904Y11247D01*
X23925Y11258D01*
X23941Y11269D01*
X23955Y11279D01*
X23959Y11283D01*
X23963Y11286D01*
X23964Y11287D01*
X23965Y11288D01*
X23975Y11301D01*
X23984Y11313D01*
X23999Y11341D01*
X24010Y11369D01*
X24019Y11398D01*
X24024Y11423D01*
X24025Y11434D01*
X24026Y11444D01*
X24028Y11452D01*
X24029Y11458D01*
Y11462D01*
Y11463D01*
X23510D01*
X23509Y11477D01*
Y11487D01*
Y11492D01*
Y11494D01*
X23510Y11526D01*
X23512Y11556D01*
X23517Y11583D01*
X23523Y11609D01*
X23529Y11633D01*
X23536Y11654D01*
X23545Y11674D01*
X23552Y11693D01*
X23561Y11709D01*
X23570Y11723D01*
X23577Y11734D01*
X23584Y11744D01*
X23589Y11752D01*
X23594Y11757D01*
X23596Y11761D01*
X23598Y11762D01*
X23615Y11778D01*
X23633Y11793D01*
X23651Y11806D01*
X23671Y11817D01*
X23690Y11826D01*
X23709Y11833D01*
X23728Y11841D01*
X23745Y11846D01*
X23761Y11849D01*
X23777Y11852D01*
X23791Y11854D01*
X23802Y11856D01*
X23812Y11857D01*
X23826D01*
X23853Y11856D01*
D02*
G37*
G36*
X12161D02*
X12185Y11852D01*
X12205Y11847D01*
X12224Y11842D01*
X12239Y11836D01*
X12250Y11831D01*
X12257Y11827D01*
X12259Y11826D01*
X12260D01*
X12279Y11813D01*
X12296Y11799D01*
X12311Y11786D01*
X12324Y11773D01*
X12334Y11761D01*
X12341Y11752D01*
X12346Y11746D01*
X12348Y11743D01*
Y11842D01*
X12452D01*
Y11146D01*
X12335D01*
Y11506D01*
X12334Y11539D01*
X12333Y11568D01*
X12329Y11593D01*
X12325Y11614D01*
X12322Y11629D01*
X12319Y11642D01*
X12318Y11648D01*
X12316Y11651D01*
X12307Y11668D01*
X12298Y11684D01*
X12287Y11698D01*
X12277Y11708D01*
X12269Y11717D01*
X12261Y11723D01*
X12255Y11727D01*
X12254Y11728D01*
X12237Y11737D01*
X12221Y11743D01*
X12206Y11748D01*
X12191Y11751D01*
X12179Y11753D01*
X12170Y11754D01*
X12161D01*
X12139Y11753D01*
X12119Y11748D01*
X12103Y11742D01*
X12090Y11734D01*
X12080Y11727D01*
X12072Y11721D01*
X12069Y11716D01*
X12068Y11714D01*
X12057Y11698D01*
X12051Y11679D01*
X12046Y11661D01*
X12042Y11641D01*
X12040Y11624D01*
X12039Y11609D01*
Y11604D01*
Y11601D01*
Y11598D01*
Y11597D01*
Y11146D01*
X11921D01*
Y11549D01*
Y11568D01*
X11919Y11587D01*
X11916Y11603D01*
X11914Y11618D01*
X11910Y11632D01*
X11906Y11646D01*
X11901Y11657D01*
X11896Y11667D01*
X11888Y11683D01*
X11880Y11696D01*
X11875Y11702D01*
X11873Y11704D01*
X11854Y11721D01*
X11832Y11733D01*
X11812Y11742D01*
X11793Y11748D01*
X11775Y11752D01*
X11761Y11753D01*
X11756Y11754D01*
X11749D01*
X11734Y11753D01*
X11721Y11752D01*
X11709Y11748D01*
X11699Y11744D01*
X11690Y11741D01*
X11684Y11738D01*
X11680Y11736D01*
X11679Y11734D01*
X11667Y11727D01*
X11659Y11718D01*
X11651Y11711D01*
X11646Y11702D01*
X11641Y11696D01*
X11639Y11689D01*
X11636Y11686D01*
Y11684D01*
X11632Y11671D01*
X11630Y11656D01*
X11628Y11638D01*
X11626Y11622D01*
X11625Y11607D01*
Y11594D01*
Y11589D01*
Y11586D01*
Y11584D01*
Y11583D01*
Y11146D01*
X11508D01*
Y11622D01*
Y11643D01*
X11510Y11664D01*
X11513Y11683D01*
X11516Y11701D01*
X11520Y11717D01*
X11525Y11731D01*
X11530Y11744D01*
X11535Y11756D01*
X11541Y11766D01*
X11546Y11774D01*
X11551Y11782D01*
X11555Y11788D01*
X11559Y11793D01*
X11561Y11797D01*
X11562Y11798D01*
X11564Y11799D01*
X11575Y11809D01*
X11586Y11818D01*
X11612Y11833D01*
X11639Y11843D01*
X11664Y11849D01*
X11688Y11854D01*
X11697Y11856D01*
X11706D01*
X11714Y11857D01*
X11724D01*
X11747Y11856D01*
X11771Y11852D01*
X11793Y11846D01*
X11814Y11838D01*
X11832Y11828D01*
X11850Y11818D01*
X11866Y11807D01*
X11881Y11796D01*
X11894Y11784D01*
X11905Y11773D01*
X11915Y11763D01*
X11924Y11753D01*
X11930Y11746D01*
X11935Y11739D01*
X11938Y11736D01*
X11939Y11734D01*
X11947Y11754D01*
X11959Y11773D01*
X11970Y11788D01*
X11983Y11801D01*
X11992Y11811D01*
X12001Y11818D01*
X12007Y11823D01*
X12010Y11824D01*
X12030Y11836D01*
X12050Y11843D01*
X12071Y11849D01*
X12091Y11853D01*
X12109Y11856D01*
X12124Y11857D01*
X12136D01*
X12161Y11856D01*
D02*
G37*
G36*
X20044D02*
X20074Y11853D01*
X20101Y11849D01*
X20124Y11844D01*
X20144Y11839D01*
X20151Y11838D01*
X20157Y11836D01*
X20162Y11834D01*
X20166Y11833D01*
X20169Y11832D01*
X20170D01*
X20194Y11822D01*
X20215Y11811D01*
X20233Y11799D01*
X20247Y11788D01*
X20259Y11777D01*
X20268Y11769D01*
X20273Y11764D01*
X20274Y11762D01*
X20286Y11744D01*
X20298Y11724D01*
X20306Y11704D01*
X20312Y11686D01*
X20319Y11669D01*
X20322Y11656D01*
X20324Y11651D01*
Y11647D01*
X20325Y11644D01*
Y11643D01*
X20210Y11627D01*
X20203Y11652D01*
X20192Y11674D01*
X20184Y11692D01*
X20174Y11706D01*
X20166Y11717D01*
X20159Y11724D01*
X20154Y11728D01*
X20152Y11729D01*
X20136Y11739D01*
X20116Y11747D01*
X20096Y11752D01*
X20075Y11756D01*
X20057Y11758D01*
X20043Y11759D01*
X20029D01*
X19998Y11758D01*
X19970Y11753D01*
X19948Y11747D01*
X19928Y11739D01*
X19913Y11732D01*
X19902Y11726D01*
X19896Y11721D01*
X19894Y11719D01*
X19883Y11707D01*
X19874Y11691D01*
X19869Y11674D01*
X19864Y11657D01*
X19861Y11642D01*
X19860Y11628D01*
Y11624D01*
Y11621D01*
Y11618D01*
Y11617D01*
Y11614D01*
Y11609D01*
Y11599D01*
X19861Y11594D01*
Y11591D01*
Y11588D01*
Y11587D01*
X19875Y11583D01*
X19890Y11578D01*
X19922Y11571D01*
X19957Y11563D01*
X19991Y11557D01*
X20008Y11554D01*
X20022Y11552D01*
X20036Y11551D01*
X20048Y11549D01*
X20057Y11547D01*
X20065D01*
X20070Y11546D01*
X20071D01*
X20096Y11542D01*
X20117Y11539D01*
X20135Y11537D01*
X20150Y11533D01*
X20161Y11532D01*
X20170Y11529D01*
X20175Y11528D01*
X20176D01*
X20194Y11523D01*
X20210Y11517D01*
X20224Y11511D01*
X20236Y11504D01*
X20246Y11498D01*
X20255Y11493D01*
X20260Y11491D01*
X20261Y11489D01*
X20275Y11479D01*
X20286Y11468D01*
X20298Y11457D01*
X20306Y11447D01*
X20312Y11437D01*
X20319Y11429D01*
X20321Y11424D01*
X20322Y11422D01*
X20330Y11406D01*
X20335Y11389D01*
X20340Y11373D01*
X20343Y11359D01*
X20344Y11347D01*
X20345Y11337D01*
Y11331D01*
Y11328D01*
X20344Y11312D01*
X20343Y11297D01*
X20335Y11269D01*
X20325Y11246D01*
X20314Y11224D01*
X20303Y11208D01*
X20294Y11196D01*
X20286Y11188D01*
X20285Y11187D01*
X20284Y11186D01*
X20271Y11176D01*
X20259Y11168D01*
X20230Y11154D01*
X20201Y11144D01*
X20173Y11138D01*
X20148Y11133D01*
X20136Y11132D01*
X20126D01*
X20119Y11131D01*
X20108D01*
X20082Y11132D01*
X20059Y11134D01*
X20036Y11138D01*
X20017Y11142D01*
X20001Y11146D01*
X19989Y11149D01*
X19985Y11151D01*
X19981Y11152D01*
X19980Y11153D01*
X19979D01*
X19956Y11163D01*
X19933Y11176D01*
X19911Y11189D01*
X19892Y11202D01*
X19875Y11214D01*
X19863Y11224D01*
X19857Y11228D01*
X19854Y11231D01*
X19852Y11233D01*
X19851D01*
X19849Y11214D01*
X19845Y11198D01*
X19842Y11183D01*
X19837Y11171D01*
X19835Y11159D01*
X19831Y11152D01*
X19830Y11147D01*
X19829Y11146D01*
X19705D01*
X19713Y11161D01*
X19719Y11176D01*
X19724Y11189D01*
X19729Y11203D01*
X19731Y11213D01*
X19734Y11222D01*
X19735Y11227D01*
Y11229D01*
X19736Y11239D01*
X19737Y11251D01*
Y11264D01*
X19739Y11281D01*
X19740Y11314D01*
Y11349D01*
X19741Y11367D01*
Y11383D01*
Y11398D01*
Y11411D01*
Y11422D01*
Y11429D01*
Y11436D01*
Y11437D01*
Y11594D01*
Y11622D01*
X19742Y11644D01*
X19744Y11663D01*
Y11678D01*
X19745Y11689D01*
X19746Y11697D01*
X19748Y11702D01*
Y11703D01*
X19753Y11721D01*
X19757Y11736D01*
X19764Y11749D01*
X19770Y11761D01*
X19776Y11769D01*
X19781Y11777D01*
X19784Y11781D01*
X19785Y11782D01*
X19796Y11793D01*
X19809Y11804D01*
X19822Y11813D01*
X19836Y11821D01*
X19849Y11827D01*
X19859Y11832D01*
X19865Y11834D01*
X19866Y11836D01*
X19868D01*
X19890Y11843D01*
X19913Y11848D01*
X19937Y11852D01*
X19960Y11854D01*
X19980Y11856D01*
X19989Y11857D01*
X20011D01*
X20044Y11856D01*
D02*
G37*
G36*
X15324D02*
X15354Y11853D01*
X15381Y11849D01*
X15404Y11844D01*
X15424Y11839D01*
X15431Y11838D01*
X15438Y11836D01*
X15443Y11834D01*
X15446Y11833D01*
X15449Y11832D01*
X15450D01*
X15474Y11822D01*
X15495Y11811D01*
X15512Y11799D01*
X15527Y11788D01*
X15539Y11777D01*
X15547Y11769D01*
X15553Y11764D01*
X15554Y11762D01*
X15566Y11744D01*
X15577Y11724D01*
X15586Y11704D01*
X15592Y11686D01*
X15599Y11669D01*
X15603Y11656D01*
X15604Y11651D01*
Y11647D01*
X15605Y11644D01*
Y11643D01*
X15490Y11627D01*
X15482Y11652D01*
X15473Y11674D01*
X15464Y11692D01*
X15454Y11706D01*
X15446Y11717D01*
X15439Y11724D01*
X15434Y11728D01*
X15432Y11729D01*
X15416Y11739D01*
X15396Y11747D01*
X15376Y11752D01*
X15355Y11756D01*
X15338Y11758D01*
X15323Y11759D01*
X15309D01*
X15278Y11758D01*
X15250Y11753D01*
X15228Y11747D01*
X15208Y11739D01*
X15193Y11732D01*
X15182Y11726D01*
X15176Y11721D01*
X15174Y11719D01*
X15163Y11707D01*
X15154Y11691D01*
X15149Y11674D01*
X15144Y11657D01*
X15141Y11642D01*
X15140Y11628D01*
Y11624D01*
Y11621D01*
Y11618D01*
Y11617D01*
Y11614D01*
Y11609D01*
Y11599D01*
X15141Y11594D01*
Y11591D01*
Y11588D01*
Y11587D01*
X15155Y11583D01*
X15170Y11578D01*
X15202Y11571D01*
X15237Y11563D01*
X15271Y11557D01*
X15287Y11554D01*
X15302Y11552D01*
X15316Y11551D01*
X15328Y11549D01*
X15338Y11547D01*
X15345D01*
X15350Y11546D01*
X15351D01*
X15376Y11542D01*
X15397Y11539D01*
X15415Y11537D01*
X15430Y11533D01*
X15441Y11532D01*
X15450Y11529D01*
X15455Y11528D01*
X15456D01*
X15474Y11523D01*
X15490Y11517D01*
X15504Y11511D01*
X15516Y11504D01*
X15526Y11498D01*
X15535Y11493D01*
X15540Y11491D01*
X15541Y11489D01*
X15555Y11479D01*
X15566Y11468D01*
X15577Y11457D01*
X15586Y11447D01*
X15592Y11437D01*
X15599Y11429D01*
X15601Y11424D01*
X15603Y11422D01*
X15610Y11406D01*
X15615Y11389D01*
X15620Y11373D01*
X15623Y11359D01*
X15624Y11347D01*
X15625Y11337D01*
Y11331D01*
Y11328D01*
X15624Y11312D01*
X15623Y11297D01*
X15615Y11269D01*
X15605Y11246D01*
X15594Y11224D01*
X15582Y11208D01*
X15574Y11196D01*
X15566Y11188D01*
X15565Y11187D01*
X15564Y11186D01*
X15551Y11176D01*
X15539Y11168D01*
X15510Y11154D01*
X15481Y11144D01*
X15453Y11138D01*
X15428Y11133D01*
X15416Y11132D01*
X15406D01*
X15399Y11131D01*
X15388D01*
X15362Y11132D01*
X15339Y11134D01*
X15316Y11138D01*
X15297Y11142D01*
X15281Y11146D01*
X15269Y11149D01*
X15265Y11151D01*
X15261Y11152D01*
X15260Y11153D01*
X15259D01*
X15236Y11163D01*
X15213Y11176D01*
X15191Y11189D01*
X15172Y11202D01*
X15155Y11214D01*
X15143Y11224D01*
X15137Y11228D01*
X15134Y11231D01*
X15132Y11233D01*
X15131D01*
X15129Y11214D01*
X15125Y11198D01*
X15122Y11183D01*
X15117Y11171D01*
X15115Y11159D01*
X15111Y11152D01*
X15110Y11147D01*
X15109Y11146D01*
X14985D01*
X14993Y11161D01*
X14999Y11176D01*
X15004Y11189D01*
X15009Y11203D01*
X15011Y11213D01*
X15014Y11222D01*
X15015Y11227D01*
Y11229D01*
X15016Y11239D01*
X15017Y11251D01*
Y11264D01*
X15019Y11281D01*
X15020Y11314D01*
Y11349D01*
X15021Y11367D01*
Y11383D01*
Y11398D01*
Y11411D01*
Y11422D01*
Y11429D01*
Y11436D01*
Y11437D01*
Y11594D01*
Y11622D01*
X15022Y11644D01*
X15024Y11663D01*
Y11678D01*
X15025Y11689D01*
X15026Y11697D01*
X15028Y11702D01*
Y11703D01*
X15033Y11721D01*
X15037Y11736D01*
X15044Y11749D01*
X15050Y11761D01*
X15056Y11769D01*
X15061Y11777D01*
X15064Y11781D01*
X15065Y11782D01*
X15076Y11793D01*
X15089Y11804D01*
X15102Y11813D01*
X15116Y11821D01*
X15129Y11827D01*
X15139Y11832D01*
X15145Y11834D01*
X15146Y11836D01*
X15148D01*
X15170Y11843D01*
X15193Y11848D01*
X15217Y11852D01*
X15240Y11854D01*
X15260Y11856D01*
X15269Y11857D01*
X15291D01*
X15324Y11856D01*
D02*
G37*
G36*
X20590Y12777D02*
X20225D01*
X20191Y12779D01*
X20161Y12780D01*
X20135Y12782D01*
X20113Y12785D01*
X20095Y12787D01*
X20087Y12789D01*
X20081Y12790D01*
X20076Y12791D01*
X20073Y12792D01*
X20070D01*
X20048Y12799D01*
X20026Y12806D01*
X20009Y12815D01*
X19994Y12822D01*
X19981Y12829D01*
X19972Y12835D01*
X19966Y12839D01*
X19965Y12840D01*
X19950Y12854D01*
X19936Y12867D01*
X19924Y12882D01*
X19914Y12897D01*
X19905Y12910D01*
X19899Y12920D01*
X19895Y12927D01*
X19894Y12930D01*
X19884Y12952D01*
X19878Y12974D01*
X19872Y12995D01*
X19869Y13014D01*
X19866Y13031D01*
X19865Y13044D01*
Y13049D01*
Y13052D01*
Y13054D01*
Y13055D01*
X19868Y13085D01*
X19872Y13112D01*
X19880Y13137D01*
X19889Y13159D01*
X19898Y13176D01*
X19905Y13189D01*
X19907Y13194D01*
X19910Y13197D01*
X19913Y13199D01*
Y13200D01*
X19931Y13221D01*
X19952Y13240D01*
X19975Y13255D01*
X19996Y13267D01*
X20016Y13277D01*
X20025Y13281D01*
X20031Y13284D01*
X20038Y13286D01*
X20043Y13287D01*
X20045Y13289D01*
X20046D01*
X20022Y13301D01*
X20003Y13316D01*
X19985Y13330D01*
X19970Y13344D01*
X19959Y13356D01*
X19951Y13366D01*
X19946Y13372D01*
X19945Y13375D01*
X19934Y13396D01*
X19925Y13416D01*
X19920Y13436D01*
X19915Y13455D01*
X19913Y13470D01*
X19911Y13482D01*
Y13486D01*
Y13490D01*
Y13491D01*
Y13492D01*
X19913Y13517D01*
X19918Y13540D01*
X19924Y13561D01*
X19930Y13580D01*
X19937Y13596D01*
X19944Y13609D01*
X19949Y13616D01*
X19950Y13617D01*
Y13619D01*
X19965Y13640D01*
X19983Y13659D01*
X19999Y13674D01*
X20016Y13686D01*
X20031Y13696D01*
X20043Y13704D01*
X20048Y13706D01*
X20051Y13707D01*
X20052Y13709D01*
X20054D01*
X20080Y13719D01*
X20109Y13726D01*
X20139Y13731D01*
X20166Y13735D01*
X20191Y13737D01*
X20203D01*
X20211Y13739D01*
X20590D01*
Y12777D01*
D02*
G37*
G36*
X18793D02*
X18076D01*
Y12891D01*
X18665D01*
Y13219D01*
X18135D01*
Y13332D01*
X18665D01*
Y13625D01*
X18099D01*
Y13739D01*
X18793D01*
Y12777D01*
D02*
G37*
G36*
X17897D02*
X17181D01*
Y12891D01*
X17770D01*
Y13219D01*
X17240D01*
Y13332D01*
X17770D01*
Y13625D01*
X17204D01*
Y13739D01*
X17897D01*
Y12777D01*
D02*
G37*
G36*
X21926Y13182D02*
Y13155D01*
X21925Y13129D01*
X21923Y13104D01*
X21920Y13080D01*
X21918Y13059D01*
X21915Y13039D01*
X21911Y13021D01*
X21907Y13005D01*
X21905Y12990D01*
X21901Y12977D01*
X21899Y12966D01*
X21895Y12957D01*
X21894Y12950D01*
X21891Y12945D01*
X21890Y12942D01*
Y12941D01*
X21874Y12910D01*
X21855Y12884D01*
X21835Y12860D01*
X21815Y12841D01*
X21796Y12826D01*
X21781Y12816D01*
X21776Y12812D01*
X21771Y12810D01*
X21769Y12807D01*
X21767D01*
X21734Y12792D01*
X21696Y12781D01*
X21660Y12772D01*
X21625Y12767D01*
X21609Y12765D01*
X21594Y12764D01*
X21580Y12762D01*
X21569D01*
X21559Y12761D01*
X21546D01*
X21521Y12762D01*
X21496Y12764D01*
X21474Y12766D01*
X21453Y12770D01*
X21432Y12774D01*
X21415Y12777D01*
X21398Y12782D01*
X21383Y12787D01*
X21369Y12792D01*
X21356Y12797D01*
X21346Y12801D01*
X21337Y12805D01*
X21331Y12809D01*
X21326Y12811D01*
X21324Y12814D01*
X21323D01*
X21307Y12824D01*
X21293Y12835D01*
X21267Y12859D01*
X21247Y12881D01*
X21231Y12904D01*
X21219Y12922D01*
X21214Y12931D01*
X21210Y12939D01*
X21207Y12944D01*
X21205Y12949D01*
X21204Y12951D01*
Y12952D01*
X21198Y12969D01*
X21193Y12986D01*
X21184Y13024D01*
X21179Y13062D01*
X21174Y13100D01*
X21172Y13116D01*
X21171Y13132D01*
Y13146D01*
X21170Y13159D01*
Y13169D01*
Y13176D01*
Y13181D01*
Y13182D01*
Y13739D01*
X21298D01*
Y13184D01*
X21299Y13151D01*
X21300Y13121D01*
X21302Y13094D01*
X21306Y13069D01*
X21311Y13046D01*
X21316Y13026D01*
X21321Y13009D01*
X21328Y12994D01*
X21332Y12980D01*
X21339Y12969D01*
X21344Y12959D01*
X21347Y12951D01*
X21353Y12946D01*
X21355Y12942D01*
X21356Y12940D01*
X21358Y12939D01*
X21370Y12927D01*
X21384Y12919D01*
X21399Y12910D01*
X21414Y12902D01*
X21448Y12891D01*
X21480Y12884D01*
X21495Y12881D01*
X21510Y12880D01*
X21524Y12879D01*
X21535Y12877D01*
X21544Y12876D01*
X21558D01*
X21588Y12877D01*
X21614Y12881D01*
X21637Y12886D01*
X21658Y12892D01*
X21674Y12897D01*
X21686Y12902D01*
X21694Y12906D01*
X21695Y12907D01*
X21696D01*
X21716Y12921D01*
X21732Y12935D01*
X21746Y12951D01*
X21758Y12965D01*
X21766Y12979D01*
X21771Y12989D01*
X21775Y12996D01*
X21776Y12997D01*
Y12999D01*
X21780Y13011D01*
X21784Y13024D01*
X21789Y13052D01*
X21794Y13084D01*
X21796Y13114D01*
Y13127D01*
X21797Y13141D01*
Y13152D01*
X21799Y13164D01*
Y13171D01*
Y13179D01*
Y13182D01*
Y13184D01*
Y13739D01*
X21926D01*
Y13182D01*
D02*
G37*
G36*
X13724D02*
Y13155D01*
X13722Y13129D01*
X13720Y13104D01*
X13717Y13080D01*
X13715Y13059D01*
X13713Y13039D01*
X13709Y13021D01*
X13705Y13005D01*
X13702Y12990D01*
X13699Y12977D01*
X13696Y12966D01*
X13693Y12957D01*
X13691Y12950D01*
X13689Y12945D01*
X13687Y12942D01*
Y12941D01*
X13671Y12910D01*
X13652Y12884D01*
X13633Y12860D01*
X13613Y12841D01*
X13594Y12826D01*
X13579Y12816D01*
X13574Y12812D01*
X13569Y12810D01*
X13566Y12807D01*
X13565D01*
X13531Y12792D01*
X13494Y12781D01*
X13457Y12772D01*
X13422Y12767D01*
X13406Y12765D01*
X13391Y12764D01*
X13377Y12762D01*
X13366D01*
X13356Y12761D01*
X13344D01*
X13319Y12762D01*
X13294Y12764D01*
X13271Y12766D01*
X13250Y12770D01*
X13230Y12774D01*
X13212Y12777D01*
X13195Y12782D01*
X13180Y12787D01*
X13166Y12792D01*
X13154Y12797D01*
X13144Y12801D01*
X13135Y12805D01*
X13129Y12809D01*
X13124Y12811D01*
X13121Y12814D01*
X13120D01*
X13105Y12824D01*
X13090Y12835D01*
X13065Y12859D01*
X13045Y12881D01*
X13029Y12904D01*
X13016Y12922D01*
X13011Y12931D01*
X13008Y12939D01*
X13005Y12944D01*
X13003Y12949D01*
X13001Y12951D01*
Y12952D01*
X12995Y12969D01*
X12990Y12986D01*
X12981Y13024D01*
X12976Y13062D01*
X12971Y13100D01*
X12970Y13116D01*
X12969Y13132D01*
Y13146D01*
X12967Y13159D01*
Y13169D01*
Y13176D01*
Y13181D01*
Y13182D01*
Y13739D01*
X13095D01*
Y13184D01*
X13096Y13151D01*
X13097Y13121D01*
X13100Y13094D01*
X13104Y13069D01*
X13109Y13046D01*
X13114Y13026D01*
X13119Y13009D01*
X13125Y12994D01*
X13130Y12980D01*
X13136Y12969D01*
X13141Y12959D01*
X13145Y12951D01*
X13150Y12946D01*
X13153Y12942D01*
X13154Y12940D01*
X13155Y12939D01*
X13168Y12927D01*
X13181Y12919D01*
X13196Y12910D01*
X13211Y12902D01*
X13245Y12891D01*
X13277Y12884D01*
X13292Y12881D01*
X13307Y12880D01*
X13321Y12879D01*
X13333Y12877D01*
X13341Y12876D01*
X13355D01*
X13385Y12877D01*
X13411Y12881D01*
X13435Y12886D01*
X13455Y12892D01*
X13471Y12897D01*
X13484Y12902D01*
X13491Y12906D01*
X13492Y12907D01*
X13494D01*
X13514Y12921D01*
X13530Y12935D01*
X13544Y12951D01*
X13555Y12965D01*
X13564Y12979D01*
X13569Y12989D01*
X13572Y12996D01*
X13574Y12997D01*
Y12999D01*
X13578Y13011D01*
X13581Y13024D01*
X13586Y13052D01*
X13591Y13084D01*
X13594Y13114D01*
Y13127D01*
X13595Y13141D01*
Y13152D01*
X13596Y13164D01*
Y13171D01*
Y13179D01*
Y13182D01*
Y13184D01*
Y13739D01*
X13724D01*
Y13182D01*
D02*
G37*
G36*
X8955Y13752D02*
X8999Y13746D01*
X9039Y13736D01*
X9056Y13731D01*
X9074Y13726D01*
X9089Y13720D01*
X9103Y13715D01*
X9114Y13710D01*
X9124Y13705D01*
X9131Y13701D01*
X9137Y13699D01*
X9141Y13697D01*
X9143Y13696D01*
X9161Y13685D01*
X9180Y13672D01*
X9212Y13645D01*
X9241Y13617D01*
X9264Y13590D01*
X9274Y13576D01*
X9283Y13565D01*
X9290Y13554D01*
X9295Y13545D01*
X9300Y13537D01*
X9304Y13531D01*
X9305Y13527D01*
X9306Y13526D01*
X9316Y13505D01*
X9325Y13482D01*
X9339Y13439D01*
X9349Y13395D01*
X9352Y13374D01*
X9355Y13354D01*
X9358Y13335D01*
X9360Y13319D01*
X9361Y13304D01*
Y13290D01*
X9362Y13280D01*
Y13271D01*
Y13266D01*
Y13265D01*
X9360Y13215D01*
X9355Y13166D01*
X9351Y13145D01*
X9346Y13124D01*
X9342Y13104D01*
X9337Y13085D01*
X9333Y13067D01*
X9329Y13052D01*
X9324Y13040D01*
X9320Y13029D01*
X9317Y13020D01*
X9315Y13012D01*
X9312Y13009D01*
Y13007D01*
X9302Y12986D01*
X9291Y12965D01*
X9280Y12946D01*
X9268Y12929D01*
X9255Y12911D01*
X9243Y12896D01*
X9231Y12882D01*
X9219Y12871D01*
X9208Y12860D01*
X9197Y12850D01*
X9187Y12842D01*
X9180Y12836D01*
X9172Y12830D01*
X9168Y12826D01*
X9165Y12825D01*
X9164Y12824D01*
X9145Y12812D01*
X9125Y12804D01*
X9104Y12795D01*
X9082Y12787D01*
X9040Y12776D01*
X9000Y12769D01*
X8981Y12766D01*
X8965Y12765D01*
X8949Y12764D01*
X8936Y12762D01*
X8925Y12761D01*
X8910D01*
X8882Y12762D01*
X8856Y12765D01*
X8831Y12769D01*
X8808Y12774D01*
X8785Y12780D01*
X8764Y12787D01*
X8745Y12794D01*
X8726Y12802D01*
X8711Y12810D01*
X8698Y12816D01*
X8685Y12824D01*
X8675Y12830D01*
X8666Y12835D01*
X8661Y12839D01*
X8658Y12841D01*
X8656Y12842D01*
X8637Y12859D01*
X8620Y12876D01*
X8604Y12895D01*
X8590Y12915D01*
X8576Y12935D01*
X8565Y12954D01*
X8554Y12974D01*
X8545Y12992D01*
X8536Y13011D01*
X8530Y13027D01*
X8524Y13042D01*
X8519Y13055D01*
X8516Y13066D01*
X8514Y13075D01*
X8511Y13080D01*
Y13081D01*
X8639Y13114D01*
X8645Y13091D01*
X8651Y13071D01*
X8659Y13052D01*
X8666Y13034D01*
X8675Y13017D01*
X8683Y13002D01*
X8691Y12989D01*
X8700Y12977D01*
X8708Y12966D01*
X8715Y12957D01*
X8723Y12949D01*
X8727Y12942D01*
X8733Y12937D01*
X8736Y12934D01*
X8739Y12932D01*
X8740Y12931D01*
X8754Y12920D01*
X8769Y12911D01*
X8784Y12902D01*
X8800Y12896D01*
X8830Y12885D01*
X8859Y12877D01*
X8871Y12875D01*
X8884Y12874D01*
X8894Y12872D01*
X8904Y12871D01*
X8911Y12870D01*
X8921D01*
X8954Y12872D01*
X8984Y12877D01*
X9011Y12884D01*
X9036Y12892D01*
X9056Y12901D01*
X9065Y12905D01*
X9071Y12907D01*
X9078Y12911D01*
X9081Y12912D01*
X9084Y12915D01*
X9085D01*
X9111Y12934D01*
X9134Y12955D01*
X9153Y12977D01*
X9169Y13000D01*
X9181Y13020D01*
X9185Y13029D01*
X9189Y13036D01*
X9193Y13042D01*
X9195Y13047D01*
X9196Y13050D01*
Y13051D01*
X9208Y13086D01*
X9216Y13124D01*
X9222Y13159D01*
X9226Y13192D01*
X9229Y13207D01*
Y13221D01*
X9230Y13234D01*
X9231Y13245D01*
Y13254D01*
Y13260D01*
Y13264D01*
Y13265D01*
X9230Y13300D01*
X9226Y13334D01*
X9221Y13365D01*
X9216Y13394D01*
X9214Y13405D01*
X9211Y13416D01*
X9209Y13426D01*
X9206Y13435D01*
X9204Y13441D01*
X9202Y13446D01*
X9201Y13449D01*
Y13450D01*
X9189Y13482D01*
X9172Y13510D01*
X9155Y13535D01*
X9137Y13555D01*
X9122Y13571D01*
X9110Y13582D01*
X9105Y13587D01*
X9101Y13590D01*
X9099Y13592D01*
X9097D01*
X9082Y13602D01*
X9068Y13610D01*
X9036Y13624D01*
X9005Y13634D01*
X8976Y13640D01*
X8963Y13641D01*
X8950Y13644D01*
X8939Y13645D01*
X8930D01*
X8923Y13646D01*
X8911D01*
X8876Y13644D01*
X8845Y13639D01*
X8817Y13631D01*
X8794Y13622D01*
X8775Y13612D01*
X8767Y13609D01*
X8761Y13605D01*
X8756Y13602D01*
X8752Y13600D01*
X8751Y13597D01*
X8750D01*
X8739Y13587D01*
X8727Y13577D01*
X8708Y13554D01*
X8691Y13529D01*
X8677Y13504D01*
X8666Y13481D01*
X8662Y13471D01*
X8659Y13462D01*
X8656Y13455D01*
X8654Y13450D01*
X8652Y13446D01*
Y13445D01*
X8528Y13475D01*
X8535Y13499D01*
X8545Y13522D01*
X8555Y13544D01*
X8566Y13564D01*
X8577Y13581D01*
X8589Y13599D01*
X8600Y13614D01*
X8611Y13627D01*
X8622Y13640D01*
X8633Y13651D01*
X8643Y13660D01*
X8650Y13667D01*
X8656Y13674D01*
X8662Y13677D01*
X8665Y13680D01*
X8666Y13681D01*
X8685Y13694D01*
X8705Y13706D01*
X8725Y13715D01*
X8745Y13724D01*
X8766Y13731D01*
X8786Y13737D01*
X8824Y13746D01*
X8841Y13749D01*
X8857Y13751D01*
X8873Y13752D01*
X8885Y13754D01*
X8895Y13755D01*
X8932D01*
X8955Y13752D01*
D02*
G37*
G36*
X19394Y13754D02*
X19427Y13750D01*
X19457Y13744D01*
X19484Y13739D01*
X19495Y13735D01*
X19505Y13732D01*
X19514Y13729D01*
X19521Y13726D01*
X19527Y13725D01*
X19531Y13722D01*
X19534Y13721D01*
X19535D01*
X19562Y13707D01*
X19588Y13692D01*
X19607Y13676D01*
X19625Y13661D01*
X19638Y13647D01*
X19648Y13635D01*
X19653Y13627D01*
X19655Y13626D01*
Y13625D01*
X19669Y13601D01*
X19679Y13577D01*
X19686Y13555D01*
X19691Y13534D01*
X19694Y13515D01*
X19695Y13501D01*
X19696Y13496D01*
Y13492D01*
Y13490D01*
Y13489D01*
X19695Y13465D01*
X19691Y13442D01*
X19686Y13421D01*
X19680Y13404D01*
X19674Y13389D01*
X19669Y13379D01*
X19665Y13371D01*
X19664Y13370D01*
Y13369D01*
X19650Y13350D01*
X19634Y13332D01*
X19616Y13317D01*
X19600Y13305D01*
X19585Y13294D01*
X19572Y13286D01*
X19568Y13284D01*
X19564Y13281D01*
X19562Y13280D01*
X19561D01*
X19550Y13275D01*
X19538Y13269D01*
X19510Y13259D01*
X19479Y13247D01*
X19449Y13239D01*
X19420Y13230D01*
X19409Y13227D01*
X19397Y13224D01*
X19389Y13222D01*
X19382Y13220D01*
X19377Y13219D01*
X19376D01*
X19353Y13212D01*
X19331Y13207D01*
X19311Y13202D01*
X19294Y13199D01*
X19277Y13194D01*
X19264Y13190D01*
X19251Y13187D01*
X19241Y13184D01*
X19231Y13181D01*
X19224Y13179D01*
X19217Y13177D01*
X19212Y13175D01*
X19208Y13174D01*
X19205Y13172D01*
X19184Y13164D01*
X19166Y13154D01*
X19151Y13145D01*
X19139Y13136D01*
X19130Y13129D01*
X19124Y13122D01*
X19120Y13117D01*
X19119Y13116D01*
X19110Y13104D01*
X19102Y13090D01*
X19097Y13076D01*
X19095Y13064D01*
X19093Y13054D01*
X19091Y13045D01*
Y13040D01*
Y13037D01*
X19093Y13021D01*
X19095Y13006D01*
X19100Y12992D01*
X19105Y12980D01*
X19110Y12970D01*
X19115Y12961D01*
X19117Y12956D01*
X19119Y12955D01*
X19130Y12941D01*
X19144Y12930D01*
X19158Y12920D01*
X19171Y12911D01*
X19184Y12905D01*
X19194Y12900D01*
X19200Y12897D01*
X19201Y12896D01*
X19203D01*
X19224Y12889D01*
X19245Y12884D01*
X19267Y12880D01*
X19286Y12877D01*
X19304Y12876D01*
X19318Y12875D01*
X19330D01*
X19360Y12876D01*
X19388Y12879D01*
X19412Y12884D01*
X19434Y12889D01*
X19453Y12894D01*
X19460Y12896D01*
X19466Y12899D01*
X19471Y12900D01*
X19475Y12901D01*
X19476Y12902D01*
X19477D01*
X19500Y12914D01*
X19520Y12926D01*
X19536Y12939D01*
X19550Y12951D01*
X19560Y12961D01*
X19568Y12970D01*
X19572Y12975D01*
X19574Y12977D01*
X19584Y12996D01*
X19592Y13016D01*
X19600Y13036D01*
X19605Y13055D01*
X19609Y13072D01*
X19611Y13085D01*
Y13090D01*
X19612Y13094D01*
Y13096D01*
Y13097D01*
X19733Y13087D01*
X19730Y13052D01*
X19724Y13019D01*
X19715Y12990D01*
X19705Y12964D01*
X19700Y12952D01*
X19696Y12942D01*
X19691Y12935D01*
X19688Y12927D01*
X19685Y12921D01*
X19683Y12917D01*
X19680Y12915D01*
Y12914D01*
X19660Y12887D01*
X19638Y12864D01*
X19615Y12844D01*
X19592Y12827D01*
X19572Y12815D01*
X19564Y12810D01*
X19557Y12806D01*
X19551Y12802D01*
X19546Y12800D01*
X19544Y12799D01*
X19542D01*
X19507Y12786D01*
X19471Y12777D01*
X19434Y12770D01*
X19400Y12766D01*
X19384Y12765D01*
X19370Y12764D01*
X19356Y12762D01*
X19345D01*
X19336Y12761D01*
X19324D01*
X19286Y12762D01*
X19251Y12767D01*
X19220Y12774D01*
X19194Y12780D01*
X19181Y12784D01*
X19171Y12787D01*
X19162Y12790D01*
X19154Y12792D01*
X19149Y12795D01*
X19144Y12797D01*
X19141Y12799D01*
X19140D01*
X19111Y12814D01*
X19085Y12831D01*
X19064Y12849D01*
X19046Y12865D01*
X19032Y12880D01*
X19021Y12892D01*
X19019Y12897D01*
X19016Y12901D01*
X19014Y12902D01*
Y12904D01*
X18999Y12929D01*
X18987Y12955D01*
X18980Y12979D01*
X18974Y13001D01*
X18971Y13020D01*
X18970Y13027D01*
Y13035D01*
X18969Y13040D01*
Y13044D01*
Y13046D01*
Y13047D01*
X18970Y13076D01*
X18975Y13101D01*
X18981Y13125D01*
X18989Y13145D01*
X18997Y13161D01*
X19004Y13174D01*
X19006Y13177D01*
X19009Y13181D01*
X19010Y13182D01*
Y13184D01*
X19026Y13205D01*
X19046Y13225D01*
X19066Y13241D01*
X19086Y13256D01*
X19105Y13267D01*
X19120Y13275D01*
X19126Y13279D01*
X19130Y13281D01*
X19132Y13282D01*
X19134D01*
X19145Y13287D01*
X19159Y13292D01*
X19175Y13297D01*
X19191Y13304D01*
X19226Y13314D01*
X19261Y13322D01*
X19279Y13327D01*
X19294Y13331D01*
X19309Y13335D01*
X19321Y13337D01*
X19331Y13340D01*
X19340Y13342D01*
X19345Y13344D01*
X19346D01*
X19374Y13350D01*
X19399Y13356D01*
X19421Y13362D01*
X19441Y13369D01*
X19459Y13375D01*
X19474Y13380D01*
X19488Y13386D01*
X19500Y13391D01*
X19509Y13395D01*
X19518Y13399D01*
X19524Y13402D01*
X19529Y13406D01*
X19533Y13407D01*
X19535Y13410D01*
X19538Y13411D01*
X19550Y13425D01*
X19559Y13439D01*
X19565Y13452D01*
X19569Y13466D01*
X19571Y13479D01*
X19574Y13487D01*
Y13494D01*
Y13496D01*
X19571Y13517D01*
X19565Y13537D01*
X19557Y13555D01*
X19547Y13570D01*
X19538Y13582D01*
X19530Y13591D01*
X19524Y13596D01*
X19521Y13599D01*
X19511Y13606D01*
X19499Y13612D01*
X19473Y13624D01*
X19445Y13631D01*
X19418Y13636D01*
X19392Y13639D01*
X19382Y13640D01*
X19373Y13641D01*
X19334D01*
X19315Y13639D01*
X19297Y13637D01*
X19281Y13634D01*
X19266Y13630D01*
X19253Y13626D01*
X19240Y13622D01*
X19229Y13619D01*
X19220Y13614D01*
X19211Y13610D01*
X19204Y13606D01*
X19197Y13602D01*
X19194Y13599D01*
X19190Y13597D01*
X19188Y13595D01*
X19167Y13576D01*
X19152Y13554D01*
X19141Y13531D01*
X19132Y13510D01*
X19126Y13490D01*
X19124Y13481D01*
X19123Y13474D01*
X19121Y13467D01*
X19120Y13462D01*
Y13460D01*
Y13459D01*
X18997Y13467D01*
X19000Y13497D01*
X19006Y13526D01*
X19014Y13551D01*
X19023Y13574D01*
X19031Y13592D01*
X19035Y13600D01*
X19037Y13606D01*
X19041Y13611D01*
X19043Y13615D01*
X19045Y13616D01*
Y13617D01*
X19062Y13641D01*
X19084Y13662D01*
X19104Y13680D01*
X19125Y13694D01*
X19143Y13705D01*
X19158Y13714D01*
X19164Y13716D01*
X19167Y13719D01*
X19170Y13720D01*
X19171D01*
X19203Y13731D01*
X19235Y13740D01*
X19266Y13746D01*
X19295Y13751D01*
X19309Y13752D01*
X19321Y13754D01*
X19331D01*
X19341Y13755D01*
X19359D01*
X19394Y13754D01*
D02*
G37*
G36*
X7971D02*
X8006Y13749D01*
X8040Y13742D01*
X8071Y13734D01*
X8101Y13724D01*
X8129Y13712D01*
X8154Y13700D01*
X8176Y13687D01*
X8196Y13674D01*
X8215Y13662D01*
X8230Y13650D01*
X8242Y13640D01*
X8253Y13631D01*
X8260Y13625D01*
X8265Y13620D01*
X8266Y13619D01*
X8289Y13592D01*
X8309Y13564D01*
X8325Y13534D01*
X8340Y13504D01*
X8353Y13472D01*
X8363Y13441D01*
X8371Y13411D01*
X8378Y13381D01*
X8382Y13354D01*
X8388Y13327D01*
X8390Y13305D01*
X8391Y13285D01*
X8393Y13267D01*
X8394Y13255D01*
Y13251D01*
Y13247D01*
Y13246D01*
Y13245D01*
X8393Y13221D01*
X8391Y13199D01*
X8385Y13154D01*
X8376Y13114D01*
X8371Y13095D01*
X8366Y13077D01*
X8361Y13062D01*
X8356Y13047D01*
X8351Y13035D01*
X8347Y13025D01*
X8344Y13016D01*
X8341Y13010D01*
X8339Y13006D01*
Y13005D01*
X8316Y12965D01*
X8290Y12929D01*
X8278Y12914D01*
X8264Y12899D01*
X8250Y12885D01*
X8238Y12872D01*
X8225Y12862D01*
X8214Y12852D01*
X8204Y12845D01*
X8195Y12839D01*
X8188Y12832D01*
X8183Y12829D01*
X8179Y12827D01*
X8177Y12826D01*
X8158Y12815D01*
X8136Y12805D01*
X8116Y12796D01*
X8095Y12789D01*
X8054Y12777D01*
X8016Y12770D01*
X7999Y12766D01*
X7984Y12765D01*
X7970Y12764D01*
X7958Y12762D01*
X7949Y12761D01*
X7935D01*
X7911Y12762D01*
X7889Y12764D01*
X7846Y12770D01*
X7806Y12780D01*
X7789Y12785D01*
X7771Y12791D01*
X7756Y12796D01*
X7742Y12801D01*
X7731Y12806D01*
X7721Y12811D01*
X7714Y12815D01*
X7707Y12817D01*
X7704Y12820D01*
X7703D01*
X7682Y12831D01*
X7664Y12844D01*
X7630Y12872D01*
X7601Y12901D01*
X7589Y12915D01*
X7577Y12929D01*
X7567Y12942D01*
X7559Y12954D01*
X7552Y12965D01*
X7546Y12975D01*
X7541Y12982D01*
X7538Y12989D01*
X7536Y12992D01*
X7535Y12994D01*
X7525Y13016D01*
X7515Y13039D01*
X7500Y13084D01*
X7490Y13127D01*
X7486Y13149D01*
X7483Y13169D01*
X7480Y13187D01*
X7477Y13204D01*
X7476Y13219D01*
Y13231D01*
X7475Y13242D01*
Y13250D01*
Y13255D01*
Y13256D01*
Y13282D01*
X7477Y13309D01*
X7484Y13357D01*
X7487Y13380D01*
X7492Y13401D01*
X7498Y13421D01*
X7502Y13439D01*
X7509Y13455D01*
X7514Y13470D01*
X7519Y13482D01*
X7523Y13494D01*
X7526Y13502D01*
X7529Y13509D01*
X7530Y13512D01*
X7531Y13514D01*
X7555Y13554D01*
X7567Y13572D01*
X7580Y13590D01*
X7594Y13605D01*
X7607Y13620D01*
X7621Y13634D01*
X7634Y13645D01*
X7646Y13656D01*
X7657Y13665D01*
X7669Y13672D01*
X7678Y13680D01*
X7685Y13685D01*
X7690Y13689D01*
X7694Y13690D01*
X7695Y13691D01*
X7715Y13702D01*
X7736Y13712D01*
X7756Y13721D01*
X7778Y13729D01*
X7818Y13740D01*
X7854Y13747D01*
X7871Y13750D01*
X7886Y13751D01*
X7900Y13752D01*
X7911Y13754D01*
X7921Y13755D01*
X7934D01*
X7971Y13754D01*
D02*
G37*
G36*
X16990Y12777D02*
X16924D01*
X16925Y12756D01*
X16927Y12739D01*
X16930Y12724D01*
X16934Y12710D01*
X16938Y12700D01*
X16941Y12694D01*
X16942Y12689D01*
X16944Y12687D01*
X16951Y12676D01*
X16960Y12666D01*
X16969Y12657D01*
X16977Y12651D01*
X16985Y12646D01*
X16991Y12641D01*
X16996Y12640D01*
X16997Y12639D01*
X16965Y12587D01*
X16945Y12597D01*
X16929Y12609D01*
X16914Y12621D01*
X16903Y12632D01*
X16894Y12642D01*
X16888Y12651D01*
X16884Y12656D01*
X16882Y12659D01*
X16874Y12676D01*
X16866Y12696D01*
X16861Y12716D01*
X16859Y12735D01*
X16856Y12751D01*
X16855Y12765D01*
Y12770D01*
Y12774D01*
Y12776D01*
Y12777D01*
Y12912D01*
X16990D01*
Y12777D01*
D02*
G37*
G36*
X12387D02*
X12023D01*
X11989Y12779D01*
X11959Y12780D01*
X11932Y12782D01*
X11910Y12785D01*
X11892Y12787D01*
X11885Y12789D01*
X11879Y12790D01*
X11874Y12791D01*
X11870Y12792D01*
X11868D01*
X11845Y12799D01*
X11824Y12806D01*
X11806Y12815D01*
X11791Y12822D01*
X11779Y12829D01*
X11770Y12835D01*
X11764Y12839D01*
X11762Y12840D01*
X11747Y12854D01*
X11734Y12867D01*
X11721Y12882D01*
X11711Y12897D01*
X11703Y12910D01*
X11696Y12920D01*
X11693Y12927D01*
X11691Y12930D01*
X11681Y12952D01*
X11675Y12974D01*
X11670Y12995D01*
X11666Y13014D01*
X11664Y13031D01*
X11662Y13044D01*
Y13049D01*
Y13052D01*
Y13054D01*
Y13055D01*
X11665Y13085D01*
X11670Y13112D01*
X11678Y13137D01*
X11686Y13159D01*
X11695Y13176D01*
X11703Y13189D01*
X11705Y13194D01*
X11708Y13197D01*
X11710Y13199D01*
Y13200D01*
X11729Y13221D01*
X11750Y13240D01*
X11773Y13255D01*
X11794Y13267D01*
X11814Y13277D01*
X11823Y13281D01*
X11829Y13284D01*
X11835Y13286D01*
X11840Y13287D01*
X11842Y13289D01*
X11844D01*
X11820Y13301D01*
X11800Y13316D01*
X11782Y13330D01*
X11767Y13344D01*
X11756Y13356D01*
X11749Y13366D01*
X11744Y13372D01*
X11743Y13375D01*
X11731Y13396D01*
X11723Y13416D01*
X11717Y13436D01*
X11712Y13455D01*
X11710Y13470D01*
X11709Y13482D01*
Y13486D01*
Y13490D01*
Y13491D01*
Y13492D01*
X11710Y13517D01*
X11715Y13540D01*
X11721Y13561D01*
X11727Y13580D01*
X11735Y13596D01*
X11741Y13609D01*
X11746Y13616D01*
X11747Y13617D01*
Y13619D01*
X11762Y13640D01*
X11780Y13659D01*
X11796Y13674D01*
X11814Y13686D01*
X11829Y13696D01*
X11840Y13704D01*
X11845Y13706D01*
X11849Y13707D01*
X11850Y13709D01*
X11851D01*
X11877Y13719D01*
X11906Y13726D01*
X11936Y13731D01*
X11964Y13735D01*
X11989Y13737D01*
X12000D01*
X12009Y13739D01*
X12387D01*
Y12777D01*
D02*
G37*
G36*
X11593D02*
X11459D01*
X11354Y13069D01*
X10951D01*
X10840Y12777D01*
X10696D01*
X11087Y13739D01*
X11226D01*
X11593Y12777D01*
D02*
G37*
G36*
X10217D02*
X9501D01*
Y12891D01*
X10090D01*
Y13219D01*
X9560D01*
Y13332D01*
X10090D01*
Y13625D01*
X9524D01*
Y13739D01*
X10217D01*
Y12777D01*
D02*
G37*
G36*
X21988Y11856D02*
X22013Y11853D01*
X22036Y11848D01*
X22059Y11842D01*
X22079Y11834D01*
X22099Y11826D01*
X22116Y11817D01*
X22132Y11808D01*
X22146Y11799D01*
X22159Y11791D01*
X22170Y11782D01*
X22179Y11774D01*
X22186Y11768D01*
X22191Y11763D01*
X22194Y11761D01*
X22195Y11759D01*
X22211Y11741D01*
X22225Y11721D01*
X22236Y11698D01*
X22248Y11676D01*
X22256Y11653D01*
X22262Y11631D01*
X22269Y11608D01*
X22274Y11587D01*
X22278Y11567D01*
X22280Y11548D01*
X22283Y11531D01*
X22284Y11516D01*
Y11504D01*
X22285Y11494D01*
Y11489D01*
Y11487D01*
X22284Y11456D01*
X22281Y11427D01*
X22276Y11401D01*
X22271Y11374D01*
X22265Y11352D01*
X22257Y11329D01*
X22249Y11311D01*
X22240Y11292D01*
X22232Y11277D01*
X22224Y11263D01*
X22216Y11252D01*
X22210Y11242D01*
X22205Y11234D01*
X22200Y11229D01*
X22197Y11226D01*
X22196Y11224D01*
X22179Y11208D01*
X22160Y11193D01*
X22140Y11181D01*
X22120Y11171D01*
X22100Y11161D01*
X22080Y11153D01*
X22060Y11147D01*
X22041Y11142D01*
X22024Y11138D01*
X22006Y11136D01*
X21991Y11133D01*
X21979Y11132D01*
X21969D01*
X21960Y11131D01*
X21954D01*
X21931Y11132D01*
X21910Y11133D01*
X21871Y11139D01*
X21854Y11144D01*
X21837Y11149D01*
X21823Y11154D01*
X21809Y11161D01*
X21796Y11166D01*
X21786Y11171D01*
X21776Y11176D01*
X21769Y11181D01*
X21762Y11184D01*
X21759Y11187D01*
X21756Y11189D01*
X21755D01*
X21729Y11213D01*
X21706Y11241D01*
X21688Y11268D01*
X21672Y11294D01*
X21662Y11318D01*
X21658Y11329D01*
X21655Y11338D01*
X21651Y11346D01*
X21650Y11351D01*
X21649Y11354D01*
Y11356D01*
X21771Y11372D01*
X21781Y11346D01*
X21794Y11323D01*
X21806Y11303D01*
X21818Y11288D01*
X21827Y11277D01*
X21836Y11268D01*
X21841Y11263D01*
X21844Y11262D01*
X21861Y11251D01*
X21880Y11242D01*
X21899Y11237D01*
X21915Y11232D01*
X21931Y11229D01*
X21943Y11228D01*
X21954D01*
X21970Y11229D01*
X21985Y11231D01*
X22014Y11238D01*
X22039Y11247D01*
X22060Y11258D01*
X22076Y11269D01*
X22090Y11279D01*
X22094Y11283D01*
X22097Y11286D01*
X22099Y11287D01*
X22100Y11288D01*
X22110Y11301D01*
X22119Y11313D01*
X22134Y11341D01*
X22145Y11369D01*
X22154Y11398D01*
X22159Y11423D01*
X22160Y11434D01*
X22161Y11444D01*
X22162Y11452D01*
X22164Y11458D01*
Y11462D01*
Y11463D01*
X21645D01*
X21644Y11477D01*
Y11487D01*
Y11492D01*
Y11494D01*
X21645Y11526D01*
X21648Y11556D01*
X21653Y11583D01*
X21658Y11609D01*
X21664Y11633D01*
X21671Y11654D01*
X21680Y11674D01*
X21688Y11693D01*
X21696Y11709D01*
X21705Y11723D01*
X21713Y11734D01*
X21719Y11744D01*
X21724Y11752D01*
X21729Y11757D01*
X21731Y11761D01*
X21732Y11762D01*
X21750Y11778D01*
X21767Y11793D01*
X21786Y11806D01*
X21806Y11817D01*
X21825Y11826D01*
X21844Y11833D01*
X21862Y11841D01*
X21880Y11846D01*
X21896Y11849D01*
X21913Y11852D01*
X21926Y11854D01*
X21937Y11856D01*
X21948Y11857D01*
X21961D01*
X21988Y11856D01*
D02*
G37*
G36*
X21455Y10002D02*
X21093D01*
Y10120D01*
X21455D01*
Y10002D01*
D02*
G37*
G36*
X18769D02*
X18406D01*
Y10120D01*
X18769D01*
Y10002D01*
D02*
G37*
G36*
X20986Y10548D02*
X20516D01*
X20549Y10508D01*
X20581Y10465D01*
X20610Y10423D01*
X20635Y10383D01*
X20646Y10365D01*
X20656Y10348D01*
X20665Y10333D01*
X20673Y10320D01*
X20679Y10310D01*
X20682Y10302D01*
X20685Y10297D01*
X20686Y10295D01*
X20714Y10239D01*
X20739Y10184D01*
X20759Y10132D01*
X20769Y10108D01*
X20776Y10084D01*
X20784Y10063D01*
X20790Y10044D01*
X20795Y10028D01*
X20800Y10013D01*
X20803Y10002D01*
X20805Y9993D01*
X20807Y9988D01*
Y9985D01*
X20815Y9955D01*
X20821Y9928D01*
X20828Y9900D01*
X20833Y9875D01*
X20836Y9852D01*
X20840Y9829D01*
X20842Y9808D01*
X20845Y9789D01*
X20847Y9772D01*
X20849Y9757D01*
X20850Y9744D01*
Y9733D01*
X20851Y9724D01*
Y9718D01*
Y9714D01*
Y9713D01*
X20730D01*
X20725Y9765D01*
X20719Y9814D01*
X20716Y9837D01*
X20712Y9859D01*
X20707Y9879D01*
X20704Y9898D01*
X20700Y9915D01*
X20698Y9930D01*
X20694Y9944D01*
X20691Y9955D01*
X20689Y9964D01*
X20686Y9972D01*
X20685Y9975D01*
Y9977D01*
X20665Y10040D01*
X20642Y10100D01*
X20631Y10129D01*
X20620Y10157D01*
X20609Y10183D01*
X20598Y10207D01*
X20587Y10229D01*
X20577Y10249D01*
X20570Y10267D01*
X20563Y10282D01*
X20556Y10293D01*
X20551Y10302D01*
X20549Y10308D01*
X20547Y10309D01*
X20530Y10339D01*
X20514Y10367D01*
X20498Y10394D01*
X20481Y10418D01*
X20465Y10442D01*
X20450Y10463D01*
X20436Y10483D01*
X20422Y10500D01*
X20410Y10515D01*
X20399Y10529D01*
X20389Y10542D01*
X20381Y10552D01*
X20374Y10559D01*
X20369Y10564D01*
X20366Y10568D01*
X20365Y10569D01*
Y10662D01*
X20986D01*
Y10548D01*
D02*
G37*
G36*
X24106Y10168D02*
X23995Y10152D01*
X23985Y10167D01*
X23974Y10179D01*
X23961Y10192D01*
X23950Y10200D01*
X23940Y10209D01*
X23932Y10214D01*
X23928Y10218D01*
X23925Y10219D01*
X23907Y10228D01*
X23889Y10235D01*
X23871Y10240D01*
X23856Y10243D01*
X23841Y10245D01*
X23831Y10247D01*
X23804D01*
X23789Y10244D01*
X23759Y10238D01*
X23734Y10228D01*
X23712Y10218D01*
X23695Y10207D01*
X23682Y10197D01*
X23679Y10193D01*
X23675Y10190D01*
X23672Y10189D01*
Y10188D01*
X23663Y10177D01*
X23654Y10164D01*
X23640Y10138D01*
X23630Y10112D01*
X23624Y10085D01*
X23619Y10063D01*
X23617Y10053D01*
Y10044D01*
X23616Y10038D01*
Y10033D01*
Y10029D01*
Y10028D01*
Y10008D01*
X23619Y9990D01*
X23625Y9957D01*
X23635Y9928D01*
X23645Y9903D01*
X23651Y9893D01*
X23656Y9884D01*
X23661Y9875D01*
X23666Y9869D01*
X23670Y9864D01*
X23672Y9860D01*
X23674Y9859D01*
X23675Y9858D01*
X23686Y9847D01*
X23698Y9837D01*
X23710Y9828D01*
X23723Y9822D01*
X23746Y9809D01*
X23770Y9802D01*
X23790Y9798D01*
X23799Y9797D01*
X23805Y9795D01*
X23811Y9794D01*
X23820D01*
X23846Y9797D01*
X23869Y9802D01*
X23890Y9808D01*
X23907Y9817D01*
X23921Y9824D01*
X23932Y9832D01*
X23939Y9837D01*
X23941Y9838D01*
X23958Y9857D01*
X23971Y9878D01*
X23983Y9900D01*
X23991Y9923D01*
X23996Y9942D01*
X23999Y9950D01*
X24001Y9958D01*
X24002Y9964D01*
Y9969D01*
X24004Y9972D01*
Y9973D01*
X24128Y9964D01*
X24125Y9942D01*
X24120Y9920D01*
X24115Y9902D01*
X24107Y9883D01*
X24101Y9865D01*
X24093Y9849D01*
X24085Y9834D01*
X24076Y9822D01*
X24069Y9809D01*
X24060Y9799D01*
X24054Y9790D01*
X24046Y9783D01*
X24041Y9777D01*
X24037Y9773D01*
X24035Y9770D01*
X24034Y9769D01*
X24018Y9757D01*
X24001Y9745D01*
X23984Y9735D01*
X23965Y9728D01*
X23948Y9720D01*
X23930Y9714D01*
X23896Y9705D01*
X23880Y9703D01*
X23866Y9700D01*
X23853Y9699D01*
X23841Y9698D01*
X23832Y9697D01*
X23820D01*
X23791Y9698D01*
X23764Y9702D01*
X23737Y9708D01*
X23712Y9715D01*
X23690Y9724D01*
X23670Y9733D01*
X23651Y9744D01*
X23634Y9755D01*
X23619Y9765D01*
X23605Y9777D01*
X23594Y9785D01*
X23585Y9795D01*
X23577Y9802D01*
X23571Y9808D01*
X23569Y9812D01*
X23568Y9813D01*
X23554Y9832D01*
X23542Y9850D01*
X23533Y9869D01*
X23524Y9888D01*
X23516Y9907D01*
X23510Y9925D01*
X23501Y9962D01*
X23498Y9977D01*
X23495Y9992D01*
X23494Y10005D01*
X23493Y10017D01*
X23491Y10025D01*
Y10032D01*
Y10037D01*
Y10038D01*
X23493Y10063D01*
X23495Y10087D01*
X23499Y10109D01*
X23505Y10132D01*
X23511Y10152D01*
X23519Y10169D01*
X23526Y10187D01*
X23535Y10202D01*
X23542Y10215D01*
X23551Y10228D01*
X23559Y10238D01*
X23565Y10247D01*
X23571Y10254D01*
X23575Y10259D01*
X23577Y10262D01*
X23579Y10263D01*
X23595Y10278D01*
X23612Y10292D01*
X23630Y10303D01*
X23647Y10314D01*
X23666Y10322D01*
X23684Y10329D01*
X23700Y10335D01*
X23716Y10339D01*
X23733Y10343D01*
X23746Y10345D01*
X23759Y10348D01*
X23769Y10349D01*
X23777Y10350D01*
X23790D01*
X23807Y10349D01*
X23825Y10348D01*
X23859Y10340D01*
X23889Y10332D01*
X23916Y10320D01*
X23929Y10314D01*
X23939Y10309D01*
X23949Y10303D01*
X23956Y10299D01*
X23963Y10295D01*
X23967Y10292D01*
X23970Y10290D01*
X23971Y10289D01*
X23920Y10549D01*
X23536D01*
Y10662D01*
X24014D01*
X24106Y10168D01*
D02*
G37*
G36*
X22357Y10677D02*
X22380Y10674D01*
X22403Y10669D01*
X22422Y10664D01*
X22441Y10657D01*
X22459Y10649D01*
X22476Y10642D01*
X22490Y10633D01*
X22504Y10624D01*
X22516Y10617D01*
X22526Y10609D01*
X22535Y10602D01*
X22541Y10597D01*
X22546Y10592D01*
X22549Y10589D01*
X22550Y10588D01*
X22565Y10570D01*
X22578Y10553D01*
X22589Y10533D01*
X22599Y10514D01*
X22608Y10494D01*
X22614Y10474D01*
X22624Y10437D01*
X22627Y10420D01*
X22630Y10404D01*
X22633Y10389D01*
X22634Y10377D01*
X22635Y10367D01*
Y10359D01*
Y10354D01*
Y10353D01*
X22634Y10327D01*
X22631Y10303D01*
X22627Y10279D01*
X22622Y10258D01*
X22616Y10238D01*
X22609Y10219D01*
X22601Y10202D01*
X22594Y10187D01*
X22586Y10173D01*
X22579Y10160D01*
X22571Y10149D01*
X22565Y10142D01*
X22560Y10134D01*
X22556Y10129D01*
X22554Y10127D01*
X22552Y10125D01*
X22536Y10110D01*
X22520Y10097D01*
X22504Y10085D01*
X22486Y10075D01*
X22469Y10067D01*
X22452Y10060D01*
X22436Y10054D01*
X22421Y10050D01*
X22406Y10047D01*
X22394Y10044D01*
X22381Y10042D01*
X22371Y10040D01*
X22362Y10039D01*
X22351D01*
X22325Y10040D01*
X22300Y10044D01*
X22278Y10050D01*
X22259Y10057D01*
X22241Y10063D01*
X22230Y10069D01*
X22225Y10070D01*
X22221Y10073D01*
X22220Y10074D01*
X22219D01*
X22197Y10088D01*
X22178Y10103D01*
X22161Y10118D01*
X22148Y10133D01*
X22136Y10145D01*
X22127Y10157D01*
X22122Y10163D01*
X22121Y10165D01*
Y10155D01*
Y10148D01*
Y10143D01*
Y10142D01*
X22122Y10114D01*
X22124Y10088D01*
X22126Y10063D01*
X22130Y10042D01*
X22134Y10023D01*
X22135Y10015D01*
X22136Y10009D01*
X22137Y10004D01*
Y10000D01*
X22139Y9998D01*
Y9997D01*
X22145Y9972D01*
X22153Y9949D01*
X22160Y9930D01*
X22167Y9914D01*
X22174Y9902D01*
X22178Y9892D01*
X22181Y9887D01*
X22183Y9884D01*
X22192Y9869D01*
X22204Y9857D01*
X22215Y9845D01*
X22226Y9835D01*
X22235Y9828D01*
X22243Y9823D01*
X22249Y9819D01*
X22250Y9818D01*
X22266Y9810D01*
X22283Y9804D01*
X22299Y9800D01*
X22313Y9797D01*
X22326Y9795D01*
X22336Y9794D01*
X22345D01*
X22367Y9795D01*
X22389Y9799D01*
X22406Y9805D01*
X22421Y9812D01*
X22434Y9818D01*
X22443Y9824D01*
X22448Y9828D01*
X22450Y9829D01*
X22464Y9844D01*
X22475Y9862D01*
X22485Y9880D01*
X22491Y9900D01*
X22497Y9917D01*
X22501Y9932D01*
X22503Y9937D01*
Y9940D01*
X22504Y9943D01*
Y9944D01*
X22617Y9935D01*
X22614Y9914D01*
X22610Y9895D01*
X22605Y9877D01*
X22599Y9860D01*
X22591Y9844D01*
X22585Y9829D01*
X22578Y9817D01*
X22570Y9804D01*
X22562Y9794D01*
X22556Y9785D01*
X22550Y9777D01*
X22544Y9770D01*
X22539Y9765D01*
X22535Y9762D01*
X22534Y9760D01*
X22532Y9759D01*
X22519Y9748D01*
X22504Y9739D01*
X22489Y9730D01*
X22474Y9723D01*
X22443Y9712D01*
X22414Y9704D01*
X22400Y9702D01*
X22387Y9700D01*
X22378Y9699D01*
X22367Y9698D01*
X22360Y9697D01*
X22349D01*
X22329Y9698D01*
X22310Y9699D01*
X22275Y9705D01*
X22244Y9714D01*
X22216Y9725D01*
X22205Y9730D01*
X22194Y9735D01*
X22185Y9740D01*
X22178Y9744D01*
X22171Y9748D01*
X22167Y9750D01*
X22165Y9753D01*
X22164D01*
X22135Y9777D01*
X22111Y9803D01*
X22090Y9830D01*
X22074Y9858D01*
X22060Y9882D01*
X22055Y9892D01*
X22051Y9902D01*
X22048Y9909D01*
X22045Y9914D01*
X22044Y9918D01*
Y9919D01*
X22036Y9940D01*
X22030Y9963D01*
X22020Y10010D01*
X22014Y10060D01*
X22011Y10084D01*
X22009Y10107D01*
X22008Y10129D01*
X22006Y10149D01*
X22005Y10167D01*
X22004Y10183D01*
Y10195D01*
Y10205D01*
Y10210D01*
Y10213D01*
Y10245D01*
X22005Y10275D01*
X22008Y10303D01*
X22010Y10329D01*
X22014Y10354D01*
X22016Y10375D01*
X22020Y10395D01*
X22024Y10414D01*
X22029Y10430D01*
X22032Y10444D01*
X22035Y10455D01*
X22039Y10465D01*
X22041Y10473D01*
X22044Y10479D01*
X22045Y10482D01*
Y10483D01*
X22061Y10517D01*
X22080Y10545D01*
X22100Y10569D01*
X22119Y10590D01*
X22136Y10605D01*
X22150Y10618D01*
X22155Y10622D01*
X22159Y10624D01*
X22161Y10627D01*
X22162D01*
X22192Y10644D01*
X22222Y10657D01*
X22251Y10665D01*
X22278Y10672D01*
X22300Y10675D01*
X22310Y10677D01*
X22318D01*
X22325Y10678D01*
X22334D01*
X22357Y10677D01*
D02*
G37*
G36*
X18030D02*
X18053Y10674D01*
X18075Y10669D01*
X18095Y10664D01*
X18114Y10657D01*
X18131Y10649D01*
X18149Y10642D01*
X18162Y10633D01*
X18176Y10624D01*
X18189Y10617D01*
X18199Y10609D01*
X18207Y10602D01*
X18214Y10597D01*
X18219Y10592D01*
X18221Y10589D01*
X18223Y10588D01*
X18238Y10570D01*
X18250Y10553D01*
X18261Y10533D01*
X18271Y10514D01*
X18280Y10494D01*
X18286Y10474D01*
X18296Y10437D01*
X18300Y10420D01*
X18303Y10404D01*
X18305Y10389D01*
X18306Y10377D01*
X18307Y10367D01*
Y10359D01*
Y10354D01*
Y10353D01*
X18306Y10327D01*
X18304Y10303D01*
X18300Y10279D01*
X18295Y10258D01*
X18289Y10238D01*
X18281Y10219D01*
X18274Y10202D01*
X18266Y10187D01*
X18259Y10173D01*
X18251Y10160D01*
X18244Y10149D01*
X18238Y10142D01*
X18233Y10134D01*
X18229Y10129D01*
X18226Y10127D01*
X18225Y10125D01*
X18209Y10110D01*
X18192Y10097D01*
X18176Y10085D01*
X18159Y10075D01*
X18141Y10067D01*
X18125Y10060D01*
X18109Y10054D01*
X18094Y10050D01*
X18079Y10047D01*
X18066Y10044D01*
X18054Y10042D01*
X18044Y10040D01*
X18035Y10039D01*
X18024D01*
X17997Y10040D01*
X17973Y10044D01*
X17950Y10050D01*
X17931Y10057D01*
X17914Y10063D01*
X17902Y10069D01*
X17897Y10070D01*
X17894Y10073D01*
X17893Y10074D01*
X17891D01*
X17870Y10088D01*
X17850Y10103D01*
X17834Y10118D01*
X17820Y10133D01*
X17809Y10145D01*
X17800Y10157D01*
X17795Y10163D01*
X17794Y10165D01*
Y10155D01*
Y10148D01*
Y10143D01*
Y10142D01*
X17795Y10114D01*
X17796Y10088D01*
X17799Y10063D01*
X17802Y10042D01*
X17806Y10023D01*
X17808Y10015D01*
X17809Y10009D01*
X17810Y10004D01*
Y10000D01*
X17811Y9998D01*
Y9997D01*
X17817Y9972D01*
X17825Y9949D01*
X17832Y9930D01*
X17840Y9914D01*
X17846Y9902D01*
X17850Y9892D01*
X17854Y9887D01*
X17855Y9884D01*
X17865Y9869D01*
X17876Y9857D01*
X17888Y9845D01*
X17899Y9835D01*
X17908Y9828D01*
X17915Y9823D01*
X17921Y9819D01*
X17923Y9818D01*
X17939Y9810D01*
X17955Y9804D01*
X17971Y9800D01*
X17985Y9797D01*
X17999Y9795D01*
X18009Y9794D01*
X18017D01*
X18040Y9795D01*
X18061Y9799D01*
X18079Y9805D01*
X18094Y9812D01*
X18106Y9818D01*
X18115Y9824D01*
X18120Y9828D01*
X18123Y9829D01*
X18136Y9844D01*
X18147Y9862D01*
X18158Y9880D01*
X18164Y9900D01*
X18170Y9917D01*
X18174Y9932D01*
X18175Y9937D01*
Y9940D01*
X18176Y9943D01*
Y9944D01*
X18290Y9935D01*
X18286Y9914D01*
X18283Y9895D01*
X18277Y9877D01*
X18271Y9860D01*
X18264Y9844D01*
X18257Y9829D01*
X18250Y9817D01*
X18242Y9804D01*
X18235Y9794D01*
X18229Y9785D01*
X18223Y9777D01*
X18216Y9770D01*
X18211Y9765D01*
X18207Y9762D01*
X18206Y9760D01*
X18205Y9759D01*
X18191Y9748D01*
X18176Y9739D01*
X18161Y9730D01*
X18146Y9723D01*
X18115Y9712D01*
X18086Y9704D01*
X18073Y9702D01*
X18060Y9700D01*
X18050Y9699D01*
X18040Y9698D01*
X18032Y9697D01*
X18021D01*
X18001Y9698D01*
X17982Y9699D01*
X17947Y9705D01*
X17916Y9714D01*
X17889Y9725D01*
X17878Y9730D01*
X17866Y9735D01*
X17858Y9740D01*
X17850Y9744D01*
X17844Y9748D01*
X17840Y9750D01*
X17838Y9753D01*
X17836D01*
X17808Y9777D01*
X17784Y9803D01*
X17763Y9830D01*
X17746Y9858D01*
X17732Y9882D01*
X17728Y9892D01*
X17724Y9902D01*
X17720Y9909D01*
X17717Y9914D01*
X17716Y9918D01*
Y9919D01*
X17709Y9940D01*
X17702Y9963D01*
X17693Y10010D01*
X17686Y10060D01*
X17684Y10084D01*
X17681Y10107D01*
X17680Y10129D01*
X17679Y10149D01*
X17678Y10167D01*
X17676Y10183D01*
Y10195D01*
Y10205D01*
Y10210D01*
Y10213D01*
Y10245D01*
X17678Y10275D01*
X17680Y10303D01*
X17682Y10329D01*
X17686Y10354D01*
X17689Y10375D01*
X17693Y10395D01*
X17696Y10414D01*
X17701Y10430D01*
X17705Y10444D01*
X17708Y10455D01*
X17711Y10465D01*
X17714Y10473D01*
X17716Y10479D01*
X17717Y10482D01*
Y10483D01*
X17734Y10517D01*
X17752Y10545D01*
X17773Y10569D01*
X17791Y10590D01*
X17809Y10605D01*
X17823Y10618D01*
X17828Y10622D01*
X17831Y10624D01*
X17834Y10627D01*
X17835D01*
X17865Y10644D01*
X17895Y10657D01*
X17924Y10665D01*
X17950Y10672D01*
X17973Y10675D01*
X17982Y10677D01*
X17990D01*
X17997Y10678D01*
X18006D01*
X18030Y10677D01*
D02*
G37*
G36*
X17286Y10675D02*
X17320Y10669D01*
X17350Y10660D01*
X17375Y10650D01*
X17386Y10644D01*
X17395Y10639D01*
X17404Y10634D01*
X17410Y10630D01*
X17415Y10627D01*
X17419Y10624D01*
X17421Y10623D01*
X17422Y10622D01*
X17446Y10599D01*
X17467Y10573D01*
X17485Y10545D01*
X17500Y10520D01*
X17511Y10497D01*
X17516Y10487D01*
X17520Y10478D01*
X17522Y10470D01*
X17525Y10465D01*
X17526Y10462D01*
Y10460D01*
X17533Y10440D01*
X17537Y10419D01*
X17546Y10374D01*
X17552Y10328D01*
X17556Y10284D01*
X17559Y10264D01*
Y10245D01*
X17560Y10229D01*
X17561Y10215D01*
Y10203D01*
Y10194D01*
Y10189D01*
Y10187D01*
X17560Y10138D01*
X17557Y10092D01*
X17552Y10050D01*
X17546Y10012D01*
X17540Y9975D01*
X17531Y9944D01*
X17522Y9915D01*
X17514Y9889D01*
X17505Y9867D01*
X17498Y9848D01*
X17489Y9832D01*
X17483Y9818D01*
X17476Y9808D01*
X17471Y9802D01*
X17469Y9797D01*
X17467Y9795D01*
X17451Y9778D01*
X17435Y9763D01*
X17418Y9749D01*
X17400Y9738D01*
X17381Y9729D01*
X17363Y9720D01*
X17345Y9714D01*
X17328Y9709D01*
X17311Y9705D01*
X17296Y9702D01*
X17284Y9699D01*
X17271Y9698D01*
X17263D01*
X17255Y9697D01*
X17249D01*
X17230Y9698D01*
X17211Y9699D01*
X17177Y9705D01*
X17148Y9714D01*
X17122Y9725D01*
X17111Y9730D01*
X17103Y9735D01*
X17094Y9740D01*
X17088Y9744D01*
X17083Y9748D01*
X17077Y9750D01*
X17076Y9753D01*
X17075D01*
X17050Y9775D01*
X17029Y9802D01*
X17011Y9828D01*
X16996Y9854D01*
X16985Y9877D01*
X16980Y9887D01*
X16976Y9895D01*
X16974Y9903D01*
X16971Y9908D01*
X16970Y9912D01*
Y9913D01*
X16964Y9933D01*
X16959Y9954D01*
X16950Y9999D01*
X16944Y10045D01*
X16939Y10089D01*
X16938Y10109D01*
X16936Y10128D01*
Y10144D01*
X16935Y10158D01*
Y10170D01*
Y10179D01*
Y10184D01*
Y10187D01*
Y10213D01*
X16936Y10238D01*
X16938Y10260D01*
X16939Y10282D01*
X16940Y10303D01*
X16942Y10320D01*
X16944Y10338D01*
X16946Y10353D01*
X16949Y10367D01*
X16950Y10379D01*
X16953Y10389D01*
X16954Y10398D01*
X16955Y10404D01*
X16956Y10409D01*
X16957Y10412D01*
Y10413D01*
X16966Y10443D01*
X16975Y10472D01*
X16985Y10495D01*
X16995Y10517D01*
X17004Y10534D01*
X17010Y10547D01*
X17012Y10550D01*
X17015Y10554D01*
X17016Y10555D01*
Y10557D01*
X17031Y10578D01*
X17047Y10595D01*
X17064Y10610D01*
X17079Y10624D01*
X17092Y10634D01*
X17103Y10640D01*
X17110Y10645D01*
X17111Y10647D01*
X17112D01*
X17135Y10657D01*
X17159Y10664D01*
X17181Y10670D01*
X17203Y10674D01*
X17221Y10677D01*
X17229D01*
X17236Y10678D01*
X17268D01*
X17286Y10675D01*
D02*
G37*
G36*
X24340Y10659D02*
X24361Y10629D01*
X24380Y10599D01*
X24399Y10569D01*
X24415Y10540D01*
X24430Y10513D01*
X24443Y10487D01*
X24455Y10463D01*
X24466Y10440D01*
X24475Y10420D01*
X24483Y10403D01*
X24489Y10388D01*
X24494Y10375D01*
X24497Y10367D01*
X24499Y10362D01*
X24500Y10359D01*
X24516Y10305D01*
X24529Y10253D01*
X24537Y10202D01*
X24541Y10178D01*
X24544Y10157D01*
X24546Y10135D01*
X24548Y10118D01*
X24549Y10102D01*
Y10087D01*
X24550Y10075D01*
Y10068D01*
Y10062D01*
Y10060D01*
X24549Y10028D01*
X24548Y9994D01*
X24540Y9932D01*
X24535Y9903D01*
X24529Y9874D01*
X24523Y9848D01*
X24516Y9823D01*
X24511Y9800D01*
X24505Y9779D01*
X24499Y9762D01*
X24494Y9747D01*
X24490Y9734D01*
X24486Y9725D01*
X24485Y9720D01*
X24484Y9718D01*
X24457Y9659D01*
X24444Y9630D01*
X24429Y9604D01*
X24415Y9579D01*
X24401Y9555D01*
X24388Y9533D01*
X24375Y9513D01*
X24364Y9494D01*
X24353Y9478D01*
X24343Y9464D01*
X24334Y9453D01*
X24327Y9443D01*
X24321Y9437D01*
X24319Y9432D01*
X24318Y9430D01*
X24232D01*
X24267Y9489D01*
X24297Y9548D01*
X24324Y9605D01*
X24346Y9662D01*
X24365Y9715D01*
X24381Y9768D01*
X24394Y9817D01*
X24404Y9863D01*
X24413Y9905D01*
X24419Y9944D01*
X24421Y9962D01*
X24423Y9978D01*
X24424Y9993D01*
X24426Y10007D01*
Y10018D01*
X24427Y10029D01*
Y10038D01*
X24429Y10047D01*
Y10053D01*
Y10057D01*
Y10059D01*
Y10060D01*
X24427Y10107D01*
X24425Y10152D01*
X24420Y10193D01*
X24418Y10212D01*
X24415Y10230D01*
X24413Y10247D01*
X24410Y10262D01*
X24407Y10274D01*
X24405Y10285D01*
X24404Y10294D01*
X24402Y10302D01*
X24401Y10305D01*
Y10307D01*
X24392Y10343D01*
X24383Y10378D01*
X24371Y10409D01*
X24361Y10438D01*
X24356Y10450D01*
X24353Y10462D01*
X24349Y10472D01*
X24345Y10479D01*
X24343Y10487D01*
X24340Y10492D01*
X24339Y10494D01*
Y10495D01*
X24334Y10507D01*
X24326Y10520D01*
X24311Y10550D01*
X24294Y10583D01*
X24276Y10614D01*
X24267Y10629D01*
X24259Y10644D01*
X24251Y10657D01*
X24245Y10668D01*
X24240Y10678D01*
X24236Y10684D01*
X24234Y10689D01*
X24232Y10690D01*
X24318D01*
X24340Y10659D01*
D02*
G37*
G36*
X21849Y10665D02*
X21836Y10642D01*
X21824Y10620D01*
X21814Y10602D01*
X21804Y10583D01*
X21795Y10567D01*
X21788Y10553D01*
X21781Y10539D01*
X21775Y10528D01*
X21771Y10519D01*
X21767Y10510D01*
X21764Y10504D01*
X21761Y10499D01*
X21760Y10495D01*
X21759Y10494D01*
Y10493D01*
X21745Y10459D01*
X21732Y10425D01*
X21721Y10394D01*
X21713Y10365D01*
X21709Y10352D01*
X21705Y10340D01*
X21702Y10330D01*
X21700Y10322D01*
X21699Y10314D01*
X21697Y10309D01*
X21696Y10305D01*
Y10304D01*
X21686Y10259D01*
X21680Y10215D01*
X21675Y10174D01*
X21672Y10154D01*
X21671Y10137D01*
X21670Y10120D01*
X21669Y10105D01*
Y10093D01*
X21667Y10082D01*
Y10073D01*
Y10065D01*
Y10062D01*
Y10060D01*
X21670Y10002D01*
X21676Y9943D01*
X21685Y9885D01*
X21697Y9829D01*
X21713Y9774D01*
X21730Y9722D01*
X21748Y9673D01*
X21765Y9627D01*
X21784Y9584D01*
X21801Y9547D01*
X21810Y9529D01*
X21819Y9513D01*
X21826Y9498D01*
X21832Y9484D01*
X21840Y9472D01*
X21845Y9462D01*
X21851Y9452D01*
X21855Y9444D01*
X21859Y9438D01*
X21861Y9434D01*
X21864Y9432D01*
Y9430D01*
X21779D01*
X21744Y9478D01*
X21713Y9528D01*
X21685Y9575D01*
X21672Y9599D01*
X21661Y9620D01*
X21650Y9640D01*
X21641Y9659D01*
X21634Y9677D01*
X21628Y9690D01*
X21621Y9702D01*
X21618Y9710D01*
X21616Y9717D01*
X21615Y9718D01*
X21602Y9749D01*
X21593Y9780D01*
X21583Y9810D01*
X21575Y9842D01*
X21569Y9870D01*
X21562Y9899D01*
X21559Y9925D01*
X21555Y9952D01*
X21553Y9974D01*
X21550Y9995D01*
X21549Y10014D01*
X21548Y10030D01*
X21546Y10043D01*
Y10053D01*
Y10058D01*
Y10060D01*
X21549Y10118D01*
X21554Y10173D01*
X21558Y10199D01*
X21562Y10224D01*
X21567Y10247D01*
X21571Y10268D01*
X21576Y10288D01*
X21581Y10305D01*
X21585Y10322D01*
X21590Y10334D01*
X21593Y10345D01*
X21595Y10353D01*
X21597Y10358D01*
Y10359D01*
X21609Y10390D01*
X21623Y10422D01*
X21650Y10482D01*
X21665Y10509D01*
X21681Y10537D01*
X21695Y10563D01*
X21710Y10587D01*
X21724Y10609D01*
X21736Y10629D01*
X21749Y10647D01*
X21759Y10662D01*
X21767Y10674D01*
X21774Y10683D01*
X21778Y10689D01*
X21779Y10690D01*
X21864D01*
X21849Y10665D01*
D02*
G37*
G36*
X16109Y10052D02*
Y9943D01*
X15691D01*
Y9713D01*
X15574D01*
Y9943D01*
X15444D01*
Y10052D01*
X15574D01*
Y10674D01*
X15670D01*
X16109Y10052D01*
D02*
G37*
G36*
X23106Y10675D02*
X23140Y10669D01*
X23170Y10660D01*
X23195Y10650D01*
X23206Y10644D01*
X23215Y10639D01*
X23224Y10634D01*
X23230Y10630D01*
X23235Y10627D01*
X23239Y10624D01*
X23241Y10623D01*
X23242Y10622D01*
X23266Y10599D01*
X23287Y10573D01*
X23305Y10545D01*
X23320Y10520D01*
X23331Y10497D01*
X23336Y10487D01*
X23340Y10478D01*
X23342Y10470D01*
X23345Y10465D01*
X23346Y10462D01*
Y10460D01*
X23352Y10440D01*
X23358Y10419D01*
X23366Y10374D01*
X23372Y10328D01*
X23376Y10284D01*
X23379Y10264D01*
Y10245D01*
X23380Y10229D01*
X23381Y10215D01*
Y10203D01*
Y10194D01*
Y10189D01*
Y10187D01*
X23380Y10138D01*
X23377Y10092D01*
X23372Y10050D01*
X23366Y10012D01*
X23360Y9975D01*
X23351Y9944D01*
X23342Y9915D01*
X23334Y9889D01*
X23325Y9867D01*
X23317Y9848D01*
X23309Y9832D01*
X23303Y9818D01*
X23296Y9808D01*
X23291Y9802D01*
X23289Y9797D01*
X23287Y9795D01*
X23271Y9778D01*
X23255Y9763D01*
X23238Y9749D01*
X23220Y9738D01*
X23201Y9729D01*
X23182Y9720D01*
X23165Y9714D01*
X23147Y9709D01*
X23131Y9705D01*
X23116Y9702D01*
X23104Y9699D01*
X23091Y9698D01*
X23082D01*
X23075Y9697D01*
X23069D01*
X23050Y9698D01*
X23031Y9699D01*
X22998Y9705D01*
X22968Y9714D01*
X22943Y9725D01*
X22931Y9730D01*
X22922Y9735D01*
X22914Y9740D01*
X22908Y9744D01*
X22903Y9748D01*
X22898Y9750D01*
X22896Y9753D01*
X22895D01*
X22870Y9775D01*
X22849Y9802D01*
X22831Y9828D01*
X22816Y9854D01*
X22805Y9877D01*
X22800Y9887D01*
X22796Y9895D01*
X22794Y9903D01*
X22791Y9908D01*
X22790Y9912D01*
Y9913D01*
X22784Y9933D01*
X22779Y9954D01*
X22770Y9999D01*
X22764Y10045D01*
X22759Y10089D01*
X22757Y10109D01*
X22756Y10128D01*
Y10144D01*
X22755Y10158D01*
Y10170D01*
Y10179D01*
Y10184D01*
Y10187D01*
Y10213D01*
X22756Y10238D01*
X22757Y10260D01*
X22759Y10282D01*
X22760Y10303D01*
X22762Y10320D01*
X22764Y10338D01*
X22766Y10353D01*
X22769Y10367D01*
X22770Y10379D01*
X22773Y10389D01*
X22774Y10398D01*
X22775Y10404D01*
X22776Y10409D01*
X22778Y10412D01*
Y10413D01*
X22786Y10443D01*
X22795Y10472D01*
X22805Y10495D01*
X22815Y10517D01*
X22824Y10534D01*
X22830Y10547D01*
X22833Y10550D01*
X22835Y10554D01*
X22836Y10555D01*
Y10557D01*
X22851Y10578D01*
X22868Y10595D01*
X22884Y10610D01*
X22899Y10624D01*
X22912Y10634D01*
X22922Y10640D01*
X22930Y10645D01*
X22931Y10647D01*
X22933D01*
X22955Y10657D01*
X22979Y10664D01*
X23001Y10670D01*
X23022Y10674D01*
X23041Y10677D01*
X23049D01*
X23056Y10678D01*
X23087D01*
X23106Y10675D01*
D02*
G37*
G36*
X19972D02*
X20006Y10669D01*
X20036Y10660D01*
X20061Y10650D01*
X20073Y10644D01*
X20081Y10639D01*
X20090Y10634D01*
X20096Y10630D01*
X20101Y10627D01*
X20105Y10624D01*
X20108Y10623D01*
X20109Y10622D01*
X20133Y10599D01*
X20154Y10573D01*
X20171Y10545D01*
X20186Y10520D01*
X20198Y10497D01*
X20203Y10487D01*
X20206Y10478D01*
X20209Y10470D01*
X20211Y10465D01*
X20213Y10462D01*
Y10460D01*
X20219Y10440D01*
X20224Y10419D01*
X20233Y10374D01*
X20239Y10328D01*
X20243Y10284D01*
X20245Y10264D01*
Y10245D01*
X20246Y10229D01*
X20247Y10215D01*
Y10203D01*
Y10194D01*
Y10189D01*
Y10187D01*
X20246Y10138D01*
X20244Y10092D01*
X20239Y10050D01*
X20233Y10012D01*
X20226Y9975D01*
X20217Y9944D01*
X20209Y9915D01*
X20200Y9889D01*
X20191Y9867D01*
X20184Y9848D01*
X20175Y9832D01*
X20169Y9818D01*
X20162Y9808D01*
X20157Y9802D01*
X20155Y9797D01*
X20154Y9795D01*
X20138Y9778D01*
X20121Y9763D01*
X20104Y9749D01*
X20086Y9738D01*
X20068Y9729D01*
X20049Y9720D01*
X20031Y9714D01*
X20014Y9709D01*
X19998Y9705D01*
X19983Y9702D01*
X19970Y9699D01*
X19957Y9698D01*
X19949D01*
X19941Y9697D01*
X19935D01*
X19916Y9698D01*
X19898Y9699D01*
X19864Y9705D01*
X19834Y9714D01*
X19809Y9725D01*
X19798Y9730D01*
X19789Y9735D01*
X19780Y9740D01*
X19774Y9744D01*
X19769Y9748D01*
X19764Y9750D01*
X19763Y9753D01*
X19761D01*
X19736Y9775D01*
X19715Y9802D01*
X19698Y9828D01*
X19683Y9854D01*
X19671Y9877D01*
X19666Y9887D01*
X19662Y9895D01*
X19660Y9903D01*
X19657Y9908D01*
X19656Y9912D01*
Y9913D01*
X19650Y9933D01*
X19645Y9954D01*
X19636Y9999D01*
X19630Y10045D01*
X19625Y10089D01*
X19624Y10109D01*
X19622Y10128D01*
Y10144D01*
X19621Y10158D01*
Y10170D01*
Y10179D01*
Y10184D01*
Y10187D01*
Y10213D01*
X19622Y10238D01*
X19624Y10260D01*
X19625Y10282D01*
X19626Y10303D01*
X19629Y10320D01*
X19630Y10338D01*
X19633Y10353D01*
X19635Y10367D01*
X19636Y10379D01*
X19639Y10389D01*
X19640Y10398D01*
X19641Y10404D01*
X19642Y10409D01*
X19644Y10412D01*
Y10413D01*
X19653Y10443D01*
X19661Y10472D01*
X19671Y10495D01*
X19681Y10517D01*
X19690Y10534D01*
X19696Y10547D01*
X19699Y10550D01*
X19701Y10554D01*
X19703Y10555D01*
Y10557D01*
X19718Y10578D01*
X19734Y10595D01*
X19750Y10610D01*
X19765Y10624D01*
X19779Y10634D01*
X19789Y10640D01*
X19796Y10645D01*
X19798Y10647D01*
X19799D01*
X19821Y10657D01*
X19845Y10664D01*
X19868Y10670D01*
X19889Y10674D01*
X19907Y10677D01*
X19915D01*
X19922Y10678D01*
X19954D01*
X19972Y10675D01*
D02*
G37*
G36*
X20751Y11856D02*
X20776Y11852D01*
X20799Y11847D01*
X20820Y11839D01*
X20840Y11831D01*
X20858Y11821D01*
X20874Y11811D01*
X20889Y11799D01*
X20903Y11788D01*
X20914Y11778D01*
X20923Y11768D01*
X20931Y11759D01*
X20938Y11753D01*
X20941Y11747D01*
X20944Y11743D01*
X20945Y11742D01*
Y11842D01*
X21051D01*
Y11146D01*
X20934D01*
Y11524D01*
X20933Y11548D01*
X20931Y11571D01*
X20929Y11591D01*
X20925Y11609D01*
X20921Y11626D01*
X20916Y11641D01*
X20911Y11653D01*
X20906Y11666D01*
X20901Y11676D01*
X20898Y11683D01*
X20893Y11691D01*
X20889Y11696D01*
X20885Y11701D01*
X20882Y11703D01*
X20880Y11706D01*
X20859Y11722D01*
X20836Y11734D01*
X20814Y11743D01*
X20794Y11748D01*
X20776Y11752D01*
X20761Y11753D01*
X20756Y11754D01*
X20749D01*
X20733Y11753D01*
X20716Y11751D01*
X20703Y11747D01*
X20691Y11743D01*
X20681Y11739D01*
X20674Y11736D01*
X20669Y11733D01*
X20668Y11732D01*
X20655Y11723D01*
X20645Y11714D01*
X20636Y11704D01*
X20630Y11696D01*
X20625Y11687D01*
X20621Y11681D01*
X20619Y11676D01*
Y11674D01*
X20614Y11659D01*
X20610Y11643D01*
X20608Y11626D01*
X20605Y11608D01*
Y11593D01*
X20604Y11579D01*
Y11574D01*
Y11572D01*
Y11569D01*
Y11568D01*
Y11146D01*
X20486D01*
Y11573D01*
Y11602D01*
X20487Y11626D01*
X20489Y11644D01*
X20490Y11661D01*
X20491Y11672D01*
X20492Y11681D01*
X20494Y11686D01*
Y11687D01*
X20499Y11706D01*
X20504Y11722D01*
X20510Y11737D01*
X20515Y11749D01*
X20521Y11761D01*
X20526Y11768D01*
X20529Y11773D01*
X20530Y11774D01*
X20541Y11787D01*
X20554Y11799D01*
X20566Y11809D01*
X20579Y11817D01*
X20591Y11824D01*
X20600Y11829D01*
X20606Y11832D01*
X20609Y11833D01*
X20629Y11841D01*
X20649Y11847D01*
X20669Y11851D01*
X20686Y11854D01*
X20703Y11856D01*
X20714Y11857D01*
X20725D01*
X20751Y11856D01*
D02*
G37*
G36*
X14839Y11146D02*
X14721D01*
Y11842D01*
X14839D01*
Y11146D01*
D02*
G37*
G36*
X14542D02*
X14425D01*
Y12107D01*
X14542D01*
Y11146D01*
D02*
G37*
G36*
X13620Y11856D02*
X13651Y11851D01*
X13680Y11843D01*
X13704Y11836D01*
X13725Y11828D01*
X13734Y11824D01*
X13740Y11821D01*
X13746Y11818D01*
X13750Y11816D01*
X13752Y11814D01*
X13754D01*
X13780Y11797D01*
X13804Y11777D01*
X13824Y11756D01*
X13839Y11734D01*
X13851Y11716D01*
X13860Y11701D01*
X13864Y11696D01*
X13866Y11691D01*
X13867Y11688D01*
Y11687D01*
X13880Y11654D01*
X13889Y11621D01*
X13895Y11588D01*
X13899Y11557D01*
X13901Y11543D01*
Y11531D01*
X13902Y11519D01*
X13904Y11509D01*
Y11502D01*
Y11496D01*
Y11492D01*
Y11491D01*
X13902Y11459D01*
X13900Y11429D01*
X13896Y11402D01*
X13890Y11376D01*
X13884Y11352D01*
X13876Y11329D01*
X13869Y11309D01*
X13860Y11292D01*
X13852Y11276D01*
X13845Y11262D01*
X13837Y11251D01*
X13831Y11241D01*
X13825Y11233D01*
X13821Y11228D01*
X13819Y11224D01*
X13817Y11223D01*
X13801Y11207D01*
X13783Y11193D01*
X13764Y11181D01*
X13745Y11169D01*
X13726Y11161D01*
X13707Y11153D01*
X13689Y11147D01*
X13671Y11142D01*
X13654Y11138D01*
X13639Y11136D01*
X13625Y11133D01*
X13613Y11132D01*
X13602D01*
X13595Y11131D01*
X13589D01*
X13568Y11132D01*
X13548Y11133D01*
X13511Y11141D01*
X13479Y11152D01*
X13464Y11158D01*
X13450Y11164D01*
X13439Y11169D01*
X13427Y11176D01*
X13419Y11182D01*
X13411Y11187D01*
X13405Y11191D01*
X13401Y11194D01*
X13399Y11196D01*
X13398Y11197D01*
X13384Y11211D01*
X13370Y11224D01*
X13359Y11239D01*
X13349Y11254D01*
X13331Y11286D01*
X13319Y11316D01*
X13314Y11329D01*
X13309Y11343D01*
X13306Y11354D01*
X13303Y11364D01*
X13301Y11373D01*
X13300Y11379D01*
X13299Y11383D01*
Y11384D01*
X13415Y11401D01*
X13421Y11369D01*
X13430Y11343D01*
X13440Y11321D01*
X13450Y11302D01*
X13459Y11288D01*
X13468Y11277D01*
X13472Y11272D01*
X13475Y11269D01*
X13494Y11256D01*
X13513Y11246D01*
X13531Y11238D01*
X13550Y11233D01*
X13566Y11231D01*
X13579Y11229D01*
X13584Y11228D01*
X13590D01*
X13606Y11229D01*
X13621Y11231D01*
X13649Y11238D01*
X13672Y11248D01*
X13693Y11259D01*
X13709Y11271D01*
X13720Y11281D01*
X13728Y11288D01*
X13729Y11289D01*
X13730Y11291D01*
X13739Y11303D01*
X13748Y11318D01*
X13760Y11349D01*
X13770Y11383D01*
X13776Y11417D01*
X13778Y11432D01*
X13780Y11447D01*
X13781Y11459D01*
Y11472D01*
X13783Y11481D01*
Y11488D01*
Y11493D01*
Y11494D01*
X13781Y11519D01*
X13780Y11543D01*
X13778Y11564D01*
X13774Y11584D01*
X13770Y11602D01*
X13765Y11618D01*
X13760Y11633D01*
X13755Y11647D01*
X13750Y11658D01*
X13745Y11668D01*
X13740Y11677D01*
X13736Y11683D01*
X13733Y11689D01*
X13730Y11693D01*
X13728Y11694D01*
Y11696D01*
X13716Y11707D01*
X13705Y11717D01*
X13694Y11726D01*
X13681Y11733D01*
X13657Y11744D01*
X13635Y11752D01*
X13615Y11756D01*
X13606Y11757D01*
X13599Y11758D01*
X13592Y11759D01*
X13584D01*
X13563Y11758D01*
X13544Y11754D01*
X13526Y11748D01*
X13511Y11742D01*
X13500Y11734D01*
X13491Y11729D01*
X13485Y11724D01*
X13484Y11723D01*
X13469Y11708D01*
X13457Y11692D01*
X13448Y11674D01*
X13439Y11658D01*
X13433Y11643D01*
X13429Y11631D01*
X13426Y11626D01*
Y11622D01*
X13425Y11621D01*
Y11619D01*
X13310Y11637D01*
X13320Y11674D01*
X13334Y11707D01*
X13349Y11734D01*
X13365Y11758D01*
X13372Y11767D01*
X13380Y11776D01*
X13386Y11783D01*
X13392Y11789D01*
X13398Y11793D01*
X13400Y11797D01*
X13403Y11798D01*
X13404Y11799D01*
X13418Y11809D01*
X13433Y11818D01*
X13463Y11833D01*
X13494Y11843D01*
X13522Y11849D01*
X13536Y11852D01*
X13548Y11854D01*
X13559Y11856D01*
X13569D01*
X13576Y11857D01*
X13587D01*
X13620Y11856D01*
D02*
G37*
G36*
X22425Y12122D02*
X22449Y12118D01*
X22470Y12114D01*
X22487Y12109D01*
X22501Y12103D01*
X22511Y12099D01*
X22516Y12096D01*
X22519Y12094D01*
X22534Y12083D01*
X22546Y12071D01*
X22556Y12058D01*
X22564Y12046D01*
X22570Y12036D01*
X22574Y12027D01*
X22576Y12022D01*
X22578Y12019D01*
X22581Y12006D01*
X22585Y11989D01*
X22587Y11972D01*
X22589Y11954D01*
Y11939D01*
X22590Y11927D01*
Y11922D01*
Y11918D01*
Y11917D01*
Y11916D01*
Y11842D01*
X22694D01*
Y11751D01*
X22590D01*
Y11146D01*
X22473D01*
Y11751D01*
X22338D01*
Y11842D01*
X22473D01*
Y11906D01*
X22471Y11927D01*
X22469Y11946D01*
X22465Y11961D01*
X22461Y11972D01*
X22457Y11981D01*
X22454Y11986D01*
X22451Y11989D01*
X22450Y11991D01*
X22440Y11998D01*
X22429Y12004D01*
X22416Y12008D01*
X22404Y12012D01*
X22392Y12013D01*
X22383Y12014D01*
X22374D01*
X22349Y12013D01*
X22338Y12012D01*
X22327Y12011D01*
X22319Y12009D01*
X22311Y12008D01*
X22306Y12007D01*
X22305D01*
X22287Y12111D01*
X22310Y12114D01*
X22330Y12118D01*
X22349Y12121D01*
X22365Y12122D01*
X22379Y12123D01*
X22397D01*
X22425Y12122D01*
D02*
G37*
G36*
X21259Y11856D02*
X21272Y11853D01*
X21286Y11849D01*
X21298Y11846D01*
X21306Y11841D01*
X21314Y11837D01*
X21319Y11834D01*
X21320Y11833D01*
X21332Y11822D01*
X21346Y11808D01*
X21359Y11792D01*
X21370Y11774D01*
X21379Y11759D01*
X21388Y11747D01*
X21390Y11742D01*
X21393Y11738D01*
X21394Y11736D01*
Y11842D01*
X21500D01*
Y11146D01*
X21383D01*
Y11508D01*
X21381Y11536D01*
X21380Y11562D01*
X21376Y11584D01*
X21372Y11606D01*
X21370Y11622D01*
X21366Y11634D01*
X21365Y11639D01*
Y11643D01*
X21364Y11644D01*
Y11646D01*
X21358Y11661D01*
X21351Y11673D01*
X21344Y11684D01*
X21336Y11693D01*
X21330Y11701D01*
X21325Y11707D01*
X21321Y11709D01*
X21320Y11711D01*
X21307Y11718D01*
X21296Y11724D01*
X21284Y11728D01*
X21274Y11732D01*
X21264Y11733D01*
X21256Y11734D01*
X21250D01*
X21234Y11733D01*
X21218Y11731D01*
X21202Y11727D01*
X21190Y11722D01*
X21179Y11717D01*
X21170Y11713D01*
X21165Y11711D01*
X21163Y11709D01*
X21121Y11818D01*
X21145Y11831D01*
X21166Y11841D01*
X21188Y11847D01*
X21206Y11852D01*
X21221Y11854D01*
X21234Y11857D01*
X21244D01*
X21259Y11856D01*
D02*
G37*
G36*
X18218Y12122D02*
X18254Y12119D01*
X18289Y12114D01*
X18322Y12108D01*
X18354Y12101D01*
X18384Y12093D01*
X18410Y12084D01*
X18435Y12076D01*
X18457Y12067D01*
X18477Y12058D01*
X18495Y12051D01*
X18509Y12043D01*
X18520Y12037D01*
X18529Y12032D01*
X18534Y12029D01*
X18535Y12028D01*
X18561Y12009D01*
X18587Y11989D01*
X18611Y11968D01*
X18633Y11946D01*
X18652Y11923D01*
X18671Y11901D01*
X18689Y11879D01*
X18704Y11857D01*
X18717Y11837D01*
X18729Y11818D01*
X18740Y11801D01*
X18748Y11786D01*
X18754Y11774D01*
X18759Y11764D01*
X18761Y11759D01*
X18763Y11757D01*
X18774Y11729D01*
X18784Y11702D01*
X18793Y11674D01*
X18800Y11648D01*
X18811Y11597D01*
X18816Y11573D01*
X18819Y11551D01*
X18822Y11529D01*
X18824Y11511D01*
X18825Y11493D01*
X18826Y11479D01*
X18828Y11468D01*
Y11459D01*
Y11453D01*
Y11452D01*
X18826Y11426D01*
X18825Y11399D01*
X18819Y11349D01*
X18815Y11326D01*
X18810Y11304D01*
X18805Y11283D01*
X18800Y11264D01*
X18795Y11247D01*
X18790Y11231D01*
X18785Y11218D01*
X18781Y11206D01*
X18778Y11197D01*
X18775Y11191D01*
X18772Y11186D01*
Y11184D01*
X18754Y11149D01*
X18734Y11117D01*
X18713Y11088D01*
X18691Y11063D01*
X18681Y11052D01*
X18672Y11042D01*
X18664Y11033D01*
X18656Y11027D01*
X18651Y11021D01*
X18646Y11017D01*
X18644Y11014D01*
X18642Y11013D01*
X18609Y10987D01*
X18574Y10964D01*
X18539Y10944D01*
X18506Y10929D01*
X18491Y10922D01*
X18477Y10917D01*
X18465Y10912D01*
X18454Y10908D01*
X18445Y10904D01*
X18439Y10902D01*
X18435Y10901D01*
X18434D01*
X18386Y10888D01*
X18340Y10879D01*
X18294Y10872D01*
X18273Y10869D01*
X18253Y10868D01*
X18234Y10867D01*
X18218Y10866D01*
X18203Y10864D01*
X18190D01*
X18179Y10863D01*
X18136D01*
X18109Y10864D01*
X18081Y10867D01*
X18056Y10869D01*
X18032Y10873D01*
X18010Y10877D01*
X17990Y10881D01*
X17971Y10884D01*
X17954Y10888D01*
X17939Y10892D01*
X17926Y10896D01*
X17915Y10899D01*
X17906Y10902D01*
X17900Y10904D01*
X17896Y10906D01*
X17895D01*
X17854Y10922D01*
X17817Y10941D01*
X17784Y10959D01*
X17770Y10968D01*
X17756Y10977D01*
X17744Y10986D01*
X17732Y10993D01*
X17724Y11001D01*
X17716Y11007D01*
X17710Y11012D01*
X17705Y11016D01*
X17702Y11017D01*
X17701Y11018D01*
X17672Y11044D01*
X17649Y11071D01*
X17629Y11094D01*
X17614Y11114D01*
X17601Y11133D01*
X17593Y11147D01*
X17590Y11152D01*
X17587Y11156D01*
X17586Y11157D01*
Y11158D01*
X17705D01*
X17716Y11143D01*
X17729Y11129D01*
X17758Y11102D01*
X17786Y11078D01*
X17815Y11058D01*
X17840Y11042D01*
X17851Y11036D01*
X17861Y11029D01*
X17869Y11026D01*
X17875Y11022D01*
X17879Y11021D01*
X17880Y11019D01*
X17902Y11009D01*
X17925Y11001D01*
X17974Y10986D01*
X18021Y10976D01*
X18044Y10971D01*
X18066Y10968D01*
X18088Y10966D01*
X18106Y10964D01*
X18123Y10962D01*
X18138D01*
X18150Y10961D01*
X18166D01*
X18196Y10962D01*
X18225Y10963D01*
X18254Y10966D01*
X18280Y10969D01*
X18306Y10973D01*
X18330Y10978D01*
X18353Y10983D01*
X18374Y10989D01*
X18392Y10994D01*
X18410Y10999D01*
X18424Y11004D01*
X18436Y11008D01*
X18446Y11012D01*
X18454Y11014D01*
X18459Y11017D01*
X18460D01*
X18484Y11028D01*
X18506Y11041D01*
X18527Y11053D01*
X18546Y11067D01*
X18565Y11081D01*
X18581Y11094D01*
X18596Y11109D01*
X18610Y11123D01*
X18621Y11136D01*
X18633Y11148D01*
X18641Y11158D01*
X18649Y11168D01*
X18654Y11176D01*
X18657Y11182D01*
X18660Y11186D01*
X18661Y11187D01*
X18674Y11209D01*
X18684Y11232D01*
X18693Y11254D01*
X18701Y11278D01*
X18714Y11324D01*
X18717Y11347D01*
X18721Y11368D01*
X18724Y11387D01*
X18726Y11406D01*
X18728Y11422D01*
X18729Y11436D01*
X18730Y11447D01*
Y11454D01*
Y11461D01*
Y11462D01*
X18729Y11491D01*
X18728Y11518D01*
X18719Y11572D01*
X18714Y11597D01*
X18709Y11621D01*
X18702Y11643D01*
X18695Y11663D01*
X18689Y11682D01*
X18683Y11699D01*
X18678Y11713D01*
X18672Y11726D01*
X18668Y11736D01*
X18664Y11743D01*
X18663Y11748D01*
X18661Y11749D01*
X18648Y11774D01*
X18633Y11797D01*
X18618Y11818D01*
X18601Y11838D01*
X18585Y11856D01*
X18569Y11873D01*
X18553Y11888D01*
X18536Y11902D01*
X18522Y11914D01*
X18509Y11924D01*
X18496Y11934D01*
X18486Y11941D01*
X18477Y11947D01*
X18470Y11951D01*
X18466Y11953D01*
X18465Y11954D01*
X18441Y11967D01*
X18416Y11978D01*
X18391Y11988D01*
X18368Y11997D01*
X18344Y12003D01*
X18320Y12009D01*
X18297Y12014D01*
X18276Y12018D01*
X18257Y12021D01*
X18239Y12023D01*
X18224Y12024D01*
X18210Y12026D01*
X18199Y12027D01*
X18159D01*
X18135Y12024D01*
X18089Y12018D01*
X18068Y12013D01*
X18047Y12008D01*
X18029Y12003D01*
X18011Y11998D01*
X17995Y11993D01*
X17981Y11988D01*
X17969Y11983D01*
X17959Y11978D01*
X17950Y11974D01*
X17944Y11972D01*
X17940Y11971D01*
X17939Y11969D01*
X17919Y11958D01*
X17900Y11947D01*
X17882Y11934D01*
X17865Y11922D01*
X17850Y11908D01*
X17836Y11896D01*
X17825Y11883D01*
X17814Y11872D01*
X17804Y11861D01*
X17795Y11851D01*
X17787Y11841D01*
X17781Y11833D01*
X17778Y11826D01*
X17774Y11821D01*
X17771Y11818D01*
Y11817D01*
X17761Y11799D01*
X17752Y11781D01*
X17739Y11746D01*
X17729Y11711D01*
X17723Y11679D01*
X17720Y11666D01*
X17717Y11653D01*
X17716Y11642D01*
Y11632D01*
X17715Y11624D01*
Y11618D01*
Y11614D01*
Y11613D01*
X17716Y11578D01*
X17721Y11546D01*
X17729Y11514D01*
X17736Y11487D01*
X17741Y11474D01*
X17745Y11463D01*
X17749Y11454D01*
X17751Y11446D01*
X17755Y11439D01*
X17756Y11434D01*
X17759Y11432D01*
Y11431D01*
X17776Y11399D01*
X17796Y11372D01*
X17815Y11347D01*
X17835Y11327D01*
X17851Y11312D01*
X17865Y11301D01*
X17870Y11296D01*
X17874Y11293D01*
X17876Y11292D01*
X17878Y11291D01*
X17897Y11277D01*
X17915Y11268D01*
X17931Y11261D01*
X17944Y11256D01*
X17955Y11253D01*
X17962Y11252D01*
X17967Y11251D01*
X17969D01*
X17981Y11253D01*
X17993Y11257D01*
X17999Y11261D01*
X18000Y11263D01*
X18001D01*
X18009Y11273D01*
X18012Y11283D01*
X18014Y11291D01*
Y11292D01*
Y11293D01*
Y11296D01*
X18012Y11301D01*
Y11307D01*
X18011Y11313D01*
X18008Y11329D01*
X18004Y11348D01*
X18001Y11366D01*
X17997Y11381D01*
X17996Y11387D01*
Y11392D01*
X17995Y11394D01*
Y11396D01*
X17900Y11838D01*
X18017D01*
X18040Y11736D01*
X18055Y11757D01*
X18070Y11776D01*
X18085Y11792D01*
X18099Y11804D01*
X18111Y11814D01*
X18121Y11822D01*
X18127Y11826D01*
X18130Y11827D01*
X18149Y11837D01*
X18169Y11844D01*
X18186Y11849D01*
X18203Y11853D01*
X18218Y11856D01*
X18227Y11857D01*
X18251D01*
X18266Y11854D01*
X18294Y11848D01*
X18320Y11839D01*
X18342Y11831D01*
X18364Y11821D01*
X18371Y11816D01*
X18379Y11812D01*
X18385Y11808D01*
X18389Y11806D01*
X18391Y11804D01*
X18392Y11803D01*
X18421Y11782D01*
X18446Y11757D01*
X18469Y11731D01*
X18489Y11704D01*
X18504Y11682D01*
X18510Y11672D01*
X18515Y11663D01*
X18520Y11656D01*
X18522Y11651D01*
X18524Y11647D01*
X18525Y11646D01*
X18542Y11607D01*
X18555Y11569D01*
X18565Y11534D01*
X18571Y11502D01*
X18572Y11488D01*
X18575Y11476D01*
X18576Y11464D01*
Y11454D01*
X18578Y11447D01*
Y11442D01*
Y11438D01*
Y11437D01*
X18576Y11406D01*
X18572Y11377D01*
X18566Y11351D01*
X18560Y11328D01*
X18555Y11309D01*
X18551Y11301D01*
X18549Y11294D01*
X18546Y11289D01*
X18545Y11286D01*
X18544Y11283D01*
Y11282D01*
X18530Y11257D01*
X18515Y11236D01*
X18500Y11217D01*
X18485Y11203D01*
X18472Y11192D01*
X18463Y11183D01*
X18456Y11178D01*
X18454Y11177D01*
X18433Y11166D01*
X18412Y11157D01*
X18394Y11152D01*
X18376Y11147D01*
X18362Y11144D01*
X18351Y11143D01*
X18341D01*
X18321Y11144D01*
X18303Y11148D01*
X18284Y11152D01*
X18268Y11158D01*
X18255Y11163D01*
X18244Y11167D01*
X18238Y11171D01*
X18235Y11172D01*
X18216Y11184D01*
X18197Y11197D01*
X18181Y11211D01*
X18168Y11223D01*
X18155Y11234D01*
X18146Y11243D01*
X18141Y11249D01*
X18139Y11252D01*
X18138Y11238D01*
X18135Y11226D01*
X18134Y11216D01*
X18131Y11208D01*
X18130Y11202D01*
X18129Y11198D01*
X18127Y11196D01*
Y11194D01*
X18121Y11186D01*
X18115Y11177D01*
X18101Y11164D01*
X18096Y11161D01*
X18091Y11157D01*
X18088Y11156D01*
X18086Y11154D01*
X18075Y11149D01*
X18062Y11147D01*
X18050Y11144D01*
X18039Y11142D01*
X18029D01*
X18020Y11141D01*
X18012D01*
X17986Y11142D01*
X17961Y11147D01*
X17936Y11153D01*
X17912Y11162D01*
X17889Y11172D01*
X17867Y11183D01*
X17847Y11194D01*
X17829Y11207D01*
X17811Y11219D01*
X17796Y11231D01*
X17784Y11242D01*
X17773Y11252D01*
X17764Y11261D01*
X17756Y11267D01*
X17752Y11272D01*
X17751Y11273D01*
X17728Y11302D01*
X17708Y11331D01*
X17689Y11359D01*
X17674Y11388D01*
X17661Y11417D01*
X17650Y11444D01*
X17641Y11472D01*
X17634Y11497D01*
X17629Y11521D01*
X17625Y11543D01*
X17621Y11562D01*
X17620Y11578D01*
X17619Y11592D01*
X17617Y11602D01*
Y11608D01*
Y11611D01*
X17619Y11636D01*
X17620Y11659D01*
X17628Y11706D01*
X17632Y11727D01*
X17637Y11747D01*
X17644Y11767D01*
X17649Y11784D01*
X17655Y11799D01*
X17661Y11814D01*
X17666Y11827D01*
X17671Y11837D01*
X17675Y11846D01*
X17679Y11852D01*
X17680Y11856D01*
X17681Y11857D01*
X17696Y11881D01*
X17711Y11903D01*
X17728Y11924D01*
X17745Y11944D01*
X17763Y11962D01*
X17779Y11978D01*
X17796Y11993D01*
X17811Y12006D01*
X17828Y12018D01*
X17841Y12028D01*
X17854Y12037D01*
X17865Y12043D01*
X17874Y12048D01*
X17880Y12053D01*
X17885Y12054D01*
X17886Y12056D01*
X17911Y12068D01*
X17936Y12078D01*
X17961Y12087D01*
X17986Y12094D01*
X18035Y12107D01*
X18059Y12111D01*
X18081Y12114D01*
X18101Y12118D01*
X18120Y12119D01*
X18136Y12121D01*
X18151Y12122D01*
X18162Y12123D01*
X18179D01*
X18218Y12122D01*
D02*
G37*
G36*
X19147Y10654D02*
X19164Y10632D01*
X19181Y10609D01*
X19197Y10590D01*
X19214Y10573D01*
X19226Y10560D01*
X19231Y10555D01*
X19235Y10552D01*
X19238Y10550D01*
X19239Y10549D01*
X19267Y10525D01*
X19296Y10504D01*
X19326Y10484D01*
X19353Y10468D01*
X19376Y10455D01*
X19386Y10449D01*
X19395Y10445D01*
X19401Y10442D01*
X19406Y10439D01*
X19410Y10437D01*
X19411D01*
Y10322D01*
X19390Y10330D01*
X19369Y10340D01*
X19347Y10350D01*
X19329Y10360D01*
X19312Y10369D01*
X19299Y10377D01*
X19294Y10379D01*
X19290Y10382D01*
X19289Y10383D01*
X19288D01*
X19262Y10398D01*
X19241Y10413D01*
X19221Y10427D01*
X19205Y10439D01*
X19193Y10449D01*
X19182Y10458D01*
X19178Y10463D01*
X19175Y10464D01*
Y9713D01*
X19058D01*
Y10678D01*
X19134D01*
X19147Y10654D01*
D02*
G37*
G36*
X16461D02*
X16478Y10632D01*
X16495Y10609D01*
X16511Y10590D01*
X16528Y10573D01*
X16540Y10560D01*
X16545Y10555D01*
X16549Y10552D01*
X16551Y10550D01*
X16552Y10549D01*
X16581Y10525D01*
X16610Y10504D01*
X16640Y10484D01*
X16666Y10468D01*
X16690Y10455D01*
X16700Y10449D01*
X16709Y10445D01*
X16715Y10442D01*
X16720Y10439D01*
X16724Y10437D01*
X16725D01*
Y10322D01*
X16704Y10330D01*
X16682Y10340D01*
X16661Y10350D01*
X16643Y10360D01*
X16626Y10369D01*
X16612Y10377D01*
X16608Y10379D01*
X16604Y10382D01*
X16602Y10383D01*
X16601D01*
X16576Y10398D01*
X16555Y10413D01*
X16535Y10427D01*
X16519Y10439D01*
X16506Y10449D01*
X16496Y10458D01*
X16491Y10463D01*
X16489Y10464D01*
Y9713D01*
X16371D01*
Y10678D01*
X16447D01*
X16461Y10654D01*
D02*
G37*
G36*
X14208Y11146D02*
X14073D01*
Y11281D01*
X14208D01*
Y11146D01*
D02*
G37*
G36*
X22921Y11761D02*
X22934Y11776D01*
X22947Y11789D01*
X22961Y11801D01*
X22974Y11811D01*
X22985Y11819D01*
X22994Y11824D01*
X23000Y11828D01*
X23003Y11829D01*
X23021Y11838D01*
X23040Y11846D01*
X23059Y11851D01*
X23076Y11853D01*
X23091Y11856D01*
X23104Y11857D01*
X23114D01*
X23145Y11854D01*
X23175Y11849D01*
X23201Y11842D01*
X23224Y11834D01*
X23244Y11826D01*
X23251Y11822D01*
X23258Y11818D01*
X23263Y11814D01*
X23266Y11813D01*
X23269Y11811D01*
X23270D01*
X23294Y11792D01*
X23315Y11772D01*
X23333Y11749D01*
X23347Y11729D01*
X23359Y11709D01*
X23364Y11702D01*
X23368Y11694D01*
X23370Y11689D01*
X23372Y11684D01*
X23374Y11682D01*
Y11681D01*
X23385Y11648D01*
X23394Y11616D01*
X23399Y11584D01*
X23404Y11554D01*
X23405Y11542D01*
X23406Y11529D01*
Y11519D01*
X23407Y11509D01*
Y11502D01*
Y11497D01*
Y11493D01*
Y11492D01*
X23406Y11453D01*
X23401Y11418D01*
X23395Y11386D01*
X23389Y11358D01*
X23385Y11346D01*
X23381Y11334D01*
X23379Y11326D01*
X23376Y11318D01*
X23374Y11312D01*
X23371Y11307D01*
X23370Y11304D01*
Y11303D01*
X23354Y11274D01*
X23336Y11249D01*
X23319Y11227D01*
X23301Y11209D01*
X23286Y11194D01*
X23274Y11184D01*
X23269Y11181D01*
X23265Y11178D01*
X23264Y11176D01*
X23263D01*
X23236Y11161D01*
X23209Y11149D01*
X23182Y11142D01*
X23159Y11137D01*
X23139Y11133D01*
X23130Y11132D01*
X23122D01*
X23117Y11131D01*
X23109D01*
X23085Y11132D01*
X23064Y11136D01*
X23043Y11141D01*
X23024Y11147D01*
X23006Y11154D01*
X22990Y11163D01*
X22976Y11173D01*
X22963Y11183D01*
X22951Y11192D01*
X22941Y11202D01*
X22933Y11211D01*
X22926Y11218D01*
X22921Y11224D01*
X22916Y11229D01*
X22915Y11233D01*
X22914Y11234D01*
Y11146D01*
X22804D01*
Y12107D01*
X22921D01*
Y11761D01*
D02*
G37*
G36*
X12940Y11856D02*
X12962Y11853D01*
X12984Y11849D01*
X13005Y11844D01*
X13024Y11839D01*
X13043Y11832D01*
X13059Y11826D01*
X13074Y11818D01*
X13088Y11811D01*
X13100Y11804D01*
X13110Y11797D01*
X13119Y11792D01*
X13126Y11787D01*
X13131Y11783D01*
X13134Y11781D01*
X13135Y11779D01*
X13154Y11761D01*
X13170Y11741D01*
X13184Y11718D01*
X13196Y11696D01*
X13206Y11672D01*
X13215Y11648D01*
X13223Y11624D01*
X13227Y11601D01*
X13233Y11579D01*
X13235Y11559D01*
X13238Y11541D01*
X13240Y11524D01*
Y11512D01*
X13241Y11502D01*
Y11496D01*
Y11493D01*
X13240Y11461D01*
X13238Y11431D01*
X13233Y11403D01*
X13227Y11377D01*
X13220Y11352D01*
X13212Y11331D01*
X13205Y11311D01*
X13196Y11292D01*
X13188Y11276D01*
X13180Y11262D01*
X13173Y11251D01*
X13165Y11241D01*
X13160Y11233D01*
X13155Y11228D01*
X13153Y11224D01*
X13151Y11223D01*
X13134Y11207D01*
X13115Y11193D01*
X13096Y11181D01*
X13076Y11169D01*
X13056Y11161D01*
X13038Y11153D01*
X13019Y11147D01*
X13000Y11142D01*
X12982Y11138D01*
X12966Y11136D01*
X12953Y11133D01*
X12940Y11132D01*
X12930D01*
X12923Y11131D01*
X12916D01*
X12882Y11132D01*
X12851Y11137D01*
X12823Y11144D01*
X12799Y11152D01*
X12778Y11159D01*
X12769Y11163D01*
X12763Y11167D01*
X12756Y11169D01*
X12752Y11172D01*
X12750Y11173D01*
X12749D01*
X12721Y11191D01*
X12697Y11209D01*
X12678Y11229D01*
X12661Y11248D01*
X12648Y11266D01*
X12639Y11279D01*
X12635Y11284D01*
X12632Y11288D01*
X12631Y11291D01*
Y11292D01*
X12624Y11307D01*
X12617Y11323D01*
X12608Y11358D01*
X12600Y11393D01*
X12595Y11427D01*
X12594Y11442D01*
X12593Y11457D01*
X12591Y11469D01*
X12590Y11481D01*
Y11491D01*
Y11497D01*
Y11502D01*
Y11503D01*
X12591Y11533D01*
X12594Y11562D01*
X12599Y11588D01*
X12604Y11613D01*
X12611Y11637D01*
X12619Y11658D01*
X12628Y11677D01*
X12635Y11694D01*
X12644Y11709D01*
X12652Y11723D01*
X12660Y11736D01*
X12667Y11744D01*
X12672Y11752D01*
X12678Y11758D01*
X12680Y11761D01*
X12681Y11762D01*
X12699Y11778D01*
X12717Y11793D01*
X12736Y11806D01*
X12756Y11817D01*
X12776Y11826D01*
X12796Y11833D01*
X12815Y11841D01*
X12832Y11846D01*
X12850Y11849D01*
X12866Y11852D01*
X12880Y11854D01*
X12893Y11856D01*
X12902Y11857D01*
X12916D01*
X12940Y11856D01*
D02*
G37*
G36*
X24550Y15348D02*
X24234D01*
Y14501D01*
X24106D01*
Y15348D01*
X23790D01*
Y15462D01*
X24550D01*
Y15348D01*
D02*
G37*
G36*
X19701Y15211D02*
X19715Y15208D01*
X19729Y15204D01*
X19740Y15201D01*
X19749Y15196D01*
X19756Y15192D01*
X19761Y15189D01*
X19763Y15188D01*
X19775Y15177D01*
X19789Y15163D01*
X19801Y15147D01*
X19813Y15129D01*
X19821Y15114D01*
X19830Y15102D01*
X19833Y15097D01*
X19835Y15093D01*
X19836Y15091D01*
Y15197D01*
X19943D01*
Y14501D01*
X19825D01*
Y14863D01*
X19824Y14891D01*
X19822Y14917D01*
X19819Y14939D01*
X19815Y14961D01*
X19813Y14977D01*
X19809Y14989D01*
X19807Y14994D01*
Y14998D01*
X19806Y14999D01*
Y15001D01*
X19800Y15016D01*
X19794Y15028D01*
X19786Y15039D01*
X19779Y15048D01*
X19772Y15056D01*
X19768Y15062D01*
X19764Y15064D01*
X19763Y15066D01*
X19750Y15073D01*
X19739Y15079D01*
X19726Y15083D01*
X19716Y15087D01*
X19706Y15088D01*
X19699Y15089D01*
X19692D01*
X19676Y15088D01*
X19660Y15086D01*
X19645Y15082D01*
X19633Y15077D01*
X19621Y15072D01*
X19612Y15068D01*
X19607Y15066D01*
X19605Y15064D01*
X19564Y15173D01*
X19588Y15186D01*
X19609Y15196D01*
X19630Y15202D01*
X19649Y15207D01*
X19664Y15209D01*
X19676Y15212D01*
X19686D01*
X19701Y15211D01*
D02*
G37*
G36*
X10435D02*
X10460Y15208D01*
X10484Y15203D01*
X10506Y15197D01*
X10526Y15189D01*
X10546Y15181D01*
X10564Y15172D01*
X10580Y15163D01*
X10594Y15154D01*
X10606Y15146D01*
X10618Y15137D01*
X10626Y15129D01*
X10634Y15123D01*
X10639Y15118D01*
X10641Y15116D01*
X10642Y15114D01*
X10659Y15096D01*
X10673Y15076D01*
X10684Y15053D01*
X10695Y15031D01*
X10704Y15008D01*
X10710Y14986D01*
X10716Y14963D01*
X10721Y14942D01*
X10725Y14922D01*
X10727Y14903D01*
X10730Y14886D01*
X10731Y14871D01*
Y14859D01*
X10733Y14849D01*
Y14844D01*
Y14842D01*
X10731Y14811D01*
X10729Y14782D01*
X10724Y14756D01*
X10719Y14729D01*
X10712Y14707D01*
X10705Y14684D01*
X10696Y14666D01*
X10688Y14647D01*
X10680Y14632D01*
X10671Y14618D01*
X10664Y14607D01*
X10658Y14597D01*
X10653Y14589D01*
X10647Y14584D01*
X10645Y14581D01*
X10644Y14579D01*
X10626Y14563D01*
X10608Y14548D01*
X10588Y14536D01*
X10568Y14526D01*
X10547Y14516D01*
X10527Y14508D01*
X10508Y14502D01*
X10489Y14497D01*
X10471Y14493D01*
X10454Y14491D01*
X10439Y14488D01*
X10426Y14487D01*
X10416D01*
X10408Y14486D01*
X10401D01*
X10379Y14487D01*
X10358Y14488D01*
X10319Y14494D01*
X10301Y14499D01*
X10285Y14504D01*
X10270Y14509D01*
X10256Y14516D01*
X10244Y14521D01*
X10234Y14526D01*
X10224Y14531D01*
X10216Y14536D01*
X10210Y14539D01*
X10206Y14542D01*
X10204Y14544D01*
X10202D01*
X10176Y14568D01*
X10154Y14596D01*
X10135Y14623D01*
X10120Y14649D01*
X10110Y14673D01*
X10105Y14684D01*
X10102Y14693D01*
X10099Y14701D01*
X10098Y14706D01*
X10096Y14709D01*
Y14711D01*
X10219Y14727D01*
X10229Y14701D01*
X10241Y14678D01*
X10254Y14658D01*
X10265Y14643D01*
X10275Y14632D01*
X10284Y14623D01*
X10289Y14618D01*
X10291Y14617D01*
X10309Y14606D01*
X10328Y14597D01*
X10346Y14592D01*
X10362Y14587D01*
X10379Y14584D01*
X10390Y14583D01*
X10401D01*
X10417Y14584D01*
X10432Y14586D01*
X10461Y14593D01*
X10486Y14602D01*
X10508Y14613D01*
X10524Y14624D01*
X10538Y14634D01*
X10541Y14638D01*
X10545Y14641D01*
X10546Y14642D01*
X10547Y14643D01*
X10558Y14656D01*
X10566Y14668D01*
X10581Y14696D01*
X10592Y14724D01*
X10601Y14753D01*
X10606Y14778D01*
X10608Y14789D01*
X10609Y14799D01*
X10610Y14807D01*
X10611Y14813D01*
Y14817D01*
Y14818D01*
X10093D01*
X10091Y14832D01*
Y14842D01*
Y14847D01*
Y14849D01*
X10093Y14881D01*
X10095Y14911D01*
X10100Y14938D01*
X10105Y14964D01*
X10111Y14988D01*
X10119Y15009D01*
X10128Y15029D01*
X10135Y15048D01*
X10144Y15064D01*
X10152Y15078D01*
X10160Y15089D01*
X10166Y15099D01*
X10171Y15107D01*
X10176Y15112D01*
X10179Y15116D01*
X10180Y15117D01*
X10197Y15133D01*
X10215Y15148D01*
X10234Y15161D01*
X10254Y15172D01*
X10273Y15181D01*
X10291Y15188D01*
X10310Y15196D01*
X10328Y15201D01*
X10344Y15204D01*
X10360Y15207D01*
X10374Y15209D01*
X10385Y15211D01*
X10395Y15212D01*
X10409D01*
X10435Y15211D01*
D02*
G37*
G36*
X8009Y14766D02*
Y14739D01*
X8008Y14717D01*
X8006Y14698D01*
X8005Y14683D01*
Y14671D01*
X8004Y14662D01*
X8002Y14657D01*
Y14656D01*
X7997Y14637D01*
X7993Y14619D01*
X7986Y14604D01*
X7980Y14592D01*
X7975Y14581D01*
X7970Y14573D01*
X7968Y14568D01*
X7966Y14567D01*
X7955Y14554D01*
X7943Y14543D01*
X7929Y14533D01*
X7916Y14524D01*
X7905Y14518D01*
X7895Y14512D01*
X7889Y14509D01*
X7886Y14508D01*
X7866Y14501D01*
X7845Y14496D01*
X7826Y14491D01*
X7809Y14488D01*
X7794Y14487D01*
X7781Y14486D01*
X7771D01*
X7746Y14487D01*
X7721Y14491D01*
X7699Y14497D01*
X7678Y14504D01*
X7659Y14513D01*
X7640Y14523D01*
X7624Y14533D01*
X7609Y14544D01*
X7595Y14556D01*
X7584Y14566D01*
X7574Y14576D01*
X7565Y14584D01*
X7559Y14592D01*
X7554Y14598D01*
X7551Y14602D01*
X7550Y14603D01*
Y14501D01*
X7445D01*
Y15197D01*
X7563D01*
Y14823D01*
X7564Y14792D01*
X7565Y14764D01*
X7569Y14741D01*
X7573Y14722D01*
X7576Y14707D01*
X7579Y14696D01*
X7581Y14689D01*
X7582Y14687D01*
X7591Y14671D01*
X7601Y14656D01*
X7611Y14643D01*
X7623Y14633D01*
X7632Y14624D01*
X7641Y14618D01*
X7646Y14614D01*
X7649Y14613D01*
X7666Y14604D01*
X7684Y14598D01*
X7701Y14593D01*
X7716Y14591D01*
X7729Y14588D01*
X7740Y14587D01*
X7749D01*
X7768Y14588D01*
X7785Y14591D01*
X7800Y14596D01*
X7812Y14601D01*
X7824Y14604D01*
X7831Y14609D01*
X7836Y14612D01*
X7837Y14613D01*
X7850Y14624D01*
X7860Y14636D01*
X7869Y14648D01*
X7875Y14659D01*
X7880Y14669D01*
X7883Y14678D01*
X7885Y14683D01*
Y14686D01*
X7886Y14692D01*
X7887Y14701D01*
X7889Y14719D01*
X7890Y14739D01*
Y14761D01*
X7891Y14779D01*
Y14788D01*
Y14796D01*
Y14802D01*
Y14807D01*
Y14809D01*
Y14811D01*
Y15197D01*
X8009D01*
Y14766D01*
D02*
G37*
G36*
X22669Y15211D02*
X22694Y15208D01*
X22717Y15203D01*
X22740Y15197D01*
X22760Y15189D01*
X22780Y15181D01*
X22798Y15172D01*
X22814Y15163D01*
X22827Y15154D01*
X22840Y15146D01*
X22851Y15137D01*
X22860Y15129D01*
X22868Y15123D01*
X22873Y15118D01*
X22875Y15116D01*
X22876Y15114D01*
X22892Y15096D01*
X22906Y15076D01*
X22917Y15053D01*
X22929Y15031D01*
X22938Y15008D01*
X22944Y14986D01*
X22950Y14963D01*
X22955Y14942D01*
X22959Y14922D01*
X22961Y14903D01*
X22964Y14886D01*
X22965Y14871D01*
Y14859D01*
X22966Y14849D01*
Y14844D01*
Y14842D01*
X22965Y14811D01*
X22963Y14782D01*
X22957Y14756D01*
X22952Y14729D01*
X22946Y14707D01*
X22939Y14684D01*
X22930Y14666D01*
X22921Y14647D01*
X22914Y14632D01*
X22905Y14618D01*
X22898Y14607D01*
X22891Y14597D01*
X22886Y14589D01*
X22881Y14584D01*
X22879Y14581D01*
X22878Y14579D01*
X22860Y14563D01*
X22841Y14548D01*
X22821Y14536D01*
X22801Y14526D01*
X22781Y14516D01*
X22761Y14508D01*
X22741Y14502D01*
X22722Y14497D01*
X22705Y14493D01*
X22687Y14491D01*
X22673Y14488D01*
X22660Y14487D01*
X22650D01*
X22641Y14486D01*
X22635D01*
X22613Y14487D01*
X22591Y14488D01*
X22552Y14494D01*
X22535Y14499D01*
X22519Y14504D01*
X22504Y14509D01*
X22490Y14516D01*
X22478Y14521D01*
X22468Y14526D01*
X22457Y14531D01*
X22450Y14536D01*
X22444Y14539D01*
X22440Y14542D01*
X22438Y14544D01*
X22436D01*
X22410Y14568D01*
X22387Y14596D01*
X22369Y14623D01*
X22354Y14649D01*
X22344Y14673D01*
X22339Y14684D01*
X22336Y14693D01*
X22332Y14701D01*
X22331Y14706D01*
X22330Y14709D01*
Y14711D01*
X22452Y14727D01*
X22462Y14701D01*
X22475Y14678D01*
X22487Y14658D01*
X22499Y14643D01*
X22509Y14632D01*
X22517Y14623D01*
X22522Y14618D01*
X22525Y14617D01*
X22543Y14606D01*
X22561Y14597D01*
X22580Y14592D01*
X22596Y14587D01*
X22613Y14584D01*
X22624Y14583D01*
X22635D01*
X22651Y14584D01*
X22666Y14586D01*
X22695Y14593D01*
X22720Y14602D01*
X22741Y14613D01*
X22757Y14624D01*
X22771Y14634D01*
X22775Y14638D01*
X22779Y14641D01*
X22780Y14642D01*
X22781Y14643D01*
X22791Y14656D01*
X22800Y14668D01*
X22815Y14696D01*
X22826Y14724D01*
X22835Y14753D01*
X22840Y14778D01*
X22841Y14789D01*
X22843Y14799D01*
X22844Y14807D01*
X22845Y14813D01*
Y14817D01*
Y14818D01*
X22326D01*
X22325Y14832D01*
Y14842D01*
Y14847D01*
Y14849D01*
X22326Y14881D01*
X22329Y14911D01*
X22334Y14938D01*
X22339Y14964D01*
X22345Y14988D01*
X22352Y15009D01*
X22361Y15029D01*
X22369Y15048D01*
X22378Y15064D01*
X22386Y15078D01*
X22394Y15089D01*
X22400Y15099D01*
X22405Y15107D01*
X22410Y15112D01*
X22413Y15116D01*
X22414Y15117D01*
X22431Y15133D01*
X22449Y15148D01*
X22468Y15161D01*
X22487Y15172D01*
X22506Y15181D01*
X22525Y15188D01*
X22544Y15196D01*
X22561Y15201D01*
X22578Y15204D01*
X22594Y15207D01*
X22608Y15209D01*
X22619Y15211D01*
X22629Y15212D01*
X22643D01*
X22669Y15211D01*
D02*
G37*
G36*
X13510D02*
X13524Y15208D01*
X13537Y15204D01*
X13549Y15201D01*
X13557Y15196D01*
X13565Y15192D01*
X13570Y15189D01*
X13571Y15188D01*
X13584Y15177D01*
X13598Y15163D01*
X13610Y15147D01*
X13621Y15129D01*
X13630Y15114D01*
X13639Y15102D01*
X13641Y15097D01*
X13644Y15093D01*
X13645Y15091D01*
Y15197D01*
X13751D01*
Y14501D01*
X13634D01*
Y14863D01*
X13633Y14891D01*
X13631Y14917D01*
X13628Y14939D01*
X13624Y14961D01*
X13621Y14977D01*
X13618Y14989D01*
X13616Y14994D01*
Y14998D01*
X13615Y14999D01*
Y15001D01*
X13609Y15016D01*
X13602Y15028D01*
X13595Y15039D01*
X13587Y15048D01*
X13581Y15056D01*
X13576Y15062D01*
X13572Y15064D01*
X13571Y15066D01*
X13559Y15073D01*
X13548Y15079D01*
X13535Y15083D01*
X13525Y15087D01*
X13515Y15088D01*
X13507Y15089D01*
X13501D01*
X13485Y15088D01*
X13469Y15086D01*
X13454Y15082D01*
X13441Y15077D01*
X13430Y15072D01*
X13421Y15068D01*
X13416Y15066D01*
X13414Y15064D01*
X13372Y15173D01*
X13396Y15186D01*
X13418Y15196D01*
X13439Y15202D01*
X13457Y15207D01*
X13472Y15209D01*
X13485Y15212D01*
X13495D01*
X13510Y15211D01*
D02*
G37*
G36*
X12930Y14501D02*
X12812D01*
Y15197D01*
X12930D01*
Y14501D01*
D02*
G37*
G36*
X17331D02*
X17214D01*
Y15197D01*
X17331D01*
Y14501D01*
D02*
G37*
G36*
X18077D02*
X17960D01*
Y15197D01*
X18077D01*
Y14501D01*
D02*
G37*
G36*
X17539Y15211D02*
X17552Y15208D01*
X17566Y15204D01*
X17578Y15201D01*
X17586Y15196D01*
X17594Y15192D01*
X17599Y15189D01*
X17600Y15188D01*
X17613Y15177D01*
X17626Y15163D01*
X17639Y15147D01*
X17650Y15129D01*
X17659Y15114D01*
X17667Y15102D01*
X17670Y15097D01*
X17672Y15093D01*
X17674Y15091D01*
Y15197D01*
X17780D01*
Y14501D01*
X17663D01*
Y14863D01*
X17661Y14891D01*
X17660Y14917D01*
X17656Y14939D01*
X17652Y14961D01*
X17650Y14977D01*
X17646Y14989D01*
X17645Y14994D01*
Y14998D01*
X17644Y14999D01*
Y15001D01*
X17637Y15016D01*
X17631Y15028D01*
X17624Y15039D01*
X17616Y15048D01*
X17610Y15056D01*
X17605Y15062D01*
X17601Y15064D01*
X17600Y15066D01*
X17587Y15073D01*
X17576Y15079D01*
X17564Y15083D01*
X17554Y15087D01*
X17544Y15088D01*
X17536Y15089D01*
X17530D01*
X17514Y15088D01*
X17498Y15086D01*
X17483Y15082D01*
X17470Y15077D01*
X17459Y15072D01*
X17450Y15068D01*
X17445Y15066D01*
X17443Y15064D01*
X17401Y15173D01*
X17425Y15186D01*
X17446Y15196D01*
X17467Y15202D01*
X17486Y15207D01*
X17501Y15209D01*
X17514Y15212D01*
X17524D01*
X17539Y15211D01*
D02*
G37*
G36*
X18685Y15477D02*
X18710Y15476D01*
X18759Y15469D01*
X18781Y15464D01*
X18801Y15459D01*
X18821Y15454D01*
X18839Y15448D01*
X18855Y15443D01*
X18870Y15437D01*
X18882Y15432D01*
X18893Y15428D01*
X18901Y15423D01*
X18908Y15421D01*
X18911Y15419D01*
X18913Y15418D01*
X18932Y15407D01*
X18951Y15393D01*
X18985Y15366D01*
X19000Y15351D01*
X19014Y15336D01*
X19026Y15321D01*
X19037Y15306D01*
X19047Y15292D01*
X19056Y15279D01*
X19064Y15268D01*
X19070Y15258D01*
X19075Y15249D01*
X19079Y15243D01*
X19080Y15239D01*
X19081Y15238D01*
X19091Y15216D01*
X19100Y15192D01*
X19115Y15146D01*
X19125Y15102D01*
X19129Y15081D01*
X19131Y15062D01*
X19134Y15043D01*
X19136Y15027D01*
X19138Y15012D01*
Y14999D01*
X19139Y14989D01*
Y14982D01*
Y14977D01*
Y14976D01*
X19138Y14949D01*
X19136Y14924D01*
X19130Y14876D01*
X19125Y14853D01*
X19120Y14833D01*
X19115Y14813D01*
X19109Y14794D01*
X19104Y14778D01*
X19099Y14763D01*
X19094Y14751D01*
X19089Y14739D01*
X19085Y14731D01*
X19082Y14724D01*
X19080Y14721D01*
Y14719D01*
X19069Y14698D01*
X19056Y14679D01*
X19043Y14661D01*
X19028Y14644D01*
X19014Y14628D01*
X18999Y14614D01*
X18985Y14601D01*
X18971Y14589D01*
X18958Y14579D01*
X18946Y14569D01*
X18935Y14562D01*
X18925Y14556D01*
X18917Y14551D01*
X18911Y14547D01*
X18908Y14546D01*
X18906Y14544D01*
X18884Y14534D01*
X18861Y14524D01*
X18817Y14509D01*
X18774Y14499D01*
X18754Y14496D01*
X18734Y14492D01*
X18716Y14489D01*
X18700Y14488D01*
X18685Y14486D01*
X18672D01*
X18663Y14484D01*
X18649D01*
X18610Y14486D01*
X18572Y14491D01*
X18537Y14497D01*
X18506Y14503D01*
X18494Y14507D01*
X18481Y14511D01*
X18470Y14513D01*
X18461Y14516D01*
X18454Y14518D01*
X18449Y14521D01*
X18445Y14522D01*
X18444D01*
X18406Y14537D01*
X18371Y14556D01*
X18339Y14573D01*
X18309Y14592D01*
X18296Y14601D01*
X18285Y14608D01*
X18275Y14614D01*
X18266Y14621D01*
X18259Y14626D01*
X18254Y14629D01*
X18251Y14632D01*
X18250Y14633D01*
Y14991D01*
X18657D01*
Y14877D01*
X18375D01*
Y14697D01*
X18392Y14683D01*
X18411Y14671D01*
X18431Y14659D01*
X18450Y14649D01*
X18468Y14641D01*
X18483Y14634D01*
X18487Y14633D01*
X18491Y14631D01*
X18494Y14629D01*
X18495D01*
X18525Y14619D01*
X18554Y14612D01*
X18580Y14606D01*
X18605Y14602D01*
X18626Y14599D01*
X18635D01*
X18642Y14598D01*
X18656D01*
X18691Y14599D01*
X18725Y14604D01*
X18755Y14611D01*
X18781Y14619D01*
X18794Y14623D01*
X18804Y14627D01*
X18814Y14629D01*
X18821Y14633D01*
X18828Y14636D01*
X18832Y14638D01*
X18835Y14639D01*
X18836D01*
X18866Y14657D01*
X18891Y14677D01*
X18914Y14699D01*
X18931Y14719D01*
X18945Y14738D01*
X18951Y14747D01*
X18955Y14754D01*
X18959Y14759D01*
X18961Y14764D01*
X18964Y14767D01*
Y14768D01*
X18979Y14802D01*
X18989Y14838D01*
X18996Y14874D01*
X19002Y14908D01*
X19004Y14923D01*
X19005Y14938D01*
X19006Y14951D01*
Y14962D01*
X19008Y14971D01*
Y14977D01*
Y14982D01*
Y14983D01*
X19006Y15022D01*
X19001Y15058D01*
X18996Y15091D01*
X18989Y15119D01*
X18986Y15132D01*
X18982Y15143D01*
X18980Y15153D01*
X18976Y15162D01*
X18975Y15168D01*
X18973Y15173D01*
X18971Y15176D01*
Y15177D01*
X18963Y15196D01*
X18952Y15214D01*
X18943Y15231D01*
X18934Y15244D01*
X18925Y15256D01*
X18917Y15264D01*
X18913Y15269D01*
X18911Y15272D01*
X18896Y15287D01*
X18879Y15302D01*
X18861Y15313D01*
X18845Y15323D01*
X18831Y15332D01*
X18819Y15337D01*
X18811Y15341D01*
X18810Y15342D01*
X18809D01*
X18784Y15351D01*
X18759Y15358D01*
X18733Y15363D01*
X18709Y15366D01*
X18689Y15368D01*
X18680D01*
X18672Y15369D01*
X18657D01*
X18631Y15368D01*
X18606Y15366D01*
X18584Y15361D01*
X18565Y15357D01*
X18549Y15352D01*
X18536Y15347D01*
X18529Y15344D01*
X18527Y15343D01*
X18526D01*
X18505Y15333D01*
X18486Y15322D01*
X18470Y15311D01*
X18457Y15301D01*
X18448Y15291D01*
X18440Y15283D01*
X18435Y15278D01*
X18434Y15276D01*
X18422Y15259D01*
X18411Y15241D01*
X18403Y15221D01*
X18395Y15203D01*
X18389Y15186D01*
X18384Y15173D01*
X18383Y15168D01*
X18381Y15164D01*
X18380Y15162D01*
Y15161D01*
X18265Y15192D01*
X18275Y15227D01*
X18288Y15258D01*
X18299Y15284D01*
X18311Y15307D01*
X18322Y15326D01*
X18326Y15333D01*
X18331Y15338D01*
X18334Y15343D01*
X18336Y15347D01*
X18339Y15348D01*
Y15349D01*
X18357Y15371D01*
X18379Y15389D01*
X18401Y15406D01*
X18422Y15419D01*
X18441Y15429D01*
X18449Y15433D01*
X18456Y15437D01*
X18463Y15439D01*
X18466Y15442D01*
X18469Y15443D01*
X18470D01*
X18503Y15454D01*
X18535Y15463D01*
X18566Y15469D01*
X18596Y15474D01*
X18609Y15476D01*
X18621Y15477D01*
X18631D01*
X18641Y15478D01*
X18659D01*
X18685Y15477D01*
D02*
G37*
G36*
X17034Y15324D02*
X16916D01*
Y15462D01*
X17034D01*
Y15324D01*
D02*
G37*
G36*
X23672Y14501D02*
X23555D01*
Y14881D01*
X23554Y14909D01*
X23552Y14936D01*
X23549Y14958D01*
X23545Y14976D01*
X23542Y14991D01*
X23539Y15001D01*
X23537Y15007D01*
X23536Y15009D01*
X23528Y15026D01*
X23517Y15041D01*
X23506Y15053D01*
X23495Y15063D01*
X23486Y15072D01*
X23477Y15078D01*
X23472Y15082D01*
X23470Y15083D01*
X23452Y15092D01*
X23435Y15099D01*
X23419Y15104D01*
X23404Y15107D01*
X23391Y15109D01*
X23381Y15111D01*
X23372D01*
X23347Y15109D01*
X23326Y15104D01*
X23307Y15098D01*
X23291Y15091D01*
X23280Y15082D01*
X23271Y15076D01*
X23265Y15071D01*
X23264Y15069D01*
X23251Y15052D01*
X23241Y15032D01*
X23235Y15011D01*
X23230Y14991D01*
X23228Y14971D01*
X23226Y14962D01*
X23225Y14956D01*
Y14949D01*
Y14944D01*
Y14942D01*
Y14941D01*
Y14501D01*
X23108D01*
Y14941D01*
X23109Y14977D01*
X23111Y15008D01*
X23115Y15036D01*
X23120Y15057D01*
X23125Y15074D01*
X23129Y15087D01*
X23131Y15094D01*
X23133Y15097D01*
X23144Y15116D01*
X23156Y15133D01*
X23170Y15147D01*
X23182Y15159D01*
X23195Y15168D01*
X23205Y15176D01*
X23212Y15179D01*
X23214Y15181D01*
X23215D01*
X23236Y15191D01*
X23260Y15198D01*
X23281Y15204D01*
X23303Y15208D01*
X23320Y15211D01*
X23335Y15212D01*
X23347D01*
X23370Y15211D01*
X23393Y15208D01*
X23414Y15203D01*
X23434Y15197D01*
X23451Y15189D01*
X23469Y15182D01*
X23484Y15173D01*
X23499Y15164D01*
X23511Y15154D01*
X23523Y15146D01*
X23533Y15138D01*
X23540Y15131D01*
X23546Y15124D01*
X23551Y15119D01*
X23554Y15117D01*
X23555Y15116D01*
Y15462D01*
X23672D01*
Y14501D01*
D02*
G37*
G36*
X12930Y15327D02*
X12812D01*
Y15462D01*
X12930D01*
Y15327D01*
D02*
G37*
G36*
X18077D02*
X17960D01*
Y15462D01*
X18077D01*
Y15327D01*
D02*
G37*
G36*
X17331D02*
X17214D01*
Y15462D01*
X17331D01*
Y15327D01*
D02*
G37*
G36*
X15604Y14501D02*
X15481D01*
Y15319D01*
X15204Y14501D01*
X15090D01*
X14809Y15306D01*
Y14501D01*
X14686D01*
Y15462D01*
X14857D01*
X15089Y14793D01*
X15101Y14757D01*
X15111Y14726D01*
X15120Y14699D01*
X15128Y14677D01*
X15132Y14661D01*
X15136Y14648D01*
X15139Y14641D01*
X15140Y14638D01*
X15146Y14658D01*
X15154Y14681D01*
X15161Y14704D01*
X15169Y14727D01*
X15175Y14748D01*
X15179Y14757D01*
X15181Y14766D01*
X15184Y14772D01*
X15185Y14777D01*
X15186Y14779D01*
Y14781D01*
X15414Y15462D01*
X15604D01*
Y14501D01*
D02*
G37*
G36*
X13283Y15368D02*
Y15197D01*
X13370D01*
Y15106D01*
X13283D01*
Y14704D01*
Y14686D01*
X13281Y14668D01*
Y14652D01*
X13280Y14638D01*
X13279Y14624D01*
X13277Y14613D01*
X13276Y14603D01*
X13275Y14594D01*
X13273Y14581D01*
X13271Y14572D01*
X13269Y14566D01*
Y14564D01*
X13262Y14553D01*
X13255Y14543D01*
X13246Y14533D01*
X13238Y14526D01*
X13230Y14519D01*
X13225Y14516D01*
X13220Y14513D01*
X13219Y14512D01*
X13205Y14506D01*
X13189Y14501D01*
X13173Y14497D01*
X13156Y14494D01*
X13142Y14493D01*
X13130Y14492D01*
X13120D01*
X13089Y14493D01*
X13074Y14496D01*
X13060Y14497D01*
X13047Y14499D01*
X13039Y14501D01*
X13032Y14502D01*
X13030D01*
X13046Y14606D01*
X13058Y14604D01*
X13068Y14603D01*
X13077D01*
X13085Y14602D01*
X13099D01*
X13116Y14603D01*
X13129Y14606D01*
X13134Y14607D01*
X13138Y14608D01*
X13139Y14609D01*
X13140D01*
X13149Y14617D01*
X13155Y14624D01*
X13159Y14629D01*
X13160Y14632D01*
X13161Y14639D01*
X13162Y14648D01*
X13164Y14659D01*
Y14671D01*
X13165Y14681D01*
Y14689D01*
Y14696D01*
Y14698D01*
Y15106D01*
X13046D01*
Y15197D01*
X13165D01*
Y15439D01*
X13283Y15368D01*
D02*
G37*
G36*
X8491Y15211D02*
X8521Y15208D01*
X8549Y15204D01*
X8571Y15199D01*
X8591Y15194D01*
X8599Y15193D01*
X8605Y15191D01*
X8610Y15189D01*
X8614Y15188D01*
X8616Y15187D01*
X8618D01*
X8641Y15177D01*
X8662Y15166D01*
X8680Y15154D01*
X8695Y15143D01*
X8706Y15132D01*
X8715Y15124D01*
X8720Y15119D01*
X8721Y15117D01*
X8734Y15099D01*
X8745Y15079D01*
X8754Y15059D01*
X8760Y15041D01*
X8766Y15024D01*
X8770Y15011D01*
X8771Y15006D01*
Y15002D01*
X8773Y14999D01*
Y14998D01*
X8658Y14982D01*
X8650Y15007D01*
X8640Y15029D01*
X8631Y15047D01*
X8621Y15061D01*
X8614Y15072D01*
X8606Y15079D01*
X8601Y15083D01*
X8600Y15084D01*
X8584Y15094D01*
X8564Y15102D01*
X8544Y15107D01*
X8522Y15111D01*
X8505Y15113D01*
X8490Y15114D01*
X8476D01*
X8445Y15113D01*
X8418Y15108D01*
X8395Y15102D01*
X8375Y15094D01*
X8360Y15087D01*
X8350Y15081D01*
X8344Y15076D01*
X8341Y15074D01*
X8330Y15062D01*
X8321Y15046D01*
X8316Y15029D01*
X8311Y15012D01*
X8309Y14997D01*
X8307Y14983D01*
Y14979D01*
Y14976D01*
Y14973D01*
Y14972D01*
Y14969D01*
Y14964D01*
Y14954D01*
X8309Y14949D01*
Y14946D01*
Y14943D01*
Y14942D01*
X8322Y14938D01*
X8338Y14933D01*
X8370Y14926D01*
X8405Y14918D01*
X8439Y14912D01*
X8455Y14909D01*
X8470Y14907D01*
X8484Y14906D01*
X8495Y14904D01*
X8505Y14902D01*
X8512D01*
X8518Y14901D01*
X8519D01*
X8544Y14897D01*
X8565Y14894D01*
X8583Y14892D01*
X8597Y14888D01*
X8609Y14887D01*
X8618Y14884D01*
X8622Y14883D01*
X8624D01*
X8641Y14878D01*
X8658Y14872D01*
X8671Y14866D01*
X8684Y14859D01*
X8694Y14853D01*
X8702Y14848D01*
X8708Y14846D01*
X8709Y14844D01*
X8723Y14834D01*
X8734Y14823D01*
X8745Y14812D01*
X8754Y14802D01*
X8760Y14792D01*
X8766Y14784D01*
X8769Y14779D01*
X8770Y14777D01*
X8777Y14761D01*
X8783Y14744D01*
X8788Y14728D01*
X8790Y14714D01*
X8791Y14702D01*
X8792Y14692D01*
Y14686D01*
Y14683D01*
X8791Y14667D01*
X8790Y14652D01*
X8783Y14624D01*
X8773Y14601D01*
X8761Y14579D01*
X8750Y14563D01*
X8741Y14551D01*
X8734Y14543D01*
X8733Y14542D01*
X8731Y14541D01*
X8719Y14531D01*
X8706Y14523D01*
X8677Y14509D01*
X8649Y14499D01*
X8620Y14493D01*
X8595Y14488D01*
X8584Y14487D01*
X8574D01*
X8566Y14486D01*
X8555D01*
X8530Y14487D01*
X8506Y14489D01*
X8484Y14493D01*
X8465Y14497D01*
X8449Y14501D01*
X8436Y14504D01*
X8432Y14506D01*
X8429Y14507D01*
X8428Y14508D01*
X8426D01*
X8404Y14518D01*
X8380Y14531D01*
X8359Y14544D01*
X8340Y14557D01*
X8322Y14569D01*
X8310Y14579D01*
X8305Y14583D01*
X8301Y14586D01*
X8300Y14588D01*
X8299D01*
X8296Y14569D01*
X8292Y14553D01*
X8290Y14538D01*
X8285Y14526D01*
X8282Y14514D01*
X8279Y14507D01*
X8278Y14502D01*
X8276Y14501D01*
X8152D01*
X8160Y14516D01*
X8166Y14531D01*
X8171Y14544D01*
X8176Y14558D01*
X8179Y14568D01*
X8181Y14577D01*
X8183Y14582D01*
Y14584D01*
X8184Y14594D01*
X8185Y14606D01*
Y14619D01*
X8186Y14636D01*
X8188Y14669D01*
Y14704D01*
X8189Y14722D01*
Y14738D01*
Y14753D01*
Y14766D01*
Y14777D01*
Y14784D01*
Y14791D01*
Y14792D01*
Y14949D01*
Y14977D01*
X8190Y14999D01*
X8191Y15018D01*
Y15033D01*
X8192Y15044D01*
X8194Y15052D01*
X8195Y15057D01*
Y15058D01*
X8200Y15076D01*
X8205Y15091D01*
X8211Y15104D01*
X8217Y15116D01*
X8224Y15124D01*
X8229Y15132D01*
X8231Y15136D01*
X8232Y15137D01*
X8244Y15148D01*
X8256Y15159D01*
X8270Y15168D01*
X8284Y15176D01*
X8296Y15182D01*
X8306Y15187D01*
X8313Y15189D01*
X8314Y15191D01*
X8315D01*
X8338Y15198D01*
X8360Y15203D01*
X8385Y15207D01*
X8407Y15209D01*
X8428Y15211D01*
X8436Y15212D01*
X8459D01*
X8491Y15211D01*
D02*
G37*
G36*
X16473D02*
X16502Y15208D01*
X16530Y15204D01*
X16552Y15199D01*
X16573Y15194D01*
X16580Y15193D01*
X16586Y15191D01*
X16591Y15189D01*
X16595Y15188D01*
X16597Y15187D01*
X16599D01*
X16623Y15177D01*
X16644Y15166D01*
X16661Y15154D01*
X16676Y15143D01*
X16688Y15132D01*
X16696Y15124D01*
X16701Y15119D01*
X16703Y15117D01*
X16715Y15099D01*
X16726Y15079D01*
X16735Y15059D01*
X16741Y15041D01*
X16747Y15024D01*
X16751Y15011D01*
X16753Y15006D01*
Y15002D01*
X16754Y14999D01*
Y14998D01*
X16639Y14982D01*
X16631Y15007D01*
X16621Y15029D01*
X16612Y15047D01*
X16602Y15061D01*
X16595Y15072D01*
X16588Y15079D01*
X16582Y15083D01*
X16581Y15084D01*
X16565Y15094D01*
X16545Y15102D01*
X16525Y15107D01*
X16504Y15111D01*
X16486Y15113D01*
X16471Y15114D01*
X16458D01*
X16426Y15113D01*
X16399Y15108D01*
X16376Y15102D01*
X16356Y15094D01*
X16341Y15087D01*
X16331Y15081D01*
X16325Y15076D01*
X16322Y15074D01*
X16311Y15062D01*
X16302Y15046D01*
X16298Y15029D01*
X16293Y15012D01*
X16290Y14997D01*
X16289Y14983D01*
Y14979D01*
Y14976D01*
Y14973D01*
Y14972D01*
Y14969D01*
Y14964D01*
Y14954D01*
X16290Y14949D01*
Y14946D01*
Y14943D01*
Y14942D01*
X16304Y14938D01*
X16319Y14933D01*
X16351Y14926D01*
X16386Y14918D01*
X16420Y14912D01*
X16436Y14909D01*
X16451Y14907D01*
X16465Y14906D01*
X16476Y14904D01*
X16486Y14902D01*
X16494D01*
X16499Y14901D01*
X16500D01*
X16525Y14897D01*
X16546Y14894D01*
X16564Y14892D01*
X16579Y14888D01*
X16590Y14887D01*
X16599Y14884D01*
X16604Y14883D01*
X16605D01*
X16623Y14878D01*
X16639Y14872D01*
X16652Y14866D01*
X16665Y14859D01*
X16675Y14853D01*
X16684Y14848D01*
X16689Y14846D01*
X16690Y14844D01*
X16704Y14834D01*
X16715Y14823D01*
X16726Y14812D01*
X16735Y14802D01*
X16741Y14792D01*
X16747Y14784D01*
X16750Y14779D01*
X16751Y14777D01*
X16759Y14761D01*
X16764Y14744D01*
X16769Y14728D01*
X16771Y14714D01*
X16773Y14702D01*
X16774Y14692D01*
Y14686D01*
Y14683D01*
X16773Y14667D01*
X16771Y14652D01*
X16764Y14624D01*
X16754Y14601D01*
X16743Y14579D01*
X16731Y14563D01*
X16723Y14551D01*
X16715Y14543D01*
X16714Y14542D01*
X16712Y14541D01*
X16700Y14531D01*
X16688Y14523D01*
X16659Y14509D01*
X16630Y14499D01*
X16601Y14493D01*
X16576Y14488D01*
X16565Y14487D01*
X16555D01*
X16547Y14486D01*
X16536D01*
X16511Y14487D01*
X16487Y14489D01*
X16465Y14493D01*
X16446Y14497D01*
X16430Y14501D01*
X16417Y14504D01*
X16414Y14506D01*
X16410Y14507D01*
X16409Y14508D01*
X16408D01*
X16385Y14518D01*
X16361Y14531D01*
X16340Y14544D01*
X16321Y14557D01*
X16304Y14569D01*
X16291Y14579D01*
X16286Y14583D01*
X16283Y14586D01*
X16281Y14588D01*
X16280D01*
X16278Y14569D01*
X16274Y14553D01*
X16271Y14538D01*
X16266Y14526D01*
X16264Y14514D01*
X16260Y14507D01*
X16259Y14502D01*
X16257Y14501D01*
X16134D01*
X16141Y14516D01*
X16148Y14531D01*
X16152Y14544D01*
X16157Y14558D01*
X16160Y14568D01*
X16163Y14577D01*
X16164Y14582D01*
Y14584D01*
X16165Y14594D01*
X16166Y14606D01*
Y14619D01*
X16168Y14636D01*
X16169Y14669D01*
Y14704D01*
X16170Y14722D01*
Y14738D01*
Y14753D01*
Y14766D01*
Y14777D01*
Y14784D01*
Y14791D01*
Y14792D01*
Y14949D01*
Y14977D01*
X16171Y14999D01*
X16172Y15018D01*
Y15033D01*
X16174Y15044D01*
X16175Y15052D01*
X16176Y15057D01*
Y15058D01*
X16181Y15076D01*
X16186Y15091D01*
X16193Y15104D01*
X16199Y15116D01*
X16205Y15124D01*
X16210Y15132D01*
X16213Y15136D01*
X16214Y15137D01*
X16225Y15148D01*
X16237Y15159D01*
X16251Y15168D01*
X16265Y15176D01*
X16278Y15182D01*
X16287Y15187D01*
X16294Y15189D01*
X16295Y15191D01*
X16296D01*
X16319Y15198D01*
X16341Y15203D01*
X16366Y15207D01*
X16389Y15209D01*
X16409Y15211D01*
X16417Y15212D01*
X16440D01*
X16473Y15211D01*
D02*
G37*
G36*
X14235D02*
X14265Y15208D01*
X14293Y15204D01*
X14315Y15199D01*
X14335Y15194D01*
X14342Y15193D01*
X14349Y15191D01*
X14354Y15189D01*
X14358Y15188D01*
X14360Y15187D01*
X14361D01*
X14385Y15177D01*
X14406Y15166D01*
X14424Y15154D01*
X14439Y15143D01*
X14450Y15132D01*
X14459Y15124D01*
X14464Y15119D01*
X14465Y15117D01*
X14477Y15099D01*
X14489Y15079D01*
X14497Y15059D01*
X14504Y15041D01*
X14510Y15024D01*
X14514Y15011D01*
X14515Y15006D01*
Y15002D01*
X14516Y14999D01*
Y14998D01*
X14401Y14982D01*
X14394Y15007D01*
X14384Y15029D01*
X14375Y15047D01*
X14365Y15061D01*
X14358Y15072D01*
X14350Y15079D01*
X14345Y15083D01*
X14344Y15084D01*
X14327Y15094D01*
X14308Y15102D01*
X14288Y15107D01*
X14266Y15111D01*
X14249Y15113D01*
X14234Y15114D01*
X14220D01*
X14189Y15113D01*
X14161Y15108D01*
X14139Y15102D01*
X14119Y15094D01*
X14104Y15087D01*
X14094Y15081D01*
X14088Y15076D01*
X14085Y15074D01*
X14074Y15062D01*
X14065Y15046D01*
X14060Y15029D01*
X14055Y15012D01*
X14052Y14997D01*
X14051Y14983D01*
Y14979D01*
Y14976D01*
Y14973D01*
Y14972D01*
Y14969D01*
Y14964D01*
Y14954D01*
X14052Y14949D01*
Y14946D01*
Y14943D01*
Y14942D01*
X14066Y14938D01*
X14081Y14933D01*
X14114Y14926D01*
X14149Y14918D01*
X14182Y14912D01*
X14199Y14909D01*
X14214Y14907D01*
X14227Y14906D01*
X14239Y14904D01*
X14249Y14902D01*
X14256D01*
X14261Y14901D01*
X14262D01*
X14288Y14897D01*
X14309Y14894D01*
X14326Y14892D01*
X14341Y14888D01*
X14353Y14887D01*
X14361Y14884D01*
X14366Y14883D01*
X14368D01*
X14385Y14878D01*
X14401Y14872D01*
X14415Y14866D01*
X14427Y14859D01*
X14438Y14853D01*
X14446Y14848D01*
X14451Y14846D01*
X14453Y14844D01*
X14466Y14834D01*
X14477Y14823D01*
X14489Y14812D01*
X14497Y14802D01*
X14504Y14792D01*
X14510Y14784D01*
X14512Y14779D01*
X14514Y14777D01*
X14521Y14761D01*
X14526Y14744D01*
X14531Y14728D01*
X14534Y14714D01*
X14535Y14702D01*
X14536Y14692D01*
Y14686D01*
Y14683D01*
X14535Y14667D01*
X14534Y14652D01*
X14526Y14624D01*
X14516Y14601D01*
X14505Y14579D01*
X14494Y14563D01*
X14485Y14551D01*
X14477Y14543D01*
X14476Y14542D01*
X14475Y14541D01*
X14462Y14531D01*
X14450Y14523D01*
X14421Y14509D01*
X14392Y14499D01*
X14364Y14493D01*
X14339Y14488D01*
X14327Y14487D01*
X14318D01*
X14310Y14486D01*
X14299D01*
X14274Y14487D01*
X14250Y14489D01*
X14227Y14493D01*
X14209Y14497D01*
X14193Y14501D01*
X14180Y14504D01*
X14176Y14506D01*
X14173Y14507D01*
X14171Y14508D01*
X14170D01*
X14147Y14518D01*
X14124Y14531D01*
X14102Y14544D01*
X14084Y14557D01*
X14066Y14569D01*
X14054Y14579D01*
X14049Y14583D01*
X14045Y14586D01*
X14044Y14588D01*
X14043D01*
X14040Y14569D01*
X14036Y14553D01*
X14034Y14538D01*
X14029Y14526D01*
X14026Y14514D01*
X14023Y14507D01*
X14021Y14502D01*
X14020Y14501D01*
X13896D01*
X13904Y14516D01*
X13910Y14531D01*
X13915Y14544D01*
X13920Y14558D01*
X13922Y14568D01*
X13925Y14577D01*
X13926Y14582D01*
Y14584D01*
X13928Y14594D01*
X13929Y14606D01*
Y14619D01*
X13930Y14636D01*
X13931Y14669D01*
Y14704D01*
X13932Y14722D01*
Y14738D01*
Y14753D01*
Y14766D01*
Y14777D01*
Y14784D01*
Y14791D01*
Y14792D01*
Y14949D01*
Y14977D01*
X13934Y14999D01*
X13935Y15018D01*
Y15033D01*
X13936Y15044D01*
X13937Y15052D01*
X13939Y15057D01*
Y15058D01*
X13944Y15076D01*
X13949Y15091D01*
X13955Y15104D01*
X13961Y15116D01*
X13967Y15124D01*
X13973Y15132D01*
X13975Y15136D01*
X13976Y15137D01*
X13987Y15148D01*
X14000Y15159D01*
X14014Y15168D01*
X14028Y15176D01*
X14040Y15182D01*
X14050Y15187D01*
X14056Y15189D01*
X14058Y15191D01*
X14059D01*
X14081Y15198D01*
X14104Y15203D01*
X14129Y15207D01*
X14151Y15209D01*
X14171Y15211D01*
X14180Y15212D01*
X14203D01*
X14235Y15211D01*
D02*
G37*
G36*
X12331D02*
X12356Y15207D01*
X12379Y15202D01*
X12400Y15194D01*
X12420Y15186D01*
X12437Y15176D01*
X12454Y15166D01*
X12469Y15154D01*
X12483Y15143D01*
X12494Y15133D01*
X12502Y15123D01*
X12511Y15114D01*
X12517Y15108D01*
X12521Y15102D01*
X12524Y15098D01*
X12525Y15097D01*
Y15197D01*
X12631D01*
Y14501D01*
X12514D01*
Y14879D01*
X12513Y14903D01*
X12511Y14926D01*
X12509Y14946D01*
X12505Y14964D01*
X12501Y14981D01*
X12496Y14996D01*
X12491Y15008D01*
X12486Y15021D01*
X12481Y15031D01*
X12478Y15038D01*
X12472Y15046D01*
X12469Y15051D01*
X12465Y15056D01*
X12463Y15058D01*
X12460Y15061D01*
X12439Y15077D01*
X12416Y15089D01*
X12394Y15098D01*
X12374Y15103D01*
X12356Y15107D01*
X12341Y15108D01*
X12336Y15109D01*
X12329D01*
X12313Y15108D01*
X12296Y15106D01*
X12283Y15102D01*
X12271Y15098D01*
X12261Y15094D01*
X12254Y15091D01*
X12249Y15088D01*
X12248Y15087D01*
X12235Y15078D01*
X12225Y15069D01*
X12216Y15059D01*
X12210Y15051D01*
X12205Y15042D01*
X12201Y15036D01*
X12199Y15031D01*
Y15029D01*
X12194Y15014D01*
X12190Y14998D01*
X12188Y14981D01*
X12185Y14963D01*
Y14948D01*
X12184Y14934D01*
Y14929D01*
Y14927D01*
Y14924D01*
Y14923D01*
Y14501D01*
X12066D01*
Y14928D01*
Y14957D01*
X12068Y14981D01*
X12069Y14999D01*
X12070Y15016D01*
X12071Y15027D01*
X12072Y15036D01*
X12074Y15041D01*
Y15042D01*
X12079Y15061D01*
X12084Y15077D01*
X12090Y15092D01*
X12095Y15104D01*
X12101Y15116D01*
X12106Y15123D01*
X12109Y15128D01*
X12110Y15129D01*
X12121Y15142D01*
X12134Y15154D01*
X12146Y15164D01*
X12159Y15172D01*
X12171Y15179D01*
X12180Y15184D01*
X12186Y15187D01*
X12189Y15188D01*
X12209Y15196D01*
X12229Y15202D01*
X12249Y15206D01*
X12266Y15209D01*
X12283Y15211D01*
X12294Y15212D01*
X12305D01*
X12331Y15211D01*
D02*
G37*
G36*
X23031Y12777D02*
X22898D01*
X22695Y13509D01*
X22690Y13527D01*
X22685Y13546D01*
X22680Y13566D01*
X22675Y13584D01*
X22671Y13599D01*
X22669Y13611D01*
X22668Y13616D01*
Y13620D01*
X22666Y13621D01*
Y13622D01*
X22665Y13617D01*
X22664Y13611D01*
X22659Y13596D01*
X22654Y13577D01*
X22649Y13557D01*
X22644Y13539D01*
X22639Y13524D01*
X22638Y13517D01*
X22636Y13512D01*
X22635Y13510D01*
Y13509D01*
X22434Y12777D01*
X22310D01*
X22046Y13739D01*
X22175D01*
X22326Y13120D01*
X22336Y13077D01*
X22346Y13037D01*
X22354Y13002D01*
X22357Y12986D01*
X22361Y12971D01*
X22364Y12959D01*
X22366Y12946D01*
X22369Y12936D01*
X22370Y12927D01*
X22371Y12920D01*
X22373Y12915D01*
X22374Y12912D01*
Y12911D01*
X22384Y12971D01*
X22396Y13031D01*
X22403Y13060D01*
X22409Y13089D01*
X22415Y13115D01*
X22421Y13141D01*
X22426Y13164D01*
X22432Y13185D01*
X22438Y13205D01*
X22441Y13220D01*
X22445Y13234D01*
X22448Y13244D01*
X22449Y13249D01*
X22450Y13251D01*
X22586Y13739D01*
X22740D01*
X22922Y13089D01*
X22924Y13082D01*
X22926Y13074D01*
X22929Y13064D01*
X22933Y13051D01*
X22935Y13037D01*
X22939Y13022D01*
X22946Y12991D01*
X22954Y12961D01*
X22957Y12947D01*
X22960Y12936D01*
X22963Y12926D01*
X22965Y12917D01*
X22966Y12912D01*
Y12911D01*
X22973Y12947D01*
X22979Y12982D01*
X22986Y13016D01*
X22992Y13046D01*
X22995Y13059D01*
X22998Y13071D01*
X23000Y13081D01*
X23003Y13090D01*
X23004Y13097D01*
X23005Y13102D01*
X23006Y13106D01*
Y13107D01*
X23151Y13739D01*
X23282D01*
X23031Y12777D01*
D02*
G37*
G36*
X24299D02*
X24165D01*
X23963Y13509D01*
X23958Y13527D01*
X23953Y13546D01*
X23948Y13566D01*
X23942Y13584D01*
X23939Y13599D01*
X23936Y13611D01*
X23935Y13616D01*
Y13620D01*
X23934Y13621D01*
Y13622D01*
X23932Y13617D01*
X23931Y13611D01*
X23926Y13596D01*
X23921Y13577D01*
X23916Y13557D01*
X23911Y13539D01*
X23906Y13524D01*
X23905Y13517D01*
X23904Y13512D01*
X23902Y13510D01*
Y13509D01*
X23701Y12777D01*
X23577D01*
X23314Y13739D01*
X23442D01*
X23594Y13120D01*
X23604Y13077D01*
X23614Y13037D01*
X23621Y13002D01*
X23625Y12986D01*
X23629Y12971D01*
X23631Y12959D01*
X23634Y12946D01*
X23636Y12936D01*
X23637Y12927D01*
X23639Y12920D01*
X23640Y12915D01*
X23641Y12912D01*
Y12911D01*
X23651Y12971D01*
X23664Y13031D01*
X23670Y13060D01*
X23676Y13089D01*
X23682Y13115D01*
X23689Y13141D01*
X23694Y13164D01*
X23700Y13185D01*
X23705Y13205D01*
X23709Y13220D01*
X23712Y13234D01*
X23715Y13244D01*
X23716Y13249D01*
X23718Y13251D01*
X23854Y13739D01*
X24007D01*
X24190Y13089D01*
X24191Y13082D01*
X24194Y13074D01*
X24196Y13064D01*
X24200Y13051D01*
X24202Y13037D01*
X24206Y13022D01*
X24214Y12991D01*
X24221Y12961D01*
X24225Y12947D01*
X24227Y12936D01*
X24230Y12926D01*
X24232Y12917D01*
X24234Y12912D01*
Y12911D01*
X24240Y12947D01*
X24246Y12982D01*
X24254Y13016D01*
X24260Y13046D01*
X24262Y13059D01*
X24265Y13071D01*
X24267Y13081D01*
X24270Y13090D01*
X24271Y13097D01*
X24272Y13102D01*
X24274Y13106D01*
Y13107D01*
X24419Y13739D01*
X24550D01*
X24299Y12777D01*
D02*
G37*
G36*
X20991Y15116D02*
X21004Y15131D01*
X21017Y15144D01*
X21031Y15156D01*
X21044Y15166D01*
X21055Y15174D01*
X21064Y15179D01*
X21070Y15183D01*
X21072Y15184D01*
X21091Y15193D01*
X21110Y15201D01*
X21129Y15206D01*
X21146Y15208D01*
X21161Y15211D01*
X21174Y15212D01*
X21184D01*
X21215Y15209D01*
X21245Y15204D01*
X21271Y15197D01*
X21294Y15189D01*
X21314Y15181D01*
X21321Y15177D01*
X21328Y15173D01*
X21332Y15169D01*
X21336Y15168D01*
X21339Y15166D01*
X21340D01*
X21364Y15147D01*
X21385Y15127D01*
X21402Y15104D01*
X21418Y15084D01*
X21429Y15064D01*
X21434Y15057D01*
X21437Y15049D01*
X21440Y15044D01*
X21442Y15039D01*
X21444Y15037D01*
Y15036D01*
X21455Y15003D01*
X21464Y14971D01*
X21469Y14939D01*
X21474Y14909D01*
X21475Y14897D01*
X21476Y14884D01*
Y14874D01*
X21477Y14864D01*
Y14857D01*
Y14852D01*
Y14848D01*
Y14847D01*
X21476Y14808D01*
X21471Y14773D01*
X21465Y14741D01*
X21459Y14713D01*
X21455Y14701D01*
X21451Y14689D01*
X21449Y14681D01*
X21446Y14673D01*
X21444Y14667D01*
X21441Y14662D01*
X21440Y14659D01*
Y14658D01*
X21424Y14629D01*
X21406Y14604D01*
X21389Y14582D01*
X21371Y14564D01*
X21356Y14549D01*
X21344Y14539D01*
X21339Y14536D01*
X21335Y14533D01*
X21334Y14531D01*
X21332D01*
X21306Y14516D01*
X21279Y14504D01*
X21253Y14497D01*
X21229Y14492D01*
X21209Y14488D01*
X21200Y14487D01*
X21193D01*
X21188Y14486D01*
X21179D01*
X21155Y14487D01*
X21134Y14491D01*
X21112Y14496D01*
X21094Y14502D01*
X21076Y14509D01*
X21060Y14518D01*
X21046Y14528D01*
X21033Y14538D01*
X21021Y14547D01*
X21011Y14557D01*
X21003Y14566D01*
X20996Y14573D01*
X20991Y14579D01*
X20986Y14584D01*
X20985Y14588D01*
X20984Y14589D01*
Y14501D01*
X20874D01*
Y15462D01*
X20991D01*
Y15116D01*
D02*
G37*
G36*
X20430Y15211D02*
X20452Y15208D01*
X20474Y15204D01*
X20495Y15199D01*
X20514Y15194D01*
X20533Y15187D01*
X20549Y15181D01*
X20564Y15173D01*
X20577Y15166D01*
X20590Y15159D01*
X20600Y15152D01*
X20609Y15147D01*
X20616Y15142D01*
X20621Y15138D01*
X20624Y15136D01*
X20625Y15134D01*
X20644Y15116D01*
X20660Y15096D01*
X20674Y15073D01*
X20686Y15051D01*
X20696Y15027D01*
X20705Y15003D01*
X20712Y14979D01*
X20717Y14956D01*
X20722Y14934D01*
X20725Y14914D01*
X20728Y14896D01*
X20730Y14879D01*
Y14867D01*
X20731Y14857D01*
Y14851D01*
Y14848D01*
X20730Y14816D01*
X20728Y14786D01*
X20722Y14758D01*
X20717Y14732D01*
X20710Y14707D01*
X20703Y14686D01*
X20695Y14666D01*
X20686Y14647D01*
X20677Y14631D01*
X20670Y14617D01*
X20663Y14606D01*
X20655Y14596D01*
X20650Y14588D01*
X20645Y14583D01*
X20642Y14579D01*
X20641Y14578D01*
X20624Y14562D01*
X20605Y14548D01*
X20586Y14536D01*
X20566Y14524D01*
X20546Y14516D01*
X20528Y14508D01*
X20509Y14502D01*
X20490Y14497D01*
X20473Y14493D01*
X20456Y14491D01*
X20443Y14488D01*
X20430Y14487D01*
X20420D01*
X20412Y14486D01*
X20406D01*
X20373Y14487D01*
X20341Y14492D01*
X20312Y14499D01*
X20289Y14507D01*
X20268Y14514D01*
X20259Y14518D01*
X20252Y14522D01*
X20246Y14524D01*
X20243Y14527D01*
X20240Y14528D01*
X20239D01*
X20211Y14546D01*
X20187Y14564D01*
X20168Y14584D01*
X20151Y14603D01*
X20138Y14621D01*
X20129Y14634D01*
X20125Y14639D01*
X20122Y14643D01*
X20121Y14646D01*
Y14647D01*
X20114Y14662D01*
X20108Y14678D01*
X20097Y14713D01*
X20090Y14748D01*
X20085Y14782D01*
X20084Y14797D01*
X20082Y14812D01*
X20081Y14824D01*
X20080Y14836D01*
Y14846D01*
Y14852D01*
Y14857D01*
Y14858D01*
X20081Y14888D01*
X20084Y14917D01*
X20089Y14943D01*
X20094Y14968D01*
X20101Y14992D01*
X20109Y15013D01*
X20117Y15032D01*
X20125Y15049D01*
X20134Y15064D01*
X20143Y15078D01*
X20150Y15091D01*
X20157Y15099D01*
X20162Y15107D01*
X20168Y15113D01*
X20170Y15116D01*
X20171Y15117D01*
X20189Y15133D01*
X20208Y15148D01*
X20226Y15161D01*
X20246Y15172D01*
X20266Y15181D01*
X20286Y15188D01*
X20305Y15196D01*
X20322Y15201D01*
X20340Y15204D01*
X20356Y15207D01*
X20370Y15209D01*
X20382Y15211D01*
X20392Y15212D01*
X20406D01*
X20430Y15211D01*
D02*
G37*
G36*
X17034Y14467D02*
Y14449D01*
X17035Y14434D01*
Y14421D01*
X17036Y14408D01*
X17038Y14397D01*
X17040Y14388D01*
X17041Y14379D01*
X17042Y14372D01*
X17046Y14361D01*
X17050Y14353D01*
X17051Y14349D01*
X17053Y14348D01*
X17060Y14339D01*
X17069Y14333D01*
X17077Y14329D01*
X17086Y14327D01*
X17094Y14324D01*
X17100Y14323D01*
X17114D01*
X17122Y14324D01*
X17140Y14328D01*
X17148Y14331D01*
X17154Y14332D01*
X17159Y14333D01*
X17160D01*
X17183Y14232D01*
X17149Y14224D01*
X17134Y14222D01*
X17120Y14221D01*
X17109D01*
X17099Y14219D01*
X17091D01*
X17074Y14221D01*
X17056Y14222D01*
X17041Y14226D01*
X17027Y14229D01*
X17003Y14241D01*
X16984Y14253D01*
X16969Y14264D01*
X16959Y14276D01*
X16953Y14283D01*
X16950Y14284D01*
Y14286D01*
X16944Y14296D01*
X16939Y14308D01*
X16930Y14334D01*
X16925Y14364D01*
X16920Y14394D01*
X16918Y14421D01*
Y14433D01*
X16916Y14443D01*
Y14452D01*
Y14459D01*
Y14463D01*
Y14464D01*
Y15197D01*
X17034D01*
Y14467D01*
D02*
G37*
G36*
X16990Y13339D02*
X16855D01*
Y13474D01*
X16990D01*
Y13339D01*
D02*
G37*
G36*
X6326D02*
X6191D01*
Y13474D01*
X6326D01*
Y13339D01*
D02*
G37*
G36*
X7312Y12777D02*
X7190D01*
Y13531D01*
X6686Y12777D01*
X6555D01*
Y13739D01*
X6678D01*
Y12984D01*
X7182Y13739D01*
X7312D01*
Y12777D01*
D02*
G37*
G36*
X24550Y13928D02*
X24188D01*
Y14046D01*
X24550D01*
Y13928D01*
D02*
G37*
G36*
X14829Y12777D02*
X14695D01*
X14492Y13509D01*
X14488Y13527D01*
X14483Y13546D01*
X14477Y13566D01*
X14473Y13584D01*
X14469Y13599D01*
X14466Y13611D01*
X14465Y13616D01*
Y13620D01*
X14464Y13621D01*
Y13622D01*
X14462Y13617D01*
X14461Y13611D01*
X14456Y13596D01*
X14451Y13577D01*
X14446Y13557D01*
X14441Y13539D01*
X14436Y13524D01*
X14435Y13517D01*
X14434Y13512D01*
X14432Y13510D01*
Y13509D01*
X14231Y12777D01*
X14108D01*
X13844Y13739D01*
X13973D01*
X14124Y13120D01*
X14134Y13077D01*
X14144Y13037D01*
X14151Y13002D01*
X14155Y12986D01*
X14159Y12971D01*
X14161Y12959D01*
X14164Y12946D01*
X14166Y12936D01*
X14167Y12927D01*
X14169Y12920D01*
X14170Y12915D01*
X14171Y12912D01*
Y12911D01*
X14181Y12971D01*
X14194Y13031D01*
X14200Y13060D01*
X14206Y13089D01*
X14212Y13115D01*
X14219Y13141D01*
X14224Y13164D01*
X14230Y13185D01*
X14235Y13205D01*
X14239Y13220D01*
X14243Y13234D01*
X14245Y13244D01*
X14246Y13249D01*
X14247Y13251D01*
X14384Y13739D01*
X14538D01*
X14720Y13089D01*
X14721Y13082D01*
X14724Y13074D01*
X14726Y13064D01*
X14730Y13051D01*
X14733Y13037D01*
X14736Y13022D01*
X14744Y12991D01*
X14751Y12961D01*
X14755Y12947D01*
X14757Y12936D01*
X14760Y12926D01*
X14763Y12917D01*
X14764Y12912D01*
Y12911D01*
X14770Y12947D01*
X14776Y12982D01*
X14784Y13016D01*
X14790Y13046D01*
X14792Y13059D01*
X14795Y13071D01*
X14798Y13081D01*
X14800Y13090D01*
X14801Y13097D01*
X14803Y13102D01*
X14804Y13106D01*
Y13107D01*
X14949Y13739D01*
X15080D01*
X14829Y12777D01*
D02*
G37*
G36*
X9706Y15211D02*
X9720Y15208D01*
X9734Y15204D01*
X9745Y15201D01*
X9754Y15196D01*
X9761Y15192D01*
X9766Y15189D01*
X9768Y15188D01*
X9780Y15177D01*
X9794Y15163D01*
X9806Y15147D01*
X9818Y15129D01*
X9826Y15114D01*
X9835Y15102D01*
X9837Y15097D01*
X9840Y15093D01*
X9841Y15091D01*
Y15197D01*
X9948D01*
Y14501D01*
X9830D01*
Y14863D01*
X9829Y14891D01*
X9827Y14917D01*
X9824Y14939D01*
X9820Y14961D01*
X9818Y14977D01*
X9814Y14989D01*
X9812Y14994D01*
Y14998D01*
X9811Y14999D01*
Y15001D01*
X9805Y15016D01*
X9799Y15028D01*
X9791Y15039D01*
X9784Y15048D01*
X9778Y15056D01*
X9772Y15062D01*
X9769Y15064D01*
X9768Y15066D01*
X9755Y15073D01*
X9744Y15079D01*
X9731Y15083D01*
X9721Y15087D01*
X9711Y15088D01*
X9704Y15089D01*
X9697D01*
X9681Y15088D01*
X9665Y15086D01*
X9650Y15082D01*
X9638Y15077D01*
X9626Y15072D01*
X9617Y15068D01*
X9613Y15066D01*
X9610Y15064D01*
X9569Y15173D01*
X9592Y15186D01*
X9614Y15196D01*
X9635Y15202D01*
X9654Y15207D01*
X9669Y15209D01*
X9681Y15212D01*
X9691D01*
X9706Y15211D01*
D02*
G37*
G36*
X11491Y14501D02*
X11364D01*
Y14937D01*
X10912D01*
Y15051D01*
X11364D01*
Y15348D01*
X10842D01*
Y15462D01*
X11491D01*
Y14501D01*
D02*
G37*
G36*
X16096Y12777D02*
X15963D01*
X15760Y13509D01*
X15755Y13527D01*
X15750Y13546D01*
X15745Y13566D01*
X15740Y13584D01*
X15736Y13599D01*
X15734Y13611D01*
X15733Y13616D01*
Y13620D01*
X15731Y13621D01*
Y13622D01*
X15730Y13617D01*
X15729Y13611D01*
X15724Y13596D01*
X15719Y13577D01*
X15714Y13557D01*
X15709Y13539D01*
X15704Y13524D01*
X15703Y13517D01*
X15701Y13512D01*
X15700Y13510D01*
Y13509D01*
X15499Y12777D01*
X15375D01*
X15111Y13739D01*
X15240D01*
X15391Y13120D01*
X15401Y13077D01*
X15411Y13037D01*
X15419Y13002D01*
X15423Y12986D01*
X15426Y12971D01*
X15429Y12959D01*
X15431Y12946D01*
X15434Y12936D01*
X15435Y12927D01*
X15436Y12920D01*
X15438Y12915D01*
X15439Y12912D01*
Y12911D01*
X15449Y12971D01*
X15461Y13031D01*
X15467Y13060D01*
X15474Y13089D01*
X15480Y13115D01*
X15486Y13141D01*
X15491Y13164D01*
X15497Y13185D01*
X15503Y13205D01*
X15506Y13220D01*
X15510Y13234D01*
X15512Y13244D01*
X15514Y13249D01*
X15515Y13251D01*
X15651Y13739D01*
X15805D01*
X15987Y13089D01*
X15989Y13082D01*
X15991Y13074D01*
X15994Y13064D01*
X15998Y13051D01*
X16000Y13037D01*
X16004Y13022D01*
X16011Y12991D01*
X16019Y12961D01*
X16022Y12947D01*
X16025Y12936D01*
X16027Y12926D01*
X16030Y12917D01*
X16031Y12912D01*
Y12911D01*
X16037Y12947D01*
X16044Y12982D01*
X16051Y13016D01*
X16057Y13046D01*
X16060Y13059D01*
X16063Y13071D01*
X16065Y13081D01*
X16068Y13090D01*
X16069Y13097D01*
X16070Y13102D01*
X16071Y13106D01*
Y13107D01*
X16216Y13739D01*
X16348D01*
X16096Y12777D01*
D02*
G37*
G36*
X21923Y15211D02*
X21945Y15208D01*
X21966Y15204D01*
X21988Y15199D01*
X22006Y15194D01*
X22025Y15187D01*
X22041Y15181D01*
X22056Y15173D01*
X22070Y15166D01*
X22083Y15159D01*
X22092Y15152D01*
X22101Y15147D01*
X22109Y15142D01*
X22114Y15138D01*
X22116Y15136D01*
X22118Y15134D01*
X22136Y15116D01*
X22153Y15096D01*
X22166Y15073D01*
X22179Y15051D01*
X22189Y15027D01*
X22197Y15003D01*
X22205Y14979D01*
X22210Y14956D01*
X22215Y14934D01*
X22218Y14914D01*
X22220Y14896D01*
X22222Y14879D01*
Y14867D01*
X22224Y14857D01*
Y14851D01*
Y14848D01*
X22222Y14816D01*
X22220Y14786D01*
X22215Y14758D01*
X22210Y14732D01*
X22202Y14707D01*
X22195Y14686D01*
X22188Y14666D01*
X22179Y14647D01*
X22170Y14631D01*
X22162Y14617D01*
X22155Y14606D01*
X22148Y14596D01*
X22143Y14588D01*
X22137Y14583D01*
X22135Y14579D01*
X22134Y14578D01*
X22116Y14562D01*
X22097Y14548D01*
X22079Y14536D01*
X22059Y14524D01*
X22039Y14516D01*
X22020Y14508D01*
X22001Y14502D01*
X21983Y14497D01*
X21965Y14493D01*
X21949Y14491D01*
X21935Y14488D01*
X21923Y14487D01*
X21913D01*
X21905Y14486D01*
X21899D01*
X21865Y14487D01*
X21834Y14492D01*
X21805Y14499D01*
X21781Y14507D01*
X21760Y14514D01*
X21751Y14518D01*
X21745Y14522D01*
X21739Y14524D01*
X21735Y14527D01*
X21732Y14528D01*
X21731D01*
X21704Y14546D01*
X21680Y14564D01*
X21660Y14584D01*
X21644Y14603D01*
X21630Y14621D01*
X21621Y14634D01*
X21618Y14639D01*
X21615Y14643D01*
X21614Y14646D01*
Y14647D01*
X21606Y14662D01*
X21600Y14678D01*
X21590Y14713D01*
X21583Y14748D01*
X21577Y14782D01*
X21576Y14797D01*
X21575Y14812D01*
X21574Y14824D01*
X21572Y14836D01*
Y14846D01*
Y14852D01*
Y14857D01*
Y14858D01*
X21574Y14888D01*
X21576Y14917D01*
X21581Y14943D01*
X21586Y14968D01*
X21594Y14992D01*
X21601Y15013D01*
X21610Y15032D01*
X21618Y15049D01*
X21626Y15064D01*
X21635Y15078D01*
X21642Y15091D01*
X21650Y15099D01*
X21655Y15107D01*
X21660Y15113D01*
X21662Y15116D01*
X21664Y15117D01*
X21681Y15133D01*
X21700Y15148D01*
X21719Y15161D01*
X21739Y15172D01*
X21759Y15181D01*
X21779Y15188D01*
X21797Y15196D01*
X21815Y15201D01*
X21832Y15204D01*
X21849Y15207D01*
X21862Y15209D01*
X21875Y15211D01*
X21885Y15212D01*
X21899D01*
X21923Y15211D01*
D02*
G37*
G36*
X9199D02*
X9224Y15207D01*
X9246Y15202D01*
X9268Y15194D01*
X9287Y15186D01*
X9305Y15176D01*
X9321Y15166D01*
X9336Y15154D01*
X9350Y15143D01*
X9361Y15133D01*
X9370Y15123D01*
X9379Y15114D01*
X9385Y15108D01*
X9389Y15102D01*
X9391Y15098D01*
X9392Y15097D01*
Y15197D01*
X9499D01*
Y14501D01*
X9381D01*
Y14879D01*
X9380Y14903D01*
X9379Y14926D01*
X9376Y14946D01*
X9373Y14964D01*
X9369Y14981D01*
X9364Y14996D01*
X9359Y15008D01*
X9354Y15021D01*
X9349Y15031D01*
X9345Y15038D01*
X9340Y15046D01*
X9336Y15051D01*
X9333Y15056D01*
X9330Y15058D01*
X9327Y15061D01*
X9306Y15077D01*
X9284Y15089D01*
X9261Y15098D01*
X9241Y15103D01*
X9224Y15107D01*
X9209Y15108D01*
X9204Y15109D01*
X9196D01*
X9180Y15108D01*
X9164Y15106D01*
X9150Y15102D01*
X9139Y15098D01*
X9129Y15094D01*
X9121Y15091D01*
X9116Y15088D01*
X9115Y15087D01*
X9103Y15078D01*
X9093Y15069D01*
X9084Y15059D01*
X9078Y15051D01*
X9072Y15042D01*
X9069Y15036D01*
X9066Y15031D01*
Y15029D01*
X9061Y15014D01*
X9057Y14998D01*
X9055Y14981D01*
X9053Y14963D01*
Y14948D01*
X9051Y14934D01*
Y14929D01*
Y14927D01*
Y14924D01*
Y14923D01*
Y14501D01*
X8934D01*
Y14928D01*
Y14957D01*
X8935Y14981D01*
X8936Y14999D01*
X8938Y15016D01*
X8939Y15027D01*
X8940Y15036D01*
X8941Y15041D01*
Y15042D01*
X8946Y15061D01*
X8951Y15077D01*
X8957Y15092D01*
X8963Y15104D01*
X8969Y15116D01*
X8974Y15123D01*
X8976Y15128D01*
X8978Y15129D01*
X8989Y15142D01*
X9001Y15154D01*
X9014Y15164D01*
X9026Y15172D01*
X9039Y15179D01*
X9047Y15184D01*
X9054Y15187D01*
X9056Y15188D01*
X9076Y15196D01*
X9096Y15202D01*
X9116Y15206D01*
X9134Y15209D01*
X9150Y15211D01*
X9161Y15212D01*
X9172D01*
X9199Y15211D01*
D02*
G37*
%LPC*%
G36*
X11160Y13639D02*
X11150Y13607D01*
X11140Y13574D01*
X11129Y13540D01*
X11118Y13509D01*
X11113Y13494D01*
X11107Y13480D01*
X11102Y13467D01*
X11099Y13457D01*
X11096Y13449D01*
X11094Y13442D01*
X11091Y13439D01*
Y13437D01*
X10991Y13172D01*
X11317D01*
X11213Y13454D01*
X11200Y13487D01*
X11190Y13521D01*
X11181Y13552D01*
X11174Y13580D01*
X11170Y13592D01*
X11168Y13604D01*
X11165Y13614D01*
X11164Y13622D01*
X11163Y13630D01*
X11161Y13635D01*
X11160Y13637D01*
Y13639D01*
D02*
G37*
G36*
X12260Y13221D02*
X12039D01*
X12006Y13220D01*
X11979Y13219D01*
X11954Y13216D01*
X11935Y13214D01*
X11919Y13210D01*
X11908Y13207D01*
X11901Y13206D01*
X11899Y13205D01*
X11881Y13197D01*
X11866Y13190D01*
X11854Y13180D01*
X11842Y13171D01*
X11834Y13162D01*
X11827Y13155D01*
X11824Y13150D01*
X11823Y13149D01*
X11812Y13134D01*
X11806Y13117D01*
X11801Y13102D01*
X11797Y13087D01*
X11795Y13075D01*
X11794Y13065D01*
Y13059D01*
Y13056D01*
X11795Y13040D01*
X11796Y13024D01*
X11800Y13010D01*
X11804Y12999D01*
X11808Y12989D01*
X11810Y12981D01*
X11812Y12976D01*
X11814Y12975D01*
X11821Y12962D01*
X11829Y12952D01*
X11838Y12942D01*
X11845Y12935D01*
X11853Y12929D01*
X11858Y12925D01*
X11861Y12922D01*
X11862Y12921D01*
X11874Y12915D01*
X11886Y12909D01*
X11897Y12905D01*
X11910Y12901D01*
X11920Y12899D01*
X11927Y12896D01*
X11932Y12895D01*
X11935D01*
X11946Y12894D01*
X11959Y12892D01*
X11988Y12891D01*
X12260D01*
Y13221D01*
D02*
G37*
G36*
X18000Y10580D02*
X17993D01*
X17979Y10579D01*
X17965Y10578D01*
X17939Y10572D01*
X17916Y10562D01*
X17897Y10550D01*
X17882Y10539D01*
X17871Y10530D01*
X17864Y10523D01*
X17861Y10522D01*
Y10520D01*
X17851Y10509D01*
X17844Y10497D01*
X17830Y10470D01*
X17820Y10443D01*
X17814Y10418D01*
X17810Y10394D01*
X17809Y10384D01*
Y10375D01*
X17808Y10369D01*
Y10364D01*
Y10360D01*
Y10359D01*
Y10340D01*
X17810Y10323D01*
X17816Y10290D01*
X17825Y10263D01*
X17834Y10240D01*
X17844Y10223D01*
X17849Y10215D01*
X17852Y10210D01*
X17856Y10205D01*
X17859Y10202D01*
X17860Y10200D01*
X17861Y10199D01*
X17871Y10189D01*
X17882Y10180D01*
X17904Y10167D01*
X17926Y10157D01*
X17947Y10150D01*
X17966Y10145D01*
X17975Y10144D01*
X17981D01*
X17988Y10143D01*
X17995D01*
X18010Y10144D01*
X18025Y10145D01*
X18051Y10152D01*
X18075Y10160D01*
X18095Y10172D01*
X18111Y10182D01*
X18123Y10190D01*
X18130Y10197D01*
X18131Y10199D01*
X18132D01*
X18142Y10210D01*
X18150Y10222D01*
X18164Y10247D01*
X18173Y10272D01*
X18180Y10295D01*
X18184Y10317D01*
X18185Y10325D01*
Y10334D01*
X18186Y10340D01*
Y10345D01*
Y10348D01*
Y10349D01*
X18185Y10368D01*
X18184Y10385D01*
X18177Y10418D01*
X18168Y10447D01*
X18158Y10470D01*
X18153Y10480D01*
X18147Y10490D01*
X18142Y10498D01*
X18138Y10504D01*
X18134Y10509D01*
X18131Y10513D01*
X18129Y10514D01*
Y10515D01*
X18118Y10527D01*
X18106Y10537D01*
X18095Y10545D01*
X18084Y10553D01*
X18060Y10564D01*
X18039Y10573D01*
X18020Y10577D01*
X18012Y10578D01*
X18006Y10579D01*
X18000Y10580D01*
D02*
G37*
G36*
X15691Y10485D02*
Y10052D01*
X15994D01*
X15691Y10485D01*
D02*
G37*
G36*
X7946Y13645D02*
X7934D01*
X7899Y13642D01*
X7866Y13637D01*
X7837Y13630D01*
X7812Y13621D01*
X7801Y13616D01*
X7791Y13611D01*
X7782Y13607D01*
X7776Y13604D01*
X7770Y13601D01*
X7766Y13599D01*
X7764Y13596D01*
X7763D01*
X7735Y13576D01*
X7713Y13555D01*
X7692Y13532D01*
X7676Y13511D01*
X7663Y13491D01*
X7657Y13482D01*
X7654Y13476D01*
X7650Y13470D01*
X7648Y13465D01*
X7646Y13462D01*
Y13461D01*
X7632Y13427D01*
X7623Y13392D01*
X7616Y13357D01*
X7611Y13326D01*
X7610Y13311D01*
X7609Y13297D01*
X7607Y13286D01*
X7606Y13276D01*
Y13267D01*
Y13261D01*
Y13257D01*
Y13256D01*
X7607Y13222D01*
X7610Y13191D01*
X7615Y13161D01*
X7621Y13134D01*
X7628Y13107D01*
X7636Y13085D01*
X7644Y13062D01*
X7653Y13044D01*
X7661Y13026D01*
X7670Y13011D01*
X7679Y12999D01*
X7685Y12989D01*
X7691Y12980D01*
X7696Y12975D01*
X7699Y12971D01*
X7700Y12970D01*
X7717Y12952D01*
X7736Y12937D01*
X7756Y12924D01*
X7776Y12912D01*
X7796Y12902D01*
X7815Y12895D01*
X7835Y12887D01*
X7853Y12882D01*
X7870Y12879D01*
X7886Y12875D01*
X7900Y12872D01*
X7912Y12871D01*
X7922D01*
X7930Y12870D01*
X7936D01*
X7962Y12871D01*
X7986Y12874D01*
X8010Y12879D01*
X8031Y12885D01*
X8052Y12892D01*
X8071Y12901D01*
X8090Y12910D01*
X8105Y12920D01*
X8120Y12929D01*
X8133Y12937D01*
X8144Y12946D01*
X8152Y12954D01*
X8160Y12960D01*
X8166Y12965D01*
X8169Y12967D01*
X8170Y12969D01*
X8186Y12989D01*
X8200Y13009D01*
X8213Y13031D01*
X8224Y13054D01*
X8232Y13076D01*
X8240Y13099D01*
X8246Y13121D01*
X8251Y13144D01*
X8255Y13164D01*
X8257Y13182D01*
X8260Y13199D01*
X8261Y13214D01*
Y13226D01*
X8263Y13235D01*
Y13240D01*
Y13242D01*
X8261Y13281D01*
X8259Y13317D01*
X8254Y13351D01*
X8248Y13382D01*
X8240Y13410D01*
X8232Y13435D01*
X8224Y13457D01*
X8214Y13477D01*
X8205Y13495D01*
X8196Y13510D01*
X8189Y13524D01*
X8181Y13534D01*
X8175Y13541D01*
X8170Y13547D01*
X8167Y13550D01*
X8166Y13551D01*
X8148Y13567D01*
X8129Y13582D01*
X8109Y13595D01*
X8089Y13605D01*
X8069Y13615D01*
X8050Y13622D01*
X8031Y13629D01*
X8014Y13634D01*
X7996Y13637D01*
X7981Y13640D01*
X7968Y13642D01*
X7956Y13644D01*
X7946Y13645D01*
D02*
G37*
G36*
X10415Y15114D02*
X10408D01*
X10391Y15113D01*
X10375Y15112D01*
X10346Y15103D01*
X10321Y15093D01*
X10300Y15081D01*
X10284Y15067D01*
X10271Y15057D01*
X10267Y15052D01*
X10264Y15048D01*
X10261Y15047D01*
Y15046D01*
X10249Y15028D01*
X10239Y15007D01*
X10231Y14986D01*
X10225Y14964D01*
X10221Y14946D01*
X10219Y14937D01*
Y14929D01*
X10217Y14924D01*
X10216Y14919D01*
Y14917D01*
Y14916D01*
X10605D01*
X10601Y14948D01*
X10594Y14976D01*
X10584Y15001D01*
X10573Y15022D01*
X10562Y15038D01*
X10554Y15049D01*
X10547Y15057D01*
X10545Y15059D01*
X10534Y15069D01*
X10523Y15078D01*
X10500Y15091D01*
X10476Y15101D01*
X10455Y15108D01*
X10436Y15112D01*
X10428Y15113D01*
X10421D01*
X10415Y15114D01*
D02*
G37*
G36*
X19944Y10580D02*
X19936D01*
X19921Y10579D01*
X19906Y10577D01*
X19892Y10573D01*
X19880Y10568D01*
X19856Y10555D01*
X19836Y10542D01*
X19820Y10527D01*
X19809Y10514D01*
X19804Y10509D01*
X19801Y10505D01*
X19799Y10503D01*
Y10502D01*
X19789Y10485D01*
X19780Y10465D01*
X19772Y10444D01*
X19766Y10420D01*
X19761Y10394D01*
X19756Y10368D01*
X19750Y10315D01*
X19748Y10290D01*
X19745Y10265D01*
X19744Y10244D01*
Y10225D01*
X19742Y10209D01*
Y10197D01*
Y10189D01*
Y10188D01*
Y10187D01*
Y10144D01*
X19745Y10105D01*
X19748Y10070D01*
X19751Y10038D01*
X19755Y10009D01*
X19760Y9983D01*
X19765Y9960D01*
X19770Y9940D01*
X19776Y9923D01*
X19781Y9909D01*
X19786Y9897D01*
X19790Y9888D01*
X19794Y9880D01*
X19796Y9875D01*
X19798Y9873D01*
X19799Y9872D01*
X19809Y9858D01*
X19820Y9847D01*
X19831Y9835D01*
X19844Y9827D01*
X19855Y9819D01*
X19866Y9813D01*
X19887Y9804D01*
X19906Y9798D01*
X19915Y9797D01*
X19921Y9795D01*
X19928Y9794D01*
X19935D01*
X19950Y9795D01*
X19964Y9798D01*
X19978Y9802D01*
X19990Y9807D01*
X20014Y9819D01*
X20034Y9833D01*
X20050Y9847D01*
X20061Y9859D01*
X20065Y9864D01*
X20069Y9868D01*
X20070Y9870D01*
X20071Y9872D01*
X20081Y9888D01*
X20089Y9908D01*
X20096Y9929D01*
X20103Y9954D01*
X20109Y9979D01*
X20113Y10005D01*
X20119Y10058D01*
X20121Y10084D01*
X20124Y10108D01*
X20125Y10129D01*
Y10148D01*
X20126Y10164D01*
Y10177D01*
Y10184D01*
Y10185D01*
Y10187D01*
X20125Y10229D01*
X20124Y10268D01*
X20121Y10304D01*
X20116Y10337D01*
X20113Y10367D01*
X20108Y10393D01*
X20101Y10417D01*
X20096Y10437D01*
X20090Y10455D01*
X20085Y10470D01*
X20080Y10483D01*
X20075Y10493D01*
X20071Y10500D01*
X20069Y10507D01*
X20068Y10509D01*
X20066Y10510D01*
X20056Y10523D01*
X20046Y10534D01*
X20036Y10543D01*
X20025Y10550D01*
X20004Y10563D01*
X19983Y10572D01*
X19965Y10577D01*
X19950Y10579D01*
X19944Y10580D01*
D02*
G37*
G36*
X17257D02*
X17250D01*
X17235Y10579D01*
X17220Y10577D01*
X17206Y10573D01*
X17194Y10568D01*
X17170Y10555D01*
X17150Y10542D01*
X17134Y10527D01*
X17122Y10514D01*
X17118Y10509D01*
X17115Y10505D01*
X17112Y10503D01*
Y10502D01*
X17103Y10485D01*
X17094Y10465D01*
X17086Y10444D01*
X17080Y10420D01*
X17075Y10394D01*
X17070Y10368D01*
X17064Y10315D01*
X17061Y10290D01*
X17059Y10265D01*
X17057Y10244D01*
Y10225D01*
X17056Y10209D01*
Y10197D01*
Y10189D01*
Y10188D01*
Y10187D01*
Y10144D01*
X17059Y10105D01*
X17061Y10070D01*
X17065Y10038D01*
X17069Y10009D01*
X17074Y9983D01*
X17079Y9960D01*
X17084Y9940D01*
X17090Y9923D01*
X17095Y9909D01*
X17100Y9897D01*
X17104Y9888D01*
X17107Y9880D01*
X17110Y9875D01*
X17111Y9873D01*
X17112Y9872D01*
X17122Y9858D01*
X17134Y9847D01*
X17145Y9835D01*
X17157Y9827D01*
X17169Y9819D01*
X17180Y9813D01*
X17201Y9804D01*
X17220Y9798D01*
X17229Y9797D01*
X17235Y9795D01*
X17241Y9794D01*
X17249D01*
X17264Y9795D01*
X17277Y9798D01*
X17291Y9802D01*
X17304Y9807D01*
X17328Y9819D01*
X17348Y9833D01*
X17364Y9847D01*
X17375Y9859D01*
X17379Y9864D01*
X17383Y9868D01*
X17384Y9870D01*
X17385Y9872D01*
X17395Y9888D01*
X17402Y9908D01*
X17410Y9929D01*
X17416Y9954D01*
X17422Y9979D01*
X17426Y10005D01*
X17433Y10058D01*
X17435Y10084D01*
X17437Y10108D01*
X17439Y10129D01*
Y10148D01*
X17440Y10164D01*
Y10177D01*
Y10184D01*
Y10185D01*
Y10187D01*
X17439Y10229D01*
X17437Y10268D01*
X17435Y10304D01*
X17430Y10337D01*
X17426Y10367D01*
X17421Y10393D01*
X17415Y10417D01*
X17410Y10437D01*
X17404Y10455D01*
X17399Y10470D01*
X17394Y10483D01*
X17389Y10493D01*
X17385Y10500D01*
X17383Y10507D01*
X17381Y10509D01*
X17380Y10510D01*
X17370Y10523D01*
X17360Y10534D01*
X17350Y10543D01*
X17339Y10550D01*
X17318Y10563D01*
X17296Y10572D01*
X17279Y10577D01*
X17264Y10579D01*
X17257Y10580D01*
D02*
G37*
G36*
X23077D02*
X23070D01*
X23055Y10579D01*
X23040Y10577D01*
X23026Y10573D01*
X23014Y10568D01*
X22990Y10555D01*
X22970Y10542D01*
X22954Y10527D01*
X22943Y10514D01*
X22938Y10509D01*
X22935Y10505D01*
X22933Y10503D01*
Y10502D01*
X22922Y10485D01*
X22914Y10465D01*
X22906Y10444D01*
X22900Y10420D01*
X22895Y10394D01*
X22890Y10368D01*
X22884Y10315D01*
X22881Y10290D01*
X22879Y10265D01*
X22878Y10244D01*
Y10225D01*
X22876Y10209D01*
Y10197D01*
Y10189D01*
Y10188D01*
Y10187D01*
Y10144D01*
X22879Y10105D01*
X22881Y10070D01*
X22885Y10038D01*
X22889Y10009D01*
X22894Y9983D01*
X22899Y9960D01*
X22904Y9940D01*
X22910Y9923D01*
X22915Y9909D01*
X22920Y9897D01*
X22924Y9888D01*
X22927Y9880D01*
X22930Y9875D01*
X22931Y9873D01*
X22933Y9872D01*
X22943Y9858D01*
X22954Y9847D01*
X22965Y9835D01*
X22977Y9827D01*
X22989Y9819D01*
X23000Y9813D01*
X23021Y9804D01*
X23040Y9798D01*
X23049Y9797D01*
X23055Y9795D01*
X23061Y9794D01*
X23069D01*
X23084Y9795D01*
X23098Y9798D01*
X23111Y9802D01*
X23124Y9807D01*
X23147Y9819D01*
X23168Y9833D01*
X23184Y9847D01*
X23195Y9859D01*
X23199Y9864D01*
X23203Y9868D01*
X23204Y9870D01*
X23205Y9872D01*
X23215Y9888D01*
X23222Y9908D01*
X23230Y9929D01*
X23236Y9954D01*
X23242Y9979D01*
X23246Y10005D01*
X23252Y10058D01*
X23255Y10084D01*
X23258Y10108D01*
X23259Y10129D01*
Y10148D01*
X23260Y10164D01*
Y10177D01*
Y10184D01*
Y10185D01*
Y10187D01*
X23259Y10229D01*
X23258Y10268D01*
X23255Y10304D01*
X23250Y10337D01*
X23246Y10367D01*
X23241Y10393D01*
X23235Y10417D01*
X23230Y10437D01*
X23224Y10455D01*
X23219Y10470D01*
X23214Y10483D01*
X23209Y10493D01*
X23205Y10500D01*
X23203Y10507D01*
X23201Y10509D01*
X23200Y10510D01*
X23190Y10523D01*
X23180Y10534D01*
X23170Y10543D01*
X23159Y10550D01*
X23138Y10563D01*
X23116Y10572D01*
X23099Y10577D01*
X23084Y10579D01*
X23077Y10580D01*
D02*
G37*
G36*
X22649Y15114D02*
X22641D01*
X22625Y15113D01*
X22609Y15112D01*
X22580Y15103D01*
X22555Y15093D01*
X22534Y15081D01*
X22517Y15067D01*
X22505Y15057D01*
X22501Y15052D01*
X22497Y15048D01*
X22495Y15047D01*
Y15046D01*
X22483Y15028D01*
X22473Y15007D01*
X22465Y14986D01*
X22459Y14964D01*
X22455Y14946D01*
X22452Y14937D01*
Y14929D01*
X22451Y14924D01*
X22450Y14919D01*
Y14917D01*
Y14916D01*
X22839D01*
X22835Y14948D01*
X22827Y14976D01*
X22817Y15001D01*
X22806Y15022D01*
X22796Y15038D01*
X22787Y15049D01*
X22781Y15057D01*
X22779Y15059D01*
X22768Y15069D01*
X22756Y15078D01*
X22734Y15091D01*
X22710Y15101D01*
X22689Y15108D01*
X22670Y15112D01*
X22661Y15113D01*
X22655D01*
X22649Y15114D01*
D02*
G37*
G36*
X20463Y13221D02*
X20241D01*
X20209Y13220D01*
X20181Y13219D01*
X20156Y13216D01*
X20138Y13214D01*
X20121Y13210D01*
X20110Y13207D01*
X20104Y13206D01*
X20101Y13205D01*
X20084Y13197D01*
X20069Y13190D01*
X20056Y13180D01*
X20045Y13171D01*
X20036Y13162D01*
X20030Y13155D01*
X20026Y13150D01*
X20025Y13149D01*
X20015Y13134D01*
X20009Y13117D01*
X20004Y13102D01*
X20000Y13087D01*
X19998Y13075D01*
X19996Y13065D01*
Y13059D01*
Y13056D01*
X19998Y13040D01*
X19999Y13024D01*
X20003Y13010D01*
X20006Y12999D01*
X20010Y12989D01*
X20013Y12981D01*
X20015Y12976D01*
X20016Y12975D01*
X20024Y12962D01*
X20031Y12952D01*
X20040Y12942D01*
X20048Y12935D01*
X20055Y12929D01*
X20060Y12925D01*
X20064Y12922D01*
X20065Y12921D01*
X20076Y12915D01*
X20089Y12909D01*
X20100Y12905D01*
X20113Y12901D01*
X20122Y12899D01*
X20130Y12896D01*
X20135Y12895D01*
X20138D01*
X20149Y12894D01*
X20161Y12892D01*
X20190Y12891D01*
X20463D01*
Y13221D01*
D02*
G37*
G36*
X22327Y10580D02*
X22320D01*
X22306Y10579D01*
X22292Y10578D01*
X22266Y10572D01*
X22244Y10562D01*
X22225Y10550D01*
X22210Y10539D01*
X22199Y10530D01*
X22191Y10523D01*
X22189Y10522D01*
Y10520D01*
X22179Y10509D01*
X22171Y10497D01*
X22157Y10470D01*
X22148Y10443D01*
X22141Y10418D01*
X22137Y10394D01*
X22136Y10384D01*
Y10375D01*
X22135Y10369D01*
Y10364D01*
Y10360D01*
Y10359D01*
Y10340D01*
X22137Y10323D01*
X22144Y10290D01*
X22153Y10263D01*
X22161Y10240D01*
X22171Y10223D01*
X22176Y10215D01*
X22180Y10210D01*
X22184Y10205D01*
X22186Y10202D01*
X22188Y10200D01*
X22189Y10199D01*
X22199Y10189D01*
X22210Y10180D01*
X22231Y10167D01*
X22254Y10157D01*
X22275Y10150D01*
X22294Y10145D01*
X22302Y10144D01*
X22309D01*
X22315Y10143D01*
X22322D01*
X22338Y10144D01*
X22352Y10145D01*
X22379Y10152D01*
X22403Y10160D01*
X22422Y10172D01*
X22439Y10182D01*
X22450Y10190D01*
X22457Y10197D01*
X22459Y10199D01*
X22460D01*
X22470Y10210D01*
X22478Y10222D01*
X22491Y10247D01*
X22500Y10272D01*
X22508Y10295D01*
X22511Y10317D01*
X22513Y10325D01*
Y10334D01*
X22514Y10340D01*
Y10345D01*
Y10348D01*
Y10349D01*
X22513Y10368D01*
X22511Y10385D01*
X22505Y10418D01*
X22495Y10447D01*
X22485Y10470D01*
X22480Y10480D01*
X22475Y10490D01*
X22470Y10498D01*
X22465Y10504D01*
X22461Y10509D01*
X22459Y10513D01*
X22456Y10514D01*
Y10515D01*
X22445Y10527D01*
X22434Y10537D01*
X22422Y10545D01*
X22411Y10553D01*
X22387Y10564D01*
X22366Y10573D01*
X22348Y10577D01*
X22340Y10578D01*
X22334Y10579D01*
X22327Y10580D01*
D02*
G37*
G36*
X12925Y11759D02*
X12916D01*
X12900Y11758D01*
X12885Y11757D01*
X12856Y11749D01*
X12831Y11738D01*
X12810Y11726D01*
X12794Y11713D01*
X12780Y11702D01*
X12776Y11698D01*
X12773Y11694D01*
X12771Y11693D01*
X12770Y11692D01*
X12760Y11679D01*
X12750Y11664D01*
X12736Y11633D01*
X12725Y11601D01*
X12719Y11569D01*
X12716Y11554D01*
X12714Y11541D01*
X12713Y11529D01*
Y11518D01*
X12711Y11509D01*
Y11503D01*
Y11498D01*
Y11497D01*
Y11472D01*
X12714Y11449D01*
X12716Y11428D01*
X12720Y11408D01*
X12725Y11389D01*
X12730Y11373D01*
X12735Y11358D01*
X12740Y11344D01*
X12746Y11333D01*
X12751Y11323D01*
X12756Y11314D01*
X12761Y11307D01*
X12765Y11302D01*
X12767Y11298D01*
X12769Y11296D01*
X12770Y11294D01*
X12781Y11283D01*
X12793Y11273D01*
X12805Y11263D01*
X12817Y11256D01*
X12843Y11244D01*
X12865Y11237D01*
X12885Y11232D01*
X12894Y11231D01*
X12901Y11229D01*
X12908Y11228D01*
X12916D01*
X12932Y11229D01*
X12947Y11231D01*
X12976Y11238D01*
X13001Y11249D01*
X13023Y11262D01*
X13039Y11273D01*
X13053Y11284D01*
X13056Y11288D01*
X13060Y11292D01*
X13061Y11293D01*
X13062Y11294D01*
X13073Y11308D01*
X13081Y11322D01*
X13096Y11353D01*
X13106Y11387D01*
X13112Y11418D01*
X13115Y11433D01*
X13118Y11448D01*
X13119Y11461D01*
Y11472D01*
X13120Y11481D01*
Y11487D01*
Y11492D01*
Y11493D01*
X13119Y11517D01*
X13118Y11541D01*
X13115Y11562D01*
X13111Y11581D01*
X13106Y11599D01*
X13101Y11616D01*
X13096Y11631D01*
X13091Y11643D01*
X13086Y11656D01*
X13081Y11666D01*
X13076Y11673D01*
X13071Y11681D01*
X13068Y11686D01*
X13065Y11691D01*
X13062Y11692D01*
Y11693D01*
X13051Y11704D01*
X13039Y11716D01*
X13027Y11724D01*
X13015Y11732D01*
X12990Y11743D01*
X12967Y11751D01*
X12947Y11756D01*
X12939Y11757D01*
X12931Y11758D01*
X12925Y11759D01*
D02*
G37*
G36*
X23110D02*
X23103D01*
X23087Y11758D01*
X23074Y11757D01*
X23047Y11749D01*
X23024Y11738D01*
X23004Y11726D01*
X22987Y11713D01*
X22976Y11702D01*
X22969Y11694D01*
X22966Y11693D01*
Y11692D01*
X22956Y11678D01*
X22947Y11664D01*
X22934Y11632D01*
X22924Y11597D01*
X22917Y11563D01*
X22915Y11547D01*
X22912Y11532D01*
X22911Y11518D01*
Y11507D01*
X22910Y11497D01*
Y11489D01*
Y11484D01*
Y11483D01*
Y11459D01*
X22912Y11438D01*
X22915Y11417D01*
X22919Y11398D01*
X22922Y11381D01*
X22927Y11366D01*
X22933Y11351D01*
X22938Y11338D01*
X22943Y11327D01*
X22947Y11317D01*
X22952Y11309D01*
X22956Y11302D01*
X22960Y11297D01*
X22963Y11293D01*
X22964Y11292D01*
X22965Y11291D01*
X22975Y11279D01*
X22986Y11271D01*
X22998Y11262D01*
X23009Y11254D01*
X23030Y11243D01*
X23051Y11236D01*
X23069Y11232D01*
X23084Y11229D01*
X23089Y11228D01*
X23096D01*
X23110Y11229D01*
X23124Y11231D01*
X23150Y11238D01*
X23173Y11248D01*
X23193Y11261D01*
X23207Y11273D01*
X23220Y11283D01*
X23228Y11291D01*
X23229Y11292D01*
X23230Y11293D01*
X23240Y11307D01*
X23249Y11321D01*
X23263Y11352D01*
X23273Y11386D01*
X23279Y11418D01*
X23281Y11433D01*
X23284Y11447D01*
X23285Y11461D01*
Y11471D01*
X23286Y11481D01*
Y11487D01*
Y11492D01*
Y11493D01*
X23285Y11518D01*
X23284Y11542D01*
X23281Y11563D01*
X23277Y11583D01*
X23274Y11601D01*
X23270Y11617D01*
X23265Y11632D01*
X23260Y11646D01*
X23255Y11657D01*
X23250Y11667D01*
X23246Y11676D01*
X23242Y11682D01*
X23239Y11688D01*
X23236Y11692D01*
X23234Y11693D01*
Y11694D01*
X23224Y11706D01*
X23212Y11716D01*
X23203Y11724D01*
X23191Y11732D01*
X23169Y11743D01*
X23149Y11752D01*
X23130Y11756D01*
X23115Y11758D01*
X23110Y11759D01*
D02*
G37*
G36*
X15143Y11494D02*
X15141D01*
Y11451D01*
X15143Y11423D01*
X15144Y11399D01*
X15148Y11379D01*
X15150Y11363D01*
X15154Y11349D01*
X15158Y11341D01*
X15159Y11336D01*
X15160Y11333D01*
X15170Y11314D01*
X15182Y11299D01*
X15196Y11284D01*
X15209Y11273D01*
X15220Y11264D01*
X15230Y11257D01*
X15236Y11253D01*
X15237Y11252D01*
X15239D01*
X15259Y11242D01*
X15280Y11236D01*
X15300Y11231D01*
X15319Y11227D01*
X15335Y11224D01*
X15347Y11223D01*
X15359D01*
X15382Y11224D01*
X15404Y11228D01*
X15423Y11233D01*
X15438Y11239D01*
X15449Y11244D01*
X15458Y11249D01*
X15462Y11253D01*
X15464Y11254D01*
X15475Y11267D01*
X15484Y11279D01*
X15490Y11293D01*
X15494Y11304D01*
X15496Y11316D01*
X15499Y11324D01*
Y11329D01*
Y11332D01*
X15497Y11343D01*
X15496Y11354D01*
X15494Y11363D01*
X15490Y11372D01*
X15488Y11378D01*
X15485Y11384D01*
X15484Y11387D01*
X15482Y11388D01*
X15476Y11397D01*
X15469Y11404D01*
X15454Y11417D01*
X15446Y11421D01*
X15441Y11423D01*
X15438Y11426D01*
X15436D01*
X15424Y11431D01*
X15408Y11436D01*
X15390Y11439D01*
X15374Y11443D01*
X15359Y11446D01*
X15345Y11448D01*
X15340D01*
X15338Y11449D01*
X15334D01*
X15310Y11453D01*
X15289Y11457D01*
X15269Y11461D01*
X15250Y11464D01*
X15232Y11468D01*
X15216Y11472D01*
X15202Y11476D01*
X15190Y11479D01*
X15179Y11482D01*
X15169Y11486D01*
X15160Y11488D01*
X15154Y11491D01*
X15148Y11492D01*
X15144Y11493D01*
X15143Y11494D01*
D02*
G37*
G36*
X19863D02*
X19861D01*
Y11451D01*
X19863Y11423D01*
X19864Y11399D01*
X19868Y11379D01*
X19870Y11363D01*
X19874Y11349D01*
X19878Y11341D01*
X19879Y11336D01*
X19880Y11333D01*
X19890Y11314D01*
X19902Y11299D01*
X19916Y11284D01*
X19929Y11273D01*
X19940Y11264D01*
X19950Y11257D01*
X19956Y11253D01*
X19957Y11252D01*
X19959D01*
X19979Y11242D01*
X20000Y11236D01*
X20020Y11231D01*
X20039Y11227D01*
X20055Y11224D01*
X20068Y11223D01*
X20079D01*
X20103Y11224D01*
X20124Y11228D01*
X20143Y11233D01*
X20157Y11239D01*
X20169Y11244D01*
X20178Y11249D01*
X20182Y11253D01*
X20184Y11254D01*
X20195Y11267D01*
X20204Y11279D01*
X20210Y11293D01*
X20214Y11304D01*
X20216Y11316D01*
X20219Y11324D01*
Y11329D01*
Y11332D01*
X20217Y11343D01*
X20216Y11354D01*
X20214Y11363D01*
X20210Y11372D01*
X20208Y11378D01*
X20205Y11384D01*
X20204Y11387D01*
X20203Y11388D01*
X20196Y11397D01*
X20189Y11404D01*
X20174Y11417D01*
X20166Y11421D01*
X20161Y11423D01*
X20157Y11426D01*
X20156D01*
X20144Y11431D01*
X20127Y11436D01*
X20110Y11439D01*
X20094Y11443D01*
X20079Y11446D01*
X20065Y11448D01*
X20060D01*
X20057Y11449D01*
X20054D01*
X20030Y11453D01*
X20009Y11457D01*
X19989Y11461D01*
X19970Y11464D01*
X19952Y11468D01*
X19936Y11472D01*
X19922Y11476D01*
X19910Y11479D01*
X19899Y11482D01*
X19889Y11486D01*
X19880Y11488D01*
X19874Y11491D01*
X19868Y11492D01*
X19864Y11493D01*
X19863Y11494D01*
D02*
G37*
G36*
X21967Y11759D02*
X21960D01*
X21944Y11758D01*
X21927Y11757D01*
X21899Y11748D01*
X21874Y11738D01*
X21853Y11726D01*
X21836Y11712D01*
X21824Y11702D01*
X21820Y11697D01*
X21816Y11693D01*
X21814Y11692D01*
Y11691D01*
X21801Y11673D01*
X21791Y11652D01*
X21784Y11631D01*
X21778Y11609D01*
X21774Y11591D01*
X21771Y11582D01*
Y11574D01*
X21770Y11569D01*
X21769Y11564D01*
Y11562D01*
Y11561D01*
X22157D01*
X22154Y11593D01*
X22146Y11621D01*
X22136Y11646D01*
X22125Y11667D01*
X22115Y11683D01*
X22106Y11694D01*
X22100Y11702D01*
X22097Y11704D01*
X22086Y11714D01*
X22075Y11723D01*
X22053Y11736D01*
X22029Y11746D01*
X22008Y11753D01*
X21989Y11757D01*
X21980Y11758D01*
X21974D01*
X21967Y11759D01*
D02*
G37*
G36*
X23832D02*
X23825D01*
X23809Y11758D01*
X23793Y11757D01*
X23764Y11748D01*
X23739Y11738D01*
X23718Y11726D01*
X23701Y11712D01*
X23689Y11702D01*
X23685Y11697D01*
X23681Y11693D01*
X23679Y11692D01*
Y11691D01*
X23666Y11673D01*
X23656Y11652D01*
X23649Y11631D01*
X23642Y11609D01*
X23639Y11591D01*
X23636Y11582D01*
Y11574D01*
X23635Y11569D01*
X23634Y11564D01*
Y11562D01*
Y11561D01*
X24023D01*
X24019Y11593D01*
X24011Y11621D01*
X24001Y11646D01*
X23990Y11667D01*
X23980Y11683D01*
X23971Y11694D01*
X23965Y11702D01*
X23963Y11704D01*
X23951Y11714D01*
X23940Y11723D01*
X23918Y11736D01*
X23894Y11746D01*
X23872Y11753D01*
X23854Y11757D01*
X23845Y11758D01*
X23839D01*
X23832Y11759D01*
D02*
G37*
G36*
X18236D02*
X18229D01*
X18206Y11757D01*
X18185Y11752D01*
X18166Y11743D01*
X18151Y11734D01*
X18139Y11726D01*
X18129Y11717D01*
X18124Y11712D01*
X18121Y11709D01*
X18106Y11689D01*
X18095Y11667D01*
X18088Y11644D01*
X18081Y11622D01*
X18079Y11602D01*
X18077Y11593D01*
Y11586D01*
X18076Y11579D01*
Y11574D01*
Y11572D01*
Y11571D01*
X18077Y11546D01*
X18080Y11522D01*
X18084Y11499D01*
X18088Y11479D01*
X18092Y11462D01*
X18096Y11448D01*
X18097Y11443D01*
X18099Y11439D01*
X18100Y11438D01*
Y11437D01*
X18110Y11413D01*
X18120Y11392D01*
X18130Y11373D01*
X18140Y11357D01*
X18147Y11344D01*
X18155Y11334D01*
X18160Y11329D01*
X18161Y11327D01*
X18175Y11312D01*
X18189Y11299D01*
X18203Y11288D01*
X18215Y11278D01*
X18225Y11272D01*
X18233Y11266D01*
X18238Y11263D01*
X18240Y11262D01*
X18255Y11254D01*
X18269Y11249D01*
X18281Y11246D01*
X18292Y11243D01*
X18303Y11242D01*
X18310Y11241D01*
X18316D01*
X18336Y11243D01*
X18355Y11248D01*
X18371Y11256D01*
X18385Y11266D01*
X18398Y11274D01*
X18406Y11282D01*
X18411Y11287D01*
X18414Y11289D01*
X18427Y11309D01*
X18439Y11332D01*
X18446Y11356D01*
X18451Y11378D01*
X18454Y11398D01*
X18455Y11407D01*
Y11414D01*
X18456Y11421D01*
Y11426D01*
Y11428D01*
Y11429D01*
X18455Y11452D01*
X18453Y11473D01*
X18450Y11494D01*
X18446Y11513D01*
X18442Y11531D01*
X18439Y11543D01*
X18438Y11548D01*
Y11552D01*
X18436Y11553D01*
Y11554D01*
X18427Y11578D01*
X18419Y11601D01*
X18409Y11621D01*
X18400Y11637D01*
X18392Y11649D01*
X18386Y11659D01*
X18381Y11666D01*
X18380Y11668D01*
X18366Y11684D01*
X18354Y11699D01*
X18342Y11711D01*
X18331Y11721D01*
X18322Y11728D01*
X18315Y11733D01*
X18310Y11736D01*
X18309Y11737D01*
X18295Y11744D01*
X18280Y11749D01*
X18268Y11754D01*
X18255Y11757D01*
X18244Y11758D01*
X18236Y11759D01*
D02*
G37*
G36*
X17194D02*
X17186D01*
X17171Y11758D01*
X17157Y11757D01*
X17131Y11749D01*
X17107Y11739D01*
X17088Y11727D01*
X17072Y11714D01*
X17060Y11704D01*
X17053Y11697D01*
X17050Y11696D01*
Y11694D01*
X17040Y11682D01*
X17031Y11667D01*
X17016Y11637D01*
X17006Y11604D01*
X17000Y11574D01*
X16997Y11559D01*
X16995Y11546D01*
X16994Y11533D01*
Y11523D01*
X16992Y11514D01*
Y11508D01*
Y11503D01*
Y11502D01*
Y11478D01*
X16995Y11456D01*
X16997Y11434D01*
X17001Y11414D01*
X17005Y11397D01*
X17010Y11381D01*
X17015Y11367D01*
X17020Y11353D01*
X17025Y11342D01*
X17030Y11332D01*
X17035Y11324D01*
X17039Y11318D01*
X17042Y11312D01*
X17045Y11308D01*
X17046Y11307D01*
X17047Y11306D01*
X17057Y11294D01*
X17069Y11286D01*
X17080Y11277D01*
X17092Y11269D01*
X17115Y11258D01*
X17136Y11251D01*
X17155Y11247D01*
X17164Y11246D01*
X17170Y11244D01*
X17176Y11243D01*
X17184D01*
X17199Y11244D01*
X17214Y11246D01*
X17240Y11253D01*
X17264Y11263D01*
X17284Y11274D01*
X17300Y11286D01*
X17311Y11296D01*
X17319Y11303D01*
X17320Y11304D01*
X17321Y11306D01*
X17331Y11318D01*
X17339Y11332D01*
X17352Y11363D01*
X17361Y11397D01*
X17369Y11429D01*
X17370Y11444D01*
X17372Y11459D01*
X17374Y11472D01*
Y11483D01*
X17375Y11493D01*
Y11499D01*
Y11504D01*
Y11506D01*
X17374Y11528D01*
X17372Y11549D01*
X17370Y11569D01*
X17366Y11588D01*
X17363Y11604D01*
X17357Y11621D01*
X17352Y11634D01*
X17348Y11647D01*
X17342Y11658D01*
X17337Y11668D01*
X17333Y11676D01*
X17329Y11683D01*
X17325Y11688D01*
X17322Y11692D01*
X17320Y11693D01*
Y11694D01*
X17310Y11706D01*
X17299Y11716D01*
X17287Y11724D01*
X17276Y11732D01*
X17254Y11743D01*
X17233Y11752D01*
X17214Y11756D01*
X17199Y11758D01*
X17194Y11759D01*
D02*
G37*
G36*
X21907Y15114D02*
X21899D01*
X21883Y15113D01*
X21867Y15112D01*
X21839Y15104D01*
X21814Y15093D01*
X21793Y15081D01*
X21776Y15068D01*
X21762Y15057D01*
X21759Y15053D01*
X21755Y15049D01*
X21754Y15048D01*
X21753Y15047D01*
X21742Y15034D01*
X21732Y15019D01*
X21719Y14988D01*
X21707Y14956D01*
X21701Y14924D01*
X21699Y14909D01*
X21696Y14896D01*
X21695Y14884D01*
Y14873D01*
X21694Y14864D01*
Y14858D01*
Y14853D01*
Y14852D01*
Y14827D01*
X21696Y14804D01*
X21699Y14783D01*
X21702Y14763D01*
X21707Y14744D01*
X21713Y14728D01*
X21718Y14713D01*
X21723Y14699D01*
X21729Y14688D01*
X21734Y14678D01*
X21739Y14669D01*
X21744Y14662D01*
X21748Y14657D01*
X21750Y14653D01*
X21751Y14651D01*
X21753Y14649D01*
X21764Y14638D01*
X21775Y14628D01*
X21788Y14618D01*
X21800Y14611D01*
X21825Y14599D01*
X21848Y14592D01*
X21867Y14587D01*
X21876Y14586D01*
X21884Y14584D01*
X21890Y14583D01*
X21899D01*
X21915Y14584D01*
X21930Y14586D01*
X21959Y14593D01*
X21984Y14604D01*
X22005Y14617D01*
X22021Y14628D01*
X22035Y14639D01*
X22039Y14643D01*
X22043Y14647D01*
X22044Y14648D01*
X22045Y14649D01*
X22055Y14663D01*
X22064Y14677D01*
X22079Y14708D01*
X22089Y14742D01*
X22095Y14773D01*
X22097Y14788D01*
X22100Y14803D01*
X22101Y14816D01*
Y14827D01*
X22102Y14836D01*
Y14842D01*
Y14847D01*
Y14848D01*
X22101Y14872D01*
X22100Y14896D01*
X22097Y14917D01*
X22094Y14936D01*
X22089Y14954D01*
X22084Y14971D01*
X22079Y14986D01*
X22074Y14998D01*
X22069Y15011D01*
X22064Y15021D01*
X22059Y15028D01*
X22054Y15036D01*
X22050Y15041D01*
X22048Y15046D01*
X22045Y15047D01*
Y15048D01*
X22034Y15059D01*
X22021Y15071D01*
X22010Y15079D01*
X21997Y15087D01*
X21972Y15098D01*
X21950Y15106D01*
X21930Y15111D01*
X21921Y15112D01*
X21914Y15113D01*
X21907Y15114D01*
D02*
G37*
G36*
X21180D02*
X21172D01*
X21158Y15113D01*
X21144Y15112D01*
X21117Y15104D01*
X21094Y15093D01*
X21074Y15081D01*
X21058Y15068D01*
X21046Y15057D01*
X21039Y15049D01*
X21036Y15048D01*
Y15047D01*
X21026Y15033D01*
X21017Y15019D01*
X21004Y14987D01*
X20994Y14952D01*
X20988Y14918D01*
X20985Y14902D01*
X20982Y14887D01*
X20981Y14873D01*
Y14862D01*
X20980Y14852D01*
Y14844D01*
Y14839D01*
Y14838D01*
Y14814D01*
X20982Y14793D01*
X20985Y14772D01*
X20989Y14753D01*
X20993Y14736D01*
X20998Y14721D01*
X21003Y14706D01*
X21007Y14693D01*
X21012Y14682D01*
X21017Y14672D01*
X21023Y14664D01*
X21026Y14657D01*
X21030Y14652D01*
X21033Y14648D01*
X21034Y14647D01*
X21035Y14646D01*
X21045Y14634D01*
X21056Y14626D01*
X21068Y14617D01*
X21079Y14609D01*
X21100Y14598D01*
X21121Y14591D01*
X21139Y14587D01*
X21154Y14584D01*
X21159Y14583D01*
X21166D01*
X21180Y14584D01*
X21194Y14586D01*
X21220Y14593D01*
X21242Y14603D01*
X21263Y14616D01*
X21277Y14628D01*
X21290Y14638D01*
X21298Y14646D01*
X21299Y14647D01*
X21300Y14648D01*
X21310Y14662D01*
X21319Y14676D01*
X21332Y14707D01*
X21342Y14741D01*
X21349Y14773D01*
X21351Y14788D01*
X21354Y14802D01*
X21355Y14816D01*
Y14826D01*
X21356Y14836D01*
Y14842D01*
Y14847D01*
Y14848D01*
X21355Y14873D01*
X21354Y14897D01*
X21351Y14918D01*
X21347Y14938D01*
X21344Y14956D01*
X21340Y14972D01*
X21335Y14987D01*
X21330Y15001D01*
X21325Y15012D01*
X21320Y15022D01*
X21316Y15031D01*
X21312Y15037D01*
X21309Y15043D01*
X21306Y15047D01*
X21304Y15048D01*
Y15049D01*
X21294Y15061D01*
X21282Y15071D01*
X21272Y15079D01*
X21261Y15087D01*
X21239Y15098D01*
X21219Y15107D01*
X21200Y15111D01*
X21185Y15113D01*
X21180Y15114D01*
D02*
G37*
G36*
X12260Y13625D02*
X12033D01*
X12016Y13624D01*
X12003Y13622D01*
X11989Y13621D01*
X11976D01*
X11966Y13620D01*
X11956Y13619D01*
X11941Y13616D01*
X11931Y13614D01*
X11925Y13612D01*
X11923Y13611D01*
X11908Y13605D01*
X11894Y13597D01*
X11884Y13590D01*
X11874Y13581D01*
X11866Y13574D01*
X11861Y13567D01*
X11859Y13562D01*
X11858Y13561D01*
X11850Y13547D01*
X11844Y13532D01*
X11840Y13519D01*
X11836Y13506D01*
X11835Y13495D01*
X11834Y13485D01*
Y13480D01*
Y13477D01*
X11835Y13459D01*
X11838Y13442D01*
X11841Y13427D01*
X11846Y13416D01*
X11851Y13406D01*
X11855Y13399D01*
X11858Y13394D01*
X11859Y13392D01*
X11869Y13381D01*
X11881Y13371D01*
X11892Y13364D01*
X11905Y13356D01*
X11916Y13351D01*
X11925Y13347D01*
X11930Y13346D01*
X11932Y13345D01*
X11947Y13341D01*
X11966Y13339D01*
X11986Y13337D01*
X12006Y13336D01*
X12024Y13335D01*
X12260D01*
Y13625D01*
D02*
G37*
G36*
X20463D02*
X20235D01*
X20219Y13624D01*
X20205Y13622D01*
X20191Y13621D01*
X20179D01*
X20169Y13620D01*
X20159Y13619D01*
X20144Y13616D01*
X20134Y13614D01*
X20127Y13612D01*
X20125Y13611D01*
X20110Y13605D01*
X20096Y13597D01*
X20086Y13590D01*
X20076Y13581D01*
X20069Y13574D01*
X20064Y13567D01*
X20061Y13562D01*
X20060Y13561D01*
X20052Y13547D01*
X20046Y13532D01*
X20043Y13519D01*
X20039Y13506D01*
X20038Y13495D01*
X20036Y13485D01*
Y13480D01*
Y13477D01*
X20038Y13459D01*
X20040Y13442D01*
X20044Y13427D01*
X20049Y13416D01*
X20054Y13406D01*
X20057Y13399D01*
X20060Y13394D01*
X20061Y13392D01*
X20071Y13381D01*
X20084Y13371D01*
X20095Y13364D01*
X20108Y13356D01*
X20119Y13351D01*
X20127Y13347D01*
X20133Y13346D01*
X20135Y13345D01*
X20150Y13341D01*
X20169Y13339D01*
X20189Y13337D01*
X20209Y13336D01*
X20226Y13335D01*
X20463D01*
Y13625D01*
D02*
G37*
G36*
X14054Y14849D02*
X14052D01*
Y14806D01*
X14054Y14778D01*
X14055Y14754D01*
X14059Y14734D01*
X14061Y14718D01*
X14065Y14704D01*
X14069Y14696D01*
X14070Y14691D01*
X14071Y14688D01*
X14081Y14669D01*
X14094Y14654D01*
X14108Y14639D01*
X14120Y14628D01*
X14131Y14619D01*
X14141Y14612D01*
X14147Y14608D01*
X14149Y14607D01*
X14150D01*
X14170Y14597D01*
X14191Y14591D01*
X14211Y14586D01*
X14230Y14582D01*
X14246Y14579D01*
X14259Y14578D01*
X14270D01*
X14294Y14579D01*
X14315Y14583D01*
X14334Y14588D01*
X14349Y14594D01*
X14360Y14599D01*
X14369Y14604D01*
X14374Y14608D01*
X14375Y14609D01*
X14386Y14622D01*
X14395Y14634D01*
X14401Y14648D01*
X14405Y14659D01*
X14408Y14671D01*
X14410Y14679D01*
Y14684D01*
Y14687D01*
X14409Y14698D01*
X14408Y14709D01*
X14405Y14718D01*
X14401Y14727D01*
X14399Y14733D01*
X14396Y14739D01*
X14395Y14742D01*
X14394Y14743D01*
X14388Y14752D01*
X14380Y14759D01*
X14365Y14772D01*
X14358Y14776D01*
X14353Y14778D01*
X14349Y14781D01*
X14347D01*
X14335Y14786D01*
X14319Y14791D01*
X14301Y14794D01*
X14285Y14798D01*
X14270Y14801D01*
X14256Y14803D01*
X14251D01*
X14249Y14804D01*
X14245D01*
X14221Y14808D01*
X14200Y14812D01*
X14180Y14816D01*
X14161Y14819D01*
X14144Y14823D01*
X14128Y14827D01*
X14114Y14831D01*
X14101Y14834D01*
X14090Y14837D01*
X14080Y14841D01*
X14071Y14843D01*
X14065Y14846D01*
X14059Y14847D01*
X14055Y14848D01*
X14054Y14849D01*
D02*
G37*
G36*
X8310D02*
X8309D01*
Y14806D01*
X8310Y14778D01*
X8311Y14754D01*
X8315Y14734D01*
X8317Y14718D01*
X8321Y14704D01*
X8325Y14696D01*
X8326Y14691D01*
X8328Y14688D01*
X8338Y14669D01*
X8350Y14654D01*
X8364Y14639D01*
X8376Y14628D01*
X8388Y14619D01*
X8397Y14612D01*
X8404Y14608D01*
X8405Y14607D01*
X8406D01*
X8426Y14597D01*
X8447Y14591D01*
X8468Y14586D01*
X8486Y14582D01*
X8503Y14579D01*
X8515Y14578D01*
X8526D01*
X8550Y14579D01*
X8571Y14583D01*
X8590Y14588D01*
X8605Y14594D01*
X8616Y14599D01*
X8625Y14604D01*
X8630Y14608D01*
X8631Y14609D01*
X8643Y14622D01*
X8651Y14634D01*
X8658Y14648D01*
X8661Y14659D01*
X8664Y14671D01*
X8666Y14679D01*
Y14684D01*
Y14687D01*
X8665Y14698D01*
X8664Y14709D01*
X8661Y14718D01*
X8658Y14727D01*
X8655Y14733D01*
X8652Y14739D01*
X8651Y14742D01*
X8650Y14743D01*
X8644Y14752D01*
X8636Y14759D01*
X8621Y14772D01*
X8614Y14776D01*
X8609Y14778D01*
X8605Y14781D01*
X8604D01*
X8591Y14786D01*
X8575Y14791D01*
X8558Y14794D01*
X8541Y14798D01*
X8526Y14801D01*
X8512Y14803D01*
X8508D01*
X8505Y14804D01*
X8501D01*
X8478Y14808D01*
X8456Y14812D01*
X8436Y14816D01*
X8418Y14819D01*
X8400Y14823D01*
X8384Y14827D01*
X8370Y14831D01*
X8357Y14834D01*
X8346Y14837D01*
X8336Y14841D01*
X8328Y14843D01*
X8321Y14846D01*
X8315Y14847D01*
X8311Y14848D01*
X8310Y14849D01*
D02*
G37*
G36*
X20415Y15114D02*
X20406D01*
X20390Y15113D01*
X20375Y15112D01*
X20346Y15104D01*
X20321Y15093D01*
X20300Y15081D01*
X20284Y15068D01*
X20270Y15057D01*
X20266Y15053D01*
X20262Y15049D01*
X20261Y15048D01*
X20260Y15047D01*
X20250Y15034D01*
X20240Y15019D01*
X20226Y14988D01*
X20215Y14956D01*
X20209Y14924D01*
X20206Y14909D01*
X20204Y14896D01*
X20203Y14884D01*
Y14873D01*
X20201Y14864D01*
Y14858D01*
Y14853D01*
Y14852D01*
Y14827D01*
X20204Y14804D01*
X20206Y14783D01*
X20210Y14763D01*
X20215Y14744D01*
X20220Y14728D01*
X20225Y14713D01*
X20230Y14699D01*
X20236Y14688D01*
X20241Y14678D01*
X20246Y14669D01*
X20251Y14662D01*
X20255Y14657D01*
X20257Y14653D01*
X20259Y14651D01*
X20260Y14649D01*
X20271Y14638D01*
X20282Y14628D01*
X20295Y14618D01*
X20308Y14611D01*
X20333Y14599D01*
X20355Y14592D01*
X20375Y14587D01*
X20384Y14586D01*
X20391Y14584D01*
X20398Y14583D01*
X20406D01*
X20422Y14584D01*
X20438Y14586D01*
X20466Y14593D01*
X20491Y14604D01*
X20512Y14617D01*
X20529Y14628D01*
X20543Y14639D01*
X20546Y14643D01*
X20550Y14647D01*
X20551Y14648D01*
X20552Y14649D01*
X20563Y14663D01*
X20571Y14677D01*
X20586Y14708D01*
X20596Y14742D01*
X20603Y14773D01*
X20605Y14788D01*
X20608Y14803D01*
X20609Y14816D01*
Y14827D01*
X20610Y14836D01*
Y14842D01*
Y14847D01*
Y14848D01*
X20609Y14872D01*
X20608Y14896D01*
X20605Y14917D01*
X20601Y14936D01*
X20596Y14954D01*
X20591Y14971D01*
X20586Y14986D01*
X20581Y14998D01*
X20576Y15011D01*
X20571Y15021D01*
X20566Y15028D01*
X20561Y15036D01*
X20557Y15041D01*
X20555Y15046D01*
X20552Y15047D01*
Y15048D01*
X20541Y15059D01*
X20529Y15071D01*
X20517Y15079D01*
X20505Y15087D01*
X20480Y15098D01*
X20457Y15106D01*
X20438Y15111D01*
X20429Y15112D01*
X20421Y15113D01*
X20415Y15114D01*
D02*
G37*
G36*
X16291Y14849D02*
X16290D01*
Y14806D01*
X16291Y14778D01*
X16293Y14754D01*
X16296Y14734D01*
X16299Y14718D01*
X16302Y14704D01*
X16306Y14696D01*
X16307Y14691D01*
X16309Y14688D01*
X16319Y14669D01*
X16331Y14654D01*
X16345Y14639D01*
X16358Y14628D01*
X16369Y14619D01*
X16379Y14612D01*
X16385Y14608D01*
X16386Y14607D01*
X16387D01*
X16408Y14597D01*
X16429Y14591D01*
X16449Y14586D01*
X16467Y14582D01*
X16484Y14579D01*
X16496Y14578D01*
X16508D01*
X16531Y14579D01*
X16552Y14583D01*
X16571Y14588D01*
X16586Y14594D01*
X16597Y14599D01*
X16606Y14604D01*
X16611Y14608D01*
X16612Y14609D01*
X16624Y14622D01*
X16632Y14634D01*
X16639Y14648D01*
X16643Y14659D01*
X16645Y14671D01*
X16647Y14679D01*
Y14684D01*
Y14687D01*
X16646Y14698D01*
X16645Y14709D01*
X16643Y14718D01*
X16639Y14727D01*
X16636Y14733D01*
X16634Y14739D01*
X16632Y14742D01*
X16631Y14743D01*
X16625Y14752D01*
X16617Y14759D01*
X16602Y14772D01*
X16595Y14776D01*
X16590Y14778D01*
X16586Y14781D01*
X16585D01*
X16573Y14786D01*
X16556Y14791D01*
X16539Y14794D01*
X16523Y14798D01*
X16508Y14801D01*
X16494Y14803D01*
X16489D01*
X16486Y14804D01*
X16482D01*
X16459Y14808D01*
X16437Y14812D01*
X16417Y14816D01*
X16399Y14819D01*
X16381Y14823D01*
X16365Y14827D01*
X16351Y14831D01*
X16339Y14834D01*
X16328Y14837D01*
X16317Y14841D01*
X16309Y14843D01*
X16302Y14846D01*
X16296Y14847D01*
X16293Y14848D01*
X16291Y14849D01*
D02*
G37*
%LPD*%
M02*
