G04 Layer_Color=8421504*
%FSLAX24Y24*%
%MOIN*%
G70*
G01*
G75*
%ADD10R,0.0433X0.0433*%
%ADD11R,0.0433X0.0433*%
%ADD12R,0.0748X0.0433*%
%ADD13R,0.0512X0.0335*%
%ADD14R,0.0177X0.0394*%
%ADD15R,0.0138X0.0138*%
%ADD16R,0.0335X0.0512*%
%ADD17R,0.0394X0.0354*%
%ADD18R,0.0472X0.0315*%
%ADD19R,0.0315X0.0472*%
%ADD20R,0.2500X0.1299*%
%ADD21R,0.2500X0.1500*%
%ADD22R,0.1598X0.1299*%
%ADD27R,0.0354X0.0315*%
%ADD28R,0.0354X0.0394*%
%ADD37R,0.0197X0.0886*%
%ADD63R,0.0336X0.0577*%
%ADD64R,0.0370X0.0910*%
%ADD65R,0.0910X0.0370*%
%ADD66R,0.0190X0.3150*%
%ADD67R,0.0190X0.3120*%
%ADD68R,0.3120X0.0190*%
%ADD69R,0.3170X0.0190*%
%ADD70R,0.1330X0.1300*%
%ADD71R,0.1360X0.1310*%
%ADD72R,0.1350X0.1330*%
%ADD73R,0.1330X0.1330*%
%ADD74R,0.0090X0.0790*%
%ADD75R,0.0090X0.0800*%
G04:AMPARAMS|DCode=76|XSize=31.4mil|YSize=59mil|CornerRadius=0mil|HoleSize=0mil|Usage=FLASHONLY|Rotation=180.000|XOffset=0mil|YOffset=0mil|HoleType=Round|Shape=RoundedRectangle|*
%AMROUNDEDRECTD76*
21,1,0.0314,0.0590,0,0,180.0*
21,1,0.0314,0.0590,0,0,180.0*
1,1,0.0000,-0.0157,0.0295*
1,1,0.0000,0.0157,0.0295*
1,1,0.0000,0.0157,-0.0295*
1,1,0.0000,-0.0157,-0.0295*
%
%ADD76ROUNDEDRECTD76*%
%ADD77R,0.0393X0.0393*%
%ADD78R,0.0314X0.0236*%
%ADD79R,0.0393X0.0393*%
%ADD80R,0.1102X0.0251*%
%ADD81R,0.0354X0.0314*%
%ADD82R,0.0314X0.0354*%
%ADD83R,0.0295X0.0472*%
%ADD84R,0.0432X0.0649*%
%ADD85O,0.0708X0.0196*%
%ADD86R,0.0472X0.0373*%
%ADD87R,0.0141X0.0310*%
%ADD88R,0.0310X0.0141*%
D10*
X9116Y11296D02*
D03*
Y12004D02*
D03*
X15036Y11484D02*
D03*
Y10776D02*
D03*
X11296Y11584D02*
D03*
Y10876D02*
D03*
D11*
X9672Y10680D02*
D03*
X10380D02*
D03*
X11246Y22225D02*
D03*
X10537D02*
D03*
X13742Y14520D02*
D03*
X14450D02*
D03*
X6632Y8050D02*
D03*
X7340D02*
D03*
D12*
X10226Y12432D02*
D03*
Y11448D02*
D03*
D13*
X4936Y19165D02*
D03*
Y18495D02*
D03*
X3996Y18525D02*
D03*
Y19195D02*
D03*
X3076Y19095D02*
D03*
Y18425D02*
D03*
X9066Y9595D02*
D03*
Y10265D02*
D03*
X5966Y11835D02*
D03*
Y11165D02*
D03*
D14*
X10280Y19860D02*
D03*
X10792D02*
D03*
D15*
X10536Y19732D02*
D03*
Y19988D02*
D03*
D16*
X21371Y18350D02*
D03*
X20701D02*
D03*
X5821Y14590D02*
D03*
X6491D02*
D03*
X6681Y18100D02*
D03*
X7351D02*
D03*
X6491Y13820D02*
D03*
X5821D02*
D03*
X6691Y11860D02*
D03*
X7361D02*
D03*
D17*
X10536Y17735D02*
D03*
Y18365D02*
D03*
D18*
X19536Y17935D02*
D03*
Y17345D02*
D03*
D19*
X12971Y14250D02*
D03*
X12381D02*
D03*
X13671Y18870D02*
D03*
X13081D02*
D03*
X11901Y13370D02*
D03*
X12491D02*
D03*
D20*
X20455Y9074D02*
D03*
D21*
Y14306D02*
D03*
D22*
X16857Y11475D02*
D03*
D27*
X10528Y20796D02*
D03*
Y21348D02*
D03*
D28*
X17111Y17580D02*
D03*
X16481D02*
D03*
D37*
X8366Y10717D02*
D03*
X7866D02*
D03*
X7366D02*
D03*
X6866D02*
D03*
Y9043D02*
D03*
X7366D02*
D03*
X7866D02*
D03*
X8366D02*
D03*
D63*
X21356Y17260D02*
D03*
D64*
X16691Y19555D02*
D03*
X17501Y19585D02*
D03*
X18251Y19575D02*
D03*
X19061Y19565D02*
D03*
X19851Y19555D02*
D03*
X20621Y19585D02*
D03*
D65*
X21731Y21155D02*
D03*
Y21955D02*
D03*
X21741Y22735D02*
D03*
Y23525D02*
D03*
X21731Y24315D02*
D03*
Y25885D02*
D03*
X21741Y25105D02*
D03*
Y20395D02*
D03*
X15591Y20385D02*
D03*
Y25095D02*
D03*
X15581Y25875D02*
D03*
Y24305D02*
D03*
X15591Y23515D02*
D03*
Y22725D02*
D03*
X15581Y21945D02*
D03*
Y21145D02*
D03*
D66*
X7441Y15285D02*
D03*
D67*
X11051Y15270D02*
D03*
D68*
X9236Y17075D02*
D03*
D69*
X9231Y13485D02*
D03*
D70*
X10061Y16090D02*
D03*
D71*
X8456Y16085D02*
D03*
D72*
X8451Y14465D02*
D03*
D73*
X10051D02*
D03*
D74*
X20983Y17266D02*
D03*
D75*
X21753Y17282D02*
D03*
D76*
X21356Y17260D02*
D03*
D77*
X21600Y15770D02*
D03*
X20892D02*
D03*
X14430Y15590D02*
D03*
X13722D02*
D03*
X6480Y15470D02*
D03*
X5772D02*
D03*
X13722Y16650D02*
D03*
X14430D02*
D03*
D78*
X19516Y16406D02*
D03*
Y15854D02*
D03*
D79*
X9016Y18546D02*
D03*
Y19254D02*
D03*
X6056Y19224D02*
D03*
Y18516D02*
D03*
X14066Y11574D02*
D03*
Y10866D02*
D03*
D80*
X5256Y21800D02*
D03*
Y22300D02*
D03*
Y22800D02*
D03*
Y23300D02*
D03*
Y23800D02*
D03*
X3456D02*
D03*
Y23300D02*
D03*
Y22800D02*
D03*
Y22300D02*
D03*
Y21800D02*
D03*
D81*
X13236Y9355D02*
D03*
Y9985D02*
D03*
X13216Y8085D02*
D03*
Y8715D02*
D03*
D82*
X14181Y8340D02*
D03*
X14811D02*
D03*
X14791Y9070D02*
D03*
X14161D02*
D03*
X14181Y9810D02*
D03*
X14811D02*
D03*
D83*
X12331Y18130D02*
D03*
X13001D02*
D03*
D84*
X11234Y26620D02*
D03*
X12356D02*
D03*
D85*
X12201Y9910D02*
D03*
Y9410D02*
D03*
Y8910D02*
D03*
Y8410D02*
D03*
X10351Y9910D02*
D03*
Y9410D02*
D03*
Y8910D02*
D03*
Y8410D02*
D03*
D86*
X7143Y19414D02*
D03*
Y18686D02*
D03*
X8049D02*
D03*
Y19414D02*
D03*
D87*
X12829Y11563D02*
D03*
X12530D02*
D03*
X12230D02*
D03*
X13128D02*
D03*
X12230Y10973D02*
D03*
X13128D02*
D03*
X12829D02*
D03*
X12530D02*
D03*
D88*
X6270Y16607D02*
D03*
Y16906D02*
D03*
Y17206D02*
D03*
Y16308D02*
D03*
X5679Y17206D02*
D03*
Y16308D02*
D03*
Y16607D02*
D03*
Y16906D02*
D03*
X12243Y16053D02*
D03*
Y15754D02*
D03*
Y15454D02*
D03*
Y16352D02*
D03*
X12834Y15454D02*
D03*
Y16352D02*
D03*
Y16053D02*
D03*
Y15754D02*
D03*
M02*
