G04 Layer_Color=8421504*
%FSLAX24Y24*%
%MOIN*%
G70*
G01*
G75*
%ADD10R,0.0433X0.0433*%
%ADD11R,0.0433X0.0433*%
%ADD12R,0.0748X0.0433*%
%ADD13R,0.0512X0.0335*%
%ADD14R,0.0177X0.0394*%
%ADD15R,0.0138X0.0138*%
%ADD16R,0.0335X0.0512*%
%ADD17R,0.0394X0.0354*%
%ADD18R,0.0472X0.0315*%
%ADD19R,0.0315X0.0472*%
%ADD20R,0.2500X0.1299*%
%ADD21R,0.2500X0.1500*%
%ADD22R,0.1598X0.1299*%
%ADD27R,0.0354X0.0315*%
%ADD28R,0.0354X0.0394*%
%ADD37R,0.0197X0.0886*%
%ADD63R,0.0336X0.0577*%
%ADD64R,0.0370X0.0910*%
%ADD65R,0.0910X0.0370*%
%ADD66R,0.0190X0.3150*%
%ADD67R,0.0190X0.3120*%
%ADD68R,0.3120X0.0190*%
%ADD69R,0.3170X0.0190*%
%ADD70R,0.1330X0.1300*%
%ADD71R,0.1360X0.1310*%
%ADD72R,0.1350X0.1330*%
%ADD73R,0.1330X0.1330*%
%ADD74R,0.0090X0.0790*%
%ADD75R,0.0090X0.0800*%
G04:AMPARAMS|DCode=76|XSize=31.4mil|YSize=59mil|CornerRadius=0mil|HoleSize=0mil|Usage=FLASHONLY|Rotation=180.000|XOffset=0mil|YOffset=0mil|HoleType=Round|Shape=RoundedRectangle|*
%AMROUNDEDRECTD76*
21,1,0.0314,0.0590,0,0,180.0*
21,1,0.0314,0.0590,0,0,180.0*
1,1,0.0000,-0.0157,0.0295*
1,1,0.0000,0.0157,0.0295*
1,1,0.0000,0.0157,-0.0295*
1,1,0.0000,-0.0157,-0.0295*
%
%ADD76ROUNDEDRECTD76*%
%ADD77R,0.0393X0.0393*%
%ADD78R,0.0314X0.0236*%
%ADD79R,0.0393X0.0393*%
%ADD80R,0.1102X0.0251*%
%ADD81R,0.0354X0.0314*%
%ADD82R,0.0314X0.0354*%
%ADD83R,0.0295X0.0472*%
%ADD84R,0.0432X0.0649*%
%ADD85O,0.0708X0.0196*%
%ADD86R,0.0472X0.0373*%
%ADD87R,0.0141X0.0310*%
%ADD88R,0.0310X0.0141*%
D10*
X11517Y11296D02*
D03*
Y12004D02*
D03*
X17437Y11484D02*
D03*
Y10776D02*
D03*
X13697Y11584D02*
D03*
Y10876D02*
D03*
D11*
X12073Y10680D02*
D03*
X12781D02*
D03*
X13647Y22225D02*
D03*
X12938D02*
D03*
X16143Y14520D02*
D03*
X16851D02*
D03*
X9033Y8050D02*
D03*
X9741D02*
D03*
D12*
X12627Y12432D02*
D03*
Y11448D02*
D03*
D13*
X7337Y19165D02*
D03*
Y18495D02*
D03*
X6397Y18525D02*
D03*
Y19195D02*
D03*
X5477Y19095D02*
D03*
Y18425D02*
D03*
X11467Y9595D02*
D03*
Y10265D02*
D03*
X8367Y11835D02*
D03*
Y11165D02*
D03*
D14*
X12681Y19860D02*
D03*
X13193D02*
D03*
D15*
X12937Y19732D02*
D03*
Y19988D02*
D03*
D16*
X23772Y18350D02*
D03*
X23102D02*
D03*
X8222Y14590D02*
D03*
X8892D02*
D03*
X9082Y18100D02*
D03*
X9752D02*
D03*
X8892Y13820D02*
D03*
X8222D02*
D03*
X9092Y11860D02*
D03*
X9762D02*
D03*
D17*
X12937Y17735D02*
D03*
Y18365D02*
D03*
D18*
X21937Y17935D02*
D03*
Y17345D02*
D03*
D19*
X15372Y14250D02*
D03*
X14782D02*
D03*
X16072Y18870D02*
D03*
X15482D02*
D03*
X14302Y13370D02*
D03*
X14892D02*
D03*
D20*
X22856Y9074D02*
D03*
D21*
Y14306D02*
D03*
D22*
X19258Y11475D02*
D03*
D27*
X12928Y20796D02*
D03*
Y21348D02*
D03*
D28*
X19512Y17580D02*
D03*
X18882D02*
D03*
D37*
X10767Y10717D02*
D03*
X10267D02*
D03*
X9767D02*
D03*
X9267D02*
D03*
Y9043D02*
D03*
X9767D02*
D03*
X10267D02*
D03*
X10767D02*
D03*
D63*
X23757Y17260D02*
D03*
D64*
X19092Y19555D02*
D03*
X19902Y19585D02*
D03*
X20652Y19575D02*
D03*
X21462Y19565D02*
D03*
X22252Y19555D02*
D03*
X23022Y19585D02*
D03*
D65*
X24132Y21155D02*
D03*
Y21955D02*
D03*
X24142Y22735D02*
D03*
Y23525D02*
D03*
X24132Y24315D02*
D03*
Y25885D02*
D03*
X24142Y25105D02*
D03*
Y20395D02*
D03*
X17992Y20385D02*
D03*
Y25095D02*
D03*
X17982Y25875D02*
D03*
Y24305D02*
D03*
X17992Y23515D02*
D03*
Y22725D02*
D03*
X17982Y21945D02*
D03*
Y21145D02*
D03*
D66*
X9842Y15285D02*
D03*
D67*
X13452Y15270D02*
D03*
D68*
X11637Y17075D02*
D03*
D69*
X11632Y13485D02*
D03*
D70*
X12462Y16090D02*
D03*
D71*
X10857Y16085D02*
D03*
D72*
X10852Y14465D02*
D03*
D73*
X12452D02*
D03*
D74*
X23384Y17266D02*
D03*
D75*
X24154Y17282D02*
D03*
D76*
X23757Y17260D02*
D03*
D77*
X24001Y15770D02*
D03*
X23293D02*
D03*
X16831Y15590D02*
D03*
X16123D02*
D03*
X8881Y15470D02*
D03*
X8173D02*
D03*
X16123Y16650D02*
D03*
X16831D02*
D03*
D78*
X21917Y16406D02*
D03*
Y15854D02*
D03*
D79*
X11417Y18546D02*
D03*
Y19254D02*
D03*
X8457Y19224D02*
D03*
Y18516D02*
D03*
X16467Y11574D02*
D03*
Y10866D02*
D03*
D80*
X7657Y21800D02*
D03*
Y22300D02*
D03*
Y22800D02*
D03*
Y23300D02*
D03*
Y23800D02*
D03*
X5857D02*
D03*
Y23300D02*
D03*
Y22800D02*
D03*
Y22300D02*
D03*
Y21800D02*
D03*
D81*
X15637Y9355D02*
D03*
Y9985D02*
D03*
X15617Y8085D02*
D03*
Y8715D02*
D03*
D82*
X16582Y8340D02*
D03*
X17212D02*
D03*
X17192Y9070D02*
D03*
X16562D02*
D03*
X16582Y9810D02*
D03*
X17212D02*
D03*
D83*
X14732Y18130D02*
D03*
X15402D02*
D03*
D84*
X13634Y26620D02*
D03*
X14756D02*
D03*
D85*
X14602Y9910D02*
D03*
Y9410D02*
D03*
Y8910D02*
D03*
Y8410D02*
D03*
X12752Y9910D02*
D03*
Y9410D02*
D03*
Y8910D02*
D03*
Y8410D02*
D03*
D86*
X9544Y19414D02*
D03*
Y18686D02*
D03*
X10450D02*
D03*
Y19414D02*
D03*
D87*
X15230Y11563D02*
D03*
X14930D02*
D03*
X14631D02*
D03*
X15529D02*
D03*
X14631Y10973D02*
D03*
X15529D02*
D03*
X15230D02*
D03*
X14930D02*
D03*
D88*
X8670Y16607D02*
D03*
Y16906D02*
D03*
Y17206D02*
D03*
Y16308D02*
D03*
X8080Y17206D02*
D03*
Y16308D02*
D03*
Y16607D02*
D03*
Y16906D02*
D03*
X14643Y16053D02*
D03*
Y15754D02*
D03*
Y15454D02*
D03*
Y16352D02*
D03*
X15234Y15454D02*
D03*
Y16352D02*
D03*
Y16053D02*
D03*
Y15754D02*
D03*
M02*
